<svg xmlns="http://www.w3.org/2000/svg" viewBox="0 0 369.04 512"><defs><style>.cls-1{fill:#fff;}</style></defs><title>White_1</title><g id="Layer_2" data-name="Layer 2"><g id="logo-mark"><g id="White"><path class="cls-1" d="M278.28,0a90.87,90.87,0,0,0-90.77,90.76c0,1.11,0,2.22.06,3.33-30.37,11.48-57.39,28.73-78.2,50-21.07,21.49-35.91,47.16-42.92,74.23l-.78,3H92.49l.52-1.68c13.26-43.28,49.41-79.45,99.37-99.53A91.71,91.71,0,0,0,224,163.44a89.87,89.87,0,0,0,54.31,18.09A90.77,90.77,0,0,0,278.28,0Zm0,155.62a65.33,65.33,0,0,1-64.06-54.71v-.09l0-.21a62.84,62.84,0,0,1-.76-9.85,64.86,64.86,0,1,1,64.86,64.86ZM299,90.76a20.67,20.67,0,1,1-20.67-20.67A20.69,20.69,0,0,1,299,90.76ZM151,256a13,13,0,0,1-13,13H13a13,13,0,1,1,0-25.9H138A13,13,0,0,1,151,256Zm127.32,74.48A89.87,89.87,0,0,0,224,348.57a91.8,91.8,0,0,0-31.58,43.37C142.44,371.88,106.3,335.73,93,292.41l-.52-1.68H65.69l.78,3c7,27.07,21.86,52.75,42.91,74.23,20.82,21.24,47.82,38.49,78.19,50,0,1.11-.06,2.22-.06,3.33a90.77,90.77,0,1,0,90.77-90.77Zm0,155.61a64.91,64.91,0,0,1-64.86-64.84,62.84,62.84,0,0,1,.76-9.85l0-.22v-.1c4.92-31.18,32.46-54.69,64.06-54.69a64.85,64.85,0,1,1,0,129.7ZM299,421.24a20.67,20.67,0,1,1-20.67-20.67A20.69,20.69,0,0,1,299,421.24Z"/></g></g></g></svg>