<svg xmlns="http://www.w3.org/2000/svg" viewBox="0 0 400 400"><g fill-rule="evenodd"><path d="M195.8 100.5a94 94 0 00-9.8 1.5 62.9 62.9 0 00-10.6 2.8 106.6 106.6 0 00-46.4 31.4 21.2 21.2 0 01-1.4 1.8c-2 1.5-8.1 11.5-11.4 18.4-3 6.1-2.9 5.8-4 9a101 101 0 004.6 79.8 101.9 101.9 0 0030.4 35.6 103 103 0 0036 16.6l5.6 1.2a97.1 97.1 0 0038-.6 736.5 736.5 0 0114.9-4.4 90.1 90.1 0 013.7-1.6 114 114 0 0019.5-11 64.5 64.5 0 0011.5-10.3c0-.5-29-29.7-30-30.3-.6-.3-1.1 0-2.5 1.2a56.2 56.2 0 11-61.1-92.8l2.8-1.2a60.8 60.8 0 0134.8-2 22.6 22.6 0 016.6 2.4c.7 0 4.5 1.8 7.2 3.3a52.9 52.9 0 019 6.5c1.2 1.2 2.5 2.2 2.7 2.2 1 0 30.6-30.3 30.3-31-.1-.5-1.5-1.9-3-3.2a248.7 248.7 0 01-3.5-3 103.9 103.9 0 00-51.3-22c-4.7-.6-19-.8-22.6-.4" fill="#f9fafb"/><path d="M0 200v200h400V0H0v200m218.4-99.3a104 104 0 0154.8 25.1c1.5 1.3 2.9 2.7 3 3.1.3.8-29.4 31.1-30.3 31.1-.2 0-1.5-1-2.8-2.2a52.9 52.9 0 00-8.9-6.5 38.2 38.2 0 00-8-3.7c-.2-.3-2.5-1-5.8-2a61 61 0 00-37.6 3.3 56.4 56.4 0 00-27 76.3 56.7 56.7 0 0088.1 16.4c1.4-1.2 2-1.5 2.4-1.2 1.2.6 30.1 29.8 30.1 30.3 0 .8-6 6.2-11.5 10.3-4.3 3.3-13.9 8.7-19.5 11a90.1 90.1 0 00-3.8 1.6l-5.4 1.8-6.6 2c-1 .3-2.3.6-2.8.6l-4 .6c-10.4 2-21.6 2-34 0a54 54 0 01-5.7-1.2 13.5 13.5 0 00-2.4-.6 96.7 96.7 0 01-46-26.8 99.3 99.3 0 01-7.1-132l1.4-1.8a106.6 106.6 0 0146.4-31.4 62 62 0 0114.8-3.5 123 123 0 0128.2-.6" fill="#1453f3"/></g></svg>