<svg xmlns="http://www.w3.org/2000/svg" width="400" height="400"><g fill-rule="evenodd"><path d="M195.8 100.45c-1.76.2-4.28.57-5.6.82-1.32.25-3.21.58-4.2.74-2.38.37-8.42 1.94-9.3 2.42-.38.2-.97.37-1.32.37-.54 0-5.61 1.93-10.18 3.87-12.24 5.2-29.12 18.04-36.2 27.53a21.2 21.2 0 01-1.44 1.8c-1.9 1.51-8.09 11.51-11.4 18.4-2.96 6.13-2.81 5.81-3.99 9-9.51 25.84-7.8 55.57 4.61 79.8a101.86 101.86 0 0030.42 35.65c7.08 5.1 13.04 8.43 21.8 12.15 2.28.96 11.01 3.8 11.7 3.8.33 0 1.43.26 2.45.58 1.02.31 3.56.85 5.65 1.18 12.4 2 23.63 2 34 .01 1.66-.31 3.44-.57 3.95-.57.52 0 1.78-.27 2.8-.6 1.02-.32 4.01-1.23 6.65-2.02 2.64-.8 5.08-1.59 5.43-1.77a90.1 90.1 0 013.8-1.63c5.6-2.31 15.2-7.7 19.47-10.94 5.46-4.14 11.5-9.56 11.5-10.31 0-.5-28.94-29.7-30.07-30.35-.52-.29-1.06-.01-2.4 1.25-24.74 23.3-67.28 17.69-85.15-11.23-18.28-29.57-6.91-68.12 24.04-81.55l2.78-1.22c8.2-3.88 24.49-4.83 34.8-2.02 3.3.9 5.63 1.71 5.83 2.04.12.2.48.35.81.35.62 0 4.42 1.76 7.16 3.3a52.9 52.9 0 018.93 6.5c1.3 1.2 2.53 2.2 2.72 2.2.97 0 30.63-30.32 30.37-31.05-.15-.41-1.53-1.83-3.07-3.15a248.7 248.7 0 01-3.47-3.02c-11.4-10.44-34-20.16-51.28-22.05-4.66-.51-19.04-.7-22.6-.28" fill="#f9fafb"/><path d="M0 200v200h400V0H0v200m218.4-99.27c17.27 1.89 39.88 11.61 51.28 22.05.37.34 1.93 1.7 3.47 3.02 1.54 1.32 2.92 2.74 3.07 3.15.26.73-29.4 31.05-30.37 31.05-.19 0-1.41-1-2.72-2.2a52.9 52.9 0 00-8.93-6.5c-2.74-1.54-6.54-3.3-7.16-3.3-.33 0-.7-.16-.81-.35-.2-.33-2.52-1.14-5.83-2.04-10.31-2.8-26.6-1.86-34.8 2.01-.33.16-1.58.71-2.78 1.23-28.69 12.44-40.9 46.87-27.1 76.35 11.9 25.45 43.45 37.49 71.08 27.14 5.06-1.9 13.13-6.94 17.13-10.7 1.34-1.27 1.88-1.55 2.4-1.26 1.13.65 30.07 29.85 30.07 30.35 0 .75-6.04 6.17-11.5 10.3-4.28 3.25-13.87 8.64-19.47 10.95a90.1 90.1 0 00-3.8 1.63c-.35.18-2.79.98-5.43 1.77-2.64.79-5.63 1.7-6.65 2.03-1.02.32-2.28.59-2.8.59-.51 0-2.29.26-3.94.57-10.38 1.99-21.6 1.98-34.01 0a54.07 54.07 0 01-5.65-1.2 13.47 13.47 0 00-2.44-.57c-.7 0-9.44-2.84-11.71-3.8-14.43-6.13-23.46-12.2-34.2-22.98-23.27-23.34-33.33-56.99-26.8-89.62 1.36-6.83 3.62-14.36 5.57-18.6 3.02-6.54 5.47-11.3 7.61-14.8 1.08-1.77 5.98-8.68 6.38-9 .13-.11.78-.92 1.44-1.8 7.08-9.5 23.96-22.32 36.2-27.53 4.57-1.94 9.64-3.87 10.18-3.87.35 0 .94-.17 1.33-.37.87-.48 6.9-2.05 9.29-2.42.99-.16 2.88-.5 4.2-.74 6.33-1.2 19.86-1.46 28.2-.54" fill="#1453f3"/></g></svg>