<svg version="1.0" xmlns="http://www.w3.org/2000/svg" viewBox="0 0 200 200"><path fill="#3b1576" d="M18 .9A26 26 0 002.4 14C.6 17.3.5 21.4.5 100s.1 82.7 1.9 86c2.6 4.9 6.4 8.8 11.1 11.3l4 2.2h165l4-2.2c4.7-2.5 8.5-6.4 11.1-11.3 1.8-3.3 1.9-7.4 1.9-86s-.1-82.7-1.9-86a26.9 26.9 0 00-11.1-11.3c-4-2.2-4.1-2.2-85-2.4C57 .2 19.4.5 18 .9zm129.9 43.7c2.7 3.5 2.6 5.9-.4 8.9l-2.4 2.5h-39.4c-29.2 0-39.6.3-40.5 1.2-1.6 1.6-1.7 82.9-.2 85.9 1 1.8 2.5 1.9 40.1 1.9 38.7 0 42 .3 44.1 3.4 1.5 2.2.8 6.6-1.4 8.6-2.1 1.9-3.3 2-42.4 2-26 0-41.3-.4-43.1-1.1-3.4-1.3-8-5.5-9.9-9.1-2.1-4-2.1-92.6 0-96.6 1.8-3.5 6.4-7.8 9.6-9.1 1.5-.6 18.7-1 43.2-1l40.7-.1 2 2.6z"/></svg>