<svg viewBox="0 0 256 293" xmlns="http://www.w3.org/2000/svg" preserveAspectRatio="xMidYMid"><path d="M226 0H30A30 30 0 000 30.1V228A30 30 0 0030 258h165.9l-7.8-27 18.8 17.4 17.6 16.4 31.5 27.8V30A30 30 0 00226 0zm-56.5 191s-5.2-6.2-9.6-11.8c19.1-5.4 26.5-17.4 26.5-17.4a83.6 83.6 0 01-16.9 8.6 96.3 96.3 0 01-21.2 6.3 102.5 102.5 0 01-37.9-.1 122.9 122.9 0 01-21.5-6.3 85.8 85.8 0 01-10.6-5l-1.4-.7-.5-.5c-2.7-1.4-4.1-2.4-4.1-2.4s7 11.7 25.6 17.2a922 922 0 01-9.8 12.2c-32.4-1-44.7-22.3-44.7-22.3 0-47 21.1-85.3 21.1-85.3 21-15.8 41.1-15.3 41.1-15.3l1.5 1.7c-26.4 7.6-38.5 19.2-38.5 19.2s3.2-1.8 8.6-4.2c15.7-7 28.1-8.8 33.2-9.3l2.5-.3a123.8 123.8 0 0129.6-.3c13.9 1.7 28.8 5.8 44 14 0 0-11.5-10.9-36.4-18.5l2-2.3s20-.5 41.1 15.3c0 0 21.1 38.2 21.1 85.3 0 0-12.4 21.2-44.8 22.2zm-68-68.3c-8.3 0-14.9 7.4-14.9 16.3s6.7 16.2 15 16.2 14.8-7.3 14.8-16.2c.2-9-6.5-16.3-14.9-16.3m53.4 0c-8.3 0-15 7.4-15 16.3s6.8 16.2 15 16.2c8.3 0 15-7.3 15-16.2 0-9-6.7-16.3-15-16.3" fill="#7289DA"/></svg>