<svg width="2184" height="2500" viewBox="0 0 256 293" xmlns="http://www.w3.org/2000/svg" preserveAspectRatio="xMidYMid"><path d="M226.01 0H30A30.06 30.06 0 000 30.14V227.9a30.06 30.06 0 0029.99 30.14h165.89l-7.76-27.07 18.73 17.41 17.7 16.39 31.45 27.8V30.13A30.06 30.06 0 00226.01 0zm-56.46 191.05s-5.27-6.3-9.66-11.85c19.16-5.41 26.48-17.4 26.48-17.4a83.6 83.6 0 01-16.83 8.62 96.27 96.27 0 01-21.2 6.3 102.48 102.48 0 01-37.9-.15 122.89 122.89 0 01-21.5-6.3 85.83 85.83 0 01-10.68-4.97c-.44-.29-.88-.44-1.31-.73-.3-.14-.44-.3-.59-.44-2.63-1.46-4.1-2.48-4.1-2.48s7.03 11.7 25.6 17.26a922 922 0 01-9.8 12.14c-32.33-1.02-44.61-22.24-44.61-22.24 0-47.1 21.06-85.28 21.06-85.28 21.07-15.8 41.1-15.36 41.1-15.36l1.47 1.76c-26.33 7.6-38.47 19.16-38.47 19.16s3.22-1.76 8.63-4.24c15.65-6.88 28.09-8.78 33.2-9.22.88-.15 1.62-.3 2.5-.3a123.78 123.78 0 0129.54-.29c13.9 1.61 28.82 5.71 44.03 14.05 0 0-11.55-10.97-36.42-18.58l2.05-2.34s20.04-.44 41.1 15.36c0 0 21.07 38.18 21.07 85.28 0 0-12.44 21.21-44.77 22.24zm-68.03-68.32c-8.34 0-14.92 7.32-14.92 16.24 0 8.93 6.73 16.24 14.92 16.24 8.34 0 14.92-7.32 14.92-16.24.15-8.92-6.58-16.24-14.92-16.24m53.4 0c-8.34 0-14.93 7.32-14.93 16.24 0 8.93 6.73 16.24 14.93 16.24 8.33 0 14.92-7.32 14.92-16.24 0-8.92-6.59-16.24-14.92-16.24" fill="#7289DA"/></svg>