<svg viewBox="0 0 256 249" xmlns="http://www.w3.org/2000/svg" preserveAspectRatio="xMinYMin meet"><g fill="#161614"><path d="M127.5 0a127.5 127.5 0 00-40.3 248.5c6.4 1.2 8.7-2.8 8.7-6.1l-.2-23.8c-35.4 7.7-43-15-43-15-5.7-14.8-14-18.7-14-18.7-11.6-7.9.8-7.7.8-7.7 12.8.9 19.5 13.1 19.5 13.1C70.4 209.8 89 204.2 96.1 201a27.2 27.2 0 018.1-17c-28.3-3.3-58-14.2-58-63 0-14 5-25.4 13-34.3A45.8 45.8 0 0160.6 53s10.7-3.4 35 13a122.2 122.2 0 0132-4.3c10.8.1 21.8 1.5 32 4.4 24.3-16.5 35-13.1 35-13.1 7 17.5 2.5 30.5 1.2 33.7C204 95.6 209 107 209 121c0 49-29.9 59.7-58.3 62.8 4.6 4 8.7 11.8 8.7 23.7l-.2 35c0 3.3 2.3 7.3 8.8 6A127.5 127.5 0 00127.5 0"/><path d="M47.8 181.6c-.3.7-1.3.9-2.2.4-1-.4-1.5-1.3-1.2-1.9.3-.6 1.3-.8 2.2-.4 1 .4 1.5 1.3 1.2 2m6.2 5.5c-.6.6-1.8.3-2.6-.6-.8-.9-1-2-.3-2.6.6-.6 1.7-.3 2.6.6.8.9 1 2 .3 2.6m4.3 7.2c-.7.5-2 0-2.8-1.1-.8-1.1-.8-2.5 0-3 .8-.6 2-.1 2.9 1 .7 1.2.7 2.5 0 3m7.2 8.4c-.7.7-2.2.5-3.3-.5-1-1-1.4-2.5-.7-3.3.7-.7 2.2-.5 3.3.5 1.1 1 1.4 2.5.7 3.3m9.4 2.8c-.3 1-1.7 1.4-3.2 1-1.4-.4-2.4-1.6-2-2.6.2-1 1.7-1.5 3.1-1 1.5.4 2.4 1.6 2.1 2.6m10.7 1.2c0 1-1.2 1.9-2.7 2-1.5 0-2.7-1-2.8-2 0-1 1.2-1.9 2.8-1.9 1.5 0 2.7.8 2.7 1.9m10.5-.4c.2 1-.8 2-2.3 2.3-1.5.3-2.9-.3-3-1.3-.3-1.1.8-2.2 2.3-2.4 1.5-.3 2.8.3 3 1.4"/></g></svg>