<svg width="2500" height="2432" viewBox="0 0 256 249" xmlns="http://www.w3.org/2000/svg" preserveAspectRatio="xMinYMin meet"><g fill="#161614"><path d="M127.5 0C57.1 0 0 57.09 0 127.5c0 56.34 36.53 104.13 87.2 121 6.37 1.18 8.7-2.77 8.7-6.14 0-3.04-.11-13.08-.17-23.74-35.47 7.71-42.95-15.04-42.95-15.04-5.8-14.74-14.16-18.66-14.16-18.66-11.57-7.91.87-7.75.87-7.75 12.8.9 19.55 13.14 19.55 13.14 11.37 19.5 29.83 13.86 37.1 10.6 1.15-8.24 4.45-13.87 8.1-17.05-28.32-3.23-58.1-14.16-58.1-63.01 0-13.92 4.99-25.3 13.14-34.23-1.32-3.21-5.69-16.18 1.24-33.74 0 0 10.7-3.43 35.07 13.07a122.15 122.15 0 0131.91-4.3c10.84.06 21.76 1.47 31.95 4.3 24.33-16.5 35.03-13.07 35.03-13.07 6.94 17.56 2.57 30.53 1.25 33.74 8.17 8.93 13.12 20.3 13.12 34.23 0 48.97-29.83 59.75-58.22 62.9 4.57 3.96 8.65 11.72 8.65 23.62 0 17.06-.15 30.8-.15 35 0 3.38 2.3 7.36 8.76 6.1C218.52 231.6 255 183.83 255 127.5 255 57.08 197.92 0 127.5 0"/><path d="M47.76 181.63c-.28.64-1.28.83-2.19.4-.93-.42-1.45-1.29-1.15-1.92.28-.66 1.28-.84 2.2-.4.93.42 1.46 1.29 1.13 1.92m6.28 5.6c-.61.56-1.8.3-2.6-.59-.84-.89-1-2.08-.38-2.65.63-.56 1.78-.3 2.62.6.83.89 1 2.07.36 2.64m4.3 7.16c-.78.54-2.06.03-2.85-1.1-.78-1.13-.78-2.5.02-3.04.79-.54 2.05-.05 2.85 1.07.78 1.15.78 2.51-.02 3.07m7.28 8.3c-.7.76-2.2.56-3.28-.5-1.12-1.02-1.43-2.48-.73-3.25.71-.78 2.2-.56 3.3.48 1.11 1.03 1.45 2.5.7 3.26m9.41 2.8c-.3 1-1.74 1.46-3.19 1.03-1.44-.44-2.38-1.6-2.09-2.61.3-1.01 1.74-1.48 3.2-1.03 1.43.44 2.38 1.6 2.08 2.61m10.7 1.19c.04 1.05-1.18 1.92-2.7 1.94-1.53.04-2.76-.82-2.78-1.85 0-1.06 1.2-1.92 2.73-1.95 1.51-.03 2.75.81 2.75 1.86m10.52-.4c.18 1.02-.87 2.08-2.38 2.36-1.48.27-2.85-.37-3.04-1.38-.18-1.05.9-2.1 2.37-2.38 1.5-.26 2.86.35 3.05 1.4"/></g></svg>