<svg xmlns="http://www.w3.org/2000/svg" viewBox="0 0 448 512"><path d="M196 124c0-2 2-3 3-3h6v1l-3 1-3 2-3-1zm25-1l3 2 3-1c0-2-2-3-4-3l-5-1-1 2 4 1zm214 311c0 8-6 13-13 18-15 9-38 16-51 32l-3-2 3 2a73 73 0 01-49 28c-16 1-32-6-40-23l-2-7c-22 1-41-5-55-4-22 1-36 6-49 7-5 10-14 17-26 20-16 3-36 0-56-11l2-3-2 3c-18-9-42-9-59-12-9-2-16-5-20-12-4-8-3-18 2-32 2-5 1-13-1-21l-1-12 3-12c5-9 12-12 19-15 6-2 12-4 17-8l16-20c-2-17 0-36 6-53 13-38 40-75 58-97 17-23 21-41 23-65 1-32-25-135 78-135 81 0 76 85 76 131-1 30 16 51 33 72 15 18 35 45 47 75 9 24 12 52 3 79l4 2 4 3c7 5 9 14 11 22s3 16 7 20c11 12 16 21 16 30zM222 109l13 5c-2-13 4-24 12-23 9 0 14 15 9 27l-4 4 12 5c8-9 11-26 5-40-10-21-34-22-44 0-3 8-4 15-3 22zm-46 19c7-6 7-5 6-6-8-6-7-27 1-28 7 0 11 11 10 20l10-5c2-19-9-33-19-33-19 0-24 37-8 52zm-10 21c2 5 6 10 15 15 8 5 12 12 20 15l10 2c18 1 27-11 38-15 11-3 20-11 22-18 4-8-2-14-10-18-11-5-16-5-23-9-10-7-19-9-26-9-14 0-23 10-28 14l-14 11c-4 3-5 7-4 12zm-33 253l-20-36c-7-9-14-15-22-16s-12 1-18 7c-4 5-8 12-14 18-8 6-9 6-19 10-7 2-12 4-15 11-3 5-2 12-1 20s3 16 0 24c-5 14-5 22-2 27 8 15 46 6 76 21 32 17 73 18 76-18 2-20-32-49-41-68zm154 35c3-11 6-21 6-29 1-15 2-28 5-39 3-13 9-24 21-28 2-21 19-21 38-12 19 8 27 16 23 26h5c5-17-15-28-31-35 3-12 2-24-1-36-6-25-22-47-35-59-2 0-2 2 3 7 11 11 37 49 23 85l-11-2c-5-29-17-53-23-64-12-22-30-66-38-96-4 6-12 12-22 15l-16 9c-14 8-30 9-42-1-5-4-8-8-13-10l-6-5c-2 38-27 86-39 113-9 20-13 41-14 62-22-29-6-67 3-83 9-17 11-22 8-21-8 14-22 37-27 60-3 12-3 24 0 35 4 11 11 21 25 30 0 0 25 14 38 32 8 10 10 19 8 25-3 7-10 9-17 9l14 20c38 25 83 15 115-8zm129-28c-10-12-7-34-17-42-7-6-14-6-23-5-7 9-26 19-38 16s-18-16-19-29h-1c-7 4-11 11-14 21l-4 39c-1 12-6 26-10 40-3 14-5 26-1 37 7 14 20 20 34 19s30-10 43-25c23-27 63-30 64-47 0-5-3-13-14-24zM173 149l8 7c7 5 16 10 28 10 11 0 22-6 31-10l15-11c4-3 6-6 3-6-2-1-2 2-6 5s-9 7-14 9c-7 5-19 11-29 11-11 0-19-5-25-10l-8-7c-2-1-2-5-4-5s-2 4 1 7z"/></svg>