<svg viewBox="0 0 400.7 400.7" xmlns="http://www.w3.org/2000/svg"><path d="M0 400.7V0" fill="#dbd9d9"/><path d="M178.8 178.8a90.7 90.7 0 0 0 43.1 0 90.8 90.8 0 0 1 66.5-66.5 90.7 90.7 0 1 0-176.2 0 90.8 90.8 0 0 1 66.6 66.5z" fill="#7abdf7"/><path d="M222 221.9a90.7 90.7 0 0 0-43.2 0 90.8 90.8 0 0 1-66.6 66.5 90.7 90.7 0 1 0 176.2 0A90.8 90.8 0 0 1 222 222z" fill="#0d74f5"/><path d="M310 109.6a90.6 90.6 0 0 0-21.6 2.6 90.8 90.8 0 0 1-66.5 66.5 90.7 90.7 0 0 0 0 43.2 90.8 90.8 0 0 1 66.5 66.5A90.7 90.7 0 1 0 310 109.6z" fill="#4494f7"/><path d="M178.8 221.9a90.7 90.7 0 0 0 0-43.2 90.8 90.8 0 0 1-66.5-66.5 90.7 90.7 0 1 0 0 176.2 90.8 90.8 0 0 1 66.5-66.5z" fill="#005cf4"/><path d="M222 178.8a90.8 90.8 0 0 0 66.4-66.5 90.8 90.8 0 0 0-66.5 66.5z" fill="#186ef9"/><path d="M222 221.9a90.8 90.8 0 0 0 66.4 66.5A90.8 90.8 0 0 0 222 222z" fill="#0246f2"/><path d="M178.8 178.8a90.8 90.8 0 0 0-66.5-66.5 90.8 90.8 0 0 0 66.5 66.5z" fill="#0046f8"/><path d="M178.8 221.9a90.8 90.8 0 0 0-66.5 66.5 90.8 90.8 0 0 0 66.5-66.5z" fill="#0729f1"/><path d="M178.8 178.8a90.7 90.7 0 0 0 43.1 0 90.8 90.8 0 0 1 66.5-66.5 90.7 90.7 0 1 0-176.2 0 90.8 90.8 0 0 1 66.6 66.5z" fill="#7abdf7"/><path d="M222 221.9a90.7 90.7 0 0 0-43.2 0 90.8 90.8 0 0 1-66.6 66.5 90.7 90.7 0 1 0 176.2 0A90.8 90.8 0 0 1 222 222z" fill="#0d74f5"/><path d="M310 109.6a90.6 90.6 0 0 0-21.6 2.6 90.8 90.8 0 0 1-66.5 66.5 90.7 90.7 0 0 0 0 43.2 90.8 90.8 0 0 1 66.5 66.5A90.7 90.7 0 1 0 310 109.6z" fill="#4494f7"/><path d="M178.8 221.9a90.7 90.7 0 0 0 0-43.2 90.8 90.8 0 0 1-66.5-66.5 90.7 90.7 0 1 0 0 176.2 90.8 90.8 0 0 1 66.5-66.5z" fill="#005cf4"/><path d="M222 178.8a90.8 90.8 0 0 0 66.4-66.5 90.8 90.8 0 0 0-66.5 66.5z" fill="#186ef9"/><path d="M222 221.9a90.8 90.8 0 0 0 66.4 66.5A90.8 90.8 0 0 0 222 222z" fill="#0246f2"/><path d="M178.8 178.8a90.8 90.8 0 0 0-66.5-66.5 90.8 90.8 0 0 0 66.5 66.5z" fill="#0046f8"/><path d="M178.8 221.9a90.8 90.8 0 0 0-66.5 66.5 90.8 90.8 0 0 0 66.5-66.5z" fill="#0729f1"/></svg>