<svg fill="none" xmlns="http://www.w3.org/2000/svg" viewBox="0 0 76 48"><path d="m51.7 28.2-9.1 9.2a2 2 0 0 0 0 2.8l7 7a3 3 0 0 0 4.2 0l21.3-21a3 3 0 0 0 0-4.3L53.8.9a3 3 0 0 0-4.3 0l-7 7a2 2 0 0 0 0 2.7l9.2 9.2a6 6 0 0 1 0 8.4Z" fill="#0A6E5C"/><path d="m24.3 28.2 9.1 9.2c.8.7.8 2 0 2.8l-7 7a3 3 0 0 1-4.2 0L.9 26.1a3 3 0 0 1 0-4.3L22.2.9a3 3 0 0 1 4.3 0l7 7c.7.7.7 2 0 2.7l-9.2 9.2a6 6 0 0 0 0 8.4Z" fill="#21BF73"/><path d="M26.7 25.7c-1-1-1-2.5 0-3.4l9.6-9.6c1-1 2.5-1 3.4 0l9.6 9.6c1 1 1 2.5 0 3.4l-9.6 9.6c-1 1-2.5 1-3.4 0l-9.6-9.6Z" fill="#21BF73"/></svg>