<?xml version="1.0" encoding="utf-8"?><svg width="40" height="40" viewBox="0 0 40 40" fill="none" xmlns="http://www.w3.org/2000/svg">
<path d="M16.9038 7.06955L21.3455 3.48582L11.3646 5.78913L16.9038 7.06955ZM20.3592 7.86718L22.0362 4.34492L18.2686 7.38417L20.3592 7.86718ZM23.0183 8.48215L23.0199 4.83101L21.4533 8.12011L23.0183 8.48215ZM26.2003 9.21742L24.1136 4.83518L24.1131 8.73573L26.2003 9.21742ZM14.1357 9.30151L15.8097 7.95215L11.1205 6.86822L14.1357 9.30151ZM33.1077 10.8138L25.0966 4.34777L27.5641 9.53314L33.1077 10.8138ZM12.0024 11.0232L13.2586 10.0102L10.4367 7.73326L12.0024 11.0232ZM18.1377 12.5316L19.8711 8.89073L17.1742 8.26721L15.0135 10.0102L18.1377 12.5316ZM29.1016 12.7619L32.8636 11.8933L28.172 10.8094L29.1016 12.7619ZM9.45173 13.0813L11.1244 11.7311L9.45216 8.21451L9.45173 13.0813ZM24.1127 13.9125L28.007 13.0139L26.8074 10.4935L24.1131 9.87037L24.1127 13.9125ZM20.7973 14.6777L23.0173 14.1657L23.0181 9.61789L20.9659 9.14365L19.0153 13.2396L20.7973 14.6777ZM30.2858 15.2492L33.1079 12.9726L29.5883 13.785L30.2858 15.2492ZM18.0262 15.317L19.4326 14.9923L18.5285 14.2625L18.0262 15.317ZM14.4387 16.1454L16.6615 15.6323L17.6508 13.5547L14.1357 10.7178L12.4893 12.0472L14.4387 16.1454ZM23.0168 16.4685L23.0173 15.3012L21.8919 15.5609L23.0168 16.4685ZM9.44999 17.2965L13.3443 16.397L11.612 12.7546L9.45064 14.4981L9.44999 17.2965ZM3.91142 17.5503L8.35586 13.9643L8.35738 8.21408L3.91142 17.5503ZM15.4276 18.223L16.0536 16.9074L14.9256 17.1685L15.4276 18.223ZM31.7013 18.2241L33.79 13.8392L30.7732 16.2727L31.7013 18.2241ZM4.59346 18.4168L8.35521 17.5487L8.35565 15.3809L4.59346 18.4168ZM25.8945 18.7914L29.4078 15.9572L28.494 14.0375L24.112 15.0485L24.1116 17.3514L25.8945 18.7914ZM24.1105 20.2297L25.0167 19.4986L24.1105 18.7679V20.2297ZM8.35499 20.3083L8.35543 18.6843L4.83759 19.4959L8.35499 20.3083ZM13.8319 21.5744L14.8202 19.4986L13.8315 17.421L9.44999 18.4316L9.44956 20.5619L13.8319 21.5744ZM29.8943 22.0188L31.0935 19.499L29.8948 16.9801L26.7716 19.4984L29.8943 22.0188ZM16.051 22.0866L15.4271 20.775L14.9256 21.8265L16.051 22.0866ZM20.5256 23.1205L23.0164 21.1123L23.0168 17.8849L20.5274 15.8753L17.4184 16.5928L16.0345 19.4986L17.416 22.4017L20.5256 23.1205ZM8.35499 23.6116V21.4451L4.59302 20.5764L8.35499 23.6116ZM23.016 23.6968V22.5293L21.8906 23.4371L23.016 23.6968ZM34.7747 24.6793L34.7762 14.3189L32.3085 19.4992L34.7747 24.6793ZM18.5249 24.7347L19.4311 24.0042L18.0225 23.6777L18.5249 24.7347ZM28.4931 24.9623L29.4074 23.0415L25.8945 20.2068L24.1099 21.6464L24.1094 23.9498L28.4931 24.9623ZM33.7895 25.163L31.7013 20.7753L30.7714 22.7271L33.7895 25.163ZM33.1073 26.0283L30.2847 23.7508L29.5866 25.2144L33.1073 26.0283ZM11.6096 26.2406L13.3441 22.5971L9.44978 21.6969L9.44913 24.4949L11.6096 26.2406ZM28.17 28.1915L32.8634 27.1078L29.0997 26.2386L28.17 28.1915ZM14.1331 28.2769L17.6471 25.4423L16.6582 23.3631L14.4385 22.8507L12.4872 26.9482L14.1331 28.2769ZM24.109 29.1274L26.8055 28.5054L28.0055 25.9857L24.1094 25.0846L24.109 29.1274ZM20.9607 29.8544L23.0142 29.3801L23.0151 24.8315L20.7954 24.3188L19.0114 25.758L20.9607 29.8544ZM17.1703 30.7291L19.8662 30.1071L18.1343 26.4658L15.0103 28.986L17.1703 30.7291ZM8.35391 30.7791L8.35434 25.0293L3.91076 21.4414L8.35391 30.7791ZM9.44761 30.78L11.1227 27.2632L9.44826 25.9121L9.44761 30.78ZM10.4339 31.2606L13.2549 28.9852L12.0004 27.9719L10.4339 31.2606ZM11.1164 32.1267L15.8054 31.0435L14.1327 29.6939L11.1164 32.1267ZM23.0136 34.1688L23.0142 30.5168L21.4477 30.8784L23.0136 34.1688ZM24.1081 34.1697L26.197 29.7815L24.1086 30.2634L24.1081 34.1697ZM22.0271 34.65L20.3531 31.1304L18.2645 31.6121L22.0271 34.65ZM25.0936 34.65L33.1068 28.1867L27.5618 29.4675L25.0936 34.65ZM21.3409 35.5135L16.8997 31.9269L11.3594 33.2063L21.3409 35.5135ZM23.5609 39C22.833 39 22.1555 38.6698 21.7016 38.0937C21.3706 37.6724 21.1879 37.1498 21.1845 36.6117L11.0283 34.2645C10.8727 34.585 10.6548 34.8599 10.3788 35.0819C9.95388 35.4248 9.44262 35.6071 8.89967 35.6071C8.17097 35.6071 7.49371 35.2769 7.04017 34.7018C6.64436 34.1993 6.46511 33.5705 6.53694 32.9327C6.60725 32.3011 6.91431 31.7337 7.40365 31.3344L2.88629 21.8401C2.71876 21.8774 2.54646 21.8959 2.37438 21.8959C1.64633 21.8959 0.969717 21.5667 0.517699 20.9926C-0.29997 19.9563 -0.130274 18.4406 0.893983 17.6133C1.31801 17.2725 1.8284 17.0916 2.36961 17.0916C2.54408 17.0916 2.71768 17.1112 2.88781 17.1489L7.40951 7.65378C7.27193 7.54159 7.15084 7.41886 7.04733 7.28691C6.65108 6.78523 6.47227 6.1571 6.5441 5.5193C6.61484 4.88107 6.92776 4.30848 7.42362 3.90867C7.84873 3.56595 8.36107 3.38438 8.90358 3.38438C9.63163 3.38438 10.3095 3.71437 10.7635 4.28937C10.867 4.42089 10.9586 4.56864 11.0354 4.72848L21.1901 2.38608C21.1951 1.65476 21.5182 0.980077 22.0831 0.52385C22.5084 0.180691 23.0199 0 23.5624 0C24.2909 0 24.969 0.329986 25.4221 0.90543C25.9854 1.62095 26.0961 2.60256 25.7124 3.42829L33.8579 10.0034C34.2808 9.66794 34.7867 9.49077 35.3224 9.49077C36.0516 9.49077 36.7291 9.82097 37.183 10.3964C37.9996 11.4334 37.8303 12.9483 36.8059 13.7749C36.5292 13.9984 36.2148 14.1527 35.8702 14.234L35.8686 24.7689C36.3853 24.8919 36.8493 25.1885 37.1802 25.6093C37.5762 26.1112 37.7551 26.7392 37.6841 27.3776C37.6127 28.0158 37.2996 28.5876 36.8033 28.9885C36.3784 29.331 35.8671 29.5117 35.3244 29.5117C34.7906 29.5117 34.2715 29.3301 33.8553 28.9994L25.7085 35.5704C26.1757 36.5709 25.9019 37.7808 25.0408 38.4753C24.6157 38.818 24.1038 39 23.5609 39Z" fill="#41AD49"/>
</svg>
