<svg fill="none" xmlns="http://www.w3.org/2000/svg" viewBox="0 0 40 40"><path d="M16.9 7l4.4-3.5-10 2.3L17 7zm3.5.9L22 4.3l-3.7 3 2 .6zm2.6.6V4.8l-1.5 3.3 1.5.4zm3.2.7l-2-4.4v4l2 .4zm-12 .1L15.7 8l-4.7-1.1 3 2.4zm19 1.5L25 4.3l2.5 5.2 5.5 1.3zM12 11l1.3-1-2.9-2.3L12 11zm6.1 1.5L20 9l-2.7-.6L15 10l3.1 2.5zm11 .3l3.8-1-4.7-1 .9 2zM9.5 13l1.6-1.4-1.6-3.5v4.9zm14.6.8l4-.9-1.3-2.5-2.7-.6v4zm-3.3.8l2.2-.5V9.6l-2-.5-2 4.1 1.8 1.5zm9.5.5L33 13l-3.5.8.7 1.4zm-12.3.1l1.4-.3-.9-.7-.5 1zm-3.6.8l2.3-.5 1-2-3.6-2.9-1.6 1.3 2 4.1zm8.6.4v-1.2l-1.1.3 1.1.9zm-13.6.8l4-.9-1.8-3.6-2.1 1.7v2.8zm-5.5.3L8.4 14V8.2l-4.5 9.4zm11.5.6l.7-1.3-1.2.3.5 1zm16.3 0l2-4.4-3 2.5 1 2zm-27.1.2l3.8-.9v-2.1l-3.8 3zm21.3.4l3.5-2.8-1-2-4.3 1v2.4l1.8 1.4zM24 20.2l1-.7-1-.7v1.4zm-15.7.1v-1.6l-3.6.8 3.6.8zm5.4 1.3l1-2.1-1-2-4.4 1v2l4.4 1zm16 .4l1.3-2.5-1.2-2.5-3.1 2.5 3 2.5zm-13.7 0l-.7-1.2-.5 1 1.2.3zm4.4 1.1l2.5-2V18l-2.5-2-3 .7-1.5 2.9 1.4 2.9 3.1.7zm-12.1.5v-2.2l-3.8-.8 3.8 3zm14.6.1v-1.2l-1.1 1 1.1.2zm11.8 1V14.3l-2.5 5.2 2.5 5.2zm-16.3 0l1-.7-1.5-.3.5 1zm10 .3l1-2-3.6-2.8-1.8 1.4V24l4.4 1zm5.3.2l-2.1-4.4-1 2 3 2.4zm-.7.8l-2.8-2.2-.7 1.4 3.5.8zm-21.5.2l1.7-3.6-3.9-.9v2.8l2.2 1.7zm16.6 2l4.7-1-3.8-1-1 2zm-14 0l3.4-2.8-1-2-2.2-.5-2 4 1.7 1.4zm10 1l2.6-.7L28 26l-3.9-1v4.1zm-3.2.7l2-.5v-4.6l-2.2-.5-1.8 1.5 2 4zm-3.8.8l2.7-.6-1.8-3.6-3 2.5 2 1.7zm-8.8 0V25l-4.5-3.6 4.5 9.4zm1 0l1.7-3.4-1.7-1.4v4.9zm1 .6l2.9-2.3-1.3-1-1.6 3.3zm.7.8l4.7-1-1.7-1.4-3 2.4zm12 2v-3.6l-1.7.4 1.6 3.3zm1 0l2.1-4.3-2 .5v3.9zm-2 .5l-1.7-3.5-2.1.5 3.7 3zm3 0l8-6.4-5.5 1.3-2.5 5.1zm-3.8 1L17 31.8l-5.5 1.3 10 2.3zm2.3 3.4c-.8 0-1.4-.3-1.9-1-.3-.3-.5-.9-.5-1.4L11 34.3a2.4 2.4 0 01-4 .4 2.4 2.4 0 01.4-3.4l-4.5-9.5A2.4 2.4 0 01.5 21c-.8-1-.6-2.6.4-3.4a2.3 2.3 0 012-.5l4.5-9.4-.4-.4c-.3-.5-.5-1.1-.5-1.8A2.4 2.4 0 019 3.4 2.4 2.4 0 0111 4.7l10.2-2.3A2.4 2.4 0 0123.6 0c.7 0 1.4.3 1.8 1 .6.6.7 1.6.3 2.4L34 10c.4-.3.9-.5 1.4-.5.8 0 1.4.3 1.9.9a2.4 2.4 0 01-1.3 3.8v10.6c.5 0 1 .4 1.3.8a2.4 2.4 0 01-1.9 4c-.5 0-1-.3-1.4-.6l-8.2 6.6c.5 1 .2 2.2-.7 2.9-.4.3-.9.5-1.4.5z" fill="#41AD49"/></svg>