<?xml version="1.0" standalone="no"?>
<!DOCTYPE svg PUBLIC "-//W3C//DTD SVG 20010904//EN"
 "http://www.w3.org/TR/2001/REC-SVG-20010904/DTD/svg10.dtd">
<svg version="1.0" xmlns="http://www.w3.org/2000/svg"
 width="950.000000pt" height="950.000000pt" viewBox="0 0 950.000000 950.000000"
 preserveAspectRatio="xMidYMid meet">
<metadata>
Created by potrace 1.11, written by Peter Selinger 2001-2013
</metadata>
<g transform="translate(0.000000,950.000000) scale(0.100000,-0.100000)"
fill="#000000" stroke="none">
<path d="M5499 9495 c-2 -2 -42 -6 -89 -9 -47 -4 -112 -11 -145 -16 -33 -5
-78 -12 -100 -15 -23 -3 -52 -8 -65 -10 -14 -3 -41 -8 -60 -11 -19 -3 -55 -10
-80 -16 -25 -5 -53 -11 -62 -13 -65 -14 -263 -71 -363 -105 -371 -128 -713
-308 -1014 -534 -52 -39 -107 -81 -123 -92 -85 -63 -350 -317 -469 -450 -78
-87 -221 -274 -293 -384 -138 -209 -171 -268 -273 -478 -43 -89 -82 -162 -88
-162 -16 0 -322 -153 -410 -205 -419 -247 -797 -580 -1086 -957 -44 -57 -83
-108 -88 -114 -9 -11 -118 -179 -168 -257 -46 -72 -162 -302 -218 -431 -57
-132 -85 -207 -131 -351 -56 -177 -53 -167 -74 -268 -5 -27 -12 -52 -14 -55
-2 -4 -7 -26 -10 -48 -4 -22 -9 -51 -11 -64 -3 -14 -8 -41 -11 -60 -3 -19 -7
-40 -9 -47 -2 -6 -7 -38 -10 -70 -4 -32 -8 -69 -11 -83 -26 -164 -26 -721 0
-880 3 -14 7 -47 11 -75 6 -52 31 -202 40 -245 4 -14 8 -36 11 -50 3 -14 7
-33 10 -42 3 -10 7 -30 10 -45 3 -16 9 -41 14 -58 112 -368 141 -444 252 -675
186 -384 412 -703 713 -1006 312 -315 604 -527 996 -724 229 -115 579 -244
774 -284 11 -3 73 -16 137 -30 64 -14 136 -27 160 -30 24 -3 54 -8 68 -10 127
-22 271 -31 530 -31 254 0 376 7 525 30 17 3 48 7 70 11 34 5 131 23 214 40
251 51 576 164 826 287 389 191 708 419 1016 727 316 316 561 663 749 1063 35
75 69 137 75 137 16 0 321 152 405 202 176 105 328 209 475 327 65 52 96 79
179 155 414 378 752 867 953 1381 70 178 140 401 168 535 23 106 45 224 50
260 3 25 8 56 10 70 8 47 17 125 25 220 8 97 5 597 -4 660 -3 19 -8 60 -11 90
-7 67 -23 169 -35 230 -6 25 -12 56 -14 70 -9 56 -69 288 -97 378 -76 239
-217 561 -317 726 -23 37 -42 70 -42 72 0 3 -27 45 -60 96 -33 50 -60 92 -60
94 0 2 -6 12 -14 21 -8 10 -51 68 -97 128 -138 185 -362 426 -521 560 -39 33
-76 65 -82 70 -31 29 -192 150 -276 207 -453 308 -997 524 -1520 604 -25 3
-52 8 -60 9 -8 1 -46 6 -85 10 -38 4 -83 9 -100 12 -35 6 -591 13 -596 8z
m526 -1008 c17 -3 53 -9 80 -12 438 -52 903 -238 1267 -507 401 -296 690 -659
904 -1133 58 -131 133 -367 163 -515 17 -83 19 -94 27 -147 3 -26 8 -57 10
-68 25 -129 24 -565 -1 -716 -2 -13 -6 -42 -9 -64 -10 -67 -37 -197 -52 -251
-8 -28 -16 -60 -18 -70 -9 -42 -66 -205 -106 -304 -99 -241 -257 -502 -432
-717 -43 -52 -337 -343 -348 -343 -6 0 -10 49 -11 133 -1 196 -11 347 -35 512
-4 22 -8 47 -9 56 -2 9 -6 34 -9 55 -5 31 -25 128 -51 246 -59 273 -222 682
-382 962 -93 161 -291 450 -354 516 -8 8 -36 42 -63 75 -91 110 -360 369 -496
478 -229 184 -445 321 -695 442 -229 111 -299 140 -499 204 -209 68 -429 117
-696 155 -102 14 -265 24 -437 25 -79 1 -133 5 -133 11 0 19 297 310 400 391
190 149 403 278 614 369 141 61 350 132 461 155 11 3 45 10 75 17 30 6 60 12
65 13 14 1 117 17 138 21 9 1 54 6 100 10 45 3 83 8 85 9 6 5 418 -2 447 -8z
m-2000 -2000 c17 -3 55 -9 85 -12 55 -7 72 -10 120 -20 14 -2 41 -7 60 -10 19
-3 62 -13 95 -21 33 -9 68 -17 78 -19 45 -10 201 -60 282 -92 358 -141 663
-341 941 -618 238 -238 399 -461 533 -740 23 -49 47 -98 52 -107 24 -47 108
-282 125 -353 2 -5 9 -35 17 -65 16 -57 45 -200 53 -260 2 -19 7 -46 9 -60 25
-133 26 -585 1 -720 -4 -22 -7 -40 -21 -130 -3 -14 -7 -36 -10 -50 -3 -14 -8
-41 -11 -60 -7 -37 -32 -85 -40 -77 -3 3 -20 1 -37 -4 -49 -13 -264 -49 -337
-56 -148 -15 -506 -8 -640 12 -518 78 -957 269 -1358 588 -88 70 -304 282
-379 372 -48 58 -175 230 -200 270 -7 11 -31 52 -55 90 -123 203 -268 552
-304 731 -1 7 -9 43 -17 80 -9 38 -18 86 -21 108 -4 21 -8 41 -10 45 -3 6 -6
30 -25 221 -9 81 -6 430 3 495 3 22 8 60 11 85 13 93 17 118 36 210 15 70 17
84 18 91 1 3 36 14 79 23 111 24 122 26 168 32 23 2 51 7 63 9 12 2 58 7 104
11 45 3 83 8 85 9 5 5 416 -3 447 -8z m-2022 -842 c4 -121 8 -229 10 -240 3
-11 8 -51 11 -90 4 -38 11 -95 16 -125 5 -30 12 -71 15 -90 3 -19 8 -46 10
-60 3 -14 7 -34 9 -45 3 -11 10 -42 16 -70 6 -27 13 -57 15 -65 82 -373 278
-819 521 -1187 145 -219 277 -377 488 -588 228 -227 510 -442 782 -598 101
-57 369 -187 449 -217 33 -12 69 -26 80 -30 133 -56 485 -155 619 -175 21 -3
41 -7 45 -9 3 -2 29 -7 56 -10 28 -3 61 -8 75 -10 47 -8 115 -16 190 -22 41
-3 91 -7 110 -9 19 -2 104 -4 188 -4 99 -1 152 -5 152 -12 0 -23 -330 -339
-445 -425 -426 -319 -904 -505 -1415 -551 -188 -17 -532 -6 -680 22 -19 3 -46
8 -60 10 -22 3 -190 41 -215 49 -5 1 -23 6 -40 10 -310 77 -694 277 -990 515
-82 65 -314 294 -371 365 -21 27 -44 54 -49 60 -6 6 -38 49 -72 96 -142 197
-268 431 -348 650 -15 41 -31 84 -36 95 -24 56 -89 329 -104 440 -2 11 -9 61
-16 110 -14 102 -18 461 -6 575 44 428 169 804 390 1170 28 47 55 90 59 95 4
6 49 66 100 135 61 83 148 181 261 293 93 93 170 167 172 165 1 -2 5 -102 8
-223z"/>
</g>
</svg>
