<svg fill="none" xmlns="http://www.w3.org/2000/svg" viewBox="-6 -6 88 92"><path d="M17.8 4.6c5.4 1.5 8.9 6.6 9 13v3.6l1.6-.4c4.6-.6 9.3-.5 13.8.3 3.4.9 5.4 2 8 4.4 4.8 4 7.8 9.6 8.4 15.8a23.9 23.9 0 01-12.3 22.9c-1.7 1-3 1.9-3 2.2l1.4 7.2c1.6 8 1.7 10.3.5 11.4L44 86c-.9 0-2.6-5.4-3.6-11l-1.3-6.7-4.3-.4-4.2-.1-.3 2.5a50.2 50.2 0 01-2.8 13.5c-1.2 2.4-1.8 2.6-2.8 1-.6-1.4-.2-6.8 1-10.3.3-1.3.8-3.7 1-5.3L27 66l-2.8-1.3a23.3 23.3 0 01-12.6-17.2 42 42 0 012.6-15.5c1-1.1.5-1.5-1.9-1.5-5.4 0-10.9-4.5-12-9.8C0 16.8.7 12.7 2.6 9 6 4.2 11 2.8 17.8 4.6zM8.3 9.3c-2.2 1.6-4.6 4.9-4.9 6.7-.2 1.2 1.7 5.7 3.2 7.3 1.1 1 2.4 1.8 3.7 2.4 4.5 2 8 .6 11.4-4.6 2.5-3.7 0-11.1-4.2-12.7a9.7 9.7 0 00-9.2.9zm21.6 15.2C21.9 26.3 13.7 37 14.6 44c.6 4.3.7 4.4 5 2.4 1.3-.7 2.6-1.3 4-1.8l4.6-2.2c2.3-1.2 5.6-2.7 7.3-3.4 2.5-1 4.9-2 7.2-3.4.6-.5 5.4-2.7 6.8-3l1.5-.4-2.2-2.8c-2-2.4-3-3-6.6-4.1a22.5 22.5 0 00-12.3-.8zM47.6 38a1627 1627 0 00-30 14.3l1.3 2.3c4.4 7 14.2 10.1 23.3 7.5 3.3-1 8.2-6 10.4-10.4 1.6-3.3 1.9-4.5 1.9-7.9 0-2.1-.4-5.1-1-6.6l-.8-2.5-2.3 1.6c-1.3 1-2.5 1.7-2.8 1.7z" fill="#535D65"/><rect x="68" y=".4" width="4.7" height="25.3" rx="1.5" fill="#535D65"/><rect x="82" y="11.1" width="4.7" height="24" rx="1.5" transform="rotate(90 82 11)" fill="#535D65"/></svg>