<svg version="1.0" xmlns="http://www.w3.org/2000/svg" width="666.7" height="666.7" viewBox="111.80000305175781 45.098060607910156 276.50347900390625 409.3277282714844"><path fill="#2e3338" d="M271 45.7c-.8.3-16.6 15.7-35 34.2a3292.8 3292.8 0 01-44.7 44.2c-13.1 12.2-13.8 13.9-7.6 19.2 5.7 4.9 14.3 13.4 14.3 14.2 0 1.1 3.7 5.5 4.2 5 .2-.2 2.4 1.6 4.7 4.1 2.4 2.4 4.2 4.6 4 4.8-.2.2-10.1.7-21.9 1-20.3.5-21.6.7-23.2 2.7-3 3.6-2.3 6.4 2 8.2 2.8 1.1 6.6 1.4 16.2 1.2 6.9-.1 12.5-.3 12.5-.4 0-.1 1.5-.4 3.3-.5 1.7-.2 3.2-.1 3.2.3s3.6.8 8 .9c5.5.2 8-.1 8-.9s1-.9 3.3-.4c1.7.4 20.5.8 41.6 1 32.9.3 38.6.1 39.9-1.2 1.1-1.1 1.7-1.2 2.2-.2.5.6 1.9 1 3.4.7a72.1 72.1 0 0020.3-.3c3.3-.8 5.7-4.9 4.4-7.3-2-3.8-6.9-4.7-21.6-4.2h-14.4c-10.7 0-11.3-.1-10-1.7.8-1 12.5-12.8 26-26.3a498.7 498.7 0 0025.8-26.7c3.1-6.1 3.1-6.2-29.6-39.1-17-17-31.8-31.5-33-32.1a6.7 6.7 0 00-6.3-.4zm12 24c10.3 10.5 17.1 16.7 13.6 12.5-1.1-1.2-1.5-2.2-1-2.2 1.6 0 7.8 6.8 8 8.7.2 1 5.5 6.7 11.9 12.8 6.3 6 11.5 11.6 11.5 12.2 0 .7-1.3 1.9-2.8 2.7-1.6.8-4.2 3.2-5.7 5.3a27 27 0 01-4.8 5.1 773.1 773.1 0 00-40.6 39.7l-4.8 5-19.2-.2-19.1-.3-6.1-6.5c-3.4-3.6-6.5-6.2-7.1-5.9-1.1.7-8-4.4-7.3-5.5.2-.5-1.7-2.8-4.3-5.2a22.4 22.4 0 01-4.5-4.9c.3-.9-1.9-3-2.7-2.5-.4.3-1.3-.2-2-.9-.9-1.2 3.5-6 24-26.5A484.4 484.4 0 01246.2 88c.5 0 .7-.4.4-.9-.3-.5 1.1-2.3 3.2-4.1a61.8 61.8 0 0012.8-13.2c.8-1.5 2.7-3.4 4.3-4.3a8.1 8.1 0 003.6-3.5c.3-1.1 1.1-2 1.7-2 .6 0 5.4 4.4 10.8 9.7z"></path><path fill="#2e3338" d="M119.5 147.4a20 20 0 00-5.4 3.9l-2.3 2.6.2 80.8a77623.6 77623.6 0 01.1 179c-.2 35.3 0 36.8 5.7 39.6 2.2 1.1 22.3 1.3 113.2 1 60.8-.2 119.1-.4 129.7-.3 12.2.1 19.9-.3 21.2-1 5-2.6 5.3-4.8 5.8-43.9.5-32 .6-56.4.6-93.6l-.1-85.4c-.1-83.2.3-78-6.5-82.2-2.8-1.7-4.4-1.8-12.7-1.3-5.2.3-18.1.6-28.6.7-17.3.2-19.4.4-21.3 2.1-3.4 3.1-2.7 6.3 1.7 8.2 2 .9 4.6 1.6 5.7 1.6h10l10-.1h9c1.7 0 5.6-.2 8.8-.5 3.5-.3 5.6-.2 5.2.4-.3.5.7.8 2.2.7 2.4-.2 2.8.2 3.1 2.6.2 1.6.8 2.5 1.4 2.1.7-.5.8 1.4.3 5.7-.5 3.5-.8 12.7-.8 20.4l.1 14-125.1-.2c-68.7-.1-125.1-.4-125.3-.5-.3-.3-1.6-23.6-1.5-25.3l.4-9.5c.2-7.4.5-8.5 2.2-8.8a9 9 0 003.3-1.8c1.4-1.5 4.7-2 3.8-.6-.2.4 6.6.8 15.3.9 14 .2 16.1 0 18.9-1.7 4.6-2.8 4.4-6.2-.5-8.6a67.5 67.5 0 00-24.8-1.6c-1.6.1-6.8 0-11.5-.3-5.9-.3-9.4 0-11.5.9zm31 68.7c-1.1.4 15.8.8 37.5.8a2441 2441 0 0163.5.3l39 .2c13.8.2 32.2 0 41-.4 8.8-.3 22.2-.4 29.8-.2l13.7.4v29.9c0 19.9.4 30 1.1 30.4.5.4.8 1.9.4 3.3a556 556 0 00-.5 36.2v52c0 27.2.2 55 .6 61.7l.7 12.1-125.7-.2c-69.1-.2-125.9-.6-126.3-1-.5-.5-.8-170-.4-215.5l.1-9.4 3.8.6c2.4.4 4.3.1 5.6-.8 1.3-1 4.4-1.4 10-1.4 5.3.1 7.4.4 6.1 1z"></path><path fill="#FBCC5C" d="M263.2 239.1a90.5 90.5 0 00-25.2 9c-21.7 11.3-44.1 35.6-56.5 61.4a115.6 115.6 0 00-12.9 53c0 21.1 4.4 34.3 15.2 45.4 23.7 24.2 63.3 16 98-20.3a156.7 156.7 0 0028.7-41.8c10.1-21 14.5-39.6 13.1-56.3a61.8 61.8 0 00-6.2-24.2c-9.2-20.3-29.8-30.3-54.2-26.2z"></path></svg>