<svg version="1.0" xmlns="http://www.w3.org/2000/svg" viewBox="111.8 45.1 276.5 409.3"><path fill="#2e3338" d="M271 46c-1 0-17 15-35 34a3293 3293 0 01-45 44c-13 12-13 14-7 19a114 114 0 0118 20c0-1 3 1 5 4l4 4-22 1c-20 1-22 1-23 3-3 4-2 6 2 8a196 196 0 0035 1l8 1 8-1 3-1a761 761 0 0087 1 72 72 0 0021-1c3 0 5-4 4-7-2-4-7-5-22-4h-14c-11 0-11 0-10-2l26-26a499 499 0 0026-27c3-6 3-6-30-39l-33-32a7 7 0 00-6 0zm12 24c10 10 17 16 14 12l-1-2 8 9 12 13 11 12s-1 2-3 2l-6 6a27 27 0 01-4 5 773 773 0 00-41 40l-5 5-19-1h-19l-6-6-7-6-8-6c1 0-1-3-4-5a22 22 0 01-4-5c0-1-2-3-3-2l-2-1c-1-2 3-6 24-27a484 484 0 0126-25l1-1 3-4a62 62 0 0013-13c0-2 2-4 4-5a8 8 0 003-3l2-2c1 0 6 4 11 10z"/><path fill="#2e3338" d="M120 147a20 20 0 00-6 4l-2 3v81a77624 77624 0 010 179c0 35 0 36 6 39 2 1 22 2 113 1h130l21-1c5-3 5-5 6-44V230c0-83 0-78-6-82a812 812 0 01-63 1c-3 3-3 7 2 9l5 1h43l3 1c2-1 2 0 3 2l1 2v40H125l-1-26v-9c0-7 1-9 2-9a9 9 0 004-2c1-1 4-2 4 0l15 1c14 0 16 0 19-2 4-3 4-6-1-9a68 68 0 00-24-1l-12-1-11 1zm31 69c-2 1 15 1 37 1a2441 2441 0 0164 0h39a857 857 0 0070 0h14v30a169 169 0 002 34 556 556 0 00-1 36v52l1 62v12H252l-127-1V217h9l10-2 7 1z"/><path fill="#FBCC5C" d="M263 239a91 91 0 00-25 9c-22 11-44 36-56 61a116 116 0 00-13 54c0 21 4 34 15 45 23 24 63 16 98-20a157 157 0 0028-42c11-21 15-40 14-57a62 62 0 00-7-24c-9-20-29-30-54-26z"/></svg>