<svg version="1.0" xmlns="http://www.w3.org/2000/svg" viewBox="0 0 500 500"><svg viewBox="0 0 48 48"><path d="M44.8 13.4c-1 2.4-3 4.2-4.8 4s-2.4-2-1.7-4.3S41 9 43 9s2.8 1.9 1.9 4.3z" fill="#fbcc5c"/></svg><path fill="#2e3338" d="M16.5 71.3c-.4 1.3-.8 1.7-1.2.9-1.1-2.8-2.1-.8-2.8 6l-1.3 11.3c-.4 2.2-.5 31.4-.5 65 .1 33.5.2 70.2.1 81.5v142.5c0 43.6.1 44.7 4.9 49.7 3.9 4.1 8.1 5 23.7 5.3l20.4.7c3.5.3 6.5.1 6.8-.3.4-.7 49.7-1.1 131.4-1.1 18.1 0 43.5.4 108.9 1.6 27.1.5 32.1.3 31.2-.8-.9-1.1-.5-1.5 2.1-2 3.5-.7 42.3.2 44.8 1.1 2.2.7 58.7.7 71.5-.1 21.6-1.3 32-2.9 35.5-5.6 2.3-1.8 2.4-2 .5-2-1.2 0-2.5-.4-3-.9-.6-.5-7.3-1.6-15-2.5-12.2-1.3-42-1.5-229.9-1.6-130.3 0-216.5-.4-217.6-1-1.6-.8-1.7-10.7-2.4-160.2-.8-162.7-.9-174.9-2.6-179.4-.6-1.4-1-3.7-1-5.2 0-2.1-.2-2.4-1-1.2s-1 1.1-1-.7c0-3-1.6-3.7-2.5-1z"/><path fill="#2e3338" d="M390.4 184.8l-5.3 4.2a66 66 0 00-13.8 13.6 284 284 0 01-22.6 26.2c-1.2 1.2-2.2 2.7-2.2 3.2s-2.6 3.4-5.7 6.3c-3.1 3-7.1 7.7-8.8 10.3a37.6 37.6 0 01-5.4 6.9 42.1 42.1 0 00-5.3 6.3c-1.8 2.5-3.3 3.7-3.6 3-.2-.7-1.3.5-2.5 2.8-2.4 4.8-5.5 6.4-12.3 6.4a28 28 0 00-8.6 1.5 19 19 0 01-5.5 1.5c-1.2 0-1.7.4-1.2 1.2.4.7.3.8-.5.4-.6-.4-.9-1.1-.6-1.6.6-1-16.9-15.2-18.3-14.8-1.3.4-23.4-15.6-28.6-20.7-2.3-2.2-6-4.9-8.3-5.9-2.3-1-4.4-2.4-4.6-3-.3-.6-2.4-2.5-4.8-4.1a86.6 86.6 0 01-5.9-4.2c-13.5-11.4-13.5-11.4-13.1-14.4.3-3.3-4.2-10.9-6.5-10.9-.7 0-1.4-.4-1.6-.9-.6-1.7-13.5-2.4-15.6-.9-1.1.7-2 1.6-2.1 2 0 .5-.3.7-.5.5-.2-.1-1.3.7-2.5 1.7-2.6 2.4-5.5 11.6-4.1 13 .5.5 1 2.4 1 4.1-.1 2.4-1.5 4.4-6.8 9.8l-14.7 14.9-15.5 15.5-8.5 8.3-8.6 8.8c-5.1 5.1-7.9 8.8-8.4 11a6.2 6.2 0 01-3.6 4.7c-1.6.9-2.9 2-2.9 2.5 0 .6-.5 1-1.2 1-1.6 0-6.8 5-6.8 6.6 0 1.6-6.6 6.5-7.5 5.6-.5-.4-.5-.2-.2.4.7 1.2-9.8 12.3-17.7 18.8a27.8 27.8 0 00-5.8 6c-1.6 3.7-5.7 5.4-13.1 5.5-8 .1-9 .5-8.1 3.3.5 1.8.3 2-2 1.4-2-.5-2.9-.1-4.2 1.9-2.4 3.6-4.4 9.9-3.3 10.3.5.2.9 1.1.9 1.9 0 2.7 5.4 11.3 7.2 11.3.9 0 1.8.6 2 1.2.3.9 2.8 1.3 7.7 1.3 6.9 0 7.3-.1 10-3.3 1.6-1.7 3.4-3.2 4-3.2 2.4 0 4.2-5.9 3.5-11.9-.7-6.5-.7-6.4 7.4-13A17 17 0 0079 335c0-.4 3.4-4.1 7.5-8.1s7.5-7.8 7.5-8.4c0-.7 3-3.9 6.6-7.1 7.3-6.5 17.4-16.4 17.4-17.1 0-.2 4.7-5.2 10.4-11.1 19.4-19.8 34.7-35.7 40.6-42 3.2-3.4 6.3-6.2 6.9-6.2.6 0 1.1-.5 1.1-1.1 0-1.8 4.4-4.9 5.2-3.6.8 1.3 8.9 1 10.2-.4.6-.5 1.9-.9 2.9-.9 1.9 0 13.5 7.4 22.7 14.5 2.5 1.9 5.2 3.8 6 4.2 1.3.6 8.1 5.5 20 14.3a622.5 622.5 0 0124.1 17.9c6.8 5.1 12.9 9.5 13.5 9.8.7.2 1.7 2.6 2.4 5.2.6 2.8 2.5 6.3 4.5 8.6 2.9 3.2 4.2 3.9 8.4 4.3 6.9.6 11.7-.5 14.6-3.3 1.3-1.4 2.8-2.5 3.3-2.5 1.9 0 4.4-7.6 3.7-11.3-.7-3.4-.3-4.1 5.6-11.4a1134 1134 0 0113.9-16.5l11.5-13.9c2.2-2.8 7.8-9.5 12.5-14.8 17.7-20 21-24 21-25 0-.6.7-1.1 1.5-1.1s1.5-.8 1.5-1.8c0-.9 1.4-3.3 3.1-5.2 5.4-6.1 8.9-15 5.9-15-.5 0-1-.7-1-1.5 0-1.9-1-1.9-3.6.3z"/></svg>