<svg id="Layer_1" data-name="Layer 1" xmlns="http://www.w3.org/2000/svg" viewBox="0 0 48 48"><defs/><path class="cls-1" d="M47.4 41c-.2 0-.2 0 0 0h-.1-.5a1.4 1.4 0 00.1 0h.2v.1h.1c.1 0 .1 0 0 0H47h-.2.4-.1c-.1 0-.2 0-.1.1a.5.5 0 01-.2 0h-.2a.9.9 0 00-.1 0h.1v.1a.4.4 0 01-.1 0 1.5 1.5 0 00-.3 0h0v.1a1 1 0 00-.3 0 .3.3 0 00.1 0h-.2s-.1 0 0 0h-.4c-.2 0-.2 0-.1.1h-.1a1.4 1.4 0 00-.2 0H44.6a1.4 1.4 0 00-.4 0 1.5 1.5 0 01-.4 0 .2.2 0 00-.1 0c0 .1 0 .1-.1 0a1.2 1.2 0 01-.2.1.2.2 0 01-.1 0 .3.3 0 00-.2 0 1 1 0 01-.2 0 .4.4 0 00-.2 0 3 3 0 01-.5 0 2.1 2.1 0 00-.3 0h-.2a5.4 5.4 0 01-.9 0h-.2H40.1 39.2 39 38.4a1.6 1.6 0 00-.4 0 2.6 2.6 0 01-.4 0c0-.1 0-.1-.2 0a1.9 1.9 0 01-.4 0h-.2.2a1 1 0 01.3 0H38a1.7 1.7 0 01-.4 0h-1c.3 0 .5 0 .3-.1a4 4 0 00-.5 0 2.7 2.7 0 00-.5 0h-2.1.2a4 4 0 00-.4 0c-.2 0-.1 0 0 0h.7c.3 0 .3 0 0-.1a7.6 7.6 0 00-1 0h-.5l-.2.1c.4 0 .3 0 0 0h-.3l.3.2h-1.6a4.4 4.4 0 01-.6 0h-.8c.2 0 .2 0 0 0a20.8 20.8 0 00-1.6 0 1.8 1.8 0 00-.3 0 2 2 0 01-.4 0H27a3.2 3.2 0 01-.3 0h-.2a1.7 1.7 0 00-.2 0l-.2-.1H26 24a3.6 3.6 0 01-.8 0h-.9a9 9 0 01-1 0h-.6l-.1-.1a.2.2 0 01-.1 0H20a1 1 0 00-.3 0 2.6 2.6 0 01-.6 0h-.6a1 1 0 01-.4 0h-.7a3.7 3.7 0 00-.4.1 1.2 1.2 0 01.2 0 1.7 1.7 0 01-.3 0 1.5 1.5 0 00.2 0h.2a2.2 2.2 0 01-.6 0h-.4-.4a1.3 1.3 0 01-.3 0 1.8 1.8 0 00-.6 0 4.5 4.5 0 01-.6 0h-.2.2-.5-.1a.3.3 0 00-.1 0 3 3 0 01-.5 0h-.4a.8.8 0 01-.1 0 .9.9 0 01-.3 0 3.5 3.5 0 01-.5 0h-.7a.5.5 0 00-.1 0 2.9 2.9 0 01-.4 0h-.1a.8.8 0 01-.1 0h-.2-.1a.8.8 0 01-.2 0 3.4 3.4 0 00-.4 0h-.3a1.4 1.4 0 01.2 0 .6.6 0 00-.2 0H7.6a1.1 1.1 0 00-.3 0 2.3 2.3 0 01-.5 0h-.4v.1a1.8 1.8 0 01-.4 0 2.6 2.6 0 00-.4 0h-.2-.2l-.2-.1a2.3 2.3 0 00-.9 0H3.5a2 2 0 01-.6 0 2 2 0 00-.3 0 2 2 0 01-.5-.1 1.6 1.6 0 01-1-1.1 4.6 4.6 0 010-1v-.8-.6-3-.8-.1-.3c.1 0 .1 0 0 .2a5.8 5.8 0 000 1 1 1 0 00.1-.3v-.9-1-.2-.2-.3.2l-.1.2v.8-.7a.9.9 0 010-.1 1 1 0 01-.1-.7.6.6 0 000-.3 1.7 1.7 0 010-.4v-.3a.9.9 0 010-.2V29v-.3-.4-.4a1.8 1.8 0 000-.6V27a2.9 2.9 0 000-.4v-.2.2a1 1 0 000-.4l.1-.3v-.2V25.7l-.1-.4v-.8.7-.5.3c0 .2 0 .2 0 0 0-.4.1-.4.1 0V25v-.6a2.7 2.7 0 010-.5c0-.4 0-.4 0 0v.2-.6-.2a1.4 1.4 0 010-.4 3.3 3.3 0 000-1c0 .2-.1-.6 0-.8a2.6 2.6 0 000-.4v-.2l-.1.2v.4a1 1 0 010-.3v-.1a1.2 1.2 0 000-.4V19l.1-.2a5.7 5.7 0 010-.6V17.7c0-.4-.1-.3-.1 0a3.3 3.3 0 010 .3 3.7 3.7 0 010-.4V17v-.2a.8.8 0 010 .2c0 .4 0 .4 0 0v-.5-.4a2.9 2.9 0 000-.4 1.2 1.2 0 010-.2V15c0-.1.1-.1.1 0V14a.4.4 0 000-.1v-.1a.8.8 0 010-.1v-.2l-.1.2v-.2-.2a1.2 1.2 0 010-.2V13a.2.2 0 010-.1.4.4 0 000-.1 1.1 1.1 0 010-.3.6.6 0 000-.2 2 2 0 010-.3.8.8 0 010-.2 2.3 2.3 0 000-.3v-.6a.4.4 0 010-.1v-.1.1a.6.6 0 010-.1V10a2.5 2.5 0 010-.2.3.3 0 000-.2v-.4-.1V9A.8.8 0 011 9a1.3 1.3 0 00.1-.2s0-.1 0 0a.3.3 0 000-.2V8.2h.1V8a1 1 0 000-.3V8c0 .1 0 .1 0 0v-.2-.1-.1 0a.6.6 0 010-.2v.2h.1v-.2-.1a.8.8 0 010-.2v-.1a1 1 0 010-.2V7v-.1.1-.2s0 .1 0 0h.1v-.1V7v-.2a.7.7 0 000 .1.4.4 0 010 .1c.1.1.1.1.1 0v-.1.2-.2c0-.1 0-.1 0 0V7 6.7 6.7c0 .1 0 0 0 0l.1.3a1.2 1.2 0 010 .1V7v-.3c0-.3 0-.2 0 0 0 0 .1-.1.1 0v.4a.4.4 0 000-.1v-.3c0-.1 0 0 0 0h.1v.4a1.1 1.1 0 010 .1V7a.8.8 0 010 .2s0 .1 0 0a1.5 1.5 0 01.1-.1V6.9A.4.4 0 012 7V7c0-.1.1 0 0 .2v.2c0 .2.1.2.1 0l.1.7a1.2 1.2 0 010-.1v.1a.2.2 0 010 .1c.1 0 .1.1 0 .2v.4c.1 0 .1 0 0 .2l.1.2v.6a.8.8 0 000 .3v.7a.5.5 0 010 .2v.1a.6.6 0 010 .2v.5a1.9 1.9 0 010 .3.8.8 0 010 .2v.3a.4.4 0 010 .1.8.8 0 010 .2v.1a2.4 2.4 0 010 .6 2.9 2.9 0 000 .3V16.2a2 2 0 010 .6c0 .2 0 .2 0 0v.3a4 4 0 000 .9v1a3 3 0 010 .4 2.1 2.1 0 000 .5 3 3 0 010 .6V21.7l.1 1.2a1.4 1.4 0 010 .4 1 1 0 000 .4 5.3 5.3 0 010 .8 4.6 4.6 0 000 .6 3.4 3.4 0 010 .4v.2a3.1 3.1 0 010 .4V28.5a1.7 1.7 0 010 .4v.2a2 2 0 010 .4v1a2.8 2.8 0 010 .5 2 2 0 010 .6V33.4a2.5 2.5 0 010 .4 10.5 10.5 0 000 1.2 5.6 5.6 0 010 1v1a7.5 7.5 0 000 1V39.3a.8.8 0 000 .3v.4a.4.4 0 00.4.3 5.1 5.1 0 01.9 0 .3.3 0 00.2 0 4 4 0 01.8 0h1.2a1.1 1.1 0 01.2 0h.5a2.5 2.5 0 01.5 0 5 5 0 001 0H9a3.6 3.6 0 01.8 0H11c-.2 0 0 0 0 0h1.5a5 5 0 01.6 0H16.4a2.7 2.7 0 00.4 0 3.8 3.8 0 01.6 0h.2H18.2a.4.4 0 01.2 0h.2a.5.5 0 01.2 0h.6a1.7 1.7 0 01.3 0 2.4 2.4 0 00.5 0h.2a2.2 2.2 0 00.5 0h3.3a2.7 2.7 0 01.4 0h.4a.6.6 0 00.2 0 1.3 1.3 0 01.4 0 3 3 0 01.8 0h.8a5.9 5.9 0 01.9 0h1.1a3.4 3.4 0 01.8 0H30.9h.2a1.3 1.3 0 01.4 0h.2a.4.4 0 01.2 0h.3.4a2 2 0 00.6 0H33.8 34.4h.6c.2 0 .2 0 0 0-.4 0-.4 0 0 0h.2c-.5 0-.5 0 0 0a2.3 2.3 0 00.7 0h.2c.2 0 .2 0 0 .1h.3.6.2a2 2 0 00.6 0h.3l.6-.1h.3a2 2 0 01.5 0h.4a2 2 0 01.4 0 3.7 3.7 0 01.4 0H42.1a.5.5 0 01.2 0 .7.7 0 00.2 0h.2s.1 0 0 0h.8a.9.9 0 01.2 0 .4.4 0 00.2 0h.7v.1a3.3 3.3 0 01.5 0h.4l-.1.1a.5.5 0 00-.2 0h1.2v.1h0-.1a.8.8 0 00-.2 0h-.2a.6.6 0 00-.1 0 .8.8 0 00-.1 0h.1a.7.7 0 00.1 0h.5a.6.6 0 00.2 0H46.9v.1h.2l-.2.1h-.2.4a1.4 1.4 0 00.2 0h.1l-.1.2h.1zM1.5 16.4z"/><path d="M44.8 13.4c-1 2.4-3 4.2-4.8 4s-2.4-2-1.7-4.3S41 9 43 9s2.8 1.9 1.9 4.3z" fill="#fbcc5c"/><path class="cls-1" d="M18.9 20.5a1 1 0 10-1 1 1 1 0 001-1V20"/><path class="cls-1" d="M18.9 20.1h.4v.1h.1v.2h.1v.2a.1.1 0 010 .2c0 .1 0 0 0 0l-.1.1v.1c0 .1 0 0-.1 0V21.4h-.1l-.1.2c-.1.1-.1.1-.1 0h-.1a.2.2 0 010 .1v.2a.1.1 0 00-.1 0v.1h-.1a.6.6 0 00-.1 0 .6.6 0 00-.2.2h-.1-.2-.1a.6.6 0 01-.2 0 .3.3 0 01-.2 0 .2.2 0 01-.1-.1s-.1 0 0 0v-.1a.3.3 0 00-.2 0 .2.2 0 01-.2 0v-.1a.1.1 0 00-.1 0h-.1l-.1-.1h-.1v-.1a.2.2 0 010-.1h-.1v-.1h-.1v-.1-.1h-.1V21v-.2a.4.4 0 010-.2h-.1v-.1h-.1v-.1c0-.1 0-.1 0 0l.1-.1s.1 0 0-.1v-.1s0-.1 0 0l.1-.2a2.7 2.7 0 01.1-.3 1.6 1.6 0 01.3-.4h.2c-.1 0-.2 0-.1.1l.2-.1a.2.2 0 010-.1.2.2 0 00-.1 0c-.1 0-.1 0 0 0a.3.3 0 000-.1s0-.1 0 0h.1V19l.3-.2H17.8l.1.1.1-.1h.1v.1h.2c0 .1.2 0 .2 0h.2s.1.2 0 .2h.2c0 .1.1 0 .1 0 .1 0 .1 0 0 .1 0 .1.1 0 .1 0v.1s.1 0 0 0v.1l.2.1c.1 0 .1.1 0 0v.1c.1 0 0 0 0 0h.1v.1l.1.1v.5c-.1 0-.1 0 0 0h-.1s0 .1 0 0v.1a.2.2 0 00-.1 0H19h-.1c-.1 0-.1 0 0 0h-.1-.1-.1a.2.2 0 01-.2 0h-.1v-.1-.1h-.1s0-.1 0 0H18V20h-.2-.1c0 .1 0 .1 0 0 0 .1 0 .1 0 0v.1h-.1c-.1 0-.1 0 0 0v.1h-.1v.4h.2v.1h.2v-.1h.1c.1 0 .1 0 0 0h.1a.2.2 0 000-.1.2.2 0 000-.1h.1v-.1h.1v-.1h.1l.1-.1h.2zM18.7 19.6zM5.8 34a1 1 0 10-1 1 1 1 0 001-1v-.3"/><path class="cls-1" d="M5.8 33.7H6c.1 0 .1 0 0 0h.4v.2h.1V34.3a.1.1 0 010 .1v.1h-.1a.4.4 0 000 .1v.1h-.1v.2H6v.1L6 35l-.1.1h-.1c-.1 0 0 0 0 0V35a.2.2 0 010 .1c-.1 0-.1.1 0 .1a.4.4 0 010 .1.1.1 0 00-.1 0v.1h-.1a.6.6 0 00-.1.1.6.6 0 00-.2 0v.1h-.1H5 5h-.1a.6.6 0 01-.2 0 .3.3 0 01-.2 0 .2.2 0 01-.1 0c-.1-.1-.1-.1 0-.1h-.2H4a.2.2 0 010-.1H4v-.1a.1.1 0 00-.1 0h-.2l-.1-.1V35 35h-.1v-.1h-.1a.2.2 0 010-.1c-.1 0-.1 0 0 0-.1 0-.1 0 0 0l-.1-.1c0-.1 0-.1 0 0v-.1a.1.1 0 010-.1h-.1v-.1a.4.4 0 010-.1c0-.1 0-.1 0 0v-.1-.1H3V34h.1v-.2-.2c.1 0 .1 0 0 0a2.7 2.7 0 01.2-.3v-.1a1.6 1.6 0 01.2-.3h.1a.2.2 0 010-.1h.1v.1H4v-.1-.1a.2.2 0 00-.1 0c-.1 0-.1 0 0 0v-.1H4v-.1l.3-.1h.2c0-.1 0-.1 0 0H4.9v-.1H5v.1c0 .1 0 .1 0 0h.2c0 .1.2.1.2 0h.1v.1h.1s.1 0 0 .1l.2.1s.1 0 0 0h.1v.1H6v.2h.2v.1l.1.1.1.1v.5h-.1c0 .1 0 0 0 0v.1H6h-.2-.1-.1c-.1 0 0 0 0 0h-.1s-.1 0 0 0h-.1a.2.2 0 01-.2 0h-.1v-.1H5v-.1h-.2-.2s-.1 0 0 0h-.1v.1c-.1 0-.1 0 0 0h-.1v.1s-.1 0 0 0V34.3h.1v.1H5s0-.1 0 0v-.1c.1 0 .1 0 0 0h.1a.2.2 0 000-.1V34h.1s0-.1 0 0c.1 0 .1 0 0-.1h.1c.1 0 0 0 0 0a.1.1 0 000-.1H5.7v-.1h.1zM5.5 33.2zM29.9 27.7v.3a1 1 0 11-1-1 1 1 0 011 1"/><path class="cls-1" d="M29.9 28h-.1-.2-.2-.1v-.1-.1-.1H29v-.1-.1.2H29h-.1-.1-.1v.1h-.1v.4a.3.3 0 000 .1h.1v.2h.1v-.1c0-.1 0-.1 0 0h.1v-.1h.1a.1.1 0 000 .1v-.1s.1 0 0 0l.1.1v-.1c0 .1 0 0 0 0v-.1h.2V28c-.1 0-.1 0 0 0V28h.1v-.1h.1v-.1s.1 0 0 0H29.9c0-.1 0-.1 0 0l.1-.1h.2s.1 0 0 0H30.5v.2h.1v.4s0 .1 0 0v.1h-.1v.1c0 .1-.1.2 0 .2h-.1v.1s-.1 0 0 .1h-.1v.1H30v.1H30v.1h-.1a.8.8 0 00-.1.2h-.1a.1.1 0 01-.1.1h-.1-.1v.1a1.2 1.2 0 01-.2 0 .4.4 0 00-.1 0H29h-.4s-.1 0 0 0h-.1-.1l-.2-.1H28a.5.5 0 01-.1-.1.2.2 0 000-.1h-.1c-.1-.1-.1-.1 0-.1h-.1l-.1-.2-.2-.2v-.1l-.1-.2c0-.1 0-.1 0 0v-.1-.2l-.1-.1V28a.6.6 0 010-.2v-.1a.3.3 0 010-.1v-.1c0-.1 0-.1.1 0v-.1-.1a.2.2 0 00.1-.1V27l.1-.1h.1v-.1h.1v-.1h.1v-.1a.4.4 0 01.2 0v-.1a.7.7 0 00.2 0v-.1h.2l.2-.1H29.7a.1.1 0 010 .1h.1c.1 0 .1 0 0 0h.1v.1c0 .1 0 .1 0 0v.2s.1 0 0 0h.2s.2.1.2 0v.2h.1v.2h.1v.2s.1 0 0 0v.1c.1 0 .1.1 0 .1v.2h-.1v.1H30v.1h-.2zM29.7 28.4z"/><path class="cls-1" d="M4.7 34.1v-.2H5h-.1a.8.8 0 01-.1 0h.1a.4.4 0 000-.1 2.3 2.3 0 00-.2.1h.1v-.1-.1h.1a.3.3 0 000-.1v-.1a.5.5 0 00.1 0v-.1-.2H5V33h.1V33c.1-.1.1-.1 0-.1h.1a.5.5 0 000-.2h.1l.1-.1a.5.5 0 00.1-.2.5.5 0 01.2-.1v-.1h.1a.4.4 0 010-.1.1.1 0 00.2-.1.4.4 0 010-.1l.1-.1a1 1 0 01.2-.2l.2-.2A1.9 1.9 0 017 31v-.1h.2l.1-.2.2-.2.3-.2v-.1L8 30a.5.5 0 00.2-.2.9.9 0 01.2-.2l.2-.2.1-.1-.3.2-.2.2.1-.2.5-.3c-.1 0-.2.2 0 .1a1.4 1.4 0 00.2-.2 1 1 0 000-.2 5.3 5.3 0 01.5-.5l.5-.4c-.2.1-.2.1 0 0s.2 0 .1 0l-.3.2c-.2.1 0 .2 0 0a2.6 2.6 0 00.5-.3l.1-.3c.2-.2.2-.2 0-.1-.1.1-.1.1 0 0a.9.9 0 00.1-.2h-.1l.2-.2a1.4 1.4 0 00.2-.1 1 1 0 00.1-.2l.1-.1a1.5 1.5 0 01.3-.3l.2-.2h.1a7.2 7.2 0 00.5-.7h.1l.2-.2.2-.1a.7.7 0 01.2-.2v-.1a.6.6 0 00.1-.1.5.5 0 01.1 0l.1-.1.1-.2a2.3 2.3 0 00.3-.2v-.1l.3-.3.3-.4.4-.3a3.1 3.1 0 01.4-.5c.3-.2.4-.3.3-.1h.1a.1.1 0 010-.1 4.7 4.7 0 00.3-.4l.3-.3.2-.2a.4.4 0 01.2-.2l.3-.3a1.3 1.3 0 00.1-.2.4.4 0 010 .1.6.6 0 010-.2v.1l-.1.1.2-.3.2-.1c-.1 0 0 0 0-.1h.1a1.3 1.3 0 01.3-.3 2.3 2.3 0 00.4-.5l.2-.2.3.2.2.2-.4-.3.2.1.5.4.1.1a1 1 0 01.3.2 1.3 1.3 0 01.2.2h.2a1.2 1.2 0 01.3.2l.2.2c.1 0 .1 0 0 0a.2.2 0 00.1.1 1 1 0 01.2.2l.2.1s.2 0 .1.1a1.2 1.2 0 00.2.2 2.1 2.1 0 01.2 0 .5.5 0 01-.2 0 .2.2 0 00.1 0l.3.2.1.1c0 .1 0 .1 0 0l.4.3c.2.2.2.2 0 0 0 .2.2.2.2.2a.8.8 0 01.2.1c.3.2.4.3.3.1a.6.6 0 01.2.2.9.9 0 00.2.1c.2.1.2.1 0 0v.2h.2c-.1 0 .1.3.4.4l.2.1v.1l.3.2a.6.6 0 00.3.2l1.2.9c.4.3.1 0 .4.1l1.4 1.1.2.2.2.1c-.1 0-.1 0 0 0l.1.2h-.1a2 2 0 00-.5-.4 2.5 2.5 0 00.6.5l.4.3h.1a1.1 1.1 0 01.2.1v-.1L28 27l-.2-.2.1.1.3.2h.1a.4.4 0 01.3.3h.1l.2-.2.1-.1.2-.2.1-.1a.6.6 0 00.3-.3v-.2a1 1 0 00.2-.1c0-.1.1-.2 0 0l.2-.1.1-.1.1-.1c-.2 0-.1 0 0-.1l.1-.2v-.1l.2-.2h.1l-.1.2v-.1.1c.2-.2.2-.1 0 0 0 .1 0 .1.1 0l.2-.3a1 1 0 01.2-.2c.1-.2.1-.2 0 0-.2.2-.3.2-.1 0l.2-.2v-.1c.2 0 .2-.2.2-.2.2 0 .5-.4.4-.4l.3-.4a.9.9 0 00.1-.2h.1l-.2.1.1-.1.2-.2c.2-.3.4-.5.5-.4a2 2 0 01.3-.4l.2-.2c.2-.2 0-.2 0-.1a1.2 1.2 0 01-.2.1 1.3 1.3 0 01.2-.2l.2-.2c-.2.2-.2.2 0 0h.2v-.2h.1v-.2a1 1 0 00.2-.2h.1l.2-.2.4-.5a.3.3 0 01.1-.1.8.8 0 010-.1c-.1 0-.1 0 0 0l.1-.1.1-.1.1-.1.2-.2a.7.7 0 01.1-.2h.1l.1-.2a2.3 2.3 0 01.2-.2v-.1a.1.1 0 01.1 0 .2.2 0 010-.1l.2-.2.1-.1h.1v-.1l.2-.2c.1-.1.1-.1.1 0a.3.3 0 010-.1.5.5 0 00.2-.1h.1a.4.4 0 010-.1l.1-.1h.1a.4.4 0 000-.1.1.1 0 01.1 0c0-.1.1-.1 0-.1h.1l.1-.1c.1 0 .2-.1.1 0a.3.3 0 010-.1h.1a.4.4 0 010-.1h.2v.1c0 .1 0 .1 0 0v.1c0-.1 0-.1 0 0v-.1a.6.6 0 000 .1c0-.1.1-.1 0 0a.4.4 0 010 .1 1 1 0 00.1-.1c.1-.2.1-.2 0 0 0 0 .1 0 0 0v.2a1 1 0 01.1-.2v.2a.4.4 0 01-.1.1c.1-.1.2-.1 0 0 0 0 0 .1 0 0h.1c-.2.2 0 .1 0 0 0 0 .1-.1.1 0H38c0 .1 0 0 0 0 .1 0 0 0 0 .1 0 0-.1.1 0 0v.1c-.1 0-.1 0 0 0l-.2.4c0-.1 0 0 0 0l-.1.2a1.6 1.6 0 01-.1.1l-.1.1a.6.6 0 010 .1h-.1l-.2.3a.3.3 0 00-.1.1l-.1.1v.1H37v.1s0 .1 0 0v.1h-.2v.1a.9.9 0 01-.1.2h-.1v.1a.6.6 0 01-.2.1v.1a1.3 1.3 0 01-.2.1.1.1 0 010 .1s0 .1 0 0a.3.3 0 00-.1.1l-.2.3a1 1 0 00-.2.1l-.1.2v.1l-.3.2v.1l-.3.3-.1.1a.7.7 0 01-.3.3l-.1.2-.3.3-.2.2a3 3 0 00-.2.3 1 1 0 01-.1.2l-.3.2a1 1 0 01-.2.3l-.1.2-.3.3-.5.6a.5.5 0 01-.1.2l-.2.1a1.8 1.8 0 01-.3.4 1.6 1.6 0 00-.2.3 1.2 1.2 0 01-.2.1v.1a1 1 0 01-.2.2 3 3 0 00-.2.3l-.4.4-.3.4-.1.1-.1.1-.1.2h-.1l-.7.9a3.4 3.4 0 01-.5-.3 2.6 2.6 0 01-.6-.4 1 1 0 00-.2-.1v-.1l-.3-.1a2 2 0 00-.3-.3.9.9 0 01-.2-.1 3.6 3.6 0 00-.6-.4l-.5-.4-.3-.2-.1-.1a2.6 2.6 0 00-.3-.2l-.2-.2-.2-.1c-.2-.1-.2-.2-.1-.2 0 .1 0 .1-.1 0l-.2-.2a2.1 2.1 0 00-.4-.2 5.9 5.9 0 01-1-.8l-.2-.1-.4-.3a5.4 5.4 0 00-.5-.3l-.1-.1-.2-.2c-.2-.1-.2-.1 0 0h-.1a.9.9 0 01-.2-.2l-.5-.3-.5-.4-.4-.3-.6-.4c.1 0 0 0 0 0l-.2-.1a1.5 1.5 0 00-.3-.2l-.2-.2a1.7 1.7 0 01-.2-.2 1.3 1.3 0 01-.1-.1.4.4 0 01-.2-.1H18l-.2.2a1 1 0 00-.2.2 1 1 0 01-.2.3l-.2.2a.9.9 0 01-.1.1H17v.2h-.2a1.9 1.9 0 00-.2.3l-.2.1a.8.8 0 00-.1.2l-.1.1a.8.8 0 00-.3.3l-.3.3h-.1v.2l-.3.2-.3.3-.3.3a1 1 0 01-.2.2 2 2 0 01-.2.2.5.5 0 01-.1.2.4.4 0 00-.1 0l-.3.4-.2.1a1.6 1.6 0 00-.1.2 2 2 0 01-.3.4c-.1 0-.2.1-.1 0l-.2.2a2.3 2.3 0 00-.2.2l-.4.4-.1.1-.1.2-.1.1a.5.5 0 01-.2.2h-.1a.2.2 0 01-.1.1l-.2.2c.2 0 0 .1 0 .2a.7.7 0 00-.3.2l-.2.2c-.2.1-.2.2 0 .1l-.1.1-.2.2-.3.2c.2-.2.2-.1 0 0-.2.3-.3.3 0 0 .1-.1.1-.1 0 0a.8.8 0 00-.4.3v.1c-.1 0-.1 0 0 0h-.2l-.1.2c.2-.2 0 0 0 0l-.2.2c0-.1 0-.1 0 0l-.3.3v.2l-.3.3-.3.3-.2.2-.1.1a1.3 1.3 0 01-.2.2l-.1.1-.2.1v.2c-.1 0-.1 0 0 0h-.1v.1h-.1v.1h-.1a.2.2 0 00-.1.2H7v.1H7l-.2.2-.2.1-.2.3h-.1s0 .1 0 0a1.1 1.1 0 01-.3.3c0 .1-.2.2-.2 0H6l-.2.2h-.1l-.1.1h-.1v.1c-.1 0 0 0 0 0v-.1-.1a.6.6 0 01.1 0 .2.2 0 000-.1.3.3 0 00.1 0h-.2v.2a.2.2 0 00-.1.1l-.2.1-.1.1V34l.1-.2a1.6 1.6 0 00-.1.2.1.1 0 01-.1 0 .5.5 0 00-.1.1c0-.1-.1 0-.1 0zM34.3 22z"/></svg>