<svg version="1.0" xmlns="http://www.w3.org/2000/svg" viewBox="0 0 500 500"><path fill="#2e3338" d="M309 44.7c-24.9 5.8-38.4 12.8-54.3 28.2-14.8 14.3-26.6 35.1-29.9 52.6a190 190 0 01-1.9 9.3c-3.2 14.7 3 53.9 10 62.7 1.1 1.5 2.1 3.4 2.1 4.1 0 2.6 12 19.1 15.7 21.7 2.1 1.4 8 6.6 13 11.6 8.2 7.9 10.7 9.7 21.7 15.1 10.7 5.4 13.6 6.4 20.3 7 4.3.5 10.3 1.5 13.3 2.3 11.5 2.9 34.4.3 46.9-5.5 2.5-1.1 6.1-2.2 8-2.6 8.2-1.3 23.4-10.9 34-21.3 15.6-15.5 27.9-38.7 32.2-60.8 1.5-7.9.6-38.3-1.4-45.6-2.7-9.4-10.8-26.9-16.2-34.4-8-11.4-17.8-21.4-27.2-27.9-4.6-3.1-9-6-9.6-6.3-.7-.3-2.2-1.1-3.3-1.7-5.5-2.8-14.9-6.4-17.8-6.7-1.7-.3-6.7-1.4-11-2.5-11.5-2.9-30.4-2.7-44.6.7zM338.8 55c2.3.6 7.3 1.2 11 1.5 7.3.6 12.8 2 15.2 4 .8.7 4.2 2.4 7.5 3.7 3.3 1.3 8.7 4.1 12 6.3 7.9 5.1 25.4 22.8 28.4 28.5 1.2 2.5 3.5 6.7 5.1 9.5 1.6 2.7 3.2 6.3 3.5 8 .4 1.6 1.1 3.4 1.5 4 .4.5 1 2.3 1.4 4 3.1 14 3.6 18.3 3.6 33.2 0 18.2-1.2 23.6-7.5 34.3-1.8 3-4.4 7.4-5.7 9.7-3.8 6.7-17.6 21.1-26.2 27.5-9.6 7.1-23.6 14-33.1 16.1-12.2 2.7-22.2 4-27.7 3.4-13.4-1.3-23.3-3-25.2-4.2-1.2-.8-4.7-2.3-7.9-3.5-3.2-1.2-5.6-2.5-5.3-2.8.3-.3-2.2-2.1-5.7-4-3.4-1.8-7.9-5-10-7-2.1-2-4.4-3.7-5.2-3.7-1.5 0-8.7-8-13.5-15-1.7-2.4-3.3-4.5-3.8-4.7-1.1-.4-7.2-13-7.2-14.9 0-.8-.8-2.8-1.8-4.4-4-6.6-5.5-15.2-5.4-31.6 0-8.5.6-17.5 1.2-19.9.6-2.3 1.6-6.7 2-9.8 1.2-6.8 5.9-17.2 10.5-22.8 1.9-2.3 3.5-4.8 3.5-5.4 0-1.7 8.7-11.9 14.8-17.3 10.7-9.5 27.6-17.8 42.9-21.2 11.7-2.5 20.4-3 27.1-1.5zM172.5 57.2c-3.3.5-7.8 1.7-10 2.7-2.2 1-5.6 2.5-7.5 3.2-10.7 4-25.9 12.2-30.8 16.8-1.9 1.7-3.9 3.1-4.4 3.1-1.1 0-7.5 5.2-12.3 10-1.7 1.6-3.5 3-4.1 3-.5 0-2.3 1.4-4 3.1-1.6 1.7-5.3 4.5-8.3 6.2-4.8 2.7-13.2 11.6-14.9 15.7-.3.8-2.7 4.2-5.2 7.5s-5.2 7.6-6 9.5c-.7 1.9-2 4.3-2.8 5.2-1.8 2.1-6.2 10.8-6.2 12.1 0 .6-.8 1.9-1.7 2.9-.9 1.1-2 4.6-2.4 8-.4 3.4-1.4 6.7-2.1 7.3-1.7 1.2-5.8 13.1-5.8 16.7 0 1.5-.4 2.8-.9 3-.5.1-1.2 4.5-1.6 9.6-.4 5.1-1 10.5-1.4 12-1 3.3-.7 23.1.4 28.9.9 5.3-.2 5.5-4.2.8-1.7-1.9-5.9-6.5-9.4-10.3-3.5-3.8-8.1-8.7-10.2-11.1-3.4-3.7-4.3-4.1-7.8-3.9-2.1.1-3.9.7-4 1.2-.1.6-.5 0-1-1.4-.6-1.7-.7-.8-.3 3 .6 6.5 2 9.7 4.6 10.6 1 .3 2.5 1.9 3.3 3.5.9 1.6 2 2.9 2.6 2.9.5 0 1.4 1.1 1.9 2.5s1.6 2.5 2.3 2.5c.8 0 2 1.1 2.7 2.5.7 1.4 1.7 2.5 2.1 2.5.4 0 1 1.3 1.4 3 .3 1.6 1.5 3.2 2.5 3.5 1 .3 2.1 1.2 2.4 2 .3.9 1.2 1.2 2.2.8 1.4-.5 1.6-.3 1.1 1.1-.7 1.8-.6 1.9 8.6 10.4 2.6 2.4 4.7 5 4.7 5.8 0 2.1 2.1 1.7 9.8-1.9 2.5-1.2 8-8.9 8.9-12.7.4-1.4 1.2-3 1.9-3.7.6-.7 3.4-4.2 6-7.8 2.6-3.6 5.1-6.5 5.6-6.5.4 0 .8-1.1.8-2.5s.7-2.8 1.5-3.1c.8-.4 1.5-1.5 1.5-2.5 0-1.2.7-1.9 1.9-1.9s2.1-.9 2.5-2.5c.4-1.4 1.2-2.5 2-2.5 1.7 0 3.6-4.3 3.6-8 0-3.8-2.6-5.3-7.1-4-1.8.5-3.4.8-3.7.6-.7-.8-3.7 3-6.1 7.7-1.3 2.6-2.9 4.7-3.5 4.7-1.1.1-5.4 5.5-9 11.4-1 1.7-2.7 3.8-3.7 4.7-1 .9-1.9 1.9-1.9 2.2 0 .9-6.3 9.7-6.6 9.4-.2-.2.1-3.2.6-6.7.5-3.6 1.4-16.9 2-29.5.9-17.7 1.6-24.3 3.1-28.8 1-3.1 1.9-6.2 1.9-6.7 0-1 1.5-4.6 6.1-14.8 1-2.3 1.9-5 1.9-5.8 0-.9.9-2.9 2-4.5 1.2-1.5 2.6-4.3 3.2-6.1.6-1.8 2.6-5.7 4.5-8.6 1.8-2.9 3.3-5.5 3.3-5.8 0-.6 9.2-12.5 16.3-21 4.4-5.5 22.4-20.9 27-23.3 1.5-.8 2.7-1.8 2.7-2.3 0-.4.4-.8 1-.8.5 0 4.4-2 8.6-4.5 4.1-2.5 7.9-4.5 8.3-4.5.4 0 3.3-1.4 6.3-3 3.1-1.7 9.6-4.4 14.4-6 4.9-1.7 9.6-3.4 10.4-3.9.8-.4 4-1.4 7-2.1 5.2-1.2 13.1-5.3 13.8-7.1.2-.5 1.2-.9 2.3-.9 2.4 0 2.4-.9.2-2.6-2.1-1.5-15.3-1.6-24.8-.2zM444 246.4c-1.9.6-4.2 1.5-5.1 2.1-2 1.2-7.7 8.6-10.4 13.5a27.1 27.1 0 01-4.7 5.8c-1.6 1.3-2.8 2.9-2.8 3.6 0 .6-1.6 2.8-3.6 4.8-2.6 2.8-3.4 4.3-2.9 5.8.4 1.4.2 2-.8 2-.8 0-2 1.4-2.7 3-.7 1.7-2.2 3.8-3.4 4.8-3.6 2.9-4.9 6.6-3.9 10.9.9 3.8.9 3.8 5.7 3.7 4.3 0 5.1-.4 8.1-4 1.8-2.1 4.6-5.2 6.1-6.8 1.4-1.7 3.1-4.5 3.6-6.3.5-1.8 1.3-3.3 1.8-3.3.6 0 1-.7 1-1.5s.5-1.5 1-1.5c.6 0 1-.6 1-1.3 0-.7 1.4-2.7 3-4.5l3-3.3v7.8c0 4.3-.5 12-1 17-3.2 29.8-4.1 34.3-8.4 41.2-1.4 2.2-2.6 4.8-2.6 5.6 0 .9-.9 3.3-2 5.5s-2 4.6-2 5.4c0 .8-.3 1.6-.8 1.8-.4.1-2.4 3.7-4.5 7.8s-5.2 9.2-7 11.2c-1.8 2-4.3 5.5-5.6 7.7-2.6 4.3-18 20.5-24.6 26-6.2 5.1-18.4 14.1-19.1 14.1-.4 0-5 2.4-10.3 5.2-10.1 5.6-12.9 6.8-22.6 10-3.3 1.1-6.9 2.4-8 2.9-1.1.5-7.4 2.4-14 4.2-7.3 2-11.9 3.8-11.8 4.5.2.6-.9 1.4-2.5 1.8-5.5 1.2-5.6 1.3-3.3 3.3 1.2 1.1 3.2 1.7 4.8 1.5 1.6-.1 8.7-.8 15.8-1.4 12-1 15.2-1.7 24.3-5.6 1.8-.8 3.7-1.4 4.2-1.4.6 0 5.9-2.4 11.9-5.4 6.1-3 11.3-5.1 11.7-4.7.4.3.4.1.1-.5-.3-.6 1-1.6 3.1-2.4 2-.7 6.8-3.8 10.7-6.9l8-6.3c15.4-11.7 32-28.9 38.3-39.8 1.4-2.5 4.1-6.7 5.9-9.4 1.8-2.7 3.6-6 4-7.4.3-1.4 1.6-4 2.8-5.8 1.2-1.8 2.5-5.2 2.9-7.6.4-2.4 1.3-5.3 2.1-6.4 1.7-2.7 5.3-12.4 6.7-17.9.9-4 1.9-9 4-20 1.3-6.6 1.7-34.2.6-39.2l-.7-3.1 4.4 4.6c2.4 2.6 9.1 9.5 14.9 15.5 5.8 5.9 10.8 11.6 11.1 12.7.4 1.4 1.5 2 3.5 2 10.6 0 10.7-6.6.3-16.8-1.8-1.7-3.3-3.5-3.3-3.9 0-.4-1.7-2.2-3.7-4-2-1.8-3.4-3.3-3-3.3.4 0 0-.8-.7-1.8-.8-.9-2.7-3.2-4.1-5-1.5-1.8-3.4-3.1-4.3-3-1.1.2-1.7-.5-1.8-1.8-.1-1.2-3.3-5.4-7.5-9.6-7.4-7.4-7.4-7.4-10.9-6.4zM163.5 247.2c-3.3.5-8.3 1.6-11.1 2.4-2.8.7-6.2 1.4-7.7 1.4-5.1 0-18.5 5.7-27.3 11.6-9.8 6.5-25.5 21-31.5 29.1-4.5 6-13.1 23-14.7 28.8-5.5 20.9-6.2 29.6-4.1 48.3 1.4 11.9 5.8 27.5 9.3 32.7 1.4 2.1 2.6 4.2 2.6 4.7 0 .4 2.2 4.2 5 8.4 5.7 8.7 16.8 20.1 25.5 26.5 3.3 2.4 6.4 5 6.8 5.7 1.3 2 17.5 9.7 26.3 12.5 24.5 7.8 53.2 6.6 71.6-2.9 1.5-.8 3.6-1.4 4.6-1.4 5.5 0 27.2-13.9 34.7-22.2 5.4-6.1 16-20.5 17.5-23.9.5-1.3 1.4-3.1 1.9-3.9 1.6-2.5 4.7-10.3 6-15 .7-2.5 1.7-5.4 2.1-6.5 4.4-11.6 5.7-23 4.1-36-.6-5-1.3-11-1.5-13.5-.5-5.2-2.1-10.4-6.6-21-6-14.4-10.9-21.7-22.1-32.9-11.7-11.6-14.5-14.1-15.7-14.1-.5 0-1.7-.9-2.8-2.1-2.6-2.9-21.1-11.7-27-12.8-2.7-.6-8.5-1.9-12.9-3-8.6-2.2-21.9-2.6-33-.9zm18.6 11.8c3 .6 9 1.7 13.4 2.5 8 1.4 16.6 4.5 26 9.2 12.3 6.3 31.2 23.8 35.8 33.3 1.2 2.5 2.9 5.6 3.7 7 2.5 3.8 8.7 21.7 9.9 28.6 1.7 9.4 1.4 38-.5 43.3-4.8 13.9-14 27.9-26.3 40.1-9.9 9.7-12.8 11.9-23.6 17.4-2.2 1.1-4.2 2.3-4.5 2.7-2.2 3.1-30.9 9.9-41.7 9.9-8.8-.1-26.3-2.8-27.9-4.5-.8-.8-2.2-1.5-3-1.5-2.2 0-9.4-3.1-9-3.9.3-.4-1.6-1.6-4.2-2.8-2.6-1.2-7.6-4.5-11.1-7.3-3.5-2.9-6-4.6-5.6-3.8 2 3.4-12.9-12.2-15.1-16-1.4-2.3-2.9-4.2-3.5-4.2-.6 0-2.2-2.6-3.6-5.8-1.4-3.1-3.9-8.6-5.6-12.2-3.3-7.1-6.6-24.4-6.7-34.5 0-3.3 1.1-12.3 2.4-20 2.5-14.8 5.4-21.9 14.5-35.3 2-3 4.2-6.4 4.8-7.7.7-1.2 4.8-5.5 9-9.6 11.7-11.1 28.6-19.9 43.8-22.9 3.3-.6 7.4-1.5 9-2 4.4-1.2 13.4-1.2 19.6 0z"/></svg>