<svg id="Layer_1" data-name="Layer 1" xmlns="http://www.w3.org/2000/svg" viewBox="0 0 48 48"><defs/><path class="cls-1" d="M40.3 19.4c-.1.1-.1 0-.1 0l.1-.1a1.5 1.5 0 00.1-.2l.3-.5a2 2 0 01.1-.2v-.1a1.8 1.8 0 000 .2c-.3.5-.4.6-.2.2a3.8 3.8 0 01.2-.3s0-.2 0 0v-.1l-.2.4.2-.5-.1.2-.4.5a1.7 1.7 0 01.2-.3h.1c.2-.4 0-.2-.1.1l.2-.4.1-.3v-.1c.1-.2.1-.3 0 0l.3-1.3a.7.7 0 000-.2 3.7 3.7 0 010 .4v-.3a.7.7 0 010-.2.7.7 0 000-.2c0-.3 0-.2 0 0v-.5-.4a2.2 2.2 0 010-.5v-.5a4.3 4.3 0 000-1c0 .4-.1 0-.1 0l-.1-.6v-.2l-.2-.4v-.2a.5.5 0 010-.1l-.1-.1-.1-.3v-.1l-.2-.5-.1-.1a1.6 1.6 0 01-.1-.3 1.7 1.7 0 00-.2-.3l-.2-.3h.1l-.2-.2v-.1a.3.3 0 00-.1-.1l-.1-.2-.4-.5-.6-.6a2.4 2.4 0 01-.3-.3 2 2 0 00-.2-.2l-.8-.6a4.6 4.6 0 00-.6-.4 5.5 5.5 0 00-.6-.3l-.8-.3-.2-.2a2.7 2.7 0 00-.6-.2h-.5l-.1-.1h-.3a1.3 1.3 0 01-.4 0 5 5 0 00-.9-.2H31l-.4.1a3.1 3.1 0 00-.9.2h-.2a7 7 0 00-1 .3 2.6 2.6 0 00-.4.2l-.2.1a5 5 0 00-.7.4 6.8 6.8 0 00-1 .6l-.9.8a6.7 6.7 0 01-.5.6l-.4.5a.6.6 0 000 .2l-.4.5-.2.2-.5 1a3.1 3.1 0 00-.2.6 2 2 0 00-.1.4v.2l-.3 1.3V14.3a7 7 0 000 1l.1 1.2.2.6a.4.4 0 000 .2l.2.3.1.3c0-.3 0-.3.1.2a4.5 4.5 0 01.2.6l.2.3a1.2 1.2 0 01.1.3l.2.4c0-.3.3.2.5.5a3.4 3.4 0 00.6.7 5.9 5.9 0 00.4.5c.5.4.7.5.3.1-.5-.4-.4-.4.3.2l.4.4.8.5c.3.2.3.2 0 0-.5-.3-.5-.3 0 0 .9.4 1.2.6.3.2-.6-.3-.6-.3-.1 0a3.4 3.4 0 001.2.5l.2.1c.4.1.3.1 0 0a1 1 0 00.3.2l.6.1h-.3c-.3-.2 0-.1.3 0 .7 0 1 .1.6.1h.3a6.1 6.1 0 00.8.1.7.7 0 00.2 0h.4a11.4 11.4 0 001-.2h.3l.9-.2a3.9 3.9 0 00.6-.2 5.2 5.2 0 01.5-.2l.3-.2a.8.8 0 00.2 0h-.2a1.6 1.6 0 01.4-.2h.1l.3-.2a1.8 1.8 0 00.3-.2l.3-.1H37l.2-.1.1-.1.3-.2.5-.4.2-.2.3-.3a1.3 1.3 0 00.2-.2l.3-.4a2.6 2.6 0 01.3-.3 2 2 0 00.3-.4l.5-.9.1-.2a.6.6 0 010-.1h.1c.1-.2.2-.4.2-.2l-.1.2-.2.4a3.5 3.5 0 00.2-.5 4.2 4.2 0 00.2-.5.5.5 0 01.1-.2v-.2c.1-.1.1-.1.1 0l.1-.4c0-.2 0-.2 0 0l.2-.4a.6.6 0 000-.1v-.1.4l-.2.5a1.1 1.1 0 010 .3 1.9 1.9 0 00-.1.2v.2a.6.6 0 000-.2v-.1a1 1 0 00.1-.2 1.9 1.9 0 00.1-.3 4.3 4.3 0 01.1-.5v-.2a1.2 1.2 0 00.1-.2V16v-.3h.1v-.1a1.9 1.9 0 010-.2h.1v-.2.9a7.2 7.2 0 000-.7 1.1 1.1 0 01.1-.3v.1a2.6 2.6 0 000-.4v-.1l.1.2.1-.2c0-.3 0-.3 0 0s0 .3 0 0v.7l.1-.4c0-.1 0-.1 0 0v.5c0 .1 0 .1 0 0v.3l-.1.3a2.8 2.8 0 000-.4 3.7 3.7 0 00.1-.5v.4c0-.1 0 0 0 0a2 2 0 010 .4V16.4a.8.8 0 000-.1 2 2 0 010 .3v.1l-.1.4c0 .1 0 0 0 0v-.3.3c0 .1 0 .1 0 0a1.6 1.6 0 000 .2 2 2 0 010 .4.5.5 0 000-.1l-.1.2-.1.3v.3l-.1.1-.1.3-.1.2-.1.2-.2.4v.1l-.1.1v.1l-.2.3-.4.5a3.3 3.3 0 01-.5.7 1.1 1.1 0 00-.2.2 1 1 0 01-.2.2l-.1.2-.2.2a.9.9 0 01-.1 0 2 2 0 00-.3.3 3.3 3.3 0 01-.2.2l-.6.4a4.3 4.3 0 01-.7.5l-.7.3c-.3.2.2 0 0 0l-.3.2a3.6 3.6 0 01-.4 0l-1 .4h.1l-.3.1a3.5 3.5 0 00-.7.2h-.3l-.7.1a7.2 7.2 0 01-.7 0h-.4-1 .3l.7.1h.6a1.3 1.3 0 00.3 0 2.8 2.8 0 00.6-.1h-.4a8 8 0 01-1.7.1 3 3 0 01-.8-.1 2.7 2.7 0 00-.3 0h.7l-1-.2c-.4 0-.8-.1-.8 0a9 9 0 01-1.6-.7 8.8 8.8 0 01-1.7-1l-.1-.1.2.2c.3.2.3.2.1 0l-.6-.5c-.2-.2-.1 0 0 0l1 .7c.4.2.5.3 0 0l-1.4-1.1-.5-.5c-.5-.5-.6-.5-.4-.3.5.6.5.6 0 0l-.3-.2-.1-.2a8.8 8.8 0 01-.7-1l-.3-.5v-.1l-.2-.4-.3-.4-.3-1-.3-1v-.4c0 .3 0 .3 0 0l-.2-1.8v-.3-.7a6 6 0 01.2-.7v-.3a5.3 5.3 0 01.1-.6l.1-.3.2-.4v-.2l.2-.4v-.1c0 .3 0-.1.2-.4l.5-1 .1-.1a8.8 8.8 0 01.8-1.2l.8-.8.2-.2a9.6 9.6 0 011.3-1h.1a8.2 8.2 0 011.6-.9l.9-.3h.4a10.1 10.1 0 011.1-.3 4.1 4.1 0 00.4-.1 4.2 4.2 0 011-.1 7.6 7.6 0 011.1 0 2 2 0 01.8.1 7.3 7.3 0 011.2.3 7 7 0 01.7.2l-.4-.2a3.5 3.5 0 01.6.2l-.4-.1-.3-.1a4.3 4.3 0 011 .3l.7.3.3.2h.2a4.1 4.1 0 01.5.4l.2.1.2.2h.1c.2.2.3.3.5.3a6.5 6.5 0 01.7.7l.2.3a4.9 4.9 0 00-.5-.5l.3.2V7h.1a6 6 0 01.4.5 2.7 2.7 0 00.3.2l.3.5.3.4.5.7.4 1a1.1 1.1 0 01.1.2 2.8 2.8 0 00.1.3v0-.2.1a2.2 2.2 0 01.1.2 8.5 8.5 0 01.4 1.3 2.7 2.7 0 010 .6 1.2 1.2 0 000 .2l.1.3V14.6a3.3 3.3 0 010 .4v1a.4.4 0 00-.1 0V16.7v-.1-.1a.5.5 0 00-.1.2v.1a.6.6 0 010 .1v.1l-.2.4v.2-.2c0-.4 0-.3 0 0a2.5 2.5 0 010 .3v-.1a1.8 1.8 0 01-.2.4.8.8 0 010 .3h-.1v-.1l.1-.3v.2a2.9 2.9 0 01-.2.4v-.3.3h-.1a1 1 0 010 .2 2.4 2.4 0 010-.3c-.1.4-.3.7-.1.4a2.8 2.8 0 01-.2.4H41l-.1.2a1.9 1.9 0 01-.2.3v.1a3.5 3.5 0 00.2-.5l-.1.2-.1.2a1 1 0 000-.2l.2-.2-.1.2-.2.3a1.6 1.6 0 01.1-.2s.1-.2 0 0l-.1.1-.1.2c0-.1 0 0 0 0v-.2.1a.5.5 0 01.1-.2 1.2 1.2 0 00.1-.2l-.1.2a1.6 1.6 0 00.1-.2 2.1 2.1 0 01.1-.2v.2h-.1v-.1l.1-.2-.1.3-.1.1v-.2l.3-.2h-.1v.1a4 4 0 01-.4.5 3.6 3.6 0 00.2-.3l.2-.3-.3.4c.1-.2 0 0 0 0l.2-.4h.1a2.8 2.8 0 00.1-.3 2.3 2.3 0 01-.2.3l-.3.4.1-.1c.2-.3 0 0 0 0-.2.3-.3.3 0 0l.3-.7c0 .2 0 .2 0 0l-.1.2-.1.2a3.3 3.3 0 01-.3.4zM25.3 39.1c-.1.2 0 0 0 0V39a1.6 1.6 0 00.1-.2l.3-.5a2.1 2.1 0 01.1-.2 1.4 1.4 0 000-.1 1.9 1.9 0 000 .2c-.3.5-.4.6-.2.2a4 4 0 01.2-.3s0-.2 0 0V38l-.2.4.2-.5-.1.2-.3.5a1.7 1.7 0 01.2-.2v-.2l-.1.2.2-.4.1-.3c.2-.3.1-.4 0-.1l.3-1.3a.7.7 0 000-.2 3.7 3.7 0 010 .4v-.3a.7.7 0 010-.2.7.7 0 000-.2c0-.3 0-.2 0 0v-.5-.4-.5-.5a4.3 4.3 0 000-.9c0 .3 0 0 0 0l-.2-.7V32l-.1-.4-.1-.2a.5.5 0 010-.1c-.1-.2-.1-.2 0-.1l-.2-.2v-.2l-.2-.4v-.2a1.6 1.6 0 01-.2-.3 1.7 1.7 0 00-.2-.3l-.1-.3v.1-.1l-.2-.2V29a.3.3 0 000-.1l-.2-.2-.4-.5-.6-.6a2.8 2.8 0 01-.3-.3 1.9 1.9 0 00-.2-.2l-.8-.6a4.5 4.5 0 00-.6-.4 5.5 5.5 0 00-.6-.3l-.7-.3-.3-.1a2.6 2.6 0 00-.6-.2l-.3-.1h-.2l-.4-.1a1.4 1.4 0 01-.3 0 4.8 4.8 0 00-1-.2h-.5a6.2 6.2 0 00-.7 0l-.3.1a3.1 3.1 0 00-1 .2h-.2a7 7 0 00-1 .3 2.7 2.7 0 00-.4.2l-.2.1a5 5 0 00-.7.4 6.7 6.7 0 00-1 .6l-.9.9a7 7 0 01-.5.5c0 .2-.2.4-.4.5a.7.7 0 000 .2l-.4.5-.1.2-.5 1a3.1 3.1 0 00-.3.6 2 2 0 000 .4l-.1.2-.2 1.3c-.1.3 0 .6-.1.3v.6a7 7 0 000 1l.2 1.2.1.6v.1l.2.4.1.3c0-.3 0-.3.1.2a4.5 4.5 0 01.3.6l.1.3a1.2 1.2 0 01.1.3l.3.4c-.1-.3.3.2.4.5a3.4 3.4 0 00.6.7 5.7 5.7 0 00.5.5c.4.4.6.5.2.1-.4-.4-.4-.4.3.2l.5.4.7.5c.3.2.3.2 0 0-.5-.3-.5-.3 0 0 1 .4 1.2.6.3.2-.6-.3-.6-.3 0 0a3.4 3.4 0 001.1.5l.3.1c.3.1.2.1 0 0a1 1 0 00.2.2l.6.1h-.3c-.3-.2 0 0 .4 0l.6.1h.3a6.3 6.3 0 00.7.1h.6a12.3 12.3 0 001-.2h.3l.9-.2a3.6 3.6 0 00.6-.2 5 5 0 01.6-.2l.3-.2h.1-.2a1.5 1.5 0 01.4-.2 1.4 1.4 0 00.1 0c.2 0 .3-.2.3-.2a2 2 0 00.3-.2l.3-.1s-.1 0 0 0l.1-.1.2-.1.2-.2.5-.4.2-.2.3-.3a1.3 1.3 0 00.2-.2l.4-.4a2.4 2.4 0 01.2-.3 2 2 0 00.3-.4l.5-.9.2-.2a.7.7 0 010-.1c.1-.2.2-.4.2-.2l-.1.2c-.1 0 0 0 0 0l-.2.4a3.6 3.6 0 00.3-.5 3.9 3.9 0 00.1-.5.5.5 0 01.1-.2l.1-.2.1-.4c0-.2 0-.2 0 0l.2-.4a.7.7 0 000-.1v-.1c.1-.2 0 .1 0 .2v.2l-.1.5a1 1 0 01-.1.3 1.8 1.8 0 00-.1.2v.2a.5.5 0 000-.2v-.1a1.1 1.1 0 00.1-.2 1.9 1.9 0 00.1-.3 4.4 4.4 0 01.1-.5v-.1a1.2 1.2 0 00.1-.3v-.3l.1-.2v-.1-.1a1.8 1.8 0 01.1-.2v-.2.9a7.2 7.2 0 00.1-.7 1.1 1.1 0 010-.2 2.7 2.7 0 000-.4v-.1c0 .3.1.2.2.3v-.3c0-.3 0-.3 0 0s0 .3 0 0v.7l.1-.4v1.1a2.7 2.7 0 000-.4 3.7 3.7 0 000-.5v.4h.1c.1 0 0 0 0 0a2 2 0 010 .4v.3l-.2.3.1-.2a.8.8 0 000-.1 2 2 0 010 .4l-.1.4c0 .1 0 0 0 0l.1-.3v.3a1 1 0 000 .1v-.1a1.6 1.6 0 000 .2 2 2 0 01-.1.4.5.5 0 000-.1l-.1.2-.1.3v.3l-.1.1-.1.3-.1.2v.2l-.3.4v.2h-.1v.1l-.2.3-.4.5a3.3 3.3 0 01-.5.7 1 1 0 00-.2.2 1 1 0 01-.1.2l-.2.2-.2.2a1.8 1.8 0 00-.3.3l-.3.2-.6.4a4.4 4.4 0 01-.7.5l-.7.3c-.3.2.2 0 0 0l-.3.2a3.6 3.6 0 01-.4 0l-.9.4-.3.1a3.3 3.3 0 00-.7.2h-.3l-.7.1h-.7-.4-1 .3l.8.1h.5a1.3 1.3 0 00.3 0 2.8 2.8 0 00.6-.1h-.4a8 8 0 01-1.7.1 3.1 3.1 0 01-.8-.1 2.5 2.5 0 00-.3-.1h.7-1l-.8-.2a9 9 0 01-1.6-.6 8.8 8.8 0 01-1.7-1l-.1-.1.2.2c.4.2.4.2.2 0l-.7-.4c-.2-.2 0-.1 0 0l1 .6c.4.3.5.3 0 0l-1.4-1-.5-.5c-.5-.6-.6-.6-.4-.3.5.5.5.5 0 0l-.2-.3-.2-.2a8.8 8.8 0 01-.6-.9l-.4-.6v-.1l-.2-.4-.3-.4a11 11 0 01-.3-1l-.3-1v-.4c0 .4 0 .4 0 0l-.2-1.7v-.4-.7a5.8 5.8 0 01.2-.7v-.2a5.3 5.3 0 01.2-.6v-.4l.2-.4v-.2l.2-.4v-.1c0 .3 0 0 .2-.4l.5-.9v-.1l.1-.1a8.9 8.9 0 01.8-1.1l.8-.8.2-.2a9.5 9.5 0 011.3-1l.1-.1a8 8 0 011.6-.9c1-.3 1.3-.4 1-.2l.2-.1h.2a10.4 10.4 0 011-.3 3.8 3.8 0 00.5 0 4.2 4.2 0 011-.2 7.8 7.8 0 011 0 2 2 0 01.8.1 7.3 7.3 0 011.2.3 7.2 7.2 0 01.7.2l-.3-.1a3.6 3.6 0 01.6.1h-.1l-.4-.1-.3-.1a4.4 4.4 0 011 .3l.7.3.3.2.2.1a4.1 4.1 0 01.6.3l.1.1.2.2h.2c0 .2.2.3.4.4a6.6 6.6 0 01.7.6l.3.3a4.9 4.9 0 00-.5-.5l.2.2v.1h.1a6 6 0 01.4.5 2.7 2.7 0 00.3.3l.4.4.2.4.5.8.4.8a.6.6 0 000 .1 1.1 1.1 0 01.1.2 2.4 2.4 0 00.1.3l.1.2v-.2l-.1-.2v.1l.1.2a8.4 8.4 0 01.4 1.3 2.7 2.7 0 010 .6 1.3 1.3 0 00.1.3V33.4l.1.3v.7-.1a3 3 0 010 .4v.5l-.1.3v.2l-.1.4v.2-.1-.1a.5.5 0 000 .2 1 1 0 00-.1 0v.1a.7.7 0 010 .2l-.2.4v.2-.2c.1-.3 0-.3 0 0a2.5 2.5 0 010 .3v-.1a2 2 0 01-.2.4.8.8 0 010 .3h-.1v-.1l.1-.2v-.1V37.8a2.9 2.9 0 01-.2.3V38l.1-.1v.1-.1l-.1.3v.1a1 1 0 01-.1.1 2.5 2.5 0 010-.3c-.1.5-.3.7-.1.4a3 3 0 01-.2.4l-.2.2a2 2 0 01-.2.3v.1a3.6 3.6 0 00.3-.5l-.2.2v.2a1 1 0 000-.2l.1-.2v.2h-.1l-.2.3a1.7 1.7 0 01.2-.2s0-.2-.1 0v.1l-.2.2v-.2.1a.5.5 0 01.1-.2 1.3 1.3 0 00.2-.2l-.2.3a1.7 1.7 0 00.1-.3 2 2 0 01.1-.2c.1-.1.1-.1 0 .2h-.1v-.1l.2-.2-.2.3a1.5 1.5 0 010 .1V39l.2-.2h-.1v.1a4 4 0 01-.3.5 3.6 3.6 0 00.2-.3l.1-.3-.3.4c.2-.2 0 0 0 0l.3-.4a2.7 2.7 0 00.1-.3 2.3 2.3 0 01-.1.3l-.3.4c-.4.5-.4.5 0-.1.2-.3 0 0 0 0-.2.3-.3.3 0 0a11.5 11.5 0 00.3-.6l-.1.2a3.2 3.2 0 01-.4.5zM27.6 43.6H28a.4.4 0 01.2-.1H28a.6.6 0 01.1 0s.1 0 0 0c0 0 .2 0 0 0a1.2 1.2 0 01-.1 0h.2c.2-.1 0-.1-.1-.1h-.3.2c.2 0 .1 0 0 0H28.1v-.1c.1 0 .1 0 0 0l.6-.2a1.3 1.3 0 01-.1 0c-.1 0 0 0 0 0h.2c.2 0 .2 0 0 0l.3-.1a1 1 0 00.1 0l.3-.1c.3 0 .2 0 0 0l.1-.1a1.8 1.8 0 00.4 0c-.1 0 0-.1 0-.1h.3a1 1 0 00.2-.1h.1v-.1h.1c.1 0 .2-.1.1 0v-.1a.5.5 0 01.2 0h.1l.1-.1a.6.6 0 00.2 0c.1-.1.1-.1.1 0l.1-.1c.1 0 0 0 0 0h.2l.3-.2a1.8 1.8 0 00.3-.1s.1-.1.1 0a.3.3 0 00.2-.1 1.6 1.6 0 01.3-.2 1.7 1.7 0 00.3-.1l.3-.2a1.6 1.6 0 01.3-.2 1.3 1.3 0 00.3-.1 1 1 0 01.1 0v-.1h.1l.1-.1h.2a2.6 2.6 0 00.3-.3 1 1 0 01.2-.1 1.2 1.2 0 00.2-.2h.1a1 1 0 00.3-.3l.5-.3.1-.1v-.1l.3-.2.4-.3.4-.4a1.2 1.2 0 01.2-.2 2.5 2.5 0 01.2-.2.6.6 0 01.2-.3l.4-.4.1-.2a1.7 1.7 0 00.2-.2 4.8 4.8 0 01.3-.5c0-.1.1-.2.1 0l.1-.3a2.9 2.9 0 00.3-.3 1.7 1.7 0 01.3-.5v-.2h.1V35l.1-.1v-.1a.6.6 0 01.2-.2v-.2a.2.2 0 01.2 0v-.2l.1-.3a1.1 1.1 0 00.2-.4l.1-.2c.1-.2.1-.3 0-.1-.1.2-.1.2 0-.2l.2-.2.1-.4c0 .3-.1.3 0 0 .1-.4.2-.5 0 0 0 .2 0 .2.1 0a1 1 0 00.2-.5v-.2c0-.1 0 0 0 0h.1v-.3 0l.1-.3c0 .2 0 .2 0 0l.1-.5v-.1-.6a1.5 1.5 0 01.1-.4v-.2a.9.9 0 01.1-.3.5.5 0 010-.1v-.1a.3.3 0 010-.1.8.8 0 010-.2.3.3 0 000-.1v-.2-.1a.4.4 0 00.1-.1v-.3-.1-.2a.2.2 0 000-.1 1.5 1.5 0 010-.4v-.2-.4-.2c0-.1 0-.2.1-.1s0 .1 0 .1a.5.5 0 000 .2.6.6 0 000-.3 1.8 1.8 0 000-.2v-.2-.1c0-.1 0-.1 0 0v-.2-.1h.1v.1a.8.8 0 000 .3.3.3 0 000 .2.6.6 0 01.1 0c0-.1 0-.1 0 0a.2.2 0 000-.2c0-.1 0-.1 0 0v-.3a.7.7 0 000-.2h-.1v-.2-.2l.1.1v.2a2.1 2.1 0 000-.3s0-.1 0 0a.5.5 0 000-.2h.1c0-.2 0-.2.1 0 0-.1 0 0 0 0v.2l.1.2v-.1-.1-.2.4a2 2 0 000-.3l.1.2a.4.4 0 010 .1v.1a.8.8 0 00.1.2V25 25a.5.5 0 010 .1v.2a.8.8 0 01.1 0 .3.3 0 000 .1.6.6 0 01.1.2 1 1 0 000 .2c0-.1 0 0 0 0l.1.1V26.2l.1.2v.1a.5.5 0 000 .1.8.8 0 000 .3 1 1 0 010 .3V27.5a.5.5 0 010 .1.3.3 0 000 .2v.2a1.2 1.2 0 010 .3 1.5 1.5 0 010 .3 1.6 1.6 0 000 .3c0 .1 0 0 0 0a.8.8 0 000 .1l-.1.2-.1.4a.6.6 0 000 .4c0 .1 0 .1 0 0a.8.8 0 00-.1.4 1.4 1.4 0 01-.1.2v.2a1.1 1.1 0 010 .3l-.1.1v-.1l.2-.5v-.4.2a2.9 2.9 0 01-.2 1v-.2l-.1.4a1.5 1.5 0 000 .3l-.3.7a4.5 4.5 0 01-.2.7v-.1l-.2.3.2-.5c.1-.2 0-.2 0 0a3.8 3.8 0 00-.3.7v.2l-.1.2c.1-.2.1-.2 0 0a1.3 1.3 0 000 .2c0-.1 0 0 0 0v.1a3.5 3.5 0 01-.2.4l-.2.2a1.5 1.5 0 000 .2l-.1.2a2.3 2.3 0 01-.2.4 3.7 3.7 0 01-.3.3v.1c0-.1 0-.1 0 0a3.8 3.8 0 00-.4.7 1.4 1.4 0 00-.2.3l-.2.2a1.4 1.4 0 01-.2.3l-.1.1a.8.8 0 00-.1.1l-.2.2-.1.2a3.4 3.4 0 00-.3.3c0 .1 0 .1 0 0l-.4.5-.4.4a2.8 2.8 0 01-.5.4 4.6 4.6 0 01-.6.5l-.3.2h-.1v.1l-.4.3-.1.1-.4.3a7 7 0 01-.3.2.5.5 0 01-.2.2l-.5.2a2.4 2.4 0 00-.2.2.3.3 0 01.1-.1.7.7 0 01-.2.1.9.9 0 00.2 0V42l-.3.2-.2.2H34a.5.5 0 01-.3.2.6.6 0 01-.1 0 .9.9 0 00-.3.2 2 2 0 01-.3.1h-.2.3a.6.6 0 00-.1 0H33a1 1 0 01-.2.1.4.4 0 00-.1.1 1.1 1.1 0 01-.3.1.7.7 0 01-.1 0 1.8 1.8 0 00-.4.2l-.3.1a.3.3 0 01-.2 0l-.1.1h.1a.4.4 0 01-.1 0l-.5.2a1.9 1.9 0 01-.3 0h-.1-.1-.1l-.1.1h-.2c-.1 0-.1 0 0 0a.8.8 0 01-.2 0 1 1 0 00-.2 0s-.1 0 0 0H29l-.1.1h.1-.2a.7.7 0 00-.2 0c.2 0 .1 0 0 0a.4.4 0 01-.1 0h-.2 0a.5.5 0 01-.2 0h.2-.2c-.1 0-.2 0 0 0H28a.9.9 0 01-.2 0 1 1 0 01-.2 0h.2a.7.7 0 00-.1 0h-.1.1-.2a.3.3 0 01.1 0s.1 0 0 0h-.1V44h.2-.1l.1-.1c.1 0 .1 0 0 0 .1 0 .1 0 0 0h-.1.2-.3.2-.1c0-.1 0 0 0 0l.2-.1h.1-.1a2 2 0 00-.3 0h.1c.1 0 0 0 0 0-.2 0-.2-.1 0-.1h.3-.4z"/><path class="cls-1" d="M39 29.5c-.1 0-.1 0 0 0h-.1c-.1 0 0 0 0 0v-.1a.2.2 0 00-.1 0s0 .1 0 0v-.2c0-.1 0-.1 0 0V29h-.1v-.2-.1-.2h.1v-.1h.1c.1 0 0 0 0-.1a.2.2 0 01.1-.2h.1a.5.5 0 00.1-.2h.1c.1 0 0 0 0-.1h.1v-.2l-.1.1.1-.1h.1v-.1l.1-.2c.1-.1.1-.1.1 0h.1c.1 0 0 0 0 0v-.1c.1-.1 0-.2 0-.1a.3.3 0 010-.1v-.2a.1.1 0 01.1-.1.7.7 0 00.1 0c0-.1 0-.1 0 0a.6.6 0 00.1-.3h.1l.1-.1v-.1h.1V26l.1-.1.1-.1.1-.1a.2.2 0 01.1-.1c0-.1.1-.1.1 0a.4.4 0 00.1-.2v-.1a.4.4 0 01.1-.1l.1-.1a.1.1 0 000-.1V25l.1-.1v-.1h.1v-.1a.3.3 0 01.1 0v-.1a.1.1 0 01.1 0v-.1l.1-.2c0-.1.1-.1 0-.1h.1l.1-.1V24h.1v-.1h.1a.3.3 0 01.1-.2v.1l.1-.1a.5.5 0 01.2 0c.1-.1.1-.1 0 0h.1l.1-.1h.2v-.1a.1.1 0 00.1 0c.1 0 .1 0 0 .1s.1 0 .1.1l.2.2.1.1.1.1a.2.2 0 00.1.2l.4.3c0 .1 0 0 0 0l.4.4v.2c0 .1 0 0 0 0h-.1c-.1 0 0 0 0 .1a1 1 0 00.2.1h.1a.4.4 0 000-.1l.2.1c0 .1 0 0 0 0v.1c0 .1 0 0 0 0l.3.2v.1l.1.2s.1 0 0 0h.1v.1a.1.1 0 000 .1h.2s0 .1 0 0c0 .1 0 .2-.1.1v.1h.1s.1 0 0 0h.1v.1l.1.2h.2v.1c.2 0 .2.2.1.2l.1.1c.1.1 0 0 0 0 .1.1.2 0 .2 0a.3.3 0 000 .1v.1h.1v.2c0 .1 0 0 0 0l.2.1h.1s0 .1 0 0v.2h.1a.2.2 0 01.1.2h.1v.1s.1 0 0 0v.1s.1 0 0 0h.1V28.6c0 .1 0 0 0 0a.4.4 0 01.1.4.3.3 0 010 .1.4.4 0 000-.3.4.4 0 000-.1H47v.2a.3.3 0 000-.2.3.3 0 010 .1.5.5 0 010 .1.3.3 0 010 .2.5.5 0 000-.2v.1a.3.3 0 010 .2H47V29c0-.1 0 0 0 0l.1-.2a.3.3 0 000-.1.3.3 0 010 .2.2.2 0 000-.2.2.2 0 00-.1 0 .2.2 0 010 .2v-.1a.2.2 0 010 .1.2.2 0 000-.1.2.2 0 010 .2.2.2 0 000-.2v.1s0-.1 0 0h-.1-.2s0 .1 0 0v.1s-.1 0 0 0H46.3a.1.1 0 01-.1 0h-.1a.3.3 0 010-.1v-.1H46 46v-.1-.1h-.1v-.1h-.1v-.1a.2.2 0 01-.1 0l-.1-.1v-.1h-.1V28h-.1l-.1-.1c-.1 0 0 0 0 0l-.1-.1-.1-.1v-.1H45l-.1-.1a.7.7 0 00-.2-.2.2.2 0 01-.2-.2V27h-.1l-.1-.1-.1-.1a.5.5 0 000-.1H44v-.1l-.2-.2-.1-.1c0-.1 0 0 0 0l-.1-.1-.1-.1-.1-.2-.2-.1v-.1a.2.2 0 00-.1-.1s0-.1 0 0l-.1-.1v-.1a.3.3 0 01-.1 0v-.1l-.1-.1c0-.1-.1 0-.1 0a.1.1 0 010 .1h-.1v.1h-.1v.2a.3.3 0 00-.2 0V26h-.1v.1h-.1c-.1 0 0 .1 0 .1H42v.1l-.1.2h-.1v.1h-.1a.9.9 0 000 .2.4.4 0 01-.1 0v.1a.2.2 0 01-.1 0v.1l-.1.2a.1.1 0 00-.1 0v.2h-.1l-.1.1v.1H41v.2H41v.2h-.1a.3.3 0 010 .1c-.1 0-.1 0 0 0v.1h-.1l-.1.1c0 .1 0 .1 0 0l-.1.1s-.1 0 0 0h-.1v.1h-.1V28.7l-.1.1v.1h-.1v.1H40v.1H40v.1s0 .1 0 0l-.1.1-.1.1h-.2c0 .1 0 0 0 0 0 .1 0 .1 0 0h-.1v.1h-.1v-.1.1h-.1-.1v-.1H39h.1c-.1 0-.1.1-.2 0zM46 27.6zM19 5.8c.1 0 0 0 0 0l-.3.1a.4.4 0 01-.1 0h.2a.6.6 0 01-.2 0s-.1.1 0 .1a1.2 1.2 0 01.1 0h-.1H18.7h-.1s-.2 0-.1.1c-.2 0-.2 0 0 0l-.6.2h-.1a1.3 1.3 0 01.2 0l-.1.1h-.2l-.2.1a1 1 0 00-.1 0l-.3.1c-.2 0-.2 0 0 0H17a1.7 1.7 0 00-.4.2c.1 0 0 0 0 0l-.3.1a1 1 0 00-.2 0L16 7h-.1l-.1.1s-.1 0 0 0a.5.5 0 01-.3 0v.1h-.2a.6.6 0 00-.1.1H15v.1h-.2l-.3.2a1.8 1.8 0 00-.3.1s-.1.1-.1 0a.3.3 0 00-.1.2 1.7 1.7 0 01-.4.1 1.6 1.6 0 00-.3.2l-.2.1a1.6 1.6 0 01-.3.2h-.1a1.3 1.3 0 00-.3.2h-.1v.1H12V9a2.5 2.5 0 00-.4.2 1 1 0 01-.2.1 1.2 1.2 0 00-.2.2l-.1.1a1 1 0 00-.3.2l-.4.4-.2.1-.3.3-.4.3-.3.4a1.2 1.2 0 01-.2.3 2.6 2.6 0 01-.2.1v.1a.6.6 0 01-.2.2l-.4.5-.1.2a1.7 1.7 0 00-.2.2 4.6 4.6 0 01-.3.4v.2l-.2.2a2.7 2.7 0 00-.2.3 1.7 1.7 0 01-.3.5v.2h-.1v.2c-.1.1-.1.1 0 .1l-.1.1a.6.6 0 01-.2.2v.2a.2.2 0 01-.1 0l-.1.2v.3a1.1 1.1 0 00-.2.4l-.1.2c-.1.3-.2.4 0 .2s0-.3 0 .1l-.2.2-.1.4c0 .1 0 .1 0 0 0-.3 0-.2 0 0 0 .4-.2.5 0 .1 0-.3 0-.3-.1 0a1 1 0 00-.1.5v.1c-.1.2-.1.1-.1 0v.1l-.1.3v-.2.4c0-.1-.1-.1-.1.1v1.2a1.4 1.4 0 01-.1.3v.3a.9.9 0 010 .3.5.5 0 010 .1.3.3 0 010 .2.7.7 0 010 .2.3.3 0 000 .1v.1c-.1 0-.1.1 0 .1 0 .1-.1 0-.1 0a.4.4 0 000 .2V22.6a1.5 1.5 0 010 .5V23.9a.5.5 0 00-.1-.2.6.6 0 000 .3 1.8 1.8 0 000 .2V24.6c0 .1 0 .1 0 0V24.9v-.1a.8.8 0 000-.3.4.4 0 010-.1.4.4 0 00-.1-.1s0 .1 0 0a.2.2 0 000 .2c0 .1 0 .1 0 0v.3a.6.6 0 000 .1l.1.2V25.4l-.1-.1V25a2.4 2.4 0 000 .2V25.5h-.1c0 .2 0 .2 0 0 0 .1 0 0-.1 0V25a11.6 11.6 0 000 .2v.2h-.1v-.2-.2a2 2 0 000 .3v-.2h-.1a.4.4 0 010-.1V25a.8.8 0 000-.2v.1l-.1.1a.5.5 0 010-.1v-.2a.7.7 0 01-.1 0 .7.7 0 01-.1-.2v-.1a1 1 0 000-.1l-.1-.1V24a.2.2 0 010-.1c0-.1-.1-.2-.1 0v-.4a.4.4 0 000-.2.8.8 0 00-.1-.3 1 1 0 010-.3v-.1-.2a.5.5 0 010-.1.3.3 0 000-.2v-.1a1.2 1.2 0 010-.3 1.5 1.5 0 010-.4 1.5 1.5 0 000-.3c0-.1 0 .1 0 0a1 1 0 000-.1v-.1l.1-.4v-.2a.7.7 0 000-.2v-.2a.8.8 0 00.1-.2 1.4 1.4 0 010-.3v-.2a1.2 1.2 0 01.1-.3l-.1.5c-.1 0 0 0 0 .2v0a2.9 2.9 0 01.1-1h.1v-.2a1.4 1.4 0 000-.3l.3-.7a4.7 4.7 0 01.2-.7c0-.1 0 0 0 0v.1l.1-.3c.1 0 0 0 0 0l-.1.5c-.1.2 0 .2 0 0a3.8 3.8 0 00.3-.7V16v-.2c-.1.3-.1.3 0 0a1.5 1.5 0 000-.1v-.1a3.4 3.4 0 01.2-.4l.2-.2v-.1-.2l.1-.1a2.3 2.3 0 01.2-.4 4 4 0 01.2-.4c0-.1.1-.1.1 0a3.7 3.7 0 00.3-.7v-.2a1.4 1.4 0 00.2-.2l.2-.2a1.6 1.6 0 01.2-.3l.1-.1a.8.8 0 00.1-.1v-.1l.2-.1v-.2a3.3 3.3 0 00.3-.4s.1 0 0 0l.4-.5.4-.4A2.8 2.8 0 019 10a4.7 4.7 0 01.6-.5l.3-.3a.2.2 0 01.1 0l.4-.3v-.2l.4-.2.3-.3a.5.5 0 01.3-.2l.4-.2a2.5 2.5 0 00.2-.2h.1a.9.9 0 00-.2 0l.3-.2.2-.1.2-.1A.5.5 0 0113 7a.5.5 0 01.1-.1 1 1 0 00.2-.2 2.1 2.1 0 01.4-.1h.1-.2a.5.5 0 00.1 0 1 1 0 01.3-.2.4.4 0 00.1 0 1.2 1.2 0 01.2-.1.9.9 0 01.2-.1 1.8 1.8 0 00.3-.1l.4-.2a.4.4 0 01.1 0 .4.4 0 00.1 0 .4.4 0 010-.1l.5-.2a2 2 0 01.3 0H16.5l.1-.1H16.8a.8.8 0 01.1 0 1 1 0 00.2-.1c.1 0 .1 0 0 0h.5a.1.1 0 01.1 0 .8.8 0 00.2 0c-.1 0-.1 0 0 0a.4.4 0 01.1 0H18.3 18h.1a.5.5 0 01.2 0h-.1.2a.8.8 0 01.2 0 1 1 0 01.2 0l.1-.1h-.2.1-.1a.2.2 0 00.1 0h.1a.2.2 0 01-.1 0s0 .1 0 0h.1v.1h-.1v.1a.3.3 0 01-.1 0h.1-.2H19 19a1.3 1.3 0 00-.1.1h.2c-.1 0 0 0 0 0h-.4.2a2 2 0 00.2 0c.3 0 .2 0 0 0 0 0 .1 0 0 .1h-.4c.1 0 .1 0 0 .1h.4z"/><path class="cls-1" d="M8.6 20.6s0 .1 0 0h.1v.2a.2.2 0 000-.1v.1h.1v.7c0 .1 0 0 0 0l-.1.1c-.1 0 0 0 0 0v.1h-.1a.2.2 0 010 .2h-.1-.1a.5.5 0 00-.1.2l-.1.1c0 .1 0 0 0 0v.2H8h.1v-.1c0 .1 0 .2-.1.1s0 0-.1 0V22.7l-.2.1h-.1v-.1c0-.1 0 0 0 0v.5a.1.1 0 01-.1.1c-.1.1-.1.1-.1 0a.6.6 0 00-.1.3h-.1v.1h-.1c-.1 0 0 0 0 0v.1H7v.2l-.1.1s0 .1-.1 0a.4.4 0 01-.1.2.2.2 0 01-.1.1c0 .1-.1.1-.1 0a.4.4 0 000 .2c-.1 0-.1 0 0 0l-.1.1v.1h-.1l-.1.1a.1.1 0 000 .1v.1c0 .1 0 0 0 0v.1l-.1.1v.1H6 6v.2l-.2.2v.1h-.1l-.1.2c-.1 0 0 0 0 0v.1h-.1-.1a.3.3 0 010 .1h-.1v.1h-.1a.5.5 0 01-.2 0c-.1.1-.1.1 0 0h-.1l-.1.1h-.1v.1h-.1a.2.2 0 00-.1 0c-.1 0-.1 0 0-.1s-.1 0-.1-.1c0 0 0-.2-.2-.2V26L4 26a.2.2 0 00-.1-.2l-.3-.3c-.1-.1-.1 0-.2 0l-.3-.5v-.1c0-.1 0 0 0 0h.1v-.1a.8.8 0 00-.2-.1v.2l-.1-.1-.1-.1c0-.1 0-.1 0 0v-.1c0-.1-.1 0-.1 0l-.3-.2v-.1c0-.1 0 0 0 0v-.1h-.1V24s-.1 0 0 0V24v-.1h-.1H2c0-.1 0-.1 0 0h.1v-.1-.1c-.1-.1-.2 0-.1 0 0 0-.1 0 0 0v-.1h-.1a.1.1 0 000-.1l-.1-.1h-.2v-.1c-.1-.1-.1-.2 0-.2l-.2-.1a.3.3 0 010-.1h-.1v.1c0 .1 0 0 0 0a.3.3 0 000-.1h-.1v-.1l-.1-.1v-.1c0-.1 0 0 0 0l-.1-.2H.8c0 .1 0 .1 0 0l-.1-.1H.6v-.1-.1H.5V22H.4v-.1-.2-.1-.1c0-.1 0 0 0 0v-.1a.4.4 0 01-.2-.3.3.3 0 01.1-.1.3.3 0 000 .3c0 .1 0 0 0 0s0 .1 0 0v-.1a.3.3 0 000 .2.3.3 0 010-.1.4.4 0 010-.1.3.3 0 010-.2.5.5 0 000 .2V21a.3.3 0 01.1-.2v.2a.3.3 0 000 .2.3.3 0 010-.2.2.2 0 000 .2s.1 0 0 0a.2.2 0 010-.2.2.2 0 000 .2h.1a.2.2 0 010-.2.2.2 0 000 .1c0 .1 0 0 0 0 0 .1 0 0 0 0 0-.1.1 0 .1 0l.1-.1h.5a.3.3 0 01.1.1h.1c.1 0 0 0 0 0 0 .1 0 .1 0 0v.1l.1.1v.1h.1s.1.1 0 .1h.1a.2.2 0 010 .1l.2.1v.1h.1v.2c.2 0 .2.1.2 0v.1s.1.1.1 0v.1l.1.1.1.1.1.1a.8.8 0 00.2.2.2.2 0 01.1.1l.1.1.1.1c.1 0 0 .1 0 0l.2.2a.5.5 0 000 .1h.1v.1l.2.2s.1 0 0 0v.1h.1v.1H4v.1H4l.1.2.2.1v.1a.2.2 0 000 .1c.1 0 .1.1.1 0v.1h.1c.1 0 0 0 0 0v.1l.1.1c.1.1 0 0 0 .1h.1c0 .1 0 0 0 0h.1a.1.1 0 010-.1.1.1 0 01.1 0v-.1H5v-.2a.3.3 0 00.1 0v-.1l.1-.1v-.1h.1V24l.2-.1v-.1-.2h.2v-.2a.8.8 0 00.1 0 .4.4 0 01.1-.1v-.1a.2.2 0 01.1 0v-.1l.1-.2.1-.2h.1s.1-.1 0-.1l.2-.1v-.1-.1h.1v-.1l.1-.1a.3.3 0 01.1-.1V22H7v-.1c0-.1 0-.1 0 0H7v-.1h.1c0-.1 0-.2.1-.1v-.1-.2s.1-.1.1 0v-.1s.1-.1.1 0V21c.1 0 .1 0 0 0h.1V21h.1v-.1c0-.1 0 0 0 0h.1v-.1s.1-.1.1 0H8v-.1h.2s0-.1 0 0 0 0 .1 0c0-.1 0 0 0 0h.1v-.1h.1v.1h.2-.1.1zM1.6 22.4z"/></svg>