<svg version="1.0" xmlns="http://www.w3.org/2000/svg" viewBox="0 0 500 500"><path fill="#2e3338" d="M309 45a107 107 0 00-84 81 190 190 0 01-2 9 124 124 0 0012 67c0 2 12 19 16 21l13 12c8 8 10 10 21 15s14 6 21 7l13 2c11 3 34 1 47-5l8-3c8-1 23-11 34-21 15-16 28-39 32-61 2-8 1-38-1-45-3-10-11-27-17-35a115 115 0 00-40-36c-5-3-15-6-17-6l-11-3c-12-3-31-3-45 1zm30 10l11 2c7 0 13 2 15 4l8 3 12 7c7 5 25 22 28 28l5 10 4 8 1 4 1 4c3 14 4 18 4 33 0 18-1 23-7 34l-6 10c-4 6-18 21-26 27a102 102 0 01-61 20c-14-2-23-3-25-5l-8-3-6-3-5-4-10-7-5-4c-2 1-9-7-14-14l-4-5-7-15-2-4c-4-7-5-16-5-32a130 130 0 013-30c1-7 6-17 11-23l3-5c0-2 9-12 15-17 11-10 27-18 43-21 11-3 20-3 27-2zm-166 2l-10 3-8 3a124 124 0 00-35 20l-13 10-4 3-4 3-8 6c-5 3-13 12-15 16l-5 8-6 9-3 5-6 12-2 3-2 8-2 7c-2 2-6 14-6 17l-1 3-1 10-2 12c-1 3-1 23 1 29 0 5-1 5-5 0l-9-10-10-11c-4-4-5-4-8-4l-4 1-1-1v3c0 6 2 10 4 11 1 0 3 1 3 3l3 3 2 2 2 3 3 2 2 3 2 3c0 2 1 3 2 3l2 2c1 1 2 2 3 1l1 1c-1 2-1 2 8 11 3 2 5 5 5 6 0 2 2 1 10-2 2-1 8-9 9-13l2-4 6-7 5-7 1-2 2-4 1-2 2-2 2-2 2-3c2 0 4-4 4-8s-3-5-7-4l-4 1-6 7-3 5-9 11-4 5-2 2-7 10 1-7 2-29a124 124 0 015-36l6-15 2-6 2-4 3-6 5-9 3-6 16-21a171 171 0 0179-48l7-2c5-1 13-5 14-7l2-1c3 0 3-1 0-3h-24zm271 189l-5 2-11 14a27 27 0 01-4 6l-3 3-4 5-3 6v2l-3 3-3 5c-4 3-5 6-4 11 1 4 1 4 5 3 5 0 6 0 9-4l6-6 3-7 2-3 1-1 1-2 1-1 3-5 3-3v8l-1 17c-3 29-4 34-8 41l-3 5-2 6-2 5-1 2-4 8-7 11-6 8a204 204 0 01-44 40l-10 5c-10 6-13 7-22 10l-8 3-14 4c-8 2-12 4-12 5l-3 2c-5 1-5 1-3 3 1 1 3 2 5 1l15-1c13-1 16-2 25-6l4-1 12-5 12-5v-1l3-2 11-7 8-6a169 169 0 0053-70l2-7c2-2 6-12 7-17l4-20c1-7 2-35 1-40l-1-3 5 5 14 15 11 13 4 2c11 0 11-7 0-17l-3-4-4-4-3-3v-2l-4-5-5-3c-1 0-2 0-2-2l-7-9c-8-8-8-8-11-7zm-280 1l-12 3-7 1c-5 0-19 6-28 12s-25 21-31 29a107 107 0 00-19 77 99 99 0 0017 46c6 8 17 20 26 26l6 6c2 2 18 10 27 12 24 8 53 7 71-3l5-1c5 0 27-14 35-22a186 186 0 0019-28l6-15 2-6c4-12 6-23 4-36l-1-14c-1-5-2-10-7-21-6-14-11-22-22-33l-16-14-3-2a98 98 0 00-39-16c-9-2-22-2-33-1zm18 12l13 3c9 1 17 4 27 9a106 106 0 0139 40c3 4 9 22 10 29 2 9 1 38-1 43-4 14-14 28-26 40a74 74 0 01-24 17l-4 3c-2 3-31 10-42 10-9 0-26-3-28-4l-3-2-9-4-4-3-11-7-6-4c2 4-12-12-15-16l-3-4-4-6-5-12c-4-7-7-24-7-34l2-20c3-15 6-22 15-36l5-8a95 95 0 0162-34h19z"/></svg>