<svg fill="none" xmlns="http://www.w3.org/2000/svg" viewBox="0 0 31 35"><path d="M15.9.2C7.5.2.9 3.7.9 8.2v18c0 4.4 6.6 8 15 8 8.3 0 14.9-3.6 14.9-8v-18c0-4.5-6.6-8-15-8zm12.9 26c0 2.9-5.2 6-13 6C8.3 32.2 3 29 3 26.2v-2c2.5 2.4 7.3 4 12.9 4 5.6 0 10.3-1.6 12.9-4v2zm0-6c0 2.9-5.2 6-13 6C8.3 26.2 3 23 3 20.2v-2c2.5 2.4 7.3 4 12.9 4 5.6 0 10.3-1.6 12.9-4v2zm0-6c0 2.9-5.2 6-13 6C8.3 20.2 3 17 3 14.2v-2c2.5 2.4 7.3 4 12.9 4 5.6 0 10.3-1.6 12.9-4v2zm-13 0C8.3 14.2 3 11 3 8.2s5.2-6 12.9-6 12.9 3 12.9 6c0 2.9-5.2 6-13 6z" fill="#fff"/></svg>