<svg fill="none" xmlns="http://www.w3.org/2000/svg" viewBox="0 0 50 25"><path d="M4.3 8.2V9l1-.8 1-.2 1 .3c.3.1.6.4.9.7.4-.3.7-.6 1.1-.7.4-.2.8-.2 1.2-.2a2.8 2.8 0 013 3v4.8c.5 0 .8.1 1 .3.3.2.4.5.4.8 0 .3-.1.6-.3.8-.3.2-.6.3-1.2.3h-2v-7c0-.3-.1-.5-.3-.6 0-.2-.3-.2-.5-.2-.3 0-.5 0-.7.2-.3.1-.6.5-1 1v4.4c.5 0 .8.1 1 .3.3.2.4.5.4.8 0 .3-.1.6-.3.8-.3.2-.6.3-1.2.3h-2v-7l-.2-.6c-.2-.2-.4-.2-.6-.2-.3 0-.5 0-.8.2l-.9 1v4.4c.5 0 .8.1 1 .3.3.2.4.5.4.8 0 .3-.1.6-.4.8-.2.2-.5.3-1 .3h-2c-.6 0-1-.1-1.2-.3a1 1 0 01-.3-.8c0-.3 0-.6.3-.8.2-.2.6-.3 1-.3v-5.4c-.4 0-.8 0-1-.3a1 1 0 01-.3-.8c0-.3 0-.5.3-.7.2-.3.6-.4 1.1-.4h2.1zm22.5-3.8l-7 15.2-.5.7a1 1 0 01-.7.2 1 1 0 01-.8-.3 1 1 0 01-.3-.7c0-.2 0-.5.2-.9l7.1-15.2c.2-.3.3-.6.5-.7.2-.2.4-.2.7-.2.3 0 .5 0 .7.3.3.2.4.4.4.7l-.3.9z" fill="#2E3338"/><rect x="31" y="5" width="18" height="14" rx="3" stroke="#2E3338" stroke-width="2"/></svg>