<svg width="26" height="27" fill="none" xmlns="http://www.w3.org/2000/svg" viewBox="0.9 7.7 23.6 13.1"><path d="M4.8 9.4v.6l1-.7C6.2 9 6.5 9 7 9c.4 0 .7.1 1 .3.4.2.8.4 1 .8l1.3-.8 1.4-.3a3 3 0 012.1.8 3 3 0 011.1 2.4v5.4c.5 0 .9.1 1.1.3.3.3.4.6.4.9 0 .4-.1.6-.4.9-.2.2-.6.3-1.2.3h-2.3v-7.6c0-.3 0-.6-.2-.7-.1-.2-.3-.3-.6-.3a1 1 0 00-.7.3c-.3.2-.7.5-1 1v4.9c.4 0 .8.1 1 .3.3.3.4.6.4.9 0 .4-.1.6-.4.9-.2.2-.6.3-1.2.3H7.4v-7.6c0-.3 0-.6-.2-.7-.1-.2-.3-.3-.6-.3s-.6.1-.8.3l-1 1v4.9c.5 0 .9.1 1.1.3.2.3.4.6.4.9 0 .4-.2.6-.4.9-.2.2-.7.3-1.2.3H2.5c-.6 0-1-.1-1.2-.3-.3-.3-.4-.5-.4-1 0-.3.1-.5.4-.8.2-.2.6-.3 1-.3v-5.8c-.4 0-.8-.2-1-.4a1 1 0 01-.4-.8c0-.4.1-.7.4-.9.2-.2.6-.3 1.2-.3h2.3z" fill="#2E3338"/><path d="M24.3 9l-5.1 11.1-.4.6-.5.1c-.2 0-.4 0-.6-.2a.7.7 0 01-.2-.5c0-.2 0-.4.2-.6l5.2-11c0-.4.2-.5.3-.6l.5-.2c.2 0 .4 0 .6.2l.2.6-.2.6z" fill="#2E3338"/></svg>