<svg fill="none" xmlns="http://www.w3.org/2000/svg" viewBox="0 0 18 11"><path d="M.1 6.2a.7.7 0 010-.8C.3 5.2 4.1.5 9 .5s8.7 4.7 8.9 4.8c.1.3.1.6 0 .8-.2.2-4 4.9-8.9 4.9S.3 6.3.1 6.2zM9 9.4c1.7 0 3.1-1.7 3.1-3.7S10.7 2.1 9 2.1c-1.7 0-3.1 1.7-3.1 3.6 0 2 1.4 3.7 3.1 3.7zm2.9-7.1c.7.8 1.3 2 1.3 3.5a5 5 0 01-1.3 3.4c2.3-.9 4.1-2.7 4.9-3.4-.8-.9-2.6-2.6-5-3.5zM6 9.3a5.2 5.2 0 01-1.3-3.6 5 5 0 011.3-3.4C3.8 3.2 2 4.9 1.2 5.8c.8.8 2.6 2.5 5 3.4z" fill="#fff"/><path d="M9 3.5c.3 0 .6 0 .9.2-.3.1-.5.4-.5.7 0 .5.3.9.7.9.3 0 .6-.2.7-.6l.2 1C11 7 10 8 9 8 7.9 8 7 7 7 5.7c0-1.2 1-2.2 2-2.2z" fill="#fff"/></svg>