<svg xmlns="http://www.w3.org/2000/svg" viewBox="0 0 48 48"><defs/><g style="isolation:isolate"><g id="Layer_1" data-name="Layer 1"><path class="cls-2" d="M16.1 22.8v-.1a.5.5 0 00-.1 0v-.1c-.1 0-.1 0 0 0h-.1v-.1c-.1-.1-.1-.1-.1 0v-.1c-.1 0-.1 0 0 0 0 0-.1-.1 0-.1h-.1.1v-.1h0-.1V22h-.1c0 .1 0 .1 0 0 0 .1 0 .1 0 0 0 .1 0 .1 0 0 0 .1 0 .1 0 0 0 .1 0 0 0 0v.1h-.1s-.1 0 0 0c-.1 0-.1 0 0 0a.2.2 0 000 .1.3.3 0 01-.1 0s-.1 0 0 0c0 0-.1 0 0 0 0 0 .1 0 0 0h.1a.3.3 0 000 .1v-.1 0a.4.4 0 010 .1v-.1h.1v.1-.1h.1v.1h.1v.1h.2v.1h.2v.1h.1v.1h.1s.1 0 0 0v.1l.1.1v.2h-.1v.1h-.1v.1H16l-.1.1h-.1H15h-.2-.1v-.1a1 1 0 01-.2 0 .3.3 0 000-.2h-.1V23h-.1v-.2c-.1 0-.1 0 0 0h-.1v-.1-.2a.2.2 0 00-.1 0v-.1a.4.4 0 010-.1.1.1 0 000-.1v-.1a.1.1 0 010-.1V22l.1-.3v-.2h.1v-.1h.2v-.2h.1a.5.5 0 01.1-.1l.1-.1h.1c.1-.1.1-.1.1 0l.1-.1a.1.1 0 00.1 0h.1v-.1h.4a.5.5 0 01.2.1h.1a.2.2 0 01.1.1h.1l.2.1.1.1v.1l.1.1h.1c0 .1 0 .1 0 0v.2h.1v.2h.1v.1c0 .1 0 .1 0 0-.1.1 0 .1 0 .2h-.1s0 .1 0 0v.2s.1.1.2 0v.2l-.1.1v.2h-.1v.1h-.1s0 .1 0 0h-.1v.1h-.1-.1v-.1h-.1-.1l-.2-.1zM15.7 22.9zM15.4 19.2V19a.1.1 0 010 .1V19h-.1c-.1 0-.1 0 0 0h-.1V19H15v-.1-.1h-.1v-.1a.1.1 0 000-.1v-.1-.1-.1-.1-.1a.3.3 0 01-.1-.2v-.1-.2a.9.9 0 000-.1v-.1-.1a.1.1 0 010-.1c.1 0 .1 0 0 0V17v-.2l.1.2a.8.8 0 000-.3v-.1a.7.7 0 01.1-.4l.4-.2h-.1.1c.1 0 0 0 0 0l-.1.1c0 .1 0 .1 0 0h.3a.2.2 0 000-.1.6.6 0 010-.1h.2c-.2 0-.2 0 0-.1v-.1h.1a.1.1 0 00.1 0l.1-.1a.1.1 0 01.1 0 .9.9 0 00.1 0 .7.7 0 00.3-.1h.2c0-.1 0-.1 0 0h.1v-.1h.2v-.1l.1-.1h.2a.5.5 0 010-.1h.1a.3.3 0 01.1-.1c.1 0 .1-.1.1 0h.1a.5.5 0 000-.2l.1-.1.1-.1a.6.6 0 000-.1v-.1c.1-.1.1-.1 0-.1h.1v-.1-.1l.1-.1a.1.1 0 010-.2h.1v-.2-.1-.1-.1a.2.2 0 010-.1V13c0-.1 0-.1 0 0v-.1-.1c0-.1 0-.1 0 0h-.1v-.1-.1-.1-.2L18 12a3.2 3.2 0 00-.3-.4c0-.1 0 0-.1 0a3.9 3.9 0 00-.4-.4v-.1-.2l.1.2-.1-.2-.2-.1a.2.2 0 01-.1 0 .5.5 0 000 .1l.1.1a.8.8 0 00-.1 0h-.1v-.2h-.2a.9.9 0 01-.3 0v-.1h-.2-.1c-.1 0-.1 0 0 0l-.1-.1a.1.1 0 00-.1-.1v.1h-.2v-.1c.1 0 .1 0 0 0a.1.1 0 01-.1 0c-.1 0-.1 0 0 0-.1.1-.1.1-.1 0h-.1-.2l-.1.1H15v.1h-.4c-.1 0-.1.1 0 .1a.2.2 0 00-.2 0c0 .1 0 .1 0 0 .1 0 .1 0 0 0v.1h-.1-.2a1.8 1.8 0 00-.2.2c.1 0 .1 0 0 0 0 .1 0 .1 0 0 0 0 0 .1 0 0v.1h-.1v.1h-.1a.2.2 0 010 .1h-.1v.1h-.1v.1h-.1l-.1.1H13s0 .1 0 0v.1H13v.1h-.1v-.1h-.1-.1v-.1c0 .1 0 0 0 0h-.1-.1v-.1s0-.1 0 0v-.1h-.1s0-.1 0 0v-.3a.3.3 0 010-.1V11a.6.6 0 01.1-.2h.1v-.1l.1-.1.1-.1a.1.1 0 01.1 0v-.1h.1v-.1l.2-.1a.4.4 0 01.1-.1l.2-.1.1-.1h.1l.1-.1c.1 0 .1 0 0 0h.1l.2-.2h.1a.8.8 0 00.1 0h.1l.2-.1a.2.2 0 01.1 0h.1l.2-.1h.3a.1.1 0 01.1 0l.1-.1a.3.3 0 01.2 0H16a.2.2 0 01.1 0 .9.9 0 00.2 0h.2a1.7 1.7 0 00.2.1h.2a.7.7 0 00.3.2.2.2 0 01.1 0h.1v.1a.2.2 0 00.1 0l.2.1.1.1h.1a.9.9 0 00.2.3l.3.1v.1h.1a.5.5 0 000 .2c.1.1.2.1.2 0v.1c.1.1.1.2 0 .1h.1a.6.6 0 010 .2l.2.1c.2.2.3.5.2.5l.2.3a1 1 0 000 .2v.2h.1v.4l.1.3v.2a1.3 1.3 0 010 .3V13.9a.3.3 0 010 .2v.1c0 .2 0 .2-.1.1a.3.3 0 010 .1v.2a.7.7 0 00-.2.2.4.4 0 010 .1v.1l-.1.2H19a.2.2 0 010 .1H19v.1l-.2.2a.2.2 0 000 .1h-.1a.2.2 0 00-.1.2h-.2a.6.6 0 000 .1l-.2.1-.1.1a.7.7 0 01-.2.1.3.3 0 01-.2.1v.1h-.1l-.2.1a.3.3 0 00-.2 0l-.1.2s-.1 0 0 0h-.2a.4.4 0 00-.1 0c-.1 0-.2.1-.2 0v.1h-.2v.1a.1.1 0 01-.1 0h-.1c-.1 0 0 0 0 0s-.1 0 0 0H16 16v.2l.1.2v1.2l-.1.1v.2h-.1v.1s-.1 0 0 0h-.1v-.1.2h-.1-.1v.1h-.1zM14 10.5z"/><path class="cls-2" d="M14.8 28.8h.1a.8.8 0 01-.2 0l-.2.1h-.6a2.4 2.4 0 01-.3 0h-.2a1.3 1.3 0 00.4 0h.2a4.2 4.2 0 01-.4 0s-.2 0 0 0h-.1.5-.3l.7.1a1.4 1.4 0 01-.4 0h-.8-.1c-.3 0-.3 0 0 0 .4 0-1 0-1.5-.2a1.1 1.1 0 00-.2 0h.4c.3.2-.2 0-.3 0a.9.9 0 01-.2 0 1.3 1.3 0 00-.2 0c-.4-.2-.3-.1-.1 0l-.5-.2-.4-.1a2 2 0 01-.6-.2l-.2-.1H9l-1-.5c.4.2 0 0 0 0H7.7l-.4.2-.2.2a.4.4 0 01-.1 0c-.2.1-.2.1-.1 0l-.3.2s-.2.2 0 .1h-.1a3.2 3.2 0 01-.5.2l-.2.1a2 2 0 01-.3.2 4.3 4.3 0 00-.3.2l-.3.1-.3.2c.1 0 .1 0 0 0h-.1a.3.3 0 00-.1 0l-.2.2a2.4 2.4 0 01-.7.3l-.3.2-1 .5a1 1 0 01-.5 0 1.6 1.6 0 01-.4 0 1.1 1.1 0 01-.6-.7.8.8 0 010-.4 1.6 1.6 0 01.2-.6l.4-.5.6-.8.5-.7.2-.3v0L3 26l.2-.3.1-.1a.8.8 0 01.1-.1l.2-.3a1.6 1.6 0 01.2-.3s.1 0 0-.1v-.1l-.2-.2a1.3 1.3 0 01-.1-.1l-.5-.6-.3-.3-.6-.9-.1-.2a10.3 10.3 0 01-.5-1l-.3-.5v-.3a12 12 0 01-.3-.9 11.4 11.4 0 01-.3-1.2A6.7 6.7 0 01.5 17a8 8 0 010-.8v-.7a.9.9 0 000-.3 2.2 2.2 0 01.2-.7v-.2a4.4 4.4 0 01.5-1.3l.2-.7.3-.6a7.2 7.2 0 01.8-1.3l.2-.3.4-.5a5.9 5.9 0 01.5-.5l.2-.3a6.5 6.5 0 01.7-.7A2.3 2.3 0 015 8l.5-.4.2-.1.2-.3.3-.2.3-.2a5.9 5.9 0 01.6-.3l.3-.2a1.3 1.3 0 01.4-.1l.4-.3.7-.3 1-.4h.2a3.5 3.5 0 01.5-.2c.6-.2 1-.3.3-.2l.3-.1.7-.2 1-.1c.4 0 .4-.1 0 0-.7.1-.6 0 0 0 1.1-.2 1.5-.2.4 0-.8 0-.8 0 0 0a7.6 7.6 0 001.3-.2h.4c.4 0 .3 0 0 0a2.8 2.8 0 00.3 0H15.5h1.1c-.4 0-.4 0 .3.1h1.5a9.3 9.3 0 001.1.2h.4a5.3 5.3 0 011 .4 4.1 4.1 0 01.6.2 6.6 6.6 0 01.6.3 3.6 3.6 0 01.4 0 .9.9 0 00.2.1h-.2a2 2 0 01.4.1l.2.1H23h.1l.3.2.4.2.3.2H24h.3l.1.1.3.2a2.5 2.5 0 01.6.5 1 1 0 00.2.2 1.6 1.6 0 01.4.2 1.6 1.6 0 00.2.3 4.8 4.8 0 01.8.7 4.2 4.2 0 00.4.4c.6.6 1 1.1.7.9l.2.2a.9.9 0 010 .1v.1l.1.2v-.2h-.1a2 2 0 00-.3-.4l.4.5.3.5a.6.6 0 01.1.2l.1.2c0 .1 0 .1 0 0a2.2 2.2 0 00.2.4c.1.2.1.2 0 .1l.2.4a.7.7 0 000 .1v.1c.1.2 0 0 0-.2H29v-.2l-.3-.5a2.5 2.5 0 01-.2-.3 1.2 1.2 0 00-.1-.2l-.2-.2a.6.6 0 00.2.2c.1.2.1.3 0 .2l.2.2.1.3a4.9 4.9 0 01.3.4v.2l.1.2.2.3v.5a.8.8 0 01.2.2v.2c0-.1-.1-.2 0-.1 0 .2-.1 0-.2-.3l-.2-.5.2.7a1.3 1.3 0 01.1.3 2.9 2.9 0 000 .3l.1.1c0-.2 0-.2-.2-.2v.2c.1.3.1.3 0 0 0-.2 0-.2 0 0V14v-.1l-.2-.4a3.4 3.4 0 00-.2-.6 59.8 59.8 0 00.2.6v.4c0 .1 0 .1 0 0v-.5c-.1-.1-.1-.1 0 0L29 13l-.1-.2a2.6 2.6 0 000 .3l.2.6v-.2H29v-.2a2.1 2.1 0 01-.3-.4v-.2l-.1-.3V12.8a2.6 2.6 0 01-.1-.3 2.7 2.7 0 00-.2-.4c0-.1 0 0 0 0v.3-.3a.7.7 0 00-.1 0q0-.1 0 0a1.4 1.4 0 000-.1 3.4 3.4 0 01-.3-.3v-.2a2.6 2.6 0 00-.2-.2c0 .2 0 0-.2-.2v-.1l-.2-.2-.2-.2v-.1l-.4-.4-.1-.1a1 1 0 00-.2-.3 4.2 4.2 0 00-.5-.4l-.6-.5a.9.9 0 00-.2-.2.8.8 0 01-.1-.1 1.8 1.8 0 00-.2-.1l-.2-.2a1.5 1.5 0 00-.3-.2l-.3-.2-.6-.3L23 7l-.7-.3c-.3-.2.2 0 0 0l-.2-.2-.3-.2-1-.3H20.6a2.7 2.7 0 00-.6-.2l-.3-.1-.6-.2h-.7l-.3-.1-.7-.1H17h.3l1.2.2a1.9 1.9 0 00.3 0l.5.1h-.4l-1.5-.2a5.5 5.5 0 01-.8-.1 2.2 2.2 0 00-.3 0h.7l-1-.1h-.4a1 1 0 00-.3 0 14.4 14.4 0 00-1.6.2 16 16 0 01-2 .3 1.8 1.8 0 01.4 0c.3-.1.3-.1 0-.1a5.7 5.7 0 00-.7.2c-.3 0-.1 0 0 0a6.6 6.6 0 011.1-.3c.4 0 .5-.1 0 0a8.9 8.9 0 00-1.6.4 4 4 0 00-.7.2l-.3.2c.6-.2.6-.2 0 0l-.3.2c.2-.1-.2 0-.2 0l-1 .5a3.5 3.5 0 00-.5.3h-.1l-.3.2-.4.3-.8.6a8.2 8.2 0 00-.8.6l-.2.1c.2-.2.2-.2 0 0a7.7 7.7 0 00-1 1.3l-.3.2a6.2 6.2 0 00-.4.5 5.1 5.1 0 01-.3.5l-.2.2-.2.5-.2.4-.2.3v.1l-.2.4v.1c0-.3 0 0-.2.4a6.2 6.2 0 00-.2.9v.2a1.3 1.3 0 000 .2l-.2 1v1a1.2 1.2 0 010 .3 12.2 12.2 0 00.2 1.4v.2a14.8 14.8 0 00.5 1.5l.4.8v.3H3v.1a7.3 7.3 0 00.6.8 3.6 3.6 0 00.3.3l.6.7.2.2.3.3a1 1 0 01.3.7 1 1 0 01-.2.6l-.2.2-.1.1a.5.5 0 000 .1l-.7.9-.4.6a3.1 3.1 0 01.2-.3 3.8 3.8 0 01-.3.5l.2-.3.2-.3a6.8 6.8 0 01-.6.9l-.4.5-.2.3-.1.2c-.1 0 0 0 0 0a2.3 2.3 0 00.3-.1l.6-.3.3-.2.8-.4.8-.4a.4.4 0 00.1 0v-.1h.2a2.4 2.4 0 00.2-.2l.2-.1H6l-.1.1.3-.1 1-.6H7.5a1.4 1.4 0 01.2-.1 1.4 1.4 0 01.4 0 .8.8 0 01.2 0 2.2 2.2 0 01.3 0v.1l.2.1H9l.2.2h.3l.3.2c-.1 0 0 0 0 0l.2.1.3.1.4.2h.1c-.2 0 0 .1.2.2h.2l.3.1H11.8h-.2a.4.4 0 00.1.1.7.7 0 00.1 0 .6.6 0 01.2 0v.1h.4l.2.1h-.2c-.3 0-.3 0 0 0h.3-.1a2.5 2.5 0 01.4.1 1.4 1.4 0 01.3 0h-.4.1a.5.5 0 01.1 0 3 3 0 01.4.1h-.3.5a1 1 0 01-.3 0l.4.1h1.1-.5l.2.1h.2-.4.5a1.1 1.1 0 01-.2 0h.4c-.1 0 0 0 0 0h-.2.2a.7.7 0 00-.2 0 .5.5 0 01-.1.1h-.2.2H14.4a1.9 1.9 0 01-.1 0h.2H14.1h.4-.5.2-.2l.2.1h.6-.7.5c-.3 0-.1 0 0 0H14h-.3.4a6.2 6.2 0 00.3.1c-.2 0 0 0 0 0 .5 0 .5 0 0 0a10.7 10.7 0 01-.6 0l.2.1h.2z"/><path class="cls-2" d="M34 42.6H34 34.5l.4-.2h.4l.4-.1h.2a3.4 3.4 0 00-.4 0c-.8.2-1 .2-.4 0h.6s.2-.1 0 0c.1-.1.4-.2.1-.1l-.7.1.8-.2-.4.1c-.6.2-1 .2-.9.1h.8c.5-.2.2-.1-.4 0-.4 0 .1 0 .7-.2l.5-.1h.1c.4-.2.5-.2.1-.1-.6.1 1.2-.5 1.9-.8a2 2 0 00.3-.1l-.6.2.3-.2a2 2 0 01.4 0 2 2 0 00.3-.2c.4-.2.3-.2 0 0l.7-.4.3-.2a1.7 1.7 0 01.4-.1h.3a2 2 0 011 .3c.5.3.7.3.3.1l.3.1 1.3.7a9733.5 9733.5 0 011 .5l.3.1.6.3a1 1 0 00.2 0c0 .1 0 .1 0 0 0 .1 0 0 0 0V42l-.4-.3h.2l-.2-.1-.2-.3c0 .1 0 .1-.1 0V41a.7.7 0 00-.1-.1l-.2-.3a5.3 5.3 0 01-.7-.9l-.3-.4-.2-.4a1.4 1.4 0 01-.4-.6 1 1 0 01.3-.8 1.6 1.6 0 01.2-.2 3 3 0 00.3-.4l.9-1.2a1.6 1.6 0 00.1-.3 10.7 10.7 0 00.8-1.6l.3-1.3v-.4.2a1.3 1.3 0 010-.2 6.8 6.8 0 00.2-1V30.6a1.5 1.5 0 010-.3V30a2.1 2.1 0 010-.3 1.6 1.6 0 01-.1-.2 6.9 6.9 0 00-.3-1.4l-.2-.6-.1-.3a7 7 0 00-.4-.8 3.9 3.9 0 01-.3-.5 5.7 5.7 0 00-.8-1.2 10 10 0 00-1.3-1.4l-.5-.5-.3-.2a9.6 9.6 0 00-1-.7 11.6 11.6 0 00-1.6-.9 17.3 17.3 0 00-1.7-.7l-1.1-.3-1-.2a1 1 0 00-.3 0 8.1 8.1 0 01-1-.2h-.3l-1.9-.1a7.5 7.5 0 00-1 0 15.8 15.8 0 00-3.3.7l-1 .3a10 10 0 00-1.3.5l-1.7 1-.7.6h-.1l-.2.2-.3.3-.4.3c.4-.2.4-.2-.3.4l-.6.6-.4.4a2.7 2.7 0 01-.2.4 3.9 3.9 0 00-.4.5v.1l-.5.9a5.6 5.6 0 00-.5 1.3 6.7 6.7 0 00-.3 1c-.1.8-.2 1.3 0 .4.2-1 .2-.9 0 .5l-.1 1V32c.1.5.2.5 0 0 0-1 0-.9 0 0l.2 1 .2.3c0 .1-.2 0-.3-.8-.2-1-.2-1 0-.1a5 5 0 00.2 1.1 3.3 3.3 0 00.3.8l.2.4c.2.5.1.4-.1 0a3 3 0 00.2.4 7395.2 7395.2 0 011.3 2l.8.9a1.6 1.6 0 00.3.2l.4.4a6.9 6.9 0 001.2.8l.5.3 1.2.7a5.6 5.6 0 00.9.4 7705.5 7705.5 0 011.3.5 1.6 1.6 0 00.3 0h-.3.1a3.6 3.6 0 01.5.1 1.2 1.2 0 00.2.1h-.1.2l.5.1a4.6 4.6 0 00.5.1l.5.1h-.2.7v.1h.4a6.5 6.5 0 011 .1 2 2 0 00.5 0h.6a2.8 2.8 0 00.5 0h1.3a5 5 0 00.9-.2l1.5-.4s0 .1.4 0l.2-.1c.3-.1.7-.2.4 0a1.1 1.1 0 01-.3 0 .5.5 0 00-.2 0l-.5.3a5.4 5.4 0 00.8-.3l.8-.3a1.3 1.3 0 01.3-.1l.3-.2c.1 0 .1 0 0 0a3.3 3.3 0 00.6-.2c.2-.2.2-.2.1 0-.1 0-.1 0 0 0l.2-.2a1 1 0 01.5 0 1.6 1.6 0 01.3 0l.1.1c.2.1 0 0-.4 0a.8.8 0 00-.2 0H40.2l-.6.4a3.3 3.3 0 01-.5.2l-.3.1-.3.2a1.3 1.3 0 00.3-.2c.3 0 .3-.1.2 0l.3-.2.4-.2h.1a2.3 2.3 0 01.7-.3h.3a3.4 3.4 0 01.5.1l.4.2.4.2h.2a2.6 2.6 0 01.3.2c-.1 0 0 0 0 0l.2.2c-.1 0-.3-.1-.1 0l-.5-.2-.7-.3 1 .4a2.8 2.8 0 01.4.2h-.1l.5.2h.2-.4l.3.2c.4.2.4.2 0 0-.4-.1-.4-.1 0 0h-.2l-.2-.1-.6-.2-.8-.4.5.2c.5.2.5.2.3.2l.6.3c.1 0 .1 0 0 0l-.7-.4h-.1l-.3-.1-.4-.2.5.3.8.3h-.3l-.1-.1-.2-.1a4.7 4.7 0 01-.7-.2l-.2-.2c-.3 0-.4-.1-.5-.2l.2.2h.2l.1.1-.6-.2a.3.3 0 00-.3 0c-.2.2 0 .1 0 0h.2a.5.5 0 00-.1.1h-.2v.1a.5.5 0 01.1 0l-.2.1c-.2 0-.3.2-.5.3a1.5 1.5 0 00.1 0h-.3l-.5.3-.4.2h-.1l-.4.2h-.2l-.2.1c.1 0 0 0 0 0l-.3.1-.6.2a.4.4 0 01-.1 0l-.2.1h-.1-.1l-.4.1-1 .2a7.5 7.5 0 01-1.3.2 2.6 2.6 0 00-.4 0 1.7 1.7 0 01-.3 0h-.4a3.2 3.2 0 01-.4 0H32a4 4 0 00-.5 0H31l-1.1-.2a6.8 6.8 0 01-1.2-.2h-.3a7.6 7.6 0 01-.9-.3c-.5-.1.3.1 0 0l-.4-.1-.6-.3-1.3-.5-.4-.2a9.4 9.4 0 00-1-.5l-.4-.3-.8-.5-.8-.7-.5-.4-.2-.2a4.5 4.5 0 01-.5-.5l-.4-.4.3.4a15 15 0 001.4 1.3 2.8 2.8 0 00.4.3l.5.4h.2c.1.2-.2 0-.5-.2a11.4 11.4 0 01-2-1.7 6.2 6.2 0 01-.7-1l-.2-.4a6 6 0 00.7 1c.1 0 .2 0 0-.2l-1-1.1-.6-1a4.2 4.2 0 01-.3-.7l-.3-.8-.3-1a10.6 10.6 0 01-.3-2 4.7 4.7 0 010-1v-.2.7a16.5 16.5 0 010-1.1 10.6 10.6 0 000 1.7c0 .6.1.8.1-.1a12.7 12.7 0 01.2-2.6 7 7 0 01.2-1c.3-1.1.3-1.2.1-.7-.3 1-.3 1 0 0l.2-.6.1-.3a14.5 14.5 0 01.8-1.5l.6-.8.2-.2.4-.4.5-.6a12.7 12.7 0 011.1-1 14.3 14.3 0 011.3-1l.5-.2c-.4.3-.4.3 0 0a22.3 22.3 0 012.3-1.2l.5-.2 1-.3a6.2 6.2 0 01.9-.2l.5-.1a3.9 3.9 0 01.9-.2 2 2 0 01.6 0h.5l.4-.1h.8H34.5c.2 0 .4.1.2 0l.4.1 1.6.3 1.5.5a2.3 2.3 0 01.5.2l.8.4.6.2.7.4.2.1a12 12 0 012.2 1.6l1 1 .3.4v.1l.1.1a23.4 23.4 0 011.4 1.8 2.4 2.4 0 01.2.4l.5 1a12.2 12.2 0 01.4 1.6 7.6 7.6 0 01.2 1v.2a14.7 14.7 0 010 1.7V31.9a1.8 1.8 0 010 .3v.6c0 .1 0 .1 0 0V32l.1-.5a1.5 1.5 0 010 .5 9.4 9.4 0 01-.2 1.2l-.3 1-.2.6-.2.3a5.1 5.1 0 01-.4.8l-.1.3-.2.3-.1.2-.5.6c0 .2-.2.3-.3.4l-.1.2-.2.2v.1-.1.1s-.1 0 0 0l.2.4.3.4.5.7.4.5.8 1 .3.6a3.5 3.5 0 01.4.6 1 1 0 010 .6 1.3 1.3 0 010 .2v.1a1 1 0 01-.2.3 1.2 1.2 0 01-.5.3 1 1 0 01-.4 0 1.2 1.2 0 00.4 0 1 1 0 00.3-.1h-.2a1 1 0 01-.3.2 1.3 1.3 0 01-.5-.1l-.7-.4a9623.3 9623.3 0 01-2-1 2.3 2.3 0 00-.3-.1l-.3-.2h-.2l-.3-.2-.4-.2-.4-.2-.2-.1c-.3-.2-.4-.2-.2-.2H41a.7.7 0 00-.1-.1.4.4 0 00-.3 0c-.2 0-.3.2-.1 0 .1 0 0 0 0 0a3.5 3.5 0 00-.4.2h-.2a.8.8 0 00-.2.1l-.3.2h-.1l-.3.2.2-.1.1-.1a1 1 0 01-.1 0 1 1 0 00-.2.1h-.1v.1a1.5 1.5 0 01-.2 0l-.2.1-.5.2-.2.1.3-.1c.4-.2.3-.2 0 0h-.1a3.6 3.6 0 01-.4.1h.1a4.3 4.3 0 01-.6.2 2.1 2.1 0 01-.4.1h.2l.3-.2h-.2a.8.8 0 01-.1.1l-.6.2.4-.2h.1-.2.2l-.5.1h-.1l-.2.1.4-.1c-.6.2-1.1.3-.6.1.1 0 .1 0 0 0a9 9 0 01-.6.2h-.9l-.2.1h.1l.8-.1h-.7.3a2.5 2.5 0 00.3 0H34a3 3 0 01.4 0h-.6.2-.2.2a1.8 1.8 0 01.2 0l.3-.1h-.4H34.7h-.2.3c.3-.1.3-.1-.2 0h-.2a1 1 0 00.2 0l.4-.1h-.7.8-.3.3H33.9 35h-.8c.4 0 .1 0 0 0l.7-.1h.2-.1l.4-.1H35l-.8.2c-1 0-.8 0 .3-.1.4 0 0 0 0 0-.6 0-.7 0 0 0a14.7 14.7 0 001-.2H34.7l-.8.1z"/><g class="cls-3"><path class="cls-2" d="M24.5 26.7h.2c-.1 0-.1 0 0 0a.2.2 0 010-.1s.1 0 0 0c.2 0 .1 0 0 0h-.1c0-.1 0 0 0 0h.1v-.1c-.1 0 0 0 0 0h.1c.1 0 .1 0 0 0l.4-.2c-.1 0 0 0 0 0h.1c.1 0 0 0 0 0h.4c.1 0 .1 0 0 0H26v-.1h.4c.1 0 .1 0 0 0h.4a.2.2 0 00.1 0h.5a.7.7 0 00.2 0 .1.1 0 00.2 0h.2a.6.6 0 00.2 0h.2a.6.6 0 01.2 0 .5.5 0 00.2 0H29.2a1 1 0 00.3 0 .4.4 0 01.1 0 .4.4 0 00.2 0 .4.4 0 00.3 0h1a2.4 2.4 0 01.3 0 .5.5 0 01.2 0 .9.9 0 01.2 0 .2.2 0 01.2 0h.5a.7.7 0 00.1 0 1 1 0 01.3 0H33.1a1 1 0 00.2 0h.7a.2.2 0 01.2 0h.1a.1.1 0 01.1.1H34.7a.4.4 0 00.2 0 1.6 1.6 0 01.2 0c.1 0 .2 0 0 0-.1-.1 0-.1.1-.1h.4c.1 0 .1 0 0 0s-.1 0 0 0h.1c-.2 0-.2 0 0 .1a.4.4 0 00.3 0H36.3c-.1 0 0 0 0 0H38a.3.3 0 000-.1h.1a.1.1 0 00.2 0s.1 0 0 0h.6a.6.6 0 01.2.1h.5s.2.1 0 .1a.7.7 0 00.2 0 .2.2 0 00.1 0h.1l.1.1c.1 0 0 0 0 0a.3.3 0 00-.2 0l-.1.1h.6v.1a1 1 0 00-.2 0 .8.8 0 00.2 0s.1 0 0 0l.2.1v.2h-.3.1a.7.7 0 01.1 0h-.1a.3.3 0 00-.1 0 .7.7 0 00.2.1h-.1a.1.1 0 01-.1 0 .3.3 0 00-.2 0h.1v.1a.4.4 0 00-.2 0h.1v.1q-.1 0 0 0h-.1a.2.2 0 01-.1 0 .3.3 0 00-.1 0v.1h-.2a.4.4 0 00-.2 0h-.1a.3.3 0 00-.2.1.3.3 0 01-.2 0h-.1H38.3a1.2 1.2 0 01-.1 0 .5.5 0 01-.2 0h-.2-.4-.2a.3.3 0 00-.2 0 .4.4 0 01-.2 0c0-.1 0-.1 0 0a.4.4 0 01-.2 0h-.1H37.2a1 1 0 01-.6 0s.2 0 0-.1a.7.7 0 00-.1 0h-.2-.9-.1c-.2 0 0 0 0 0a2.2 2.2 0 01.3 0c.1 0 .1 0 0 0a1.2 1.2 0 00-.4 0 1 1 0 00-.2 0c-.1 0-.1 0 0 0s.1 0 0 0a.4.4 0 00-.1 0c0 .1 0 0 0 0l-.1.1h-.2a1.3 1.3 0 00-.2 0 .5.5 0 00-.1 0H34a.7.7 0 01-.3 0h-.2a1.3 1.3 0 00-.5 0 .5.5 0 00-.2 0h-.2-.2a.3.3 0 00-.1 0h-.2-.1a1 1 0 00-.2 0c-.1 0-.1 0 0 0h-.7a2.5 2.5 0 01-.4 0 1.5 1.5 0 01-.4 0h-.2l-.1-.1a1.5 1.5 0 00-.3 0h-.3a2 2 0 01-.2 0 .2.2 0 01-.2 0h-.3a.8.8 0 00-.1 0h-.1v.1H28.5h-.1a.2.2 0 01-.2 0 .2.2 0 01-.1 0 .3.3 0 00-.2 0 .7.7 0 01-.2 0 .3.3 0 01-.2 0 .6.6 0 01-.2 0h-.3a1.7 1.7 0 01-.2 0 .1.1 0 00-.1 0H26s-.1 0 0 0h-.4a.3.3 0 00-.2 0v-.1a.2.2 0 00-.1 0h-.1-.1a.2.2 0 00-.1 0 .2.2 0 010-.1h-.2c-.1 0 0 0 0 0h-.1v-.1s-.1 0 0 0a.3.3 0 01-.2 0 .2.2 0 01-.1 0 .9.9 0 00.1 0 .5.5 0 01-.1 0V27a.1.1 0 01.1 0c0-.1 0-.1 0 0V27h-.1a.4.4 0 00.1 0c-.1 0-.1 0 0 0a1 1 0 010-.1h.1a.7.7 0 00-.2 0c-.2 0-.1 0 0 0v-.1h.2a.8.8 0 01-.2 0z"/></g><g class="cls-3"><path class="cls-2" d="M24.5 30.9v-.1h.2c-.1 0-.1 0 0 0 0 0 .1 0 0-.1.2 0 .1 0 0 0h-.1.1c-.1 0 0-.1 0 0h.1v-.1c.1 0 .1 0 0 0l.4-.1c-.1 0 0 0 0 0 0-.1 0 0 0 0h.1c.1 0 0 0 0-.1h.4c.1 0 .1 0 0 0h.7s0-.1 0 0c.1 0 .1 0 0 0h.2v-.1h.2a.2.2 0 00.1 0h.5a.7.7 0 00.2 0 .1.1 0 00.2 0h.2a.6.6 0 00.2 0h.2a.6.6 0 01.2 0 .5.5 0 00.2 0H29.2a1 1 0 00.3 0 .4.4 0 01.1 0 .4.4 0 00.2 0 .4.4 0 00.3 0h.3l.1.1H31a2.4 2.4 0 01.3 0 .5.5 0 01.2 0 .9.9 0 01.2 0 .2.2 0 01.2 0h.5a.7.7 0 00.1 0 1 1 0 01.3 0H33.1a1 1 0 00.2 0h.7a.2.2 0 01.2 0h.1a.1.1 0 01.1 0H34.7a.4.4 0 00.2 0 1.6 1.6 0 01.2 0c.1 0 .2 0 0 0h.5c.1 0 .1 0 0 0s-.1 0 0 0h.1c-.2 0-.2 0 0 0a.4.4 0 00.3 0h.1v.1h.2c-.1 0 0 0 0 0h.5l.3-.1H38a.1.1 0 00.2 0s.1 0 0 0h.6a.6.6 0 01.2 0h.5s.2.1 0 .1a.7.7 0 00.2 0 .2.2 0 00.1 0l.1.1h.1c.1 0 0 .1 0 0v.1a.3.3 0 00-.2 0h-.1.6v.1a1 1 0 00-.2 0 .8.8 0 00.2 0s.1.1 0 .1h.2v.2h-.3.1a.7.7 0 01.1 0v.1h-.1a.3.3 0 00-.1 0 .7.7 0 00.2 0h-.1a.1.1 0 01-.1.1.3.3 0 00-.2 0h.1a.4.4 0 00-.2 0l.1.1q-.1 0 0 0h-.1a.2.2 0 01-.1 0v.1a.3.3 0 00-.1 0h-.2a.4.4 0 00-.2.1h-.1a.3.3 0 00-.2 0 .3.3 0 01-.2 0h-.1H38.3a1.2 1.2 0 01-.1 0 .5.5 0 01-.2 0h-.2-.4-.2a.3.3 0 00-.2 0 .4.4 0 01-.2 0 .4.4 0 01-.2 0h-.1H37.2a1 1 0 01-.6 0s.2 0 0 0a.7.7 0 00-.1 0h-.2-.9-.1c-.2 0 0 0 0 0a2.2 2.2 0 01.3 0c.1 0 .1-.1 0-.1a1.2 1.2 0 00-.4 0 1 1 0 00-.2 0c-.1 0-.1 0 0 0s.1 0 0 0a.4.4 0 00-.1 0v.1H34.4a1.3 1.3 0 00-.2 0 .5.5 0 00-.1 0H34a.7.7 0 01-.3 0h-.2a1.3 1.3 0 00-.5 0 .5.5 0 00-.2 0h-.2-.2a.3.3 0 00-.1 0h-.2-.1a1 1 0 00-.2 0c-.1 0-.1 0 0 0h-.7a2.5 2.5 0 01-.4 0 1.5 1.5 0 01-.4 0h-.2-.1v-.1a1.5 1.5 0 00-.3 0h-.3a2 2 0 01-.2 0 .2.2 0 01-.2 0h-.3a.8.8 0 00-.1 0v.1h-.1H28.5h-.1a.2.2 0 01-.2 0 .2.2 0 01-.1 0 .3.3 0 00-.2 0 .7.7 0 01-.2 0 .3.3 0 01-.2 0 .6.6 0 01-.2 0h-.3a1.7 1.7 0 01-.2 0 .1.1 0 00-.1 0H26s-.1 0 0 0h-.4a.3.3 0 00-.2 0v-.1a.2.2 0 00-.1 0h-.1-.1a.2.2 0 00-.1 0s0-.1 0 0h-.2v-.1c-.1 0 0 0 0 0h-.1s-.1 0 0 0a.3.3 0 01-.2 0 .2.2 0 01-.1 0 .9.9 0 00.1-.1.5.5 0 01-.1 0v-.1a.1.1 0 01.1 0V31h-.1a.4.4 0 00.1 0c-.1 0-.1 0 0 0h.1a.9.9 0 010-.1.7.7 0 00-.2 0c-.2 0-.1 0 0 0v-.1h.2a.8.8 0 01-.2 0z"/></g><g class="cls-3"><path class="cls-2" d="M24.5 35v-.1h.2v-.1c-.1 0-.1 0 0 0 0 0 .1 0 0 0 .2 0 .1 0 0 0l-.1-.1h.1c-.1 0 0 0 0 0h.1c.1 0 .1 0 0 0l.4-.2c-.1 0 0 0 0 0h.1c.1 0 0 0 0 0h.4c.1 0 .1 0 0 0H26v-.1h.4c.1 0 .1 0 0 0h.4a.2.2 0 00.1 0h.5a.7.7 0 00.2 0 .1.1 0 00.2 0h.2a.6.6 0 00.2 0h.2a.6.6 0 01.2 0 .5.5 0 00.2 0H29.2a1 1 0 00.3 0 .4.4 0 01.1 0 .4.4 0 00.2 0 .4.4 0 00.3 0h1a2.4 2.4 0 01.3 0 .5.5 0 01.2 0 .9.9 0 01.2 0 .2.2 0 01.2 0h.5a.7.7 0 00.1 0 1 1 0 01.3 0H33.1a1 1 0 00.2 0h.7a.2.2 0 01.2 0h.1a.1.1 0 01.1 0H34.7a.4.4 0 00.2 0 1.6 1.6 0 01.2 0c.1 0 .2 0 0 0h.5c.1 0 .1 0 0 0s-.1 0 0 0h.1c-.2 0-.2 0 0 .1a.4.4 0 00.3 0H36.3c-.1 0 0 0 0 0h1.5v-.1h.2a.1.1 0 00.2 0s.1 0 0 0h.6a.6.6 0 01.2 0l.2.1H39.5s.2 0 0 .1a.7.7 0 00.2 0 .2.2 0 00.1 0h.1l.1.1c.1 0 0 0 0 0a.3.3 0 00-.2 0h-.1c0 .1 0 .1 0 0v.1h.6v.1a1 1 0 00-.2 0 .8.8 0 00.2 0s.1 0 0 0h.2v.2h-.3l.1.1a.7.7 0 01.1 0h-.1a.3.3 0 00-.1 0 .7.7 0 00.2 0l-.1.1a.1.1 0 01-.1 0 .3.3 0 00-.2 0h.1v.1a.4.4 0 00-.2 0h.1q-.1 0 0 .1h-.1a.2.2 0 01-.1 0 .3.3 0 00-.1 0h-.1a.2.2 0 010 .1h-.1a.4.4 0 00-.2 0h-.1a.3.3 0 00-.2.1.3.3 0 01-.2 0h-.1H38.3a1.2 1.2 0 01-.1 0 .5.5 0 01-.2 0h-.2-.4-.2a.3.3 0 00-.2 0 .4.4 0 01-.2 0c0-.1 0-.1 0 0a.4.4 0 01-.2 0h-.1H37.2a1 1 0 01-.6 0s.2-.1 0-.1a.7.7 0 00-.1 0h-.2-.9-.1c-.2 0 0 0 0 0a2.2 2.2 0 01.3 0c.1 0 .1 0 0 0a1.2 1.2 0 00-.4 0 1 1 0 00-.2 0c-.1 0-.1 0 0 0s.1 0 0 0a.4.4 0 00-.1 0H34.4a1.3 1.3 0 00-.2 0 .5.5 0 00-.1 0H34a.7.7 0 01-.3 0h-.2a1.3 1.3 0 00-.5.1.5.5 0 00-.2 0h-.2-.2a.3.3 0 00-.1 0h-.2-.1a1 1 0 00-.2 0c-.1 0-.1 0 0 0h-.7a2.6 2.6 0 01-.4 0 1.5 1.5 0 01-.4 0c-.2 0-.3 0-.2-.1H30a1.5 1.5 0 00-.3 0h-.3a2 2 0 01-.2 0 .2.2 0 01-.2 0h-.3a.8.8 0 00-.1 0h-.1c0 .1 0 0 0 0h.2l-.3.1h-.1-.1a.2.2 0 01-.2 0 .2.2 0 01-.1 0 .3.3 0 00-.2 0 .7.7 0 01-.2 0 .3.3 0 01-.2 0 .6.6 0 01-.2 0h-.3a1.7 1.7 0 01-.2 0 .1.1 0 00-.1 0H26s-.1 0 0 0h-.4a.3.3 0 00-.2 0v-.1a.2.2 0 00-.1 0h-.1v-.1h-.1a.2.2 0 00-.1 0h-.2c-.1 0 0 0 0 0v-.1h-.1s-.1 0 0 0a.3.3 0 01-.2 0 .2.2 0 01-.1 0 .9.9 0 00.1 0 .5.5 0 01-.1 0v-.1-.1a.1.1 0 01.1 0h-.1a.4.4 0 00.1 0c-.1 0-.1 0 0-.1h.1a.7.7 0 00-.2 0c-.2 0-.1 0 0 0V35h.2a.8.8 0 01-.2 0z"/></g></g></g></svg>