<svg version="1.0" xmlns="http://www.w3.org/2000/svg" viewBox="0 0 500 500"><path fill="#2e3338" d="M145 45l-28 4-8 4a152 152 0 00-29 12c-3 0-15 7-18 11-5 4-11 8-13 8-3 0-18 17-25 28-7 10-15 28-18 41a140 140 0 005 59l13 27a156 156 0 0015 19l-4 8a780 780 0 00-22 31c-5 7-7 12-5 16s5 6 10 6 9-2 34-15l14-8 10-5c3-3 7-2 13 0 17 8 45 13 59 10l5-1h-4c-3 0-4 0-2-1 2 0 2 0 1-1s0-1 3-1c6 0 5-1-3-2a144 144 0 01-53-17l-4-1-1-1-7-1c-6 1-9 1-13 4l-6 3-2 1c-1 2-33 18-34 18l4-6a294 294 0 0021-29c2-4 3-8 0-12l-9-11a144 144 0 01-15-19l-4-10c-5-10-7-23-7-36 0-8 0-13 3-28a115 115 0 0129-49c5-6 26-22 39-28 20-11 28-14 39-14l14-2c16-3 22-3 37-1l18 2c1-1 5 0 9 2l14 4 11 5 7 3 3 3 7 6a152 152 0 0150 51l1 2c1 3 1 3 2 2 1-2 1-2 1 2l3 6c1 2 1 2 2-1l-1-3-1-4-2-7v-3c1 0 1-1-9-22l-15-16c-14-13-20-18-27-22l-11-6-10-4-11-4c-10-4-12-5-21-6-8-1-47-2-54-1zm156 77l1 2-2-2-1-2 2 2z"/><path fill="#2e3338" d="M154 99c-15 3-28 15-24 22 1 1 5 3 6 2l3-2c2 0 4-2 5-4l4-3 2-1 3-1 3-1c0-1 9-1 12 1l5 1 2 1h1c0-2 3-1 3 1l3 5c5 3 7 7 7 10l1 3 1 6-1 5-2 4c-1 5-4 9-6 9l-4 3c-2 2-4 2-5 2-3 0-4 0-7 2l-4 2-2 2c-4-2-7 8-5 20 0 9 1 10 3 10l2 1c1 2 6-1 7-4l1-10-1-8 5-1 8-3 4-1 1-1 4-3c4-2 9-7 9-9l1-1 3-4c3-7 2-23-1-32l-2-4-2-3-1-2-2-2-1-2-2-2-4-2-6-5c-7-3-17-4-27-1zm156 91l-31 7c-12 5-38 18-47 26-8 6-25 24-31 32-5 7-10 17-11 25a187 187 0 00-5 63 114 114 0 0022 47l1 1c-1 1 1 3 2 6 5 6 18 18 19 17l3 2c3 4 23 15 39 22 17 7 21 8 36 10a165 165 0 00104-14l12-5 7 3 16 8a504 504 0 0123 11c15 8 18 8 23 3 2-2 3-3 3-7 0-7-3-11-21-35l-9-14 6-9c7-9 15-24 18-34 4-13 5-18 4-37-1-21-4-35-10-47-4-7-5-10-15-23-7-9-25-26-32-31-19-13-43-22-63-26-10-2-14-2-35-2l-28 1zm37 14c35 2 57 9 83 27 15 10 27 23 37 40 12 20 16 41 13 61-4 22-9 34-21 50-9 11-10 13-10 16 0 2 6 11 15 23l5 8 5 7c2 1 3 4 1 4a401 401 0 01-42-19c-7-5-13-4-22 2l-10 4-6 2-8 3-15 3-12 3h-20c-17-1-23-1-35-4-25-5-34-9-56-22a107 107 0 01-48-55l-2-8-2-6a161 161 0 012-53l14-28c3-4 23-25 29-29l27-16a307 307 0 0151-14l27 1zM212 397l-2-3-2-2 2 2 2 2zm16 15c1 2-1 1-3-2l-9-8 12 10zm133 31h-6l4-1c3 0 3 0 2 1zm-2 5h-2c-1-1 0-1 1-1l1 1z"/><path fill="#2e3338" d="M267 274c-6 1-9 2-11 4s-2 5 1 6c6 2 12 3 48 2a3895 3895 0 01111-1l7-5c1 0-3-3-6-3-2 0-2 0-1-1s0-1-2-1c-4-1-141-2-147-1zm2 43l-11 2-2 2-1 1v2c-2 4 1 4 61 5 99 0 98 0 100-2l2-1 3-1c2-2 0-4-5-6-4-1-9-2-35-2H269zm1 42l-5 1c-4 0-6 1-8 3-8 8-6 8 80 8 76 0 78 0 83-4 2-2 2-2 1-3l-4-1-3-1-5-2c-5-2-13-2-16-1l-12 1c-17-1-110-2-111-1zM157 218c-5 1-9 6-10 10 0 5 1 11 4 14 2 2 3 2 10 2 7-1 8-1 11-4 4-3 6-6 4-7l-1-3c1-3-3-10-7-12h-11z"/></svg>