<svg version="1.0" xmlns="http://www.w3.org/2000/svg" viewBox="0 0 500 500"><path fill="#2e3338" d="M145 44.6c-12.3 1.2-26.6 3.5-28.4 4.7-1.2.8-4.6 2.2-7.6 3.2-9.9 3.2-23.5 8.8-25.9 10.7-1.3 1-2.9 1.8-3.6 1.8-2.1 0-14.6 7.3-17.9 10.5-4.3 4.1-10.8 8.5-12.7 8.5-2.6 0-18.1 17-25.1 27.5-7.2 10.9-14.5 28.2-17.4 41.4-2.3 10.3-1.5 36.5 1.4 46.6 1.1 3.8 2.5 9.2 3.2 12 1.5 5.6 8.8 20.7 13.3 27.5 1.7 2.5 5.6 7.4 8.7 11 3.1 3.6 6 7.1 6.4 7.7.4.8-1.4 4.2-4.7 8.5-2.9 4-8 11.1-11.2 15.8-3.2 4.7-8 11.3-10.6 14.8-5.4 6.9-6.8 11.7-4.9 16.3 1.8 4.2 4.7 5.9 10.2 5.9 4.7 0 8.4-1.7 33.6-15.1 3.7-1.9 10.1-5.3 14.2-7.5s8.6-4.7 10-5.7c3.3-2.3 7-2.1 13.2.7 16.9 7.7 44.3 12.2 58.8 9.7l4.5-.8-4-.3c-2.8-.2-3.3-.4-1.6-.7 1.9-.4 2.1-.7 1-1.4-.9-.6 0-.9 3-.9 6 0 4.7-.9-3-2-13.8-1.9-28.2-5.7-36.4-9.5-2.7-1.3-7.2-3.3-10-4.5-2.7-1.2-5.8-2.6-6.7-3.1-1-.5-2.5-.9-3.3-.9-.8 0-1.5-.5-1.5-1.1 0-.8-2.2-1-7.3-.6-5.9.4-8.4 1.1-12.4 3.6-2.8 1.7-5.6 3.1-6.3 3.1-.7 0-1.8.6-2.4 1.4-1.1 1.5-32.6 17.9-33.2 17.3-.2-.1 1.5-2.7 3.8-5.7 2.2-2.9 6-8.3 8.4-11.9 5.3-8.2 9.2-13.8 12.2-17.5 2.6-3.4 2.8-8.1.4-11.7-.9-1.5-5.2-6.4-9.5-10.9-4.3-4.6-9-10-10.4-12.1-1.4-2.2-2.9-3.9-3.3-3.9-.4 0-1-1.2-1.3-2.8-.3-1.5-2.1-6.3-4-10.7-4.3-9.6-6.7-22.4-6.7-35.4 0-8.6.5-12.8 3-27.7 1.6-9.6 13.8-32.4 21.5-40.4 1.9-1.9 5.2-5.8 7.4-8.7 5.2-6.7 26.4-22.4 38.9-28.8 20.6-10.5 28-13.2 38.7-14 3.1-.3 9.6-1.1 14.3-1.9 16.6-2.8 21.8-2.9 37.6-.6 8.2 1.2 16.1 2 17.4 1.7 1.4-.3 5.6.6 9.5 1.9 3.8 1.3 10 3.1 13.6 4 3.6.9 8.7 3.2 11.4 5 2.7 1.9 5.5 3.4 6.3 3.4.7 0 2.4 1.4 3.6 3.1 1.3 1.7 4.4 4.2 6.9 5.4 8.4 4.3 25.1 18.9 34.2 29.8 4.8 5.8 8.7 10.8 8.7 11.2 0 .4 1.4 2.3 3 4.2 1.7 1.8 3 4.1 3 4.9 0 .8.4 1.3.9 1 .5-.3 1.2.9 1.6 2.7.6 2.8.8 2.9 1.4 1.2.7-1.6 1-1.2 1.5 2.2.4 2.4 1.5 5.2 2.4 6.3 1.7 2 1.7 2 1.8-1.4 0-1.9-.3-3.3-.8-3-.4.3-.8-1.3-.8-3.6 0-2.2-.8-5.3-1.7-6.7-1.2-1.9-1.4-2.8-.6-3 1.7-.6 1.2-1.7-9.1-21.9-1.8-3.4-6.6-8.9-14.6-16.5-13.9-13.4-20-18.3-26.6-21.9-2.7-1.5-7.8-4.2-11.4-6.2-3.6-1.9-7.8-3.7-9.5-4-1.6-.3-6.6-2-11-3.8-10.1-4-12.3-4.6-21.5-5.9-8-1.1-46.5-2.2-54-1.5zM301 122c.6 1.1.8 2 .6 2-.3 0-1-.9-1.6-2-.6-1.1-.8-2-.6-2 .3 0 1 .9 1.6 2z"/><path fill="#2e3338" d="M154 98.7c-15 3.2-28.5 15.4-24.2 21.9 1.2 1.8 5.4 3.7 6.1 2.7.3-.4 1.8-1.4 3.3-2 1.5-.7 3.7-2.6 4.9-4.2 1.3-1.7 3.1-3.1 4.1-3.1 1 0 1.8-.5 1.8-1 0-.6 1.4-1 3-1 1.7 0 3-.5 3-1 0-1.5 8.9-.9 12 .7 1.4.7 3.5 1.3 4.7 1.3 1.2 0 2.4.6 2.6 1.2.4 1 .6 1 .6 0 .2-2 3.1-1.4 3.1.7 0 1.1 1.5 3.1 3.3 4.6 4.3 3.7 6.7 7.4 6.7 10.7 0 1.6.5 2.8 1 2.8.6 0 1 2.5 1 5.5s-.4 5.5-.9 5.5c-.4 0-1.4 2-2.1 4.4-1.2 4.4-4.2 8.6-6 8.6-.5 0-2.1 1.1-3.6 2.5s-4 2.6-5.5 2.6c-3.4.2-3.5.2-7.2 1.7-1.5.7-3 1.9-3.4 2.7-.3.9-1.2 1.4-2 1.1-4.2-1.7-7.1 8.2-5.8 20.2.8 8.9 1.3 10.2 3.5 10.2 1 0 2 .6 2.2 1.2.7 2.1 5.7-.8 6.9-3.9.6-1.6.9-6.1.6-10.4l-.5-7.5 4.7-1.3c2.5-.7 6-1.9 7.8-2.7 1.7-.8 3.6-1.4 4.2-1.4.6 0 1.1-.3 1.1-.8 0-.4 1.7-1.6 3.7-2.7 4.1-2.3 9.3-7.4 9.3-9.3 0-.6.4-1.2 1-1.2.5 0 1.9-2 3-4.4 3-6.6 2.5-22.7-.9-31.1-.5-1.1-1.3-3.2-2-4.8-.6-1.5-1.5-2.7-2.1-2.7-.5 0-1-.7-1-1.5 0-.9-.7-1.8-1.5-2.1-.8-.4-1.5-1.3-1.5-2 0-.8-1.1-1.9-2.4-2.4-1.3-.5-2.8-1.5-3.3-2.3-.4-.8-3.3-2.7-6.3-4.2-7-3.4-16.5-4.1-27-1.8zM309.5 190.1c-7.7 1.2-23.5 5-30.2 7.3-12.2 4.1-38.2 18-47 25.1-8.5 6.8-25.5 24.4-30.9 32.1-5.6 7.8-10.2 17.8-11.9 25.4-4.6 20.6-5.5 26.6-6.1 40-.6 12-.4 16 1.1 22.5 3.6 16.6 11.8 35.5 18.6 43.2 1.6 1.9 2.9 3.8 2.9 4.4 0 .6.5.7 1.1.3.7-.4 1-.1.7.7-.3.8.9 3.4 2.6 5.8 4.2 5.9 17.5 18.1 19.1 17.5.7-.3 1.9.3 2.6 1.4 3.1 4.3 22.7 15.4 38.9 22 17.5 7.1 21.3 8.2 36.4 10.7 21.7 3.5 41.2 3.5 59.2-.1 16.5-3.2 31.1-8 44.6-14.3 5.9-2.8 11.3-5.1 12.1-5.1.8 0 4 1.5 7.1 3.4 3.1 1.9 10 5.3 15.4 7.6a504 504 0 0123.1 11.2c15.1 7.8 17.9 8.2 23.3 3.2 2.3-2.3 2.8-3.6 2.8-7.7 0-6.4-2.7-11-20.7-34.7-5.1-6.7-9.3-12.9-9.3-13.7 0-.8 2.7-5.2 6.1-9.6 6.6-8.9 14.4-23.6 17.8-33.8 4.3-13 4.9-18.3 4.1-36.9-.9-20.7-3.9-35-10-47-3.6-7-5.3-9.5-15.5-23.1-6.6-8.8-24.6-26.2-32-31.1-18.9-12.3-42.6-22-62.9-25.9-9.6-1.8-14-2-35.1-1.7-13.2.1-25.8.6-28 .9zM347 204c34.7 2.3 56.9 9.4 82.5 26.5 15.9 10.6 27.8 23.3 37.9 40.7 11.4 19.4 15.8 40.7 12.5 60.7-3.6 22-8.8 34.3-21 50-8.5 11-9.9 13.2-9.9 15.7 0 2.3 5.9 11.6 14.6 23 3 3.9 5.4 7.6 5.4 8.2 0 1.3 2.4 4.5 5.3 7.1 1.7 1.5 2.3 4.1 1 4.1-.3 0-8.4-3.8-18-8.5S439.5 423 439 423s-3-1.1-5.6-2.5c-7.6-4.1-13.6-3.5-22.7 2-4.1 2.5-8.3 4.5-9.2 4.5-1 0-4.1 1.1-6.9 2.4-2.8 1.3-6.2 2.4-7.6 2.4-1.4 0-8.1 1.5-15 3.3l-12.5 3.2-20-.6c-17-.5-22.3-1.1-35-3.7-24.3-5.1-33.9-8.8-55.4-21.6-16.8-10-27.8-20.4-37.6-35.4-3.7-5.8-7.1-11.6-7.5-13-.4-1.4-1.8-4.6-3-7-1.3-2.5-2.4-5.9-2.5-7.5-.2-1.7-.8-4.4-1.5-6-1.4-3.4-1.9-23.3-.8-37 .4-5.2 1.7-11.9 3.1-16 2.4-6.9 9.7-21.7 14-28.4 2.3-3.6 23.1-24.6 29.1-29.4 4.6-3.7 20.1-12.9 26.2-15.6 6.9-3.1 33.4-10.6 42.4-12.1 4.1-.6 8.2-1.3 9-1.5 2.8-.5 14.5-.3 27 .5zM211.8 396.5c-.3.3-1.3-.7-2.3-2.2l-1.7-2.8 2.3 2.2c1.2 1.2 2 2.5 1.7 2.8zm15.7 15.8c1.1 1.2-.2.2-3-2-2.7-2.3-6.6-5.8-8.5-7.9-3.1-3.4 6.3 4.8 11.5 9.9zM361 443c-2 1.3-7.3 1.3-6.5 0 .3-.6 2.3-1 4.3-1 2.8 0 3.3.3 2.2 1zm-1.7 4.7c-.7.2-1.9.2-2.5 0-.7-.3-.2-.5 1.2-.5s1.9.2 1.3.5z"/><path fill="#2e3338" d="M266.5 273.9c-5.7.9-8.4 1.9-10.5 3.9-2.5 2.5-2.2 4.9.8 6.1 6.5 2.6 12.2 2.8 48.2 2.4 18.4-.2 59.3-.3 67.5-.1 24.4.5 40.6 0 42.3-1.3.1-.1.5-.2 1-.3.5-.1 4.6-2.5 7.1-4.2 1.1-.8-3.2-3.4-5.6-3.4-1.9 0-2.4-.3-1.5-.9 1-.6.6-1-1.5-1.5-4-.9-141.8-1.5-147.8-.7zM268.5 317c-6.2.6-9.3 1.3-10.1 2.4-.6.9-1.7 1.6-2.4 1.6s-1 .3-.7.6c.3.4.2 1.5-.4 2.5-2.1 4.1 1.4 4.3 61.1 4.6 99.3.5 98.2.5 99.6-1.8.3-.5 1.3-.9 2.3-.9 1 0 2.4-.7 3.1-1.5 1.6-1.9 0-3.5-5.5-5.7-3.4-1.3-9-1.6-34.5-1.6-16.8 0-46.9-.3-67-.5-20.1-.3-40.5-.1-45.5.3zM270.4 359.1c-.3.5-2.8.9-5.5.9-4.2 0-5.4.5-7.9 3-7.9 8.1-6.3 8.3 80 8.3 75.9 0 78.1-.1 83.1-4.4 1.9-1.7 2.1-2.2.9-2.9-.8-.6-2.8-1-4.3-1-1.6 0-2.6-.4-2.3-.9.3-.4-2-1.6-5.2-2.5-5.5-1.6-12.8-1.7-16.3-.2-1 .4-6.4.5-12 .1-17.2-1-109.9-1.3-110.5-.4zM156.6 218c-4.1 1.3-8.6 6.3-9.2 10.2-.8 4.4 1 10.8 3.7 13.7 2 2.2 2.8 2.3 10 1.9 6.6-.4 8.2-.8 11.1-3.3 3.8-3.2 5.4-6.5 3.7-7.5-.6-.5-.8-1.7-.4-2.9 1-3.4-3.1-9.7-7.7-11.6-4.2-1.7-6.8-1.8-11.2-.5z"/></svg>