<svg version="1.0" xmlns="http://www.w3.org/2000/svg" viewBox="0 0 1000 1000"><path fill="#2e3338" d="M583 186.6c-12.2.8-92.6 1.2-265 1.2-229.2 0-248.1.2-255 1.7-8.1 1.9-11.2 3.2-17.7 7.6-4.5 3.1-5.9 3.6-4.7 1.7.4-.6-2.1.8-5.6 3.3-7.1 5-12.7 11.8-16.3 19.9-1.3 3-3.1 6.1-4 6.9-1 .7-1.7 2.3-1.7 3.6 0 1.2-.7 3.6-1.5 5.3-.9 1.7-2 5.7-2.5 8.9-1.2 7.4-1.3 39.6-.1 38.9 1.5-.9 2 20 2 74.4 0 42.4-.3 52.2-1.5 55.5-1.2 3.4-1.4 27.3-1.2 170l.3 166 4.3 8.8c2.3 4.9 4.2 10 4.2 11.3 0 6.9 9.6 19.2 20.5 26.4 2.8 1.8 5.7 4.1 6.5 5.2.9 1 2.7 2 4 2.2 1.4.2 4.3 1.1 6.5 2 5.9 2.5 17.1 3.6 29.3 2.9 6.6-.3 13.4-.1 17.4.6 8.2 1.4 334.1 1.8 336.1.4 1.3-.9 62.2-.9 94.7.1 13.2.5 20 .3 19.1-.3-.9-.6 65.5-1 184-1 212 0 200.4.4 216.3-7.8 12.6-6.6 22.9-16.5 28.6-27.6 2.4-4.5 5.4-9.4 6.8-11 3.1-3.3 4.2-10.7 3-20.5-.4-3.7-.6-98.5-.4-210.7.2-112.2 0-222.7-.4-245.5-.6-38.2-.9-42.1-2.9-49.5-5.7-21-17-35.4-35.1-44.9-14.2-7.4.5-6.9-184.5-7-113.5-.1-171.5.3-183.5 1zm-370.1 28.8c1 .8 30.1 1.1 106 1.2 57.5.1 127.3.2 155.1.3 106.4.2 158.8-.3 160.1-1.7 1.7-1.6 15-1.6 21.9.2 4.4 1.1 22.9 1.4 95 1.5 133.7.2 126.8.3 130-1.4 3.3-1.7 7.8-1.9 13.5-.4 2.2.5 9 1.4 15 1.9 24.7 2.2 27.8 3.3 37.8 13.9 7.3 7.6 11.4 16.1 12.8 26.6.6 5 .9 29.9.8 66-.1 31.9-.1 67.1 0 78.2.2 15.8-.1 20.8-1.2 23-1.9 3.6-2.1 32.9-.3 33.6.9.4 1.3 11.6 1.4 42.8.2 37.8 0 42.1-1.3 39.9-1.3-2.2-1.5 9.6-1.3 104.8l.1 107.2-3.3 6.7c-2 4.1-5.6 9-9.4 12.8-5.5 5.4-7.2 6.5-15.6 9.5-11 3.9-21.3 5-27.6 2.9-4.2-1.5-65.6-2.3-233.9-3.4l-83-.5 2.8 2.4 2.9 2.3-6.9.8c-3.7.5-16 .8-27.3.7-21.7-.1-92.3-1.7-92.8-2-.2-.1-.1-.6.3-1.2.6-1-178.5-.6-191 .4-31.9 2.7-100.5 4.5-100.5 2.7 0-.7-16.6-1.1-51.7-1.3-58.5-.3-54.4.2-64.9-8.7-3.2-2.8-6.8-5.2-7.9-5.3-1.3-.2-3.1-2.4-5.2-6.8-6.6-13.2-6.3 3.6-6-267.5l.2-246 4.4-8.5c6-11.7 9.6-16.7 13.4-18.6 1.8-.9 4.3-2.7 5.7-3.9 1.4-1.3 4.3-3.2 6.5-4.3 3.9-2 5.5-2 74-2 50.3 0 70.4.4 71.4 1.2z"/><path fill="#2e3338" d="M696.6 320.8c-.2.1-18.4.2-40.5.2-29.8 0-40.7.3-42.1 1.2-1.5 1-2.2 1-3.2 0-1.5-1.5-33.8-1.7-33.8-.2 0 .6-3.5 1-8.5 1-6.6 0-9.5.5-12.5 2-2.2 1.1-4.8 2-6 2-1.3 0-2 .7-2 2 0 1.6-.7 2-3 2s-3 .4-3 2c0 1.1.4 2 .8 2s.8.9.8 2-.4 2-.8 2-.8.7-.8 1.5c0 1.1 1.1 1.5 4 1.5 2.2 0 4 .4 4 1 0 .5 1.3 1 2.9 1 1.7 0 3.3.4 3.6 1 .3.5 2.4 1 4.6 1 2.1 0 3.9.4 3.9 1 0 1.3 62.7 1.3 63.5 0 .8-1.4 32.5-1.3 32.5 0 0 1.2 98.7 1.3 99.2.1.2-.4 3.2-1.1 6.8-1.5 6-.7 6.3-.6 4.5.8-1.8 1.4-.8 1.6 12 1.8 7.7.1 15.6.2 17.5.1 1.9-.1 14.2-.1 27.3-.2 15.5 0 23.7-.4 23.7-1.1 0-.5 2-1 4.4-1 2.5 0 4.8-.5 5.1-1 .3-.6 1.9-1 3.4-1 1.6 0 3.4-.7 4.1-1.5.7-.8 2.3-1.5 3.6-1.5 2.6 0 3-1 1.2-2.8-.9-.9-.9-1.2 0-1.2 1.5 0 1.5-1.9 0-5.3-1.2-2.5-1.7-2.7-7.5-2.7-3.5 0-6.3-.4-6.3-1s.9-1 2-1 2-.5 2-1c0-.6-.7-1-1.5-1s-1.5-.5-1.5-1c0-.6-1.9-1-4.3-1s-4.8-.5-5.4-1.1c-1.3-1.3-25.4-1.3-26.3 0-.9 1.5-46.5 1.8-48.2.3-1-.8-5.9-1.2-14.9-1.2-7.4 0-25-.1-39.2-.3-14.2-.1-26-.1-26.1.1zM289.5 336.1c-1.6.5-7 1.6-12 2.4-18 3.2-23.8 5.9-38.2 17.7-9.5 7.7-9.3 7.4-14.4 17.3-2.3 4.4-5 9.1-6.1 10.4-1 1.3-1.8 3.4-1.8 4.8 0 1.3-.7 3.5-1.6 4.8-.9 1.4-1.4 3.4-1.1 4.5.3 1.1.1 2.3-.4 2.6-1.3.8-1 16.7.5 25 .7 3.9 2 8.1 2.9 9.4 1 1.5 1.7 4.4 1.7 7.1 0 3.3.5 5.1 2 6.4 1.1 1 2 2.3 2 3 0 .6 1.1 2.2 2.4 3.4 1.3 1.2 3.1 4 4.1 6.2 1 2.1 2.3 3.9 2.9 3.9.6 0 3.8 2.6 7.1 5.8 12.5 12.3 26.5 20.4 34.5 20.4 4.2-.1 10 1.6 10 2.9 0 .5 3.5.8 7.8.7 7.5-.1 7.6-.1 2.2-.7-4.9-.6-5.2-.7-2.5-1.4 1.7-.4 6.2-.7 10-.8 6.6-.1 23.9-3.8 27.7-6 1-.5 2.8-.9 4.1-.9 2.3 0 5.1-2 13.7-9.8 2.6-2.3 5.2-4.2 5.9-4.2.6 0 1.1-.4 1.1-.9 0-1.2 5.7-9.8 7.1-10.6.5-.4.9-1.6.9-2.8 0-1.1 1.2-3.4 2.7-4.9 1.5-1.5 2.2-2.8 1.6-2.8-.8 0-.8-.9-.3-2.8 3.7-11.9 5.4-16.8 6.1-17.3.5-.3 1-7.6 1-16.3 0-15.3-1.5-27.6-3.2-27.6-.5 0-.9-.8-.9-1.8 0-1.6-5.4-9.8-14.1-21.8-1.3-1.6-3.8-4.1-5.7-5.5-1.9-1.3-5.6-4.3-8.1-6.6-6-5.4-13.4-9-21.9-10.9-3.7-.8-8.5-1.8-10.7-2.4-4.9-1.2-14.9-1.1-19 .1zm16.8 27.3c.4.9 1.4 1.2 2.6.9 1.3-.3 3.2.4 5.2 2.1 1.7 1.4 3.9 2.6 4.9 2.6 2.4 0 10.6 5.5 13.9 9.4 3.2 3.7 9.1 13.5 9.1 15.2 0 .7.5 1.6 1 1.9.6.3 1 1.5 1 2.6 0 1 .4 2.7.9 3.7 2.3 4.6 3.1 9.8 3.1 20.3 0 10.1-.2 11.8-2 13.7-1.1 1.2-2 2.5-2 3s-1.1 1.9-2.4 3.1c-1.3 1.2-3.1 4-4.1 6.2-1.2 2.6-2.4 3.9-3.8 3.9-1.9 0-5.7 3.4-5.7 5.2 0 .4-.9.8-1.9.8-1.1 0-2.3.9-2.6 2-.6 1.8-1.7 2.5-3.8 2.1-.5-.1-2.4.8-4.2 1.9-5.6 3.5-14.1 5.2-26 5.2-10.1 0-11.4-.3-15.9-2.8-4.2-2.3-4.6-2.9-3-3.5 1.6-.6 1.4-.9-1.8-2.3-2.1-.9-4.2-1.6-4.7-1.6s-1.8-1.4-2.8-3c-1-1.7-2.3-2.8-3.1-2.5-1.6.6-6.2-3.8-6.2-5.9 0-.8-1.3-2.4-3-3.6-1.6-1.2-3-2.8-3-3.6 0-.9-1.3-4.3-2.9-7.7-3.7-7.8-4.8-17.4-2.6-21.6.8-1.7 1.5-5 1.5-7.5s.5-4.8 1-5.1c.6-.3 1-1.7 1-3.1 0-1.3 1.9-5.2 4.3-8.5 2.3-3.3 4.7-6.9 5.3-8.1 2.2-3.7 7.7-8.7 10.4-9.3 1.5-.3 3.8-1.8 5.1-3.2 1.3-1.4 3.3-2.9 4.4-3.3 1.1-.5 8.8-.9 17.1-.9 12.3-.1 15.3.2 15.7 1.3zM577.7 460.8c-10.3.1-18.6.6-18.3 1 .2.4-1.4.9-3.6.9-2.6.1-4.9 1-6.2 2.3-1.2 1.1-2.7 2-3.3 2-.6 0-.9.9-.6 2 .4 1.5 0 2-1.6 2-1.8 0-2.1.6-2.1 4 0 3.8.2 4 3 4 2.1 0 3 .5 3 1.6 0 2.3 2.5 4.4 5.3 4.4 1.4 0 2.7.5 2.9 1.1.5 1.4 40.3 1.3 42.9-.1 2.6-1.4 19.6-1.3 20.1.2s59.7 1.3 61.2-.2c1.3-1.3 7.3-1.3 7.8.1.5 1.4 49.7 1.4 51.2-.1.5-.5 1.8-1 2.8-1 1 0 1.8-.5 1.8-1 0-.6.7-1 1.5-1 2.2 0 7.3-5.2 5.7-5.8-2.6-.8-1-2.2 2.8-2.2 3 0 4-.4 4-1.6 0-2.6-2.6-4.4-6.4-4.4-2 0-3.6-.5-3.6-1 0-.6.7-1 1.5-1s1.5-.5 1.5-1c0-.6-1.1-1-2.5-1s-2.5-.5-2.5-1c0-.6-1.7-1-3.8-1-2.1 0-4.3-.5-4.9-1.1-1-1-22.1-.7-33.7.6-3.8.5-6.1.3-6.5-.4-.7-1-78.3-1.9-119.4-1.3zM276.5 530c-1.1.5-7.1.9-13.2.9-9.5.1-11.3.3-11.3 1.6s-.9 1.5-4.2 1.2c-2.4-.3-5.8.1-7.7.9-1.8.8-4.1 1.4-5 1.4-.9 0-2.2.9-2.9 2-1.1 1.8-2.3 2-10.5 2s-9.9.4-15.2 3c-3.7 1.8-7.7 3-10.5 3-5.2.2-10.4 1.8-6 1.9 2.4.1 2.4.2-.8 2.1-1.8 1.1-4.6 2-6.3 2-2.1 0-4.3 1-6.6 3s-4.4 3-6.6 3c-2 0-5.4 1.3-8.7 3.5-3 1.9-6.7 4-8.2 4.7-1.6.7-2.8 1.6-2.8 2 0 .4-.6.8-1.4.8-.7 0-3.1 1.7-5.3 3.8-2.2 2.1-4.7 4.1-5.6 4.5-.9.3-1.7 1.3-1.7 2.2 0 .8-.6 1.5-1.3 1.5-.8 0-1.9 1.1-2.5 2.5-.6 1.4-1.6 2.5-2.2 2.5-.5 0-1 .7-1 1.5s-.9 3-2 5c-2.5 4.4-2.5 5.5-.2 5.5 1.6.1 1.6.1 0 1.1-2.1 1.2-2.4 4.9-.5 4.9.7 0 1.9-.6 2.6-1.3 1.1-1 1.4-1 1.8 0 .8 2.2 3.4 1.4 6.3-1.7 1.5-1.7 3.1-3 3.6-3 .4 0-.1.9-1.1 2-1.8 1.9-1.7 2 .3 2 1.2 0 2.2-.5 2.2-1 0-.6.9-1 1.9-1 1.1 0 2.3-.5 2.6-1 .3-.6 2.3-1 4.4-1 2.5 0 4.4-.7 5.6-2 1-1.1 2.3-2 3-2 .6 0 2.2-1.1 3.5-2.5 1.3-1.4 3.3-2.5 4.6-2.5 1.2 0 2.7-.7 3.4-1.5 1.7-2.1 6.9-4.5 9.7-4.5 1.6 0 2.3-.6 2.3-2 0-1.2.7-2 1.7-2 2.2 0 11.9-4.6 17.2-8.3 3.2-2.2 5.9-3.1 10-3.4 3.2-.3 6.1-1.1 6.7-1.9.7-.9 2.8-1.4 5-1.4 6.2.2 10.5-.6 11.4-2 1-1.7 7.6-2.9 18.5-3.6 5-.3 9.9-1 11-1.5 2.6-1.2 51.3-.5 60.5.9 3.6.6 9.1 1.7 12.3 2.6 3.2.9 7.3 1.6 9.2 1.6 1.9 0 3.7.4 4 1 .3.5 2.4 1 4.7 1 2.2 0 5.6.7 7.6 1.6 2.1.9 4.8 2 6.2 2.6 1.4.5 4.2 1.8 6.2 2.9 2 1 4.9 1.9 6.3 1.9 1.4 0 4.3.9 6.5 2s4.8 2 6 2c1.1 0 2.9.9 4 2s2.9 2 4 2 2 .4 2 1c0 .5 1.2 1 2.8 1 1.5 0 3.5.9 4.5 2 .9 1.1 2.8 2 4.1 2 1.4 0 4.1 1.1 6.2 2.5 2 1.3 5.1 3 7 3.7 1.9.6 3.6 1.9 3.9 2.8.6 1.8 4.1 3.4 11.3 5 4 .9 5.6 1.9 6.7 3.9 1.1 1.9 1.4 2.2 1.5.8 0-1.4.4-1.6 1.9-.7 3.3 1.7 4.6 1.2 2.6-1-1.6-1.8-1.6-2-.2-2 1 0 1.7-.5 1.7-1 0-.6.7-1 1.6-1 1.5 0 4.4-2.3 4.4-3.4 0-.3-.7-.6-1.4-.6-1.8 0-6.6-6.1-6.6-8.3 0-1-.8-1.7-2-1.7-1.5 0-2-.7-2-2.5s-.5-2.5-2-2.5-2-.7-2-2.8c0-1.7-.7-3.1-1.9-3.7-1.1-.6-5.2-3.4-9.2-6.3-4-2.8-8.3-5.2-9.5-5.2-1.2 0-2.7-.7-3.4-1.5-2.2-2.6-10-7.5-12.1-7.5-1 0-1.9-.5-1.9-1 0-.6-.8-1-1.8-1-1.1 0-2.7-.9-3.7-2-1.1-1.2-3.1-2-5.2-2-1.8 0-3.3-.5-3.3-1 0-.6-.9-1-1.9-1-1.1 0-2.1-.4-2.3-.9-.1-.5-2.8-1.2-5.9-1.4-3.6-.2-6.7-1.1-8.6-2.5-2-1.4-5.2-2.3-9.9-2.7-7.9-.7-14.3-2-19.4-4.1-1.9-.7-7.8-2.3-13-3.4-8-1.7-13-2-33-1.9-12.9 0-24.4.4-25.5.9zM696.6 545.8c-.2.1-18.4.2-40.5.2-29.8 0-40.7.3-42.1 1.2-1.5 1-2.2 1-3.2 0-1.5-1.5-33.8-1.7-33.8-.2 0 .6-3.5 1-8.5 1-6.6 0-9.5.5-12.5 2-2.2 1.1-4.8 2-6 2-1.3 0-2 .7-2 2 0 1.6-.7 2-3 2s-3 .4-3 2c0 1.1.5 2 1.2 2 .9 0 .9.3 0 1.2-.7.7-1.2 2.2-1.2 3.5 0 2 .5 2.3 4 2.3 2.2 0 4 .4 4 1 0 .5 1.3 1 2.9 1 1.7 0 3.3.4 3.6 1 .3.5 2.4 1 4.6 1 2.1 0 3.9.4 3.9 1 0 .5 12.4.9 32 .9 20.5.1 32-.3 32-.9 0-.6 6.1-1 16-1 10 0 16 .4 16 1 0 1.2 98.7 1.3 99.2.1.2-.4 3.2-1.1 6.8-1.5 6-.7 6.3-.6 4.5.8-1.8 1.4-.8 1.6 12 1.8 7.7.1 15.6.2 17.5.1 1.9-.1 14.2-.1 27.2-.2 15 0 23.9-.4 24.3-1.1.3-.5 2.4-1 4.5-1s4.2-.5 4.5-1c.3-.6 1.9-1 3.4-1 1.6 0 3.4-.7 4.1-1.5.7-.8 2.3-1.5 3.6-1.5 2.6 0 3-1 1.2-2.8-.9-.9-.9-1.2 0-1.2 1.5 0 1.5-1.9 0-5.3-1.2-2.5-1.7-2.7-7.5-2.7-3.5 0-6.3-.4-6.3-1s.9-1 2-1 2-.5 2-1c0-.6-.7-1-1.5-1s-1.5-.5-1.5-1c0-.6-1.9-1-4.3-1s-4.8-.5-5.4-1.1c-1.3-1.3-25.4-1.3-26.3 0-.9 1.5-46.5 1.8-48.2.3-1-.8-5.9-1.2-14.9-1.2-7.4 0-25-.1-39.2-.3-14.2-.1-26-.1-26.1.1z"/><path fill="#2e3338" d="M185 549c-1.3.8-1.2 1 .3 1 .9 0 1.7-.5 1.7-1 0-1.2-.1-1.2-2 0zM559.7 649.7c.5 1.2.3 1.4-.8.7-2.1-1.3-6.1-.5-8.5 1.7-1.1 1-2.8 1.9-3.8 1.9-1.3 0-1.6.5-1.1 2 .5 1.6.2 2-1.4 2-1.8 0-2.1.6-2.1 4.5 0 4.3.1 4.5 3 4.5 2.1 0 3 .5 3 1.6 0 2.3 2.5 4.4 5.4 4.4 1.4 0 2.6.4 2.6 1s7.6 1 20.9 1c12.9 0 21.2-.4 21.6-1 .3-.6 5-1 10.6-1 5.9 0 9.9.4 9.9 1s10.8 1 30.4 1c19.3 0 30.7-.4 31.1-1 .3-.6 2.2-1 4.1-1 1.9 0 3.4.4 3.4 1s9.2 1 25.5 1 25.5-.4 25.5-1 1.1-1 2.5-1c1.5 0 2.5-.6 2.5-1.5 0-.8.6-1.2 1.5-.9.8.3 2.6-.6 4.2-2.2 1.7-1.7 2.3-2.9 1.5-3.2-.7-.2-1.2-1-1.2-1.8 0-1 1.2-1.4 4-1.4 3 0 4-.4 4-1.6 0-2.6-2.6-4.4-6.4-4.4-2 0-3.6-.5-3.6-1 0-.6.7-1 1.6-1 .8 0 1.2-.5.9-1-.3-.6-1.5-1-2.6-1-1 0-1.9-.5-1.9-1 0-.6-2-1-4.5-1s-4.5-.5-4.5-1.1c0-1-19.2-.7-33.2.6-4.5.5-6.8.3-6.8-.4s-21.3-1-69-1.1c-63.7 0-68.9.1-68.3 1.7z"/></svg>