<svg xmlns="http://www.w3.org/2000/svg" viewBox="0 0 48 48"><defs><style>.cls-3{fill:#2e3338}</style></defs><g style="isolation:isolate"><g id="Layer_1" data-name="Layer 1"><g style="mix-blend-mode:multiply"><path class="cls-3" d="M15 9.8c.1 0 0 0 0 0a.7.7 0 01-.1 0H14a2 2 0 01-.3 0h-.2a1.2 1.2 0 00.4 0c.5.1.6.1.2.1a3.6 3.6 0 01-.4 0s-.2 0 0 0h-.1.5-.3c.4 0 .7 0 .6.1a1.3 1.3 0 01-.3 0h-.9c.4.1-.9.2-1.3.2a.9.9 0 00-.2 0H11.8a.7.7 0 01-.2 0 1 1 0 00-.2 0c-.3 0-.3 0 0 0H10.5a1.8 1.8 0 01-.6 0h-.2l-.2.1h-1c.3 0 0 0 0 0H7.1 7a.3.3 0 01-.1 0h-.1-.3-.1a2.7 2.7 0 01-.5 0h-.2a1.7 1.7 0 01-.3 0 3.7 3.7 0 00-.4 0h-.7a.3.3 0 00-.1 0h-.8a1.6 1.6 0 00-.6.4l-.2.1a.7.7 0 00-.2.2 4 4 0 00-.4.7 1.7 1.7 0 00-.2.5V14v-.1 1.2a.7.7 0 010 .1v.3a1.4 1.4 0 010 .4v1.5a6.4 6.4 0 000 .7v.4a5.9 5.9 0 000 1v5.2a7.2 7.2 0 010 .7v.7a.7.7 0 000 .2 3.5 3.5 0 010 .6v.2a7 7 0 010 1.3 3 3 0 000 .6v4.7a1.8 1.8 0 010 .5v.6a.6.6 0 000 .2v.8l.1.5.1.3a1 1 0 01.1.2 2.4 2.4 0 00.2.3c0-.2.3.1.5.3a1.4 1.4 0 00.7.3 3 3 0 00.5 0h.3-.4H5.2h1c.3 0 .4 0 0 0-.7 0-.6 0 0 0h.3c-.7 0-.7 0 0 0a6 6 0 001.3 0h.3c.3 0 .3.1 0 .1a2.2 2.2 0 00.3 0h.3H9.6h.3a5 5 0 001 0h.4c.3 0 1.3 0 1-.1h.4a5.7 5.7 0 01.9 0h.6a5.3 5.3 0 01.6 0 3 3 0 01.4 0 .7.7 0 00.1 0h-.1a1.6 1.6 0 01.4 0 1.5 1.5 0 00.1 0h.4a2 2 0 00.3 0h.4-.1.7a2.2 2.2 0 01.7 0 .8.8 0 00.3 0 2.3 2.3 0 01.4 0 1.3 1.3 0 00.3 0h.5a2.6 2.6 0 01.4 0 3.2 3.2 0 00.5.1H22c.2 0 .5 0 .2.1H22h-.5a3.3 3.3 0 00.6 0h.6a.5.5 0 01.2 0h.2a1.7 1.7 0 00.4 0c.2 0 .2 0 0 0l.4.1a.3.3 0 00.1 0H24h-.7a2 2 0 01-.3 0 1.7 1.7 0 00-.2 0l-.2.1a.5.5 0 00.2 0h.1a1 1 0 00.2 0h.3a2.3 2.3 0 01.5 0H25a.7.7 0 01.2 0h.2s-.2 0 0 0l-.4.1h-.5.7a1 1 0 01.3 0 2.4 2.4 0 00.3 0h.1l-.2.2h.2c.3 0 .3 0 0 0s-.3 0 0 0h-1.2a50.1 50.1 0 00.5.1h.4c.1 0 .1 0 0 0H25h-.2-.3a2.3 2.3 0 00.4 0l.5.1H25a1.8 1.8 0 01-.4 0H24h.2l.2.1a2.5 2.5 0 01-.4 0h-.4c-.1 0 0 0 0 0h.3l-.3.1q-.2 0 0 0a1.3 1.3 0 00-.2 0 3.3 3.3 0 01-.3 0h-.5c.2.1 0 .1-.2.1h-.6H21v.1h-.2a2.3 2.3 0 00-.3 0 4 4 0 00-.6 0 4.6 4.6 0 01-.8 0 .8.8 0 00-.3 0 .8.8 0 01-.2 0h-.2-.2a.7.7 0 01-.1 0 1.5 1.5 0 00-.3 0h-1a7.2 7.2 0 01-.8 0h-.7c-.3 0 .2 0 0 0h-1.6H13.7a2.5 2.5 0 00-.6 0h-.3H11.4 11 10.1h1.5a1 1 0 00.3 0H12h-1.5a4.2 4.2 0 01-.8 0 2 2 0 00-.3 0h.7-1a7 7 0 00-.6 0H4.9h.4a2716.3 2716.3 0 00-.6-.1h1c.4 0 .5 0 0 0H4a5.1 5.1 0 01-.8 0l-.5-.2a3.4 3.4 0 00.6.2 2.3 2.3 0 01-.6-.1 4 4 0 01-.4-.2c.3.2-.2 0-.2 0v-.1a3.5 3.5 0 01-1-.8 3.8 3.8 0 01-.3-.6v-.2l-.2-.4a3.4 3.4 0 01-.2-.5 6 6 0 010-1v-1-.3c0 .3 0 .3 0 0v-2-.6a5.2 5.2 0 010-.6v-.3-.5-.4-1-1a2.8 2.8 0 000-.4v-2.4a.8.8 0 010-.3V22.6a24 24 0 010-2.5l.1-.3v-.1-1a3 3 0 000-.4 7 7 0 010-1v-1a2.8 2.8 0 010-.6v-1-.7a2.7 2.7 0 010 .3 3.3 3.3 0 010-.6H.4a4 4 0 000 .7 5.8 5.8 0 010-1v-.6-.6a2 2 0 01.1-.7 2.2 2.2 0 01.1-.2 1.6 1.6 0 010-.2l.2-.2.2-.5a2.7 2.7 0 01.8-.8 2.4 2.4 0 01.4-.2 4.1 4.1 0 00-.6.4l.3-.2h.1a2.2 2.2 0 01.6-.4l.4-.1a2.6 2.6 0 01.7-.1 2.5 2.5 0 01.4 0A27.6 27.6 0 006 9H6a1.5 1.5 0 01.2 0 2 2 0 00.2 0h0-.1 2a1 1 0 00.2 0H10.8l.3.1h.1a.3.3 0 00.1 0h.5-.1-.1a.4.4 0 00.2 0h.1a.6.6 0 01.1 0h.6-.2v.1c-.3 0-.2 0 0 0 .1 0 .1 0 0 0a2 2 0 01.3 0 2.3 2.3 0 01.3 0 1 1 0 01.3 0 1.4 1.4 0 01-.1 0H13h.2a2.7 2.7 0 01.3 0h-.2c-.1 0-.1 0 0 0h.4l-.2.1H15a.6.6 0 00-.1 0h-.5.4H14.5h.5a1.1 1.1 0 01-.3 0h.4v.1h-.2.2a.7.7 0 00-.1 0 .5.5 0 01-.2 0h-.2.3a2.4 2.4 0 00-.3 0 1.7 1.7 0 01-.2 0c-.1.1-.1.1.2 0a.6.6 0 000 .1h-.3.5-.5.1-.1.7-.7.5c-.2 0 0 0 0 0l-.4.1H14h.4a37.2 37.2 0 00-.1.2h.6z"/><path class="cls-3" d="M8.5 38.3c.2 0 .2 0 0 0H9.1 9l-.2-.1H9c.1 0 .1 0 0 0H8.9 9V38a.8.8 0 01.2 0h.2a1.5 1.5 0 00.2 0h-.1-.1a.6.6 0 01.2 0c0-.1 0-.1 0 0a2.4 2.4 0 00.3 0l-.2-.1h.2s.1 0 0 0v-.1a1.7 1.7 0 00.4 0h.4a.2.2 0 01.1 0h.2c.2 0 .3 0 .2-.1h.8a2.2 2.2 0 00.4 0 2.4 2.4 0 01.5 0 .3.3 0 00.2 0c0-.1.1-.1.1 0h.1l.2-.1a.4.4 0 01.1 0 .5.5 0 00.2 0 1.8 1.8 0 01.4 0 .7.7 0 00.2 0 5 5 0 01.6 0 3.5 3.5 0 00.5 0h.3a8.8 8.8 0 011 0h.3H19.5a1.4 1.4 0 00.5 0h.3a2.6 2.6 0 00.4 0 4.3 4.3 0 01.5 0h.3a3 3 0 01.6 0h0a1.5 1.5 0 01-.5 0H21a2.8 2.8 0 01.5 0h1.2a1 1 0 00.2 0c-.5 0-.8 0-.5.1a6.5 6.5 0 00.7 0 4.3 4.3 0 00.6 0h2.8-.2c-.3 0-.3 0 0 0h.4c.2 0 .2 0 0 0h-.8c-.3 0-.4.1 0 .1a12.5 12.5 0 001.3 0h.5l.4-.1c-.5 0-.5 0 0 0h.3a.9.9 0 01-.3-.2h2.1a7.3 7.3 0 01.7 0h1c-.2 0-.2 0 0 0h2.1a2.9 2.9 0 00.5 0 3.3 3.3 0 01.5 0H36l.2.1h.4 2.2a5.9 5.9 0 011 0h1.3a14.9 14.9 0 012 0l.2.1a.3.3 0 01.1 0 6.2 6.2 0 00.7 0 .8.8 0 00.3-.1l.6-.2a2.9 2.9 0 00.5-.4 2 2 0 01.2-.3 2.5 2.5 0 00.3-.6 1.5 1.5 0 000-.4.8.8 0 010 .2v-.4V35.4v-.5-.5a2.1 2.1 0 010-.4 3 3 0 000-.8 7.5 7.5 0 010-.8v-.2-.5-.1-.1a5 5 0 010-.7v-.5a1.2 1.2 0 010-.1 1.4 1.4 0 010-.4 5.7 5.7 0 010-.7v-.5-.2V28.1a4.7 4.7 0 010-.5v-.2a1.2 1.2 0 010-.1v-.2c0-.1 0 0 0 0V27a1.3 1.3 0 010-.2v-1a2.2 2.2 0 01.1.3 1 1 0 000-.2v-1-1-.2a1.8 1.8 0 000-.5 3.7 3.7 0 010-.6v-.6H46a2.9 2.9 0 010-.5 4.3 4.3 0 000-.5v-.3-.2l.1-.2a3.8 3.8 0 000-1.2v-.6-.2a3.4 3.4 0 010-.8 3 3 0 000-.8v-3.3-.8a2.2 2.2 0 00-.8-1.7 2 2 0 00-.7-.4 2.4 2.4 0 00-.3 0 2.2 2.2 0 00-.6-.1h-.3-.1l-.5-.1h1.5a.7.7 0 00-.3 0h-2.7-.3a1 1 0 00-.3 0h.5a3928.7 3928.7 0 001.2 0l-.2.1h-.8a1.4 1.4 0 01-.2 0h-.1a1.7 1.7 0 01-.8 0 1 1 0 00-.5 0 2.8 2.8 0 01-.5 0h-.3a1.4 1.4 0 01-.3 0h-.6a7797.2 7797.2 0 01-2 0h-.9a2.9 2.9 0 00-.8 0h-.3a4.7 4.7 0 00-.5 0h-.2.2a1.7 1.7 0 00-.5 0h-.7-.6a.8.8 0 01-.3 0l-.5.1h-.3H31.7h-.5l.3-.1c.2 0 .2 0 0 0-.5 0-.5 0 0 0 .3 0 .3 0-.2-.1h-.8a4.5 4.5 0 01-.5 0c-.6 0-.6 0 0 0 .5 0 .7 0 .2.1h-.8-.3a2.3 2.3 0 01-.5 0 5.4 5.4 0 00-1.2 0 4.8 4.8 0 01-1.2 0 4.3 4.3 0 00-.4 0h-.3.2a2 2 0 01.5 0 1.6 1.6 0 01-.3 0h-.2a2 2 0 00-.5 0 4.2 4.2 0 01-1.4 0h-.2H21.9c-.5 0-.3 0 0 0H20.7a1.2 1.2 0 01.3 0c.5 0 .5 0 0 0h-.7a.6.6 0 00-.3 0h-.3a4.7 4.7 0 00-.5 0 1.9 1.9 0 01-.2 0h-.5c-.2 0-.2 0 0 0h-1.5a.7.7 0 00-.1 0 .3.3 0 00-.1 0 1.2 1.2 0 01-.2 0h-.2-.3a1.9 1.9 0 01-.2 0h-.2a.4.4 0 01-.1 0 .7.7 0 00-.2 0 1.9 1.9 0 01-.4 0 1 1 0 00-.2 0 3.2 3.2 0 01-.3 0 1.3 1.3 0 01-.3 0 3.8 3.8 0 00-.5 0h-.5a.7.7 0 00-.2 0 .7.7 0 01-.2 0h-.1.2a1 1 0 01-.2 0h-1.1a.4.4 0 00-.1 0h-.2H10.8c.1 0 0 0 0 0h-.2a1.4 1.4 0 01-.1 0 2.2 2.2 0 00-.3 0c-.1 0-.1 0 0 0v-.1a.5.5 0 00-.2 0h-.5.1-.2a1.7 1.7 0 00-.3 0H9h.1V10c.2 0 .2 0 0 0h-.4a.4.4 0 01-.1 0h0a1 1 0 01-.2 0h.2H8.3h.2c-.3 0-.5 0-.3-.1a1.4 1.4 0 01-.2 0h-.2-.2.3-.2.2-.4a.4.4 0 01.2 0h-.2v-.1H7.8h-.2a1 1 0 00.2 0c.2 0 .2 0 0 0l.2-.1h-.2c-.3 0-.3 0 0 0H8h-.5.5-.4c.2 0 0 0 0 0H8l.2-.1h-.4c.2 0 0 0 0 0-.2 0-.3 0 0-.1h.5H8a.7.7 0 00-.1 0h-.4c-.2 0 0 0 0 0l.2-.1h.5a.8.8 0 00-.1 0H8a1.3 1.3 0 01.3 0s.1 0 0 0a2.4 2.4 0 01-.2-.1 5.6 5.6 0 01.1 0h-.4a.6.6 0 01.3 0h.4c.2 0 .2-.1 0-.1l.9-.1a.6.6 0 00.1 0 2 2 0 01-.2 0h.1a.3.3 0 01.2 0 .6.6 0 01.2-.1H11.7a1.3 1.3 0 00.3 0h.1a.4.4 0 00.2 0h.2a.2.2 0 01.1 0H13a1.1 1.1 0 01.4 0 1 1 0 01.3 0H14.2a3 3 0 01.4 0 1.3 1.3 0 01.3 0h.4a.7.7 0 01.2 0 1.4 1.4 0 01.2 0h.2a4 4 0 01.6 0H20a3.2 3.2 0 01.7 0c.3 0 .3 0 0 0h.5a6.7 6.7 0 001 0h1.4a4.9 4.9 0 01.5 0 3.4 3.4 0 00.8 0 5 5 0 01.8 0 2.5 2.5 0 00.5 0h1l1.6-.1a2.4 2.4 0 01.5 0 1.7 1.7 0 00.5 0 8.7 8.7 0 011 0 7.5 7.5 0 00.8 0h.8a5.1 5.1 0 01.5 0H36a2.9 2.9 0 01.5 0h.3a3.3 3.3 0 01.5 0h1.3a4.6 4.6 0 01.8 0 3.4 3.4 0 01.8 0h2.3a4.1 4.1 0 01.5 0h1a6.2 6.2 0 01.6 0 3 3 0 011.6.7 3.3 3.3 0 01.8.9l.1.2a4.5 4.5 0 01.3 1l.1.6v1.8a10 10 0 000 1 28.2 28.2 0 010 3 .5.5 0 000 .3 6.5 6.5 0 010 1.1v1.6a1.9 1.9 0 010 .2v.7a4.1 4.1 0 010 .6 8.3 8.3 0 000 1.3 6.7 6.7 0 010 1.6 6 6 0 010 1 46775.3 46775.3 0 010 1.6V30a8.3 8.3 0 010 .7v.3a5.4 5.4 0 010 .6v1.5a16.7 16.7 0 000 1.8 4.8 4.8 0 000 .6 2.4 2.4 0 010 1l-.2.2-.3.6a2 2 0 01-.2.3 1 1 0 01-.2.2l-.2.2a.9.9 0 01-.2.2 5.2 5.2 0 01-.9.5 2.8 2.8 0 01-.4.1.6.6 0 01-.1 0l-.7.1h-.3a3.7 3.7 0 00-.8 0H38.8a4.4 4.4 0 01-.6 0h-.5a1 1 0 00-.2 0 2.1 2.1 0 01-.5 0h-.1a4.8 4.8 0 01-1 0h-1.1a9.7 9.7 0 01-1 0h-.3-1.3a5.6 5.6 0 01-1 0h-.6-.6-.3a2 2 0 01-.4 0H29a.6.6 0 01-.2 0h-.4-.6a3.3 3.3 0 00-.7 0h-.8c.4.1.4.1-.3.1h-.5-.8c-.2 0-.3 0 0 0 .5 0 .5 0 0 0h-.2c.5 0 .5 0 0-.1a3.8 3.8 0 00-1 0H23.2h-.7-.6-.2a3.3 3.3 0 00-.8 0h-1.5a3.3 3.3 0 01-.7 0h-.5a3.4 3.4 0 01-.5 0h-.6-.8-.1-.1-.2-.2a.5.5 0 01-.3 0h-.2a.8.8 0 01-.2 0 1.2 1.2 0 00-.2 0h-.2-.2-.3a1.3 1.3 0 01-.4 0h-.2a1.5 1.5 0 01-.3 0 .7.7 0 00-.2 0h-.7-.2-.1a5.4 5.4 0 01-.6 0l-.1-.1H11h0H10.4a1.3 1.3 0 00-.3-.1c-.1 0-.1 0 0 0h-.3-.1c-.2 0 0-.1.1 0l.1-.1a1.2 1.2 0 00.4 0h.2a1 1 0 00.1 0h.2-.2s-.1 0 0 0a1.2 1.2 0 00-.2 0h-.2-.4a1 1 0 00-.2 0h-.2-.5c.1 0 0 0 0 0v-.1h.2l.4-.1h-.6a.4.4 0 01-.1 0 2.3 2.3 0 00-.2 0h-.1l.2-.1h-.2c-.2 0-.2 0 0 0zM20.2 9.8z"/></g><path class="cls-3" d="M26 26.7H26.4c-.1 0-.2-.1 0-.1 0 0 .1 0 0 0 .2 0 .1 0 0 0 0 0-.2 0-.1-.1h.1c-.1 0 0 0 0 0h.1c.1 0 .1 0 0 0l.4-.2c-.1 0 0 0 0 0h.1c.1 0 0 0 0 0h.4c.1 0 .1 0 0 0H27.7v-.1h.4c.1 0 .1 0 0 0h.4a.2.2 0 00.1 0h.5a.6.6 0 00.2 0 .1.1 0 00.2 0h.2a.6.6 0 00.2 0h.2a.6.6 0 01.2 0 .5.5 0 00.2 0 .3.3 0 01.1 0h.2a.9.9 0 00.3 0 .4.4 0 01.1 0 .4.4 0 00.2 0 .4.4 0 00.3 0h1a2.4 2.4 0 01.3 0 .4.4 0 01.2 0 .9.9 0 01.2 0 .2.2 0 01.2 0h.5a.6.6 0 00.2 0 1 1 0 01.3 0s.1 0 0 0h.2a1 1 0 00.3 0H35.7a.2.2 0 01.2 0c-.1 0 0 0 0 0a.1.1 0 01.1 0H36.3a.4.4 0 00.3 0 1.6 1.6 0 01.1 0h.1c-.2 0-.2 0 0 0h.5c-.2 0-.2 0 0 0s.3 0 0 0c-.1 0-.1 0 0 .1a.4.4 0 00.4 0c.1 0 .1 0 0 0H38c-.1 0 0 0 0 0H39.5a.2.2 0 01.1 0v-.1c0-.1 0 0 0 0a.1.1 0 01.1 0 .3.3 0 01.1 0 .1.1 0 00.1 0h.1c.1 0 0 0 0 0h.5a.5.5 0 01.3 0l.1.1h.4s.1 0 0 .1H41h.1a.7.7 0 00.2 0h.2v.1h.1a.3.3 0 00-.2 0h-.1v.1h.6v.1a1 1 0 00-.2 0 .8.8 0 00.2 0l.1.1v.1c.1 0 .1 0 0 0v.1h-.3a.5.5 0 00.1 0c.1 0 .1 0 0 0a.7.7 0 01.2 0H42h-.1a.7.7 0 00.1.1.1.1 0 01-.2 0v.1h-.1c-.1 0-.1 0 0 0v.1h-.1a.2.2 0 01-.1 0c0 .1 0 .1 0 0a.3.3 0 00-.1 0l-.1.1h-.1s-.1 0 0 0H41a.4.4 0 00-.1.1H40.6a.3.3 0 01-.2 0h-.1a.2.2 0 01-.1 0H40a1.1 1.1 0 01-.2 0 .5.5 0 01-.2 0h-.1c-.1 0 0 0 0 0a.3.3 0 00-.1 0h-.3H38.8a.3.3 0 00-.2 0 .4.4 0 01-.1 0h-.1a.4.4 0 01-.2 0h.5a1 1 0 01-.6 0H38h.1a.7.7 0 00-.2 0h-.2-.8c.1 0 .1 0 0 0H37c-.1 0 0 0 0-.1a2.1 2.1 0 01.3 0 1.2 1.2 0 00-.5 0 1 1 0 00-.1 0h-.1c.1 0 .1 0 0 0a.4.4 0 00-.1 0v.1H36a1.3 1.3 0 00-.2 0h-.2a.7.7 0 01-.2 0h-.3a1.2 1.2 0 00-.4 0 .4.4 0 01-.1 0 .5.5 0 00-.2 0h-.1-.1-.2a.3.3 0 00-.1 0h-.1-.2a1 1 0 00-.2 0s-.1 0 0 0h-.7a2.5 2.5 0 01-.4 0 1.5 1.5 0 01-.4 0h-.2v-.1h-.1a1.4 1.4 0 00-.3 0H31a2 2 0 01-.2 0 .2.2 0 01-.2 0h-.3a.7.7 0 00-.1 0v.1h-.1-.2-.1a.2.2 0 01-.2 0 .2.2 0 01-.1 0 .3.3 0 00-.2 0 .7.7 0 01-.2 0h0a.3.3 0 01-.2 0 .6.6 0 01-.2 0h-.3a1.7 1.7 0 01-.2 0 .1.1 0 00-.1 0h-.5-.1H27.3a.3.3 0 00-.2 0v-.1a.2.2 0 00-.1 0h-.1-.1a.2.2 0 00-.1 0c0-.1 0-.1 0 0v-.1h-.2c-.1 0 0 0 0 0h-.1s-.2 0 0 0v-.1a.3.3 0 01-.2 0 .3.3 0 01-.1 0 .9.9 0 00.1 0H26V27a.1.1 0 01.1 0V27H26a.4.4 0 00.1 0h-.1a1 1 0 01.1-.1h.1a.7.7 0 00-.2 0c-.2 0-.1 0 0 0v-.1h.2-.1a.8.8 0 01-.1 0zM26 31.6h.2v-.1s-.1 0 0 0l-.1-.1c.1 0 .1 0 0 0h.1s.1 0 0 0h.1l.2-.2c.1 0 .1 0 0 0h.2s0-.1.1 0 .1 0 0-.1h.4s.1 0 0 0h.1s.1 0 0 0h.2a.1.1 0 00.1 0H28a.3.3 0 00.1 0h.4a.8.8 0 01.1 0 .2.2 0 01.2 0 .2.2 0 00.1 0h.2a.4.4 0 00.2 0 .2.2 0 00.2 0 .2.2 0 00.2 0H30.2a1 1 0 01.2 0 .2.2 0 01.1 0 .4.4 0 01.1 0h.5a.3.3 0 00.1 0h.2s.1 0 0 0h.2a.4.4 0 00.1 0H32.6a.2.2 0 00.1 0 .6.6 0 01.1 0c.1 0 .2 0 0 0h.4c-.1 0-.1 0 0 0 .2 0 .2 0 0 0a.2.2 0 00.2 0c.1 0 .1.1 0 .1H34l.2-.1h1.2v.1H35.8v.1a.3.3 0 00.1 0h.1l.1.1h-.1-.1c0 .1 0 .1 0 0v.1h.4v.1a.4.4 0 00-.1 0 .3.3 0 00.1 0h.1v.2H36v.1h.1v.1a.1.1 0 01-.1 0v.1a.2.2 0 00-.1 0v.1a.1.1 0 01-.1 0 .1.1 0 00-.1 0v.1h-.1-.1v.1h-.1-.1a.1.1 0 01-.1 0h-.1-.2a.5.5 0 01-.1 0h-.1-.4-.1-.2-.1-.1a1.3 1.3 0 01.1 0 .7.7 0 00.2 0h-.4a.3.3 0 00-.1 0h-.1a1.7 1.7 0 01-.3 0H33c.1 0 .1 0 0 0 0-.1 0 0 0 0v-.1a.9.9 0 01.1 0s.1 0 0 0a.5.5 0 00-.2 0 .4.4 0 00-.1 0h-.1c.1 0 .1 0 0 0l-.1.1h-.2a.2.2 0 00-.1 0h-.1a.3.3 0 01-.2 0h-.4-.2-.2-.4-.5a1 1 0 01-.2 0 .6.6 0 01-.3 0h-.1v-.1a.6.6 0 00-.2 0h-.2a.8.8 0 01-.2 0H28.8l-.1.1h-.2-.1-.1a.1.1 0 00-.1 0 .3.3 0 01-.1 0H28h.1-.2a.2.2 0 01-.1 0h-.2a.7.7 0 01-.1 0h-.1-.2-.1-.2s-.1 0 0 0a.1.1 0 01-.1 0h-.1v-.1h-.1-.1-.1v-.1h-.1V32c-.1 0-.1 0 0 0H26V32v-.1-.1c-.1 0-.1 0 0 0v-.1zM26 16v-.1H26.4c-.1 0-.2-.1 0-.1 0 0 .1 0 0 0 .2 0 .1 0 0 0 0 0-.2 0-.1-.1h.1c-.1 0 0 0 0 0h.1c.1 0 .1 0 0 0l.4-.2c-.1 0 0 0 0 0h.1c.1 0 0 0 0 0h.4c.1 0 .1 0 0 0H27.7v-.1h.4c.1 0 .1 0 0 0h.4a.2.2 0 00.1 0h.5a.6.6 0 00.2 0 .1.1 0 00.2 0h.2a.6.6 0 00.2 0h.2a.6.6 0 01.2 0 .5.5 0 00.2 0 .3.3 0 01.1 0h.2a.9.9 0 00.3 0 .4.4 0 01.1 0 .4.4 0 00.2 0 .4.4 0 00.3 0h1a2.4 2.4 0 01.3 0 .5.5 0 01.2 0 .9.9 0 01.2 0 .2.2 0 01.2 0h.5a.6.6 0 00.2 0 1 1 0 01.3 0s.1 0 0 0h.2a1 1 0 00.3 0H35.7a.2.2 0 01.2 0c-.1 0 0 0 0 0a.1.1 0 01.1 0H36.3a.4.4 0 00.3 0 1.6 1.6 0 01.1 0h.1c-.2 0-.2 0 0 0h.5c-.2 0-.2 0 0 0s.3 0 0 0c-.1 0-.1 0 0 .1a.4.4 0 00.4 0c.1 0 .1 0 0 0H38c-.1 0 0 0 0 0H39.5a.2.2 0 01.1 0v-.1a.1.1 0 01.1 0 .3.3 0 01.1 0 .1.1 0 00.1 0h.1c.1 0 0 0 0 0h.5a.5.5 0 01.3 0l.1.1h.4s.1 0 0 .1H41h.1a.7.7 0 00.2 0h.2v.1h.1a.3.3 0 00-.2 0h-.1v.1h.6v.1a1 1 0 00-.2 0 .8.8 0 00.2 0l.1.1v.1c.1 0 .1 0 0 0v.1h-.3a.5.5 0 00.1 0c.1 0 .1 0 0 0a.7.7 0 01.2 0H42h-.1a.7.7 0 00.1.1.1.1 0 01-.2 0v.1h-.1c-.1 0-.1 0 0 0v.1h-.1a.2.2 0 01-.1 0c0 .1 0 .1 0 0a.3.3 0 00-.1 0l-.1.1h-.1s-.1 0 0 0H41a.3.3 0 00-.1 0v.1H40.6a.3.3 0 01-.2 0h-.1a.2.2 0 01-.1 0H40a1.1 1.1 0 01-.2 0 .4.4 0 01-.2 0h-.1c-.1 0 0 0 0 0a.3.3 0 00-.1 0h-.3H38.8a.3.3 0 00-.2 0 .4.4 0 01-.1 0h-.1a.4.4 0 01-.2 0h.5a1 1 0 01-.6 0H38h.1a.7.7 0 00-.2 0h-.2-.8c.1 0 .1 0 0 0H37c-.1 0 0 0 0-.1a2.1 2.1 0 01.3 0 1.2 1.2 0 00-.5 0 1 1 0 00-.1 0h-.1c.1 0 .1 0 0 0a.4.4 0 00-.1 0v.1H36a1.3 1.3 0 00-.2 0h-.2a.7.7 0 01-.2 0h-.3a1.2 1.2 0 00-.4 0 .4.4 0 01-.1 0 .5.5 0 00-.2 0h-.1-.1-.2a.3.3 0 00-.1 0h-.1-.2a1 1 0 00-.2 0s-.1 0 0 0h-.7a2.5 2.5 0 01-.4 0 1.5 1.5 0 01-.4 0h-.2v-.1h-.1a1.4 1.4 0 00-.3 0H31a2 2 0 01-.2 0 .2.2 0 01-.2 0h-.3a.7.7 0 00-.1 0l-.1.1H30h-.1a.2.2 0 01-.2 0 .2.2 0 01-.1 0 .3.3 0 00-.2 0 .7.7 0 01-.2 0h0a.3.3 0 01-.2 0 .6.6 0 01-.2 0h-.3a1.7 1.7 0 01-.2 0 .1.1 0 00-.1 0h-.5-.1H27.3a.3.3 0 00-.2 0v-.1a.2.2 0 00-.1 0h-.1-.1a.2.2 0 00-.1 0c0-.1 0-.1 0 0v-.1h-.2c-.1 0 0 0 0 0h-.1s-.2 0 0 0v-.1a.3.3 0 01-.2 0 .3.3 0 01-.1 0 .9.9 0 00.1 0H26v-.1a.1.1 0 01.1 0v-.1H26a.4.4 0 00.1 0h-.1a1 1 0 01.1-.1h.1a.7.7 0 00-.2 0c-.2 0-.1 0 0 0V16h.2-.1a.8.8 0 01-.1 0zM26 22.6h.2v-.1s-.1 0 0 0l-.1-.1c.1 0 .1 0 0 0h.1s.1 0 0 0h.1l.2-.2c.1 0 .1 0 0 0h.2s0-.1.1 0 .1 0 0-.1h.4s.1 0 0 0h.1s.1 0 0 0h.2a.1.1 0 00.1 0H28a.3.3 0 00.1 0h.4a.8.8 0 01.1 0 .2.2 0 01.2 0 .2.2 0 00.1 0h.2a.4.4 0 00.2 0 .2.2 0 00.2 0 .2.2 0 00.2 0H30.2a1 1 0 01.2 0 .2.2 0 01.1 0 .4.4 0 01.1 0h.5a.3.3 0 00.1 0h.2s.1 0 0 0h.2a.4.4 0 00.1 0H32.6a.2.2 0 00.1 0 .6.6 0 01.1 0c.1 0 .2 0 0 0h.4c-.1 0-.1 0 0 0 .2 0 .2 0 0 0a.2.2 0 00.2 0c.1 0 .1.1 0 .1H34l.2-.1h1.2v.1H35.8v.1a.3.3 0 00.1 0h.1l.1.1h-.1-.1c0 .1 0 .1 0 0v.1h.4v.1a.4.4 0 00-.1 0 .3.3 0 00.1 0h.1v.2H36v.1h.1v.1a.1.1 0 01-.1 0v.1a.2.2 0 00-.1 0v.1a.1.1 0 01-.1 0 .1.1 0 00-.1 0v.1h-.1-.1v.1h-.1-.1a.1.1 0 01-.1 0h-.1-.2a.5.5 0 01-.1 0h-.1-.4-.1-.2-.1-.1a1.3 1.3 0 01.1 0 .7.7 0 00.2 0h-.4a.3.3 0 00-.1 0h-.1a1.7 1.7 0 01-.3 0H33c.1 0 .1 0 0 0 0-.1 0 0 0 0v-.1a.9.9 0 01.1 0s.1 0 0 0a.5.5 0 00-.2 0 .4.4 0 00-.1 0h-.1c.1 0 .1 0 0 0l-.1.1h-.2a.2.2 0 00-.1 0h-.1a.3.3 0 01-.2 0h-.4-.2-.2-.4-.5a1 1 0 01-.2 0 .6.6 0 01-.3 0h-.1v-.1a.6.6 0 00-.2 0h-.2a.8.8 0 01-.2 0H28.8s0 .1-.1 0v.1h-.2-.1-.1a.1.1 0 00-.1 0 .3.3 0 01-.1 0H28h.1-.2a.2.2 0 01-.1 0h-.2a.7.7 0 01-.1 0h-.1-.2-.1-.2s-.1 0 0 0a.1.1 0 01-.1 0h-.1v-.1h-.1-.1-.1v-.1h-.1V23c-.1 0-.1 0 0 0H26V23v-.1-.1c-.1 0-.1 0 0 0v-.1z"/><g id="Crown"><path class="cls-3" d="M22 29v.1h-.1l-.2-.1v-.1c0 .2.1.2 0 .1 0 0-.1 0 0 0a1 1 0 01-.1 0c-.1-.1 0 0 0 0l.1.2V29c-.1-.1-.1 0 0 0h-.1s-.1-.1 0-.1h-.1l-.4-.1H21c0-.1 0 0 0 0l-.1-.1a.4.4 0 00-.1 0l-.1-.2h-.1l-.2-.1-.2-.1-.1-.1H20h-.1l-.2-.1V28a.2.2 0 00-.2 0V28h-.1a.3.3 0 000-.1h-.2a.7.7 0 00-.2-.2h-.1a.1.1 0 00-.1 0l-.2-.1-.2-.1h-.2a.6.6 0 01-.2-.1.4.4 0 00-.2-.1h-.1l-.1-.1h-.1a.7.7 0 00-.2-.1H17a.4.4 0 00-.1 0l-.1-.1a.4.4 0 00-.3 0l-.3-.1h-.1l-.3-.1a2.5 2.5 0 00-.3 0 2.5 2.5 0 01-.3-.1.6.6 0 01-.2 0 1 1 0 01-.1 0h-.1a.2.2 0 01-.2 0h-.3-.2a.5.5 0 00-.2 0 1 1 0 01-.3 0s-.2 0 0 0h-.2a1 1 0 00-.3 0H13h-.2-.1v.1h-.2-.1H12s0 .1-.2 0a.4.4 0 00-.2.1 1.6 1.6 0 01-.2 0c-.1 0-.2.1 0 .1h-.1c-.2.1-.2.1-.2 0l-.2.1c-.1 0-.1 0 0 0s.1 0 0 0c-.3.1-.3.1-.1 0 .2 0 .2 0 0 0a.4.4 0 00-.3 0v.1h-.1-.2c.1 0 0 0 0 0-.2.1-.3.1-.2 0l-.3.2-.3.2-.3.1-.1.1h-.2a.2.2 0 010 .1.1.1 0 01-.1.1.3.3 0 01-.1 0 .1.1 0 00-.1 0l-.1.1h-.1l-.2.2H8h-.1a.6.6 0 01-.2.2h-.1l-.2.2H7h.1a.6.6 0 00-.1.1.2.2 0 00-.1 0h-.1v.1h-.2a.3.3 0 00.1-.1l.1-.1h-.1v.1h-.1a.2.2 0 000 .1h-.1v.1h-.1-.1a1 1 0 000-.2.9.9 0 000 .1h-.1l-.1.1c-.1.1 0 0 0 0H6v-.2l.2-.1h-.1a.9.9 0 01-.1 0h.1a.8.8 0 00-.1 0v-.1a.4.4 0 01.1-.1.4.4 0 00.1 0h-.1a.2.2 0 010-.1.5.5 0 00.1-.1.1.1 0 000-.1.3.3 0 010-.1h.1l.1-.2h.1s0-.1 0 0v-.1a.5.5 0 00.1-.1h.1v-.1l.2-.1a.4.4 0 01.2-.2h.1a.2.2 0 010-.1h.1l.2-.1a1.5 1.5 0 01.1-.1.5.5 0 01.2-.1l.2-.1h.2l.2-.1.2-.2h.1a.4.4 0 00.2 0 .6.6 0 01.2-.1.4.4 0 01.2-.1h.1H9v.1h-.2a1 1 0 01.7-.2c-.1 0-.2.1 0 0a.9.9 0 00.2 0l.1-.1.5-.2h.5-.1.2a2.7 2.7 0 01-.3 0c-.1 0-.1.1 0 0a1.7 1.7 0 00.5 0 1.2 1.2 0 00.1-.1h.1c-.2 0-.2 0 0-.1a.6.6 0 00.1 0l.3-.1a1.6 1.6 0 00.2 0 .7.7 0 00.2 0v-.1a1 1 0 01.4 0H12.9a1.6 1.6 0 00.5-.1.6.6 0 00.2 0h.5a.3.3 0 00.1 0H14.6a1.5 1.5 0 00.3 0h.8a3.2 3.2 0 01.4.1 1.9 1.9 0 01.5.1l.2.1h.1a1.8 1.8 0 00.3.1h.4a2.5 2.5 0 01.2.1.2.2 0 01.2 0l.3.2a1.5 1.5 0 00.2 0h-.1 0c0-.1 0 0 .2 0H18.8a.3.3 0 010 .1.3.3 0 01.2 0v.1a.2.2 0 01.1 0 .4.4 0 00.2 0 .7.7 0 01.2.2.4.4 0 01.2 0v.1a.6.6 0 01.2 0 .3.3 0 01.1.1l.2.1a1.5 1.5 0 01.2.2.2.2 0 00.2 0l.3.2.1.1h.1v.1h.1l.1.1c.1.1.1.1 0 .1a.3.3 0 01.2 0 .4.4 0 000 .2v.1h.2v.2a.3.3 0 00.2 0c-.2 0-.1 0 0 0v.1s0 .1 0 0v.1h0l.1.1c0 .1.1.2 0 .1a.3.3 0 01.1 0v.1a.4.4 0 01.2 0v.1a1 1 0 00-.1 0v.1H22h.1-.1.1a.4.4 0 00-.1 0c.1 0 .1.1 0 0v.1l-.1-.1a.8.8 0 00.1.1c.2.1.1.1 0 0 0 .1 0 .2 0 0h-.2a.9.9 0 01.2.2zM16.8 21.5a1 1 0 000-.2.2.2 0 010-.1c0 .2 0 .2 0 0 0 0 0-.1 0 0 0-.2 0-.1 0 0l-.2.1h.1v-.1c0-.1 0 0 0 0 0-.1.1-.2 0-.2.1 0 0 0 0 0v-.4c0 .1 0 0 0 0v-.1c0-.1 0-.1 0 0v-.2V20s0-.1 0 0v-.3l-.1-.2v-.2l-.1-.1s0-.1 0 0V19l-.1-.1v-.1a.2.2 0 00-.1-.1v-.1h-.1v-.1l-.1-.2a.8.8 0 00-.2-.2.1.1 0 00-.1-.1l-.3-.2-.1-.1h-.2a1.2 1.2 0 01-.2-.2.4.4 0 00-.2 0 .3.3 0 01-.1 0v-.1h-.2a.7.7 0 00-.3 0H14a.5.5 0 00-.2 0 .4.4 0 00-.3 0 1.6 1.6 0 00-.3 0 .5.5 0 00-.2.1 1.3 1.3 0 00-.2.2 1.5 1.5 0 00-.3.1l-.3.3a.5.5 0 010 .1 1.7 1.7 0 01-.2.2.3.3 0 01-.1.2l-.2.3v.2a.4.4 0 00-.1.1 2.5 2.5 0 010 .4s0 .2 0 0l-.1.2a.9.9 0 000 .3 1 1 0 010 .4l.1.1v.1l.1.1v.1a.3.3 0 01.1.2c0-.1 0 0 0 0a.1.1 0 010 .1l.1.1s.2 0 .2.2a.4.4 0 00.1.2l.2.1c0 .1.1.2 0 0 0-.1 0-.1.1 0l.1.2.3.1c-.2 0-.2 0 0 0 .2.1.3.2 0 .1-.2 0-.2 0 0 0a.4.4 0 00.3.2c.2 0 .2 0 0 0l.1.1h.2c-.2 0 0 0 0 0h.2c.3.1.4 0 .4 0h.4l.3-.1h.1l.2-.1.1-.1h.1a.3.3 0 010-.1.1.1 0 00.2 0c0-.1 0-.1 0 0 0 0 .1-.1 0-.1h.2l.1-.2h.1v-.1h.2l.1-.2.1-.2.2-.2V21s.1-.1.1 0v0a.6.6 0 000-.1l.1-.1.1-.2.1-.1v.1a.4.4 0 000 .1v.2a.6.6 0 000-.2v-.1a.2.2 0 000-.1l.1-.1v-.1-.1h.1c0-.1 0 0 0 0a1.5 1.5 0 000 .2 1 1 0 000-.2c.1 0 .1-.1.1 0V20h.1c.1-.1.1-.1.1 0v.4a1 1 0 000-.1c0-.1 0-.1 0 0a1.5 1.5 0 01.1-.2v.2a.5.5 0 000 .1.9.9 0 000-.3v.1s0 .1 0 0h.1a.3.3 0 010 .2.7.7 0 010 .1.9.9 0 000 .1v-.1a.3.3 0 010 .1 1 1 0 000 .2h.1a.2.2 0 000 .1.4.4 0 010 .1.8.8 0 00-.1.2v.1a.5.5 0 010 .1c-.1.2-.1.2 0 .1v.1l-.2.2a.4.4 0 000 .2 1 1 0 00-.2.2.6.6 0 01-.2.3v.1h-.1a.4.4 0 01-.1.1.2.2 0 00-.1.1l-.1.1-.3.2a.9.9 0 01-.2.2h-.3c-.1.1 0 0 0 0a.7.7 0 000 .1h-.2l-.4.1-.3.1h-.2a.7.7 0 00-.2 0 1 1 0 01-.3 0h-.1a.9.9 0 01-.3.1h.6a1 1 0 00.2 0h-.1a1.5 1.5 0 01-1 0h.2a1.8 1.8 0 00-.3-.1 1.4 1.4 0 00-.3 0 3 3 0 01-.6-.2l-.7-.5.1.1c.1.1.1 0 0 0l-.2-.2c.2 0 .3.2.4.3.1 0 .2 0 0 0l-.5-.4-.2-.2c-.2-.2-.2-.2-.1 0 .1.1.1.1 0 0a1.2 1.2 0 00-.1-.2c0 .1-.1 0-.1 0a3.2 3.2 0 01-.2-.4l-.2-.2a1.4 1.4 0 000-.1l-.2-.2a1.6 1.6 0 010-.4l-.2-.3v-.2c0 .1 0 .1 0 0l-.1-.6v-.1a1.4 1.4 0 000-.3v-.3c0 .1.1 0 .1 0a.6.6 0 010-.3l.1-.1v-.1a.5.5 0 010-.1l.1-.2.1-.1.2-.4s0-.1 0 0a3 3 0 01.3-.5l.4-.3a2.6 2.6 0 01.5-.4 2 2 0 01.6-.3l.3-.1h.2l.4-.1a.5.5 0 00.1 0l.4-.1a2 2 0 01.4 0 .4.4 0 01.3 0 2.8 2.8 0 01.4.1h.3a.5.5 0 01-.2 0h.3a.7.7 0 00-.2 0h-.1l.4.1.2.1h.1a.6.6 0 01.1.1.5.5 0 01.2.1.4.4 0 01.1.1.8.8 0 00.2.2 1.3 1.3 0 01.3.2l.1.1a2 2 0 00-.2-.2.5.5 0 00.1.1.8.8 0 01.2.2l.1.1a1.2 1.2 0 01.1.2.6.6 0 01.1.1 1.7 1.7 0 00.2.3 2.7 2.7 0 01.2.3.2.2 0 010 .1.4.4 0 000 .1v.1a.4.4 0 010-.1.3.3 0 01.1 0 3 3 0 01.1.5.8.8 0 010 .3v.4c.1.1.1.1 0 .1v.1a.6.6 0 010 .1 1.3 1.3 0 000 .2c0 .1 0 .1 0 0v.4h-.1a.1.1 0 010 .1 1 1 0 00-.1.2c0-.1 0-.1 0 0l-.1.2v.1-.1a.4.4 0 01-.1.2v-.1.1c-.1 0-.2.2-.1 0a.5.5 0 01-.1.2.4.4 0 01-.1.2 1 1 0 000-.2.6.6 0 000 .1l-.1.1c0-.1 0-.1 0 0v-.2c0-.1 0-.1 0 0v-.1l-.1.1v-.1a1.3 1.3 0 010 .2 1.2 1.2 0 000-.1.7.7 0 000-.1v.1-.2l-.1.2c-.1.2-.1.1 0 0 0-.1 0 0 0 0s-.1 0 0-.1v-.2.1a.6.6 0 01-.1.1z"/></g></g></g></svg>