<svg version="1.0" xmlns="http://www.w3.org/2000/svg" viewBox="0 0 1000 1000"><path fill="#2e3338" d="M583 187l-265 1-255 1c-8 2-11 4-18 8l-4 2-6 3c-7 5-13 12-16 20l-4 7-2 3-2 6-2 9v39c1-1 2 20 2 74 0 42 0 52-2 56L8 586v166l5 8 4 12c0 6 10 19 20 26l7 5 4 2 6 2c6 3 18 4 30 3l17 1a13482 13482 0 00450 0l184-1c212 0 201 1 216-8 13-6 23-16 29-27 2-5 5-10 7-11 3-4 4-11 3-21l-1-210V287c-1-38-1-42-3-49-6-21-17-36-35-45-14-8 1-7-184-7-114-1-172 0-184 1zm-370 28c1 1 30 2 106 2h155a2385 2385 0 00182-2c4 2 23 2 95 2 134 0 127 0 130-1 3-2 8-2 14-1l15 2c24 2 27 3 37 14 8 8 12 16 13 27l1 66a9787 9787 0 00-1 101c-2 3-2 33-1 33 1 1 2 12 2 43 0 38 0 42-2 40-1-2-1 10-1 105v107l-3 7-9 13c-6 5-8 6-16 9-11 4-21 5-28 3-4-2-65-2-234-4h-82l2 2 3 3h-7l-27 1a4245 4245 0 01-92-3H274c-32 3-101 5-101 3l-52-1c-58-1-54 0-65-9-3-3-6-5-8-5l-5-7c-6-13-6 4-6-267V252l5-9c6-12 9-17 13-19l6-3 6-5c4-2 6-2 75-2l71 1z"/><path fill="#2e3338" d="M697 321a2195 2195 0 01-83 1h-3a128 128 0 00-42 1c-7 0-10 1-13 2l-6 2-2 2c0 2-1 2-3 2s-3 0-3 2l1 2 1 2-1 2-1 2 4 1 4 1 3 1 3 1 5 1 4 1h96a1367 1367 0 00123 1h44a101 101 0 0041-5l4-2c2 0 3-1 1-3v-1-5c-1-3-2-3-8-3l-6-1 2-1 2-1-1-1-2-1-4-1-6-1h-26a258 258 0 01-63-1 3404 3404 0 01-65 0zm-407 15l-12 3c-18 3-24 5-39 17-9 8-9 8-14 17l-6 11-2 5-2 4-1 5v3 25l3 9 2 7 2 7 2 3 2 3 5 6 2 4 8 6c12 12 26 20 34 20 4 0 10 2 10 3l8 1c7 0 7 0 2-1s-5-1-2-1l10-1c6 0 23-4 27-6l4-1c3 0 5-2 14-10l6-4 1-1 7-11 1-2c0-1 1-4 3-5l1-3v-3l6-17 1-16c0-16-1-28-3-28l-1-2c0-1-5-10-14-22l-6-5-8-7c-6-5-13-9-22-11l-10-2h-19zm16 27c1 1 2 2 3 1l5 2 5 3c2 0 11 6 14 9a60 60 0 0110 18l1 2 1 4c2 4 3 10 3 20s0 12-2 14l-2 3-2 3c-2 1-3 4-4 6l-4 4c-2 0-6 3-6 5l-2 1-2 2c-1 2-2 3-4 2l-5 2c-5 4-14 5-25 5s-12 0-16-3c-5-2-5-3-3-3 1-1 1-1-2-2l-5-2-3-3-3-3c-1 1-6-3-6-5l-3-4-3-4-3-7c-4-8-5-18-3-22l2-7 1-6 1-3 4-8 6-8c2-4 7-9 10-10 2 0 4-1 5-3 1-1 3-3 5-3l17-1 15 1zm272 98a104 104 0 00-22 2l-6 2-4 2v2c0 2 0 2-2 2s-2 1-2 4c0 4 0 4 3 4 2 0 3 1 3 2 0 2 3 4 5 4l3 1c1 2 40 1 43 0h20a501 501 0 0069 0 302 302 0 0054-1l2-1 1-1c3 0 8-5 6-6s-1-2 3-2c3 0 4 0 4-2s-3-4-6-4l-4-1 1-1 2-1-3-1-2-1-4-1-5-1h-40c-1-1-78-2-119-1zm-301 69l-14 1-11 1c0 2-1 2-4 2-3-1-6 0-8 1l-5 1-3 2c-1 2-2 2-10 2s-10 0-15 3l-11 3c-5 0-10 2-6 2 2 0 2 0-1 2l-6 2-7 3-6 3c-2 0-6 1-9 4l-8 4-3 2-1 1-6 4-5 4-2 2-1 2-3 3-2 2-1 2-2 5c-2 4-2 5 0 5v1c-2 1-3 5-1 5l3-1h2c1 2 3 1 6-2l4-3-1 2c-2 2-2 2 0 2l2-1 2-1 3-1 4-1 6-2 3-2 3-2c1-2 3-3 5-3l3-1c2-3 7-5 10-5l2-2 2-2 17-8 10-4 7-2 5-1c6 0 10-1 11-2 1-2 8-3 19-4l11-1a485 485 0 0182 5l4 1 4 1 8 2 6 2 6 3 6 2 7 2 6 2 4 2 4 2 2 1 3 1 4 2 4 2c2 0 5 1 7 3l7 3 4 3c0 2 4 3 11 5 4 1 5 2 7 4l1 1c0-2 0-2 2-1 3 2 4 1 2-1v-2l2-1 2-1 4-3-1-1c-2 0-7-6-7-8l-2-2-2-2c0-1 0-3-2-3s-2-1-2-3l-2-3-9-7-10-5-3-1c-2-3-10-8-12-8l-2-1-2-1-3-2-6-2-3-1-2-1-2-1-6-1c-4 0-7-1-9-3l-10-2c-7-1-14-2-19-5l-13-3c-8-2-13-2-33-2l-25 1zm420 16a2195 2195 0 01-83 1h-3a128 128 0 00-42 1c-7 0-10 1-13 2l-6 2-2 2c0 2-1 2-3 2s-3 0-3 2l1 2v1l-1 4c0 2 1 2 4 2l4 1 3 1 3 1 5 1 4 1 32 1 32-1 16-1 16 1a1367 1367 0 00123 1h44a116 116 0 0034-3l3-1 4-2 4-1c2 0 3-1 1-3v-1-5c-1-3-2-3-8-3l-6-1 2-1 2-1-1-1-2-1-4-1-6-1h-26a258 258 0 01-63-1 3404 3404 0 01-65 0z"/><path fill="#2e3338" d="M185 549v1l2-1h-2zm375 101h-1c-2-1-6 0-9 2l-3 2c-2 0-2 1-1 2 0 2 0 2-2 2s-2 1-2 5 0 4 3 4c2 0 3 1 3 2 0 2 3 4 5 4l3 1 21 1 22-1 10-1 10 1 30 1a212 212 0 0039-1l26 1 25-1 3-1 2-1c0-1 1-2 2-1l4-3c1-1 2-2 1-3l-1-2 4-1c3 0 4 0 4-2s-3-4-6-4l-4-1 2-1 1-1-3-1-2-1-4-1-5-1c0-1-19-1-33 1l-7-1-69-1c-64 0-69 0-68 2z"/></svg>