<svg version="1.0" xmlns="http://www.w3.org/2000/svg" viewBox="0 0 500 500"><path fill="#2e3338" d="M245 7l-1 42v38l3 2c3 3 4 3 7-1 2-2 2-2 2-29a721 721 0 010-45l-3-8c-4-3-7-2-8 1zM78 68c-3 2-3 2-2 7l4 6 3 3 3 4c4 2 19 17 19 18l8 8c3 1 11 9 11 10 0 3 6 6 10 6 5 0 6-1 5-6-1-4-7-11-11-13l-3-3c0-1-2-4-4-4l-1-1-17-17-3-4-14-14c-4-2-5-2-8 0zm336 0c-2 0-5 3-7 5l-5 4-2 2-6 7-17 17-7 7c-12 10-12 11-12 14 0 5 2 6 6 5 4 0 12-7 13-11l3-2 3-2 15-15 6-6 3-3c2-1 10-7 10-9l3-3c3-4 4-6 1-9-2-3-2-3-7-1zm-181 53l-10 2-6 1c-6 1-20 8-28 13-3 3-8 5-10 6-4 2-16 12-25 22a210 210 0 00-23 44c-2 9-4 32-4 41 1 9 6 28 8 29l8 15c0 3 8 17 13 23l7 10 3 5 1-1 9 9c10 11 10 13 12 21 4 22 4 22 4 52 1 32 0 32 7 45 5 11 7 13 8 14l8 6c8 6 13 8 17 9 10 3 26 4 28 1l3-1 8-3 7-2c2 0 12-8 14-11l3-3 1-3 1-3c2-1 4-6 4-10l3-8c2-6 2-11 2-40a167 167 0 014-42l11-22 6-5 5-5v-1l-2 1 13-16c5-5 10-13 16-26 11-24 12-33 10-57-1-15-2-20-8-36l-3-9-3-5-2-4a176 176 0 00-34-35l-6-4-5-3c-8-5-22-10-32-12-12-3-30-3-43-2zm35 15l13 3c6 1 22 8 29 13 19 12 40 41 44 64a102 102 0 01-14 80c0 2-13 19-23 29l-13 15a70 70 0 00-9 24l-2 8v4h-6l-83-1-2-10c-2-14-6-23-13-30l-7-5-4-5-6-7-3-4-2-3-2-4-3-6-4-7-2-4c0-1-1-1 0 0h-1l-2-3-6-15c-3-6-4-13-5-29a104 104 0 0185-107 245 245 0 0141 0zm79 172l-2 2 1-2 2-2-1 2zm-78 80l12 1h12v16h-4l-30 1c-20-1-25 0-26 1h-3l-13-1h-11l-1-8v-8h3l29-1 28-1h4zm-9 31h33v17h-27-7a595 595 0 01-53-1c-2 0-2-3-1-11v-5h55zm29 31l-3 6c-6 11-19 20-30 20-10 0-23-1-25-3l-3-1c-4 0-13-9-18-18l-2-4 5-1 76 1z"/><path fill="#2e3338" d="M229 159l-8 3-7 3-11 7c-6 3-17 14-19 19l-1 2-1 4-2 4c-1 0-4 7-5 13l-2 4c-2 0-1 13 1 16s5 3 5-1l1-2c2 1 6-8 6-16l3-7 5-8c3-5 9-13 16-19l20-8c5-1 10-3 11-5 3-2 4-6 2-9-2-1-12-2-14 0zM18 230l-2 1c-3 0-6 2-6 4l-1 1-1 2 1 2 3 2h64c17 1 22 0 24-4 3-7-6-11-21-8h-6-55zm412 0l-14 1c-13 0-14 0-16 2-5 5 0 11 11 10h14l30 1h30l3-3c3-4 3-8-2-10-3-1-6-2-30-2l-26 1zM138 337l-6 7-5 5-4 4-1 2a633 633 0 01-34 34c-5 5-6 8-6 9v2 2h7c5-2 9-6 14-12l13-13c2 0 12-13 13-15l1-2 4-3 3-2 4-3 5-4c4-3 5-4 5-9v-4h-5l-8 2zm210-1c-4 1 2 13 9 18 3 1 6 4 6 6l3 3 22 22 16 17c3 2 8 2 10 1l2-3-1-4c-1-3-8-12-10-12l-6-6a2373 2373 0 00-46-43l-5 1z"/></svg>