<svg version="1.0" xmlns="http://www.w3.org/2000/svg" viewBox="0 0 500 500"><path fill="#2e3338" d="M245 7.4c-.8 2.4-1 15.1-.8 41.6l.3 38.2 2.4 1.9c3 2.5 3.7 2.4 6.6-.7 2.4-2.6 2.4-2.6 2.5-29.2.1-14.7.4-29.3.7-32.4.3-3.2 0-8.9-.7-12.7-.9-5.5-1.7-7.3-3.5-8.5-3.9-2.6-6.2-2-7.5 1.8zM77.7 68c-2.5 2-2.6 2.1-1.2 6.8.9 2.7 2.5 5.5 4 6.5 1.4 1 2.5 2.4 2.5 3 0 .7 1.5 2.2 3.3 3.4 3.8 2.6 18.7 16.8 18.7 17.8 0 1.2 5.4 6.6 8 8 3.5 1.9 11 9.3 11 10.8 0 2.6 5.7 5.7 10.3 5.7 5 0 5.9-1.3 4.6-6.5-1-3.4-7.1-10.3-11.2-12.4-1.5-.8-2.7-2.1-2.7-2.8 0-1.7-2.4-4.3-3.9-4.3-.6 0-1.1-.4-1.1-.8 0-.8-5.6-6.5-17.1-17.5-1.6-1.6-2.9-3.3-2.9-3.8 0-1.3-10.7-11.8-14.4-14-3.9-2.4-4.7-2.4-7.9.1zM414 67.6c-1.9.8-5.1 3.2-7.1 5.3-2 2.1-4.3 4-5.2 4.4-1 .4-1.7 1.2-1.7 2 0 1.2-5 6.7-6.1 6.7-.9 0-16.9 16.2-16.9 17.1 0 .8-.4 1.2-7.5 7.4-11.1 9.6-11.5 10.2-11.5 13.9 0 4.1 2.1 5.7 6.2 4.9 3.4-.6 11.6-7.7 12.9-11 .5-1.2 1.6-2.3 2.6-2.3s2.7-1.1 3.8-2.5c3-3.8 8.7-9.4 14.9-14.9 3.1-2.7 5.6-5.4 5.6-6 0-.6 1.2-1.7 2.8-2.4 2.6-1.2 10.2-7.7 10.2-8.8 0-.3 1.3-1.9 3-3.7 3.4-3.6 3.7-5.7 1.4-9.2-1.9-2.9-2.6-3-7.4-.9zM232.7 121c-4.8.5-9.3 1.3-10 1.8-.7.5-3 1.3-5.2 1.6-6.2 1.1-20.3 7.5-28.1 12.7-3.9 2.6-8.7 5.4-10.6 6.2-4.3 1.8-15.8 12.2-24.6 22.1-4.8 5.5-7.9 10.5-13.6 22.1-4 8.2-8.2 18.1-9.4 22-2.4 8.3-4.7 31.4-3.9 40.5.7 8.6 6 27.7 8 29.3 1.8 1.3 7.7 12.9 7.7 15 0 2.5 8.3 16.7 13.2 22.5 2.6 3.1 5.7 7.6 6.9 10 1.2 2.3 2.6 4.5 3.2 4.9.6.3.7.1.3-.5-1.8-3 .7-.4 9.2 9.2 9.8 11.1 10.4 12.2 12.1 20.6 4.4 22.2 4.4 22.2 4.5 52 .2 32.3.1 31.8 6.8 45.5 5.3 10.9 6.4 12.7 8.3 13.7.9.5 4.4 3.1 7.9 5.6 7.7 5.8 12.2 8.4 16.1 9.5 10.8 3 26.4 3.7 28.5 1.2.7-.8 2.2-1.5 3.4-1.5 1.1 0 4.5-1.1 7.4-2.5 3-1.4 6.1-2.5 7-2.5 2.1 0 11.8-7.5 13.9-10.8 1-1.5 2.3-3.1 3-3.5.7-.4 1.3-1.6 1.3-2.6s.7-2.4 1.4-3.1c1.5-1.1 3.2-5.5 4.1-10 .3-1.3 1.3-5.1 2.4-8.4 1.7-5.4 2-10.2 2.6-39.5.5-26.1 1-34.1 2.1-36.2.8-1.6 1.4-4 1.4-5.5 0-2.4 8.2-18.7 11.3-22.4.6-.8 3.1-3 5.5-4.9 2.3-1.8 4.8-4.3 5.4-5.4 1-2 1-2.1-.5-.8-1 .7-1.7 1.1-1.7.8 0-1.1 9.2-12.1 13-15.7 5.1-4.7 10.2-13 16-25.8 10.7-23.8 12.4-33.1 10.4-56.8-1.3-15.2-2.5-20-8.8-36.7-1.4-3.7-2.6-7.5-2.6-8.4 0-.9-1.1-3.1-2.5-4.9-1.4-1.8-2.5-3.6-2.5-3.9 0-2.2-22.2-27.4-25.9-29.4-1.4-.7-4.8-3.3-7.6-5.6-2.7-2.3-5.7-4.5-6.5-4.8-.8-.4-3.1-1.7-5-2.9-7.8-4.7-21.9-10-32-12-11.8-2.3-30.2-3-43.3-1.8zm35.3 15c4.1.7 9.8 1.8 12.5 2.5 6.6 1.7 22.6 8.9 29.5 13.2 19.3 12.2 39.7 41.8 44.2 64.3 4 20.1 3.2 40.7-2.2 54-1 2.5-2.8 7-3.9 10-1.2 3.1-3.5 7.6-5.1 10-1.7 2.5-3 5.1-3 5.9 0 2.3-13 18.7-23.1 29.1-5.1 5.2-10.6 11.7-12.4 14.5-3.8 6-8.5 16.1-8.5 18.4 0 .9-.7 3.4-1.5 5.6-.8 2.2-1.4 5.9-1.5 8.2v4.3l-6.2.1c-16.1.2-82.3-.3-82.7-.7-.2-.2-1.2-5.1-2.1-10.9-2.3-13.2-6.3-22.2-13.3-29.3-2.8-2.8-5.7-5.2-6.4-5.2-.7 0-2.8-2.1-4.8-4.8-1.9-2.6-4.6-5.9-6-7.5-1.4-1.5-2.5-3.3-2.5-4.1 0-.7-.9-2.1-2-3.1s-2-2.5-2-3.3c0-.8-1.6-3.6-3.5-6.2s-3.5-5.6-3.5-6.7c0-1.1-.7-2.8-1.6-3.9-.8-1-1.3-1.2-.9-.4.4.8-.1.6-.9-.4-.9-1.1-1.6-2.4-1.6-2.8 0-.9-2.4-6.5-6.2-14.5-2.8-6.1-4-13.8-4.5-29.4-.9-28.1 6.9-49.7 26.6-74.1 2.5-3.2 5.1-5.8 5.8-5.8.7 0 1.7-.8 2.2-1.9 1.3-2.4 19.5-14.5 24.7-16.5 2.1-.8 6.6-2.6 9.9-4 3.3-1.4 7.4-2.6 9-2.6 1.7-.1 4.6-.9 6.5-2 3.1-1.6 5.3-1.8 18.5-1.5 8.3.2 18.4.9 22.5 1.5zm79 172c-.6 1.1-1.3 2-1.6 2-.2 0 0-.9.6-2s1.3-2 1.6-2c.2 0 0 .9-.6 2zm-78.5 80c.4.6 5.7 1 12.6 1H293v15.9l-4.2.5c-2.4.3-15.6.5-29.4.3-20.1-.2-25.4.1-26.7 1.2-1.3 1-2.1 1.1-3 .3-.7-.6-6.4-1.3-12.8-1.4l-11.4-.3-.3-7.7-.3-7.6 2.8-.6c1.5-.3 14.5-.5 28.8-.3 19.1.1 26.5-.1 28-1 2.5-1.5 3.2-1.6 4-.3zm-8.5 31h32.5v16.5l-6.5.1c-3.6 0-9.5.4-13.1.8-4.7.6-6.8.5-7.3-.3s-2.8-1-6.9-.6c-8 .7-23.5 1.7-26.7 1.7-4.8.1-24.5-1.2-26.2-1.8-2-.6-2.3-3.7-1.2-11.7l.7-4.6 6.1-.4c3.3-.2 8.4-.3 11.1-.1 2.8.2 19.6.4 37.5.4zm28.8 30.5c.2.2-1 3-2.7 6.2-5.8 11.6-19.1 20.5-30.6 20.5-9.6 0-22.1-1.5-24.2-2.8-1.2-.8-2.7-1.4-3.3-1.4-4 0-12.9-9.3-17.7-18.4l-2.1-4.1 4.6-.5c4.8-.5 75.4-.1 76 .5z"/><path fill="#2e3338" d="M229 159c-.8.5-4.5 1.9-8.2 3.1-3.7 1.2-6.8 2.5-6.8 2.9 0 .9-5.7 4.5-11 7.1-5.9 2.8-16.7 13.9-18.6 19.1-.3 1-1 1.8-1.5 1.8s-.9 1.6-.9 3.5c0 2.3-.6 3.8-1.6 4.2-1.9.7-4.9 7.3-5.9 13.1-.4 2.3-1.1 4.2-1.7 4.2-1.7 0-.5 13.3 1.5 16.3 2 3.1 4.7 2.6 4.7-.9 0-1.3.5-2.3 1.1-2.1 2.1.4 5.5-7.9 6.4-16 .4-3.4 1.3-6.7 2-7.3.7-.6 3-4 5.1-7.6 3.1-5.3 9.8-12.9 16.7-18.9 2.2-1.8 10.1-5.1 19.4-8 5.1-1.6 10.3-3.9 11.7-5.2 2.9-2.6 3.4-6.7 1.2-8.9-1.7-1.6-11.2-1.9-13.6-.4zM18 230c0 .6-1 1-2.2 1-2.6.1-5.8 2.2-5.8 3.9 0 .6-.4 1.1-1 1.1-.5 0-1 .9-1 2s.6 2 1.4 2c.7 0 1.9.7 2.6 1.5 1 1.3 5.1 1.4 28.4.9 14.9-.3 30.9-.4 35.6-.3 17.4.6 22.2-.1 23.8-3.6 3.3-7.2-6.1-11.1-21.1-8.6-2.6.4-5 .5-5.2 0-.8-1.1-55.5-1-55.5.1zM430 229.9c0 .5-6.3.9-13.9.8-13.2-.2-14.1-.1-16 2-5.3 5.6-.1 10.9 10.4 10.6 3.3 0 7.9-.4 10.3-.7 2.3-.2 4.2-.1 4.2.3 0 .5 13.5.8 30.1.7l30.1-.1 2.4-2.8c3.6-4.2 3.2-7.3-1.3-9.5-3.4-1.7-6.5-1.9-30-2-14.6-.1-26.3.3-26.3.7zM138.4 337.4c-1.6 1.4-4.3 4.3-5.9 6.5-1.5 2.3-4 4.7-5.4 5.4-1.4.7-3 2.2-3.6 3.5-.5 1.2-1.3 2.2-1.7 2.2-.4 0-6.3 5.5-13 12.1-6.8 6.7-13.1 12.9-14.2 13.8-1 .9-4.3 4.6-7.3 8.4-3.9 4.7-5.4 7.3-5 8.7.3 1.1.1 2-.5 2-.5 0-.2.8.7 1.7 1.6 1.5 2 1.5 6.2 0 5.2-1.9 9.4-5.3 14.8-12 5.1-6.2 11.6-12.7 12.9-12.8 1.6 0 12-12.7 12.4-15 .2-1 .9-1.9 1.6-1.9.7 0 2.3-1.1 3.6-2.5 1.3-1.4 2.7-2.5 3.1-2.5.4 0 2-1.2 3.6-2.8 1.6-1.5 3.9-3.4 5.2-4.2 4.3-2.8 5.1-4.1 5.1-8.6V335h-4.7c-3.5 0-5.6.7-7.9 2.4zM348.3 335.7c-4.2 1.6 1.7 13.2 9 17.9 2.5 1.6 5.2 4.4 6.1 6.1.9 1.8 2 3.3 2.5 3.3 1.1 0 22.1 20.9 22.1 22 0 .7 13.2 14.3 16.2 16.6 2.9 2.3 7.8 2.7 9.8.9 1-.9 1.7-2.2 1.5-2.8-.2-.7-.6-2.5-1-4-.5-2.7-7.9-11.7-9.5-11.7-.4 0-3.2-2.5-6.1-5.6-3-3-9.6-9.6-14.8-14.7-13-12.7-15-14.8-20.2-20.4-7.3-8-7.8-8.3-11-8.2-1.9 0-4 .3-4.6.6z"/></svg>