<svg id="Layer_1" data-name="Layer 1" xmlns="http://www.w3.org/2000/svg" viewBox="0 0 48 48"><defs/><path class="cls-2" d="M19 39.2v-.1c0 .1 0 0 0 0V39.3l-.1-.2v.4a1.2 1.2 0 010 .1v-.5.2h-.1a.3.3 0 000 .2.7.7 0 010 .2v-.1-.1.1a1.1 1.1 0 010 .2.3.3 0 00-.1-.2s0 .1 0 0v.1h-.1v0-.1-.1a.3.3 0 000-.2h-.1a.2.2 0 000-.2.3.3 0 000-.2v-.4a.3.3 0 010-.1.4.4 0 000-.2 1.5 1.5 0 010-.3.6.6 0 000-.2 5.1 5.1 0 01-.1-.6 3.3 3.3 0 000-.4v-.2l-.2-1v-.2-.3l-.2-.4v-.4a2.7 2.7 0 00-.3-.6l-.1-.1-.3-.3-.1-.2a3.3 3.3 0 00-.3-.3 3 3 0 01-.4-.4l-.1-.2a2.3 2.3 0 01-.4-.4l-.1-.1.1.2a1.6 1.6 0 01.2.3l.2.2.3.4a2.2 2.2 0 01-.3-.4c-.7-.7-.8-1-.7-1a1 1 0 00-.1-.1c.3.4.5.5.3.4l-.4-.6a4.8 4.8 0 00-.4-.4 10.3 10.3 0 01-.7-1l-.7-1.3.1.2c.1.2.1.2 0 0l-.1-.4c-.1-.3 0-.2 0 0l.4.7c.1.3.2.3 0 0l-.6-1.1-.2-.5-.2-.3c.2.5.1.4 0 0l-.2-.3a.9.9 0 010 .3l-.2-.7-.1-.4v-.2l-.1-.2-.1-.4a3.5 3.5 0 01-.2-.8 6.3 6.3 0 010-.7v-.3c0 .3 0 .3 0 0a18.5 18.5 0 01.2-2 3.1 3.1 0 000-.5 3.2 3.2 0 01.2-.5V20l.2-.4v-.2l.2-.3V19l.2-.3v-.1l.1-.3.4-.7v-.1l.5-.9.5-.6.2-.2a10.2 10.2 0 01.7-.8h.1a9.4 9.4 0 011-1l.5-.3h.2a.3.3 0 01.1-.1l.6-.4a1.7 1.7 0 00.3-.2 2.7 2.7 0 01.7-.4 4.5 4.5 0 01.7-.3 1.7 1.7 0 01.5-.2 6.1 6.1 0 01.8-.2l.5-.1a2 2 0 01-.2 0 1.8 1.8 0 01.5-.1 1.4 1.4 0 00-.4 0l-.2.1h.2a3.3 3.3 0 01.6-.2h.5.4a2.1 2.1 0 01.5-.1 4.2 4.2 0 00.7 0 7.3 7.3 0 01.8 0h.2-.5.3a3.8 3.8 0 01.7.2h.1a.5.5 0 00.1 0 3.5 3.5 0 01.6.1l.5.1a1.2 1.2 0 01.2 0 1.4 1.4 0 01.3.1 4.1 4.1 0 01.7.3l.5.2c.1 0 .2 0 0 0l.3.1.5.3.1.1a.8.8 0 01.2 0l.1.2c.1 0 0 0 0 0h.2a1.3 1.3 0 01.2.2l.4.3.4.3a2.3 2.3 0 01-.3-.2 1 1 0 00.2.2l.6.3.2.2h-.1l.2.2a5.9 5.9 0 01.5.5l.2.2a1.8 1.8 0 00.3.4 2 2 0 01.4.4c.4.6.6.8.4.4a1.9 1.9 0 01.2.5 4.4 4.4 0 00.3.4c.3.5.3.5 0 .2l.2.2v.2a6.2 6.2 0 00.4 1.1l.2.5.1.3a3.3 3.3 0 01.2.7l.1.7v.4a5.5 5.5 0 01.1.9 8.1 8.1 0 010 2l-.2.8a13.2 13.2 0 01-.9 2.3 13.7 13.7 0 01-.6 1.2l-.4.6-.2.3v-.1l-.1.2-.3.3.1-.2a5.7 5.7 0 00.7-1 1.7 1.7 0 00-.2.2l-.6.9a19.1 19.1 0 01-1 1.2l-.1.2-.2.2.2-.1.2-.2.5-.5.3-.4-.2.3-.5.5a1.2 1.2 0 01-.1.2 1.4 1.4 0 01-.6.6 2.1 2.1 0 00-.2.2H31a2 2 0 01-.3.4l-.1.2a1 1 0 01-.1.2l-.3.5a7 7 0 00-.5 1v.5l-.2.3v.5a1.6 1.6 0 000 .6v.3a.6.6 0 000 .1v.1a1.4 1.4 0 010 .3V37.3a1.6 1.6 0 000 .5l-.1.4v.8a.8.8 0 01.1.3V39.2v.2c0-.2 0-.2-.1 0 0 .5 0 .5 0 0v.2.7a4 4 0 010 .6c0 .5 0 .5 0 0v-.2 1a2 2 0 01-.1.5l-.4 1.2c.2-.2-.2.9-.4 1l-.3.5-.1.2.1-.1a2.8 2.8 0 01.3-.5 1.5 1.5 0 01-.1.3l-.2.2a3.8 3.8 0 00-.3.4c-.6.6-1.3 1-1.3.9h-.2a3.2 3.2 0 01-.8.4h-.2l-.6.2c-.5 0-.3 0 0 0h.5a3.4 3.4 0 01-.6.1h-1a1.4 1.4 0 01.2 0c.6 0 .6 0 0 0h-.7a.8.8 0 00-.3-.1h-.3a4.4 4.4 0 01-.5-.2 2.1 2.1 0 01-.2 0 2.7 2.7 0 00-.4-.3c-.3-.1-.3-.1 0 0a5 5 0 01-1.4-1H20a1.4 1.4 0 01-.2-.2 1.3 1.3 0 01-.1-.2v.2c.2.2.2.3 0-.2l-.2-.2a1 1 0 01-.1-.2l-.1-.2a.4.4 0 010-.1h-.1v-.1a2 2 0 01-.2-.4 1.7 1.7 0 00-.1-.2 3.3 3.3 0 01-.2-.3 1.4 1.4 0 010-.3l-.2-.5a4 4 0 010-.5.7.7 0 000-.1v-.1a.7.7 0 010-.2v.1h-.1a1 1 0 010-.2v-.7-.3a.4.4 0 000-.2v-.1-.4-.2c0 .1 0 0 0 0v-.1a1.2 1.2 0 010-.2 2 2 0 000-.2V39h.1a.4.4 0 000-.2v-.4.1-.2a1.5 1.5 0 000-.3c.1.2.1.2.1 0V38v-.2a.4.4 0 010-.2.6.6 0 010 .1v0a.8.8 0 010-.2v.1c0 .1 0 .1 0 0v-.2-.1h.1a1.2 1.2 0 010-.2v-.2a1.6 1.6 0 010-.1v-.1.3-.2.2V36.6a.4.4 0 010 .1s0 .1 0 0v-.2l.1.2v.1-.2a1 1 0 000 .2.7.7 0 010 .1v-.1.2-.2c0-.2 0-.2 0 0l.1.2v-.4V36.7c0 .1 0 0 0 0v.4-.2-.3c0-.3.1-.3.1.1 0 .2 0 0 0 0 0-.2 0-.2 0 0v.5c0-.2 0-.1.1-.1a.6.6 0 000-.1v-.1-.3c0-.1 0 0 0 0v.5c.1 0 0 .1 0 .1v.1a.7.7 0 00.1-.1V37a1.2 1.2 0 010 .2s0 .1 0 0v.1a2.2 2.2 0 010-.2v.2c0 .4.1 0 0-.1l.1-.4a.6.6 0 010 .3V37v.5c0 .2 0 .2 0 0 .1-.2.2.5.2.8a.5.5 0 000 .1 1.8 1.8 0 010-.2v.1a.3.3 0 010 .2V39.8l.1.6a1.1 1.1 0 000 .3v.8s0 .1 0 0a.9.9 0 010 .3v.1a.8.8 0 01.1.2v.2q.1.2 0 .1l.1.2.1.3a1 1 0 01.1.3l.1.2v.1l.2.3v.1l.4.4a1.4 1.4 0 00.2.3 2 2 0 00.2.3h.2v.1l.5.3h.2c.3.3.7.4.6.3a1.5 1.5 0 00.2 0h.2l.7.1c.2 0 .2 0 0 0a3 3 0 00.4 0 2.2 2.2 0 00.8 0l.5-.1.3-.2a1.9 1.9 0 00.2 0l.4-.3a1.2 1.2 0 00.5-.4l.4-.4.2-.4a6 6 0 00.4-.8 5.3 5.3 0 00.3-1.3 2.6 2.6 0 010-.4 1 1 0 000-.4 8 8 0 010-1 6.7 6.7 0 000-.7v-.5-.2a4.6 4.6 0 010-.5v-1.3-.7l.1-1a2.5 2.5 0 01.2-.5v-.3a2.2 2.2 0 01.2-.5 12.3 12.3 0 01.6-1.2 3.3 3.3 0 01.5-.6 4.8 4.8 0 01.3-.4l.2-.2.2-.1.2-.2.1-.2.3-.3.2-.2a5 5 0 00.4-.5l.3-.4a6.8 6.8 0 00.8-1.1c-.2.1.2-.5.5-1l.4-.9v-.2a4.8 4.8 0 00.3-.6l.1-.4.1-.5v-.2l.1-.2v-.2l.1-.5a3.5 3.5 0 000-.8 14.2 14.2 0 00-.2-1.7 7.2 7.2 0 01-.2-1 .4.4 0 000-.2 8 8 0 01-.4-.8 5.7 5.7 0 00-.5-1l-.1-.2a1.5 1.5 0 01-.1-.2l-.2-.4-.2-.2a3.2 3.2 0 01-.3-.4 5.4 5.4 0 00-.7-.8l-1-1-.7-.5a11.8 11.8 0 00-1.2-.6c.1 0 0 0 0 0l-.5-.2-.6-.3a4.2 4.2 0 00-.5-.1 6.3 6.3 0 01-.6-.2 2.5 2.5 0 00-.3 0 4.2 4.2 0 01-.5-.1h-.2l-.4-.1h-.7a8.2 8.2 0 00-1 0h-.6a3.6 3.6 0 00-.5 0l-.6.3h-.2l-.5.1h-.2v.1a.6.6 0 01-.2 0l-.2.1a1 1 0 01-.2.1l-.6.3-.4.1a3.2 3.2 0 00-.4.3l-.2.1a2 2 0 00-.6.4l-.1.1a4.5 4.5 0 00-.6.4l-.2.3h-.2l-.4.5a5.2 5.2 0 00-.5.6l-.5.7a3.4 3.4 0 01-.3.5l-.3.4a.8.8 0 000 .1 1.7 1.7 0 01-.2.4v.1a4.5 4.5 0 01-.4.9l-.1.4-.1.4-.2 1v.1l-.1.5v.7a7.4 7.4 0 010 .8v.8l.2.3v.2a2.7 2.7 0 010 .4l.1.2a.5.5 0 010 .2l.2.3.2.5a2.6 2.6 0 00.3.6l.1.4c.2.4.4.6.2.2-.2-.4-.2-.4.2.2l.1.4c-.1-.2 0 .2.4.6 0 .2.1.2 0 0-.3-.4-.2-.4 0 0 .4.6.5.8 0 .2-.2-.4-.2-.4 0 0a2.7 2.7 0 00.5.7h.1v.2c.2.2.2.2 0 0l.1.2.3.4-.1-.2.2.2.2.3c-.2-.1-.2-.1.1.2.3.4.5.6.6.5l.2.2a4.5 4.5 0 00.4.4l.2.2.2.2.4.8.2.5a3.3 3.3 0 01.1.5 2.8 2.8 0 01.1.5V35.3l.1.2v.4l.1.1v.4a.5.5 0 010 .3v.1a.8.8 0 010 .2 1.1 1.1 0 00.1.3V37.6c0 .1 0 0 0 0v.3a1.1 1.1 0 010 .4v.2a1.4 1.4 0 010 .3.8.8 0 000 .1V40c0 .2 0 .3 0 0v.5l-.1.4h-.3l-.1.1s-.2.1-.1 0l.1-.1-.1.1.1-.2c.1 0 .1 0 0 0l.2-.1v-.1-.1c0-.2 0 0 0 0l-.1.1a1 1 0 01-.2.2.8.8 0 000 .1v.2-.1s0-.1 0 0v-.2l.2-.2a.7.7 0 000-.3v-.2-.3-.1a.7.7 0 000-.2v-.2s0 .1 0 0v.3l-.1.4v-.6a.6.6 0 000-.2V39v.1c0-.2 0-.1-.1-.1H19v.1zM23.1 46.4z"/><path class="cls-2" d="M18.7 36.6l.1-.1h.1c-.1 0-.1 0 0 0s0-.1 0-.1h-.1c.1 0 0 0 0 0s0-.1 0 0h.1c.1 0 .1 0 0-.1l.3-.1c-.1 0 0 0 0 0 .1 0 .1 0 0 0 0 0 0-.1.1 0a.2.2 0 00.1 0c0-.1 0-.1.1 0s0 0 0-.1h.5s.1 0 0 0h.2a.1.1 0 00.1 0H20.7a.3.3 0 00.1 0h.4a.9.9 0 01.1 0 .3.3 0 01.2 0 .2.2 0 00.1 0h.2a.4.4 0 00.2 0 .2.2 0 00.2 0 .2.2 0 00.2 0h.7a1 1 0 01.2 0 .4.4 0 01.2 0h.4a.3.3 0 00.2 0H24.3a.4.4 0 00.2 0h.8a.2.2 0 00.2 0 .7.7 0 01.1 0c.1 0 .2 0 0 0h.4c-.1 0-.1 0 0 0s.2 0 0 0a.2.2 0 00.2 0c.1 0 .1.1 0 .1H26.9l.2-.1h1.5v.1s.1 0 0 0v.1a.3.3 0 00.1 0 .1.1 0 00.1 0c.1 0 .1 0 0 0h.1v.1c.1 0 0 0 0 0h-.1H29v.1a.4.4 0 000 .1s.1 0 0 0h.1v.1c.1 0 .1.1 0 .1H29a.4.4 0 01.1.1H29v.1a.1.1 0 00-.1 0 .2.2 0 00-.1 0v.2h-.1-.2v.1a.2.2 0 00-.1 0h-.2a.1.1 0 01-.1 0H28h-.1a.5.5 0 01-.2 0h-.1-.1H27.1 27h-.2-.1-.1a1.4 1.4 0 01.2 0c.1 0 0 0 0 0h-.3a.3.3 0 00-.1 0h-.1a1.8 1.8 0 01-.3 0h-.3a1 1 0 01.1 0v-.1a.5.5 0 00-.3 0h-.1v.1H25.1 25 25a.3.3 0 01-.2 0h-.1c-.1 0-.1 0 0 0l-.4.1h-.2-.1-.2-.1-.2-.4a1.1 1.1 0 01-.3 0 .7.7 0 01-.2 0l-.2-.1a.6.6 0 00-.2 0H22a.9.9 0 01-.2 0H21.4h-.1-.1s-.1 0 0 0h-.1-.1-.1a.1.1 0 00-.1 0 .3.3 0 01-.1 0h-.1.1-.2a.3.3 0 01-.1 0h-.2a.7.7 0 01-.1 0H20v.1H19.8h-.1-.2a.2.2 0 00-.1-.1s0-.1 0 0a.1.1 0 00-.1-.1h-.1-.1s-.1 0 0 0H19V37h-.2-.1V37a.2.2 0 000-.1c.1 0 .1 0 0 0h.1v-.1h-.1a.2.2 0 00.1 0c-.1 0-.1 0 0 0-.2 0-.2 0 0-.1-.1 0-.1 0 0 0v-.1a.4.4 0 01-.1 0zM29.1 39.7l-.1.1c-.2 0 0 .1 0 .1s0 .1 0 0h-.1v.1l-.2.1h-.1s0 .1-.1 0c0 .1-.1.1-.2 0s0 0 0 .1H28h-.1c-.1 0-.1 0 0 0h-.2-.2-.5-.2a.9.9 0 01-.2 0 .3.3 0 01-.1 0h-.1a.2.2 0 00-.1 0h-.1-.1a.4.4 0 00-.2 0 .2.2 0 00-.2 0 .2.2 0 00-.2 0H25.2h-.1-.2a1 1 0 01-.2 0 .2.2 0 01-.1 0 .4.4 0 01-.1 0H24 24a.3.3 0 00-.1 0h-.2s-.1 0 0 0h-.2a.4.4 0 00-.1 0H23 23h-.4-.1a.2.2 0 00-.2 0h-.1-.1c-.1 0-.1 0 0 0h-.2c-.1 0-.1 0 0 0h-.1c.1 0 .1 0 0 0a.2.2 0 00-.2 0c-.1 0-.1-.1 0-.1h-.2c.1 0 0 0 0 0H21l-.2.1h-.4-.2-.1H19.8h-.1-.4V40h-.1V40a.3.3 0 00-.1 0H19 19v-.1a.1.1 0 00.1 0h.1-.1H18.8v-.1a.4.4 0 00.1-.1.3.3 0 00-.1 0h-.1c-.1 0 0 0 0 0v-.1-.1h.2-.1a.4.4 0 010-.1v-.1a.2.2 0 01.1 0 .2.2 0 00.1 0v-.1-.1a.1.1 0 01.1 0 .1.1 0 00.1 0h.1V39a.2.2 0 00.1 0h.2a.1.1 0 01.2 0h.2a.5.5 0 01.1 0H21a.2.2 0 01.1 0h.2a1.4 1.4 0 01-.2 0 .7.7 0 00-.1 0c.2-.1.4 0 .4 0s-.1 0 0 0h.2a1.8 1.8 0 01.2 0h.4-.1.1c.1 0 0 0 0 0a1 1 0 01-.2 0v.1a.5.5 0 00.3 0 .4.4 0 00.1 0c.1 0 .1 0 0 0V39a.2.2 0 00.1 0h.2a.6.6 0 00.1 0 .2.2 0 00.1 0 .3.3 0 01.2 0h.2l.3-.1h.8a7.8 7.8 0 00.5 0 1.1 1.1 0 01.2 0 .7.7 0 01.3 0l.1.1a.6.6 0 00.2 0H26a.9.9 0 01.1 0H26.3a.3.3 0 00.1 0h.4a.1.1 0 00.1 0 .3.3 0 01.2 0h.1a.3.3 0 01.1 0 .1.1 0 01.1 0h.1a.7.7 0 01.2 0v-.1h.6a.2.2 0 00.1.1s.1 0 0 0c0 0 0 .1.1 0a.1.1 0 000 .1H28.9v.1h.1s.1 0 0 0a.1.1 0 01.1 0 .1.1 0 01.1 0v.1a.2.2 0 000 .1v.1a.5.5 0 01-.1 0 .3.3 0 00.1 0c.1 0 .1 0 0 .1a1.1 1.1 0 01-.1 0v.1a.4.4 0 01.1 0zM29.1 42.6H29v.1c-.2 0 0 0 0 0v.1h-.1l-.2.2h-.1-.1-.2-.2v.1H28h-.1c-.1 0-.1 0 0 0h-.2-.2-.5-.2a.9.9 0 01-.2 0 .3.3 0 01-.1 0h-.1a.2.2 0 00-.1 0h-.1-.1a.4.4 0 00-.2 0 .2.2 0 00-.2 0 .2.2 0 00-.2 0H25.2h-.1-.2a1 1 0 01-.2 0 .2.2 0 01-.1 0 .4.4 0 01-.1 0H24 24a.3.3 0 00-.1 0h-.2s-.1 0 0 0h-.2a.4.4 0 00-.1 0H23 23h-.4-.1a.2.2 0 00-.2 0h-.1-.1c-.1 0-.1 0 0 0h-.2c-.1 0-.1 0 0 0h-.1c.1 0 .1 0 0 0a.2.2 0 00-.2 0c-.1-.1-.1-.1 0-.1h-.2c.1 0 0 0 0 0H21c-.1 0-.3 0-.2.1h-.4-.2-.1H19.8h-.1-.2V43H19.2v-.1a.3.3 0 00-.1 0H19l-.1-.1a.1.1 0 00.1 0h.1c0-.1 0 0 0 0s0-.1 0 0H19h-.2v-.1h-.1v-.1a.4.4 0 00.1 0 .3.3 0 00-.1 0h-.1c-.1 0 0 0 0 0v-.2h.2l-.1-.1v-.1a.2.2 0 01.1 0V42a.2.2 0 00.1 0V42a.1.1 0 01.1 0 .1.1 0 00.1 0h.1v-.1a.2.2 0 00.1 0h.2a.1.1 0 01.2-.1h.2a.5.5 0 01.1 0H20.4l.2.1H21a.2.2 0 01.1 0h.2a1.4 1.4 0 01-.2 0 .7.7 0 00-.1 0c.2-.1.4 0 .4 0s-.1 0 0 0h.2a1.8 1.8 0 01.2 0h.4-.1.1c.1 0 0 0 0 0a1 1 0 01-.2 0v.1a.5.5 0 00.3 0 .4.4 0 00.1 0c.1 0 .1 0 0-.1a.2.2 0 00.1 0h.2a.6.6 0 00.1 0 .2.2 0 00.1 0 .3.3 0 01.2 0h.2l.3-.1h.8a7.8 7.8 0 00.5 0 1.1 1.1 0 01.2 0 .7.7 0 01.3 0c.1 0 .2 0 .1.1a.6.6 0 00.2 0H26a.9.9 0 01.1 0H26.3a.3.3 0 00.1 0l.1-.1H26.8a.1.1 0 00.1 0 .3.3 0 01.2 0h.1a.3.3 0 01.1 0 .1.1 0 01.1 0h.1a.7.7 0 01.2 0h.6a.2.2 0 00.1 0s.1.1 0 .1h.2v.1H29v.1s.1 0 0 0a.1.1 0 01.1 0 .1.1 0 01.1 0V42.5H29a.3.3 0 00.1 0c.1 0 .1 0 0 0v.1a1.1 1.1 0 01-.1 0 .4.4 0 01.1 0zM24.1.5h.1v.1s0-.1 0 0h.1s0-.1 0 0c0 0 .1 0 0 0h.1s0 .1 0 0l.1.2V1c.1 0 .1 0 0 0a.1.1 0 00.1.1v.4c0 .1 0 .1 0 0v.1h.1v.8a.5.5 0 010 .1.2.2 0 010 .2V3h-.1a.1.1 0 000 .1.1.1 0 000 .2v.1a.3.3 0 000 .1v.1a1.4 1.4 0 000 .2.6.6 0 010 .1.1.1 0 010 .1.2.2 0 010 .1V4.4a.2.2 0 000 .2v.1s0 .1 0 0v1a.4.4 0 010 .2v.2c0 .2 0 .2 0 0v.2c0 .1 0 .1 0 0l-.1.1v.1s0 .1 0 0v.2l.1.2V7.3a.1.1 0 000 .1v.8h-.1s0 .1 0 0c0 0-.1 0 0 0a.2.2 0 000 .1h-.1v.2h-.1v-.1-.1V8.6h-.1-.1v.1c0 .1 0 0 0 0H24h-.1v-.1c-.1.1-.1.1-.1 0h-.1v-.1h-.1v-.1h-.1v-.1c0-.1 0-.1 0 0V8h-.1V8v-.1V7.6a.3.3 0 010-.1v-.1c0-.1 0 0 0 0v-.1V7 7v-.1a.1.1 0 010-.1v-.1a.9.9 0 010 .1.5.5 0 000 .1v-.3-.2a1.1 1.1 0 010-.2V6c0 .1.1.1.1 0V6a.3.3 0 000-.1s-.1 0 0 0a.1.1 0 000-.1h-.1v-.2-.1a.2.2 0 010-.2V5v-.2-.2-.1-.2-.2V4 4a.7.7 0 010-.2.4.4 0 010-.2v-.1a.4.4 0 000-.2V3a.5.5 0 010-.1v-.2a.2.2 0 000-.1v-.2-.1a.1.1 0 000-.1V2 2a.2.2 0 010-.1v-.2a.5.5 0 010-.1v-.2-.1-.1V1a.1.1 0 000-.1h.1V.8.7.6h.1V.5.4a.3.3 0 00.1 0h.2a.2.2 0 01.1 0c0-.1 0-.1 0 0a.7.7 0 01.1 0zM47 22.9h-.1c0 .1 0 .1 0 0v.1c-.1 0 0 0 0 0 0 .1 0 0 0 0v.1h-.1l-.2.2c-.1 0-.1 0 0 0h-.1-.2-.4v.1h-.1-.2a.1.1 0 00-.1 0h-.1-.1-.1-.2a.6.6 0 01-.2 0h-.1a.2.2 0 00-.1 0h-.1a.3.3 0 00-.2 0 .1.1 0 00-.2 0 .1.1 0 00-.2 0h-.1a.4.4 0 00-.1 0H43.4a.8.8 0 01-.2 0 .3.3 0 01-.2 0 .1.1 0 00-.1 0h-.2a.2.2 0 00-.2 0h-.1s-.1 0 0 0h-.2c0-.1-.1-.1-.1 0h-.2c0-.1 0-.1 0 0h-.1-.1-.1l-.1-.1h-.2a.5.5 0 01-.2 0s-.1 0 0 0v.1h-.2c-.1 0-.1 0 0 0h-.1v-.1a.1.1 0 00-.2 0h-.2c.1 0 0 0 0 0s-.1 0 0 0c0-.1 0-.1-.1 0h-.7v.1h-.2-.1-.1-.1c0-.1 0-.1 0 0l-.2-.1h-.2s-.1-.1 0-.1a.2.2 0 00-.1 0h-.1l-.1-.1s0-.1.1 0V23H38.2v-.1a.3.3 0 00.1 0h-.1v-.1-.1c-.1 0-.1 0 0 0v-.1h.1l-.1-.1a.1.1 0 01.1 0v-.1a.1.1 0 00.1 0v-.1h.1v-.1h.1s.1 0 0 0h.2l.1-.1a.1.1 0 01.1 0h.2a.4.4 0 01.1 0h.7a.1.1 0 01.1 0h.1a1 1 0 01-.1 0 .6.6 0 00-.1 0h.3v.1h.2a1.3 1.3 0 01.2 0h.3c-.1 0-.1 0 0 0a.7.7 0 01-.1 0 .4.4 0 00.2 0h.1a.1.1 0 00.1 0c0-.1 0 0 0 0V22h.2a.2.2 0 00.1 0 .2.2 0 01.2 0H43a5.6 5.6 0 00.4 0 .8.8 0 01.2 0 .5.5 0 01.2 0h.1v.1h.1a.5.5 0 00.1 0h.2a.6.6 0 01.2 0H44.8V22H45a.1.1 0 00.1 0h.5a.5.5 0 01.2 0h.5a.1.1 0 00.1 0v.1h.2v.1h.2v.1s.1 0 0 0h.2v.1c0 .1 0 .1 0 0v.1a.3.3 0 010 .1.4.4 0 01-.1 0 .2.2 0 00.1 0v.1a.8.8 0 01-.1 0 .3.3 0 01.1 0zM40.5 6.6v.1c0 .1 0 .1 0 0h.1c0 .1 0 .1 0 0v.4c-.1.1 0 .1 0 .1h-.1v.1s-.1 0 0 0l-.1.1h-.1v.1l-.1.1v.1H40v.1H40V8h-.1V8h-.1v.1h-.1l-.1.2a.6.6 0 01-.2 0 .2.2 0 010 .2.1.1 0 00-.1 0l-.1.1-.1.1H39a.1.1 0 000 .1.1.1 0 00-.2.2h-.1a.4.4 0 000 .1h-.2v.2a.7.7 0 01-.2.1.1.1 0 010 .1.3.3 0 01-.1 0v.1H38l-.1.2a.2.2 0 00-.1 0l-.1.2h-.2v.2s-.1.1-.2 0v.2l-.2.1H37v.2a.1.1 0 00-.1 0 .4.4 0 010 .1c-.1 0-.2.1 0 0v.1c-.2.1-.2.1-.2 0v.2c-.1 0-.1 0 0 0 0-.1 0 0 0 0h-.1c0-.1 0-.1 0 0h-.2c0 .1 0 0 0 0l-.1.1c0 .1 0 .1 0 0l-.1.1v.1l-.1.2-.2.1v.1h-.1a.1.1 0 000 .1l-.1.1h-.1v.1h-.1v.1h-.2v.1l-.1.1h-.1a.2.2 0 00-.1 0H35c0 .1 0 .1 0 0h-.1c0 .1 0 0 0 0v-.1.1c-.1.1-.1.1-.1 0v.1h-.1v-.1h-.1-.1s-.1 0 0 0c-.1 0 0 0 0 0v-.1a.3.3 0 01-.1 0c0-.1 0-.1 0 0v-.1-.1-.1-.1-.2-.1h.1v-.2h.1v-.1h.1v-.1a.3.3 0 01.1 0l.1-.1V11c.1 0 0 0 0 0h.2v-.1h.2c0-.1 0-.1 0 0v-.1a.1.1 0 01.1-.1l.1-.1a1 1 0 01-.1 0v.1c-.1 0-.1 0 0 0l.1-.2v.1h.1v-.2a1.2 1.2 0 01.2-.1l.2-.2v.1c0 .1 0 0 0 0l.1-.1a.3.3 0 000-.1c.1 0 .1 0 0 0a.1.1 0 00.1-.1v-.2a.4.4 0 00.2 0v-.1a.2.2 0 01.1-.1h.1c0-.1 0-.1 0 0l.1-.3h.1L37 9 37 9h.1v-.1l.1-.1.2-.2s0-.1.1 0a.7.7 0 01.1-.2.4.4 0 01.2-.2h.2a.4.4 0 000-.1l.2-.2.1-.1.1-.1a.2.2 0 000-.1v-.1h.1a.1.1 0 010-.1h.2a.1.1 0 000-.2h.1L39 7V7h.2a.5.5 0 010-.2h.1l.1-.2h.1l.1-.1a.1.1 0 00.1 0h.1v-.1H40c.1 0 .1-.1.1 0v-.1h.1c.1 0 0 0 0 0h.1v.1s.1 0 0 0h.1a.3.3 0 010 .1s.1 0 0 0a.7.7 0 010 .1h.1zM39.7 38.7h-.1s-.1 0 0 0a.3.3 0 01-.1 0v.1h-.1l-.2-.1c-.1 0 0 0 0 0H39a.1.1 0 00-.1 0v-.2c0-.2-.1 0-.1 0h-.1l-.1-.1s-.1-.1-.1 0v-.1h-.1v-.1l-.1-.1h-.1V38s-.1 0 0 0l-.2-.2-.2-.1v-.1a.2.2 0 01-.2-.2v-.1h-.1v-.1l-.2-.1a.1.1 0 000-.1h-.1a.1.1 0 00-.1-.2l-.1-.1H37v-.2h-.2a.8.8 0 01-.1-.2.2.2 0 01-.1 0 .3.3 0 010-.1l-.2-.1s-.1-.1 0-.2h-.1a.2.2 0 00-.1 0l-.2-.2v-.1l-.1-.1-.2-.1v-.1h-.1l-.1-.2V35h-.1-.1a.1.1 0 000-.1.5.5 0 01-.1-.1s-.1-.1 0 0H35v-.1-.1c-.1 0-.1 0 0 0h-.1c-.1 0-.1-.1 0 0v-.2h-.1s0-.1 0 0v-.1l-.1-.1-.2-.1-.2-.1-.1-.2H34v-.1a.1.1 0 00-.1 0l-.1-.1s0-.1 0 0v-.1c-.1 0-.2 0-.1-.1 0 0-.1 0 0 0l-.1-.1-.1-.1V33c-.1 0-.2-.1-.1 0V33v-.1s-.1 0 0-.1h-.1v-.1-.1h.1v0h-.1v-.2s0-.1 0 0v-.1-.1h.2a.3.3 0 010-.1v0h.5l.1.1h.1l.2.1v.1h.1v.1c0 .1 0 0 0 0h.1a.4.4 0 010 .1h.1l.1.2.1.2h.1v.1a.1.1 0 01.1.1l.2.1a1 1 0 01-.1-.1.6.6 0 00-.1 0c.2 0 .3.1.2.2l.2.1a1.4 1.4 0 01.1.2l.2.2c0-.1 0-.1 0 0h-.1c-.1 0-.1 0 0 0l.1.1a.3.3 0 00.1 0c0 .1.1.1 0 0a.1.1 0 00.1 0l.2.2.1.1a.2.2 0 01.1.1l.1.1c0 .2.2.2.3.2v.2h.2v.1l.1.1.1.1a6 6 0 00.3.3.8.8 0 01.1.1.5.5 0 01.2.2c0 .1.1.2 0 .1v.1a.5.5 0 00.2 0v.1h.1a.7.7 0 01.1.2h.1l.1.2h.1c.1.1.2.1.1 0v.1l.1.1a.1.1 0 00.2.1v.1h.1v.1a.2.2 0 01.1 0l.1.2a.6.6 0 01.1 0v.1l.2.1v.1h.1v.1c.1 0 .1 0 0 .1h.1v.2h.1c0 .1 0 .1 0 0V38.3s.1 0 0 0l.1.1v.1h-.1v.1a.4.4 0 01-.1 0v.1a.9.9 0 01-.1 0v.1zM.8 22.6H1v-.1s-.1 0 0 0c0 0-.1 0 0-.1.1 0 .1 0 0 0l.3-.2c-.1 0 0 0 0 0h.2c.1 0 .1 0 0 0h.2V22H2.8a.6.6 0 01.1 0 .2.2 0 01.1 0 .2.2 0 00.2 0h.1a.3.3 0 00.2 0 .1.1 0 00.1 0 .1.1 0 00.2 0H4.4a.8.8 0 01.1 0 .1.1 0 01.1 0 .3.3 0 01.1 0h.4a.2.2 0 00.1 0H6.4a.1.1 0 00.2 0c.1 0 .2 0 0 0H7s.1 0 0 0c.2 0 .2 0 0 0a.1.1 0 00.3 0v.1h.4l.2-.1h1l.1.1h.2v.1a.2.2 0 00.1 0h.1v.1h-.1c0 .1 0 0 0 0s0 .1 0 0H9.6v.2s.1 0 0 0h.1v.2h-.1v.1a.3.3 0 01.1 0h-.1v.1h-.1v.2h-.1a.1.1 0 00-.1 0H9v.1H8.8a.1.1 0 010 .1h-.2a.4.4 0 01-.2 0h-.2l-.2-.1h-.1-.1a.1.1 0 01-.1 0h-.2a1 1 0 01.2 0c.1 0 0 0 0 0h-.3s.1 0 0 0h-.1a1.3 1.3 0 01-.3 0h-.2c.1 0 .1 0 0-.1a.4.4 0 00-.1 0 .3.3 0 00-.1 0c-.1 0-.1 0 0 .1a.1.1 0 00-.1 0h-.2-.1H6a.2.2 0 01-.1 0h-.2l-.2.1h-.2-.2H5 5h-.1-.4a.8.8 0 01-.2 0 .5.5 0 01-.3 0s-.1 0 0-.1h-.1a.5.5 0 00-.2 0h-.5a.3.3 0 00-.1 0l-.1.1s-.1 0 0 0h-.1-.1H2.4h-.1a.2.2 0 01-.1 0H2a.5.5 0 01-.1 0h-.1-.2-.2-.1s-.1-.1 0-.1h-.2v-.1H1V23H.9a.1.1 0 01-.1 0V23v-.1-.1c-.1 0-.1 0 0 0v-.1zM7.5 6.4h.1a.2.2 0 01.1 0v-.1s0 .1 0 0c.1.1.1 0 .1 0l.2.1h.1l.1.1c0 .1 0 0 0 0h.1v.1h.1v.1h.2v.1l.1.1c.1 0 .1 0 0 0V7h.1l.1.1.1.1.2.1v.1a.2.2 0 01.2.2v.1h.1l.1.2a.1.1 0 00.1.1.1.1 0 00.2.1v.1a.4.4 0 00.1.1v.1l.2.1a.7.7 0 01.1.1.1.1 0 01.1 0 .3.3 0 010 .2h.1l.2.2.2.2.2.2s.1 0 0 .1h.2c0 .1 0 .1 0 0v.1l.1.1v.1h.2a.1.1 0 000 .2.4.4 0 01.1 0s.1.1 0 0h.1c.1 0 .1 0 0 .1l.2.1c-.1 0 0 0 0 0s0 .1 0 0c-.1 0-.1 0 0 0v.2c.1 0 0 0 0 0v.1h.1c.1 0 .1.1 0 .1h.1l.1.1c.1 0 .3.1.2 0l.1.2.1.1a.1.1 0 00.1 0v.1h.1c0 .1 0 .1 0 0v.1l.1.1s.1 0 0 0l.1.1v.1h.1l.1.2v.2c.1 0 .1 0 0 0v.1c.1.1 0 0 0 0h-.1.1v.1h.1v.1c0 .1 0 .1 0 0h-.1a.2.2 0 000 .1v.2h-.1c-.1 0-.1 0 0 0H13h-.1-.2-.2l-.2-.1v-.1h-.1v-.1H12a.3.3 0 010-.1H12l-.1-.1v-.2h-.1v-.1c-.1 0-.1 0 0 0l-.1-.1a.1.1 0 01-.1 0v-.1h-.1l.1.1-.2-.2h.1v-.1h-.2a1.2 1.2 0 01-.1-.2L11 11c0 .1 0 .1 0 0h.1c.1 0 0 0 0 0l-.1-.1a.3.3 0 00-.1 0 .1.1 0 00-.1 0l-.2-.2h-.1a.2.2 0 01-.1-.2c-.1-.1-.1-.1 0-.1l-.3-.1V10H10V10h-.1v-.1l-.1-.1-.1-.1-.2-.1c0-.1-.1-.1 0-.2a.7.7 0 01-.2-.1A.4.4 0 019 9s0-.1 0 0V9a.4.4 0 00-.1-.1l-.2-.1a.6.6 0 010-.1h-.1l-.1-.2a.2.2 0 00-.1 0h-.1c0-.1 0-.1 0 0v-.1a.1.1 0 01-.1 0 .3.3 0 000-.1.1.1 0 00-.2 0V8H8A.2.2 0 018 8h-.1v-.1a.5.5 0 01-.2-.1l-.2-.2v-.1h-.1v-.1a.1.1 0 000-.1v-.1h-.1V7 7c0-.1 0-.1 0 0v-.1s-.1 0 0 0l-.1-.1a.1.1 0 010-.1h.1v-.1a.3.3 0 01.1 0v-.1a.7.7 0 01.1 0zM7.8 38.5v-.1H8s-.1 0 0 0v-.1h-.1c.1 0 0 0 0 0v-.1-.2-.1c.1 0 0 0 0 0H8a.1.1 0 000-.1l.1-.1c.1-.1 0 0 0 0l.1-.1v-.1l.1-.1c.1 0 .1-.1 0-.1h.2s0-.1 0 0v-.1h.1V37l.1-.1h.1v-.1l.2-.2a.7.7 0 01.1 0 .2.2 0 01.1-.2.2.2 0 00.1 0v-.1h.1s0-.1 0 0l.2-.2a.1.1 0 000-.1h.1a.1.1 0 00.1-.1l.2-.1v-.1h.1l.1-.2a.8.8 0 01.2-.1.2.2 0 010-.1.3.3 0 01.1 0v-.1a.1.1 0 00.1 0l.1-.2a.2.2 0 00.1-.1l.1-.2h.1l.2-.1.1-.2.1-.2h.2v-.1-.1a.1.1 0 00.2 0 .5.5 0 010-.1c.1-.1.1-.1 0-.1l.2-.1c.1-.1.1-.1 0 0v-.1c.1-.1.2-.1.1 0l.2-.1h.1v-.1s.1-.1 0 0h.1l.1-.2s.1-.2 0-.2h.1l.1-.1.1-.1a.1.1 0 000-.1h.1v-.1h.1l.1-.2h.1l.2-.1.1-.2h.1v.1a.2.2 0 00.1 0v-.1h.2v.1l.1-.1h.1c.1 0 0 0 0 0a.3.3 0 00.1 0h.2s0 .1 0 0v.4c0 .1 0 .1 0 0v.5h-.1v.1a.1.1 0 01-.1.1l-.1.1H14a.4.4 0 010 .2h-.1l-.1.1h-.2v.1l-.1.1h-.1a.1.1 0 010 .1h-.1v.1h-.1a1 1 0 01.2 0 .6.6 0 000-.1c0 .2-.2.3-.2.2H13v.1a1.4 1.4 0 01-.2.2l-.2.2v-.1c0-.1 0-.1 0 0l-.2.1v.2l-.1.2a.4.4 0 00-.1 0v.1a.2.2 0 01-.2.1v.1H12l-.1.2-.1.1h-.1v.1h-.1v.1h-.1v.1l-.2.1v.2c-.2 0-.2.1-.2 0a.8.8 0 01-.2.2.5.5 0 01-.2.2s-.1 0 0 0h-.1a.5.5 0 00-.1.2l-.1.1a.7.7 0 01-.1.1h-.1l-.1.2v.1l-.1.1a.1.1 0 01-.1 0v.1h-.1a.1.1 0 000 .1l-.1.1h-.1v.2h-.1l-.1.1a.6.6 0 01-.1 0v.1l-.2.2H9v.1h-.1a.1.1 0 00-.1.1h-.2l-.1.1h-.1-.1s0 .1 0 0v.1a.1.1 0 01-.1 0H8v-.1H8a.4.4 0 010-.1c-.1 0-.1 0 0 0h-.1a.9.9 0 010-.1zM23.4 15.9a.5.5 0 01-.1 0v.1c-.1 0 0 .1 0 0v.1s-.1 0 0 0h-.1l-.2.2-.1.1h-.2l-.1.1h-.2v.1c-.1 0-.1 0 0 0h-.1-.1-.1v.1H21.7v.1h-.1l-.2.1h-.1a.7.7 0 01-.1 0 .3.3 0 01-.1.1.2.2 0 00-.2 0 .1.1 0 010 .1h-.1a.3.3 0 00-.2.1.2.2 0 00-.1.1.1.1 0 00-.2.1l-.1.1h-.1l-.1.1-.1.1a.8.8 0 01-.2.2.3.3 0 01-.1.1l-.1.1-.2.1v.1a.2.2 0 00-.1 0l-.1.2s0 .1 0 0l-.1.1-.1.1-.1.2-.1.1v.1h-.1v.1h-.1v.2a.1.1 0 00-.1.1c-.1.2-.1.2 0 .1v.1h-.1l-.1.2c0 .1 0 .2 0 0a.2.2 0 00-.2.2l-.1.1v.5l-.1.2V21.3l-.1.1v.2l-.1.1v.4h-.1l-.1.1V22a.3.3 0 000 .2v.1h-.1c0 .1 0 0 0 0v-.1h-.1V22.6h-.1l-.1.1H17h-.1v-.2.1c0 .1 0 .1 0 0h-.1a.2.2 0 010-.1h-.1a.2.2 0 000-.1h-.1a.1.1 0 010-.1.2.2 0 000-.1.1.1 0 010-.1s0-.1-.1 0v-.1-.1-.2a.2.2 0 010-.1v-.1-.2a.6.6 0 010-.1.2.2 0 010-.1l.1-.2h.1v-.2-.2h.1v-.1a.2.2 0 010-.1h.1V20a1.6 1.6 0 010 .2v.1h-.1l.1-.4s0 .1 0 0a.4.4 0 00.1 0v-.2l.1-.2.2-.3c.1-.1.1 0 0 0v.1s0 .1 0 0l.2-.2a.5.5 0 000-.1v-.1s-.1 0 0 0V18.5h.2a.3.3 0 000-.1v-.1a.4.4 0 01.1-.1l.1-.2h.1a.9.9 0 000-.3.2.2 0 01.1 0h.1c0-.2.1-.1.1-.1a.3.3 0 010-.2h.1a.1.1 0 01.1 0v-.1h.1l.1-.2.2-.2.2-.1a1.2 1.2 0 01.2-.2.6.6 0 01.2-.1c.2-.1.2-.1.2 0a.7.7 0 00.2-.2l.2-.2a.8.8 0 01.1 0l.1-.1h.2a.4.4 0 000-.2h.1l.1-.1a.2.2 0 01.1 0 .1.1 0 01.1 0v-.1h.1a.3.3 0 01.2-.1h.1a.3.3 0 01.2-.1h.2a.9.9 0 01.1-.1h.1a1.4 1.4 0 01.2-.1.3.3 0 01.1 0H22.6a.2.2 0 00.1 0h.5v.1H23.4s0 .1 0 0v.2c-.1 0-.1 0 0 0h-.1.1v.1h-.1a.3.3 0 00.1 0c.1 0 0 0 0 0v.1a1 1 0 01-.1 0 .3.3 0 01.1 0z"/></svg>