<svg version="1.0" xmlns="http://www.w3.org/2000/svg" viewBox="0 0 500 500"><path fill="#2e3338" d="M236.5 5c-15.6 1.7-35.6 8.5-48 16.3-10.3 6.5-23.5 18.4-32.9 29.7-2.2 2.6-9.6 13.9-9.6 14.6 0 .4-.9 2.5-1.9 4.8-3.9 8.4-6 14.4-8.3 23.6-2.2 9.1-2.3 11.1-2.3 47.2 0 28.6.3 38 1.3 39 .6.6 1.2 2.5 1.2 4v2.8h-11.1c-13.9 0-22.6 2.3-29.6 7.9-6.6 5.2-9.6 9-13.5 16.9l-3.3 6.7.3 118c.4 125.2.4 125.1 5.1 134.3 2.7 5.3 13.5 15.1 20.6 18.7l6 3 112 .9c81.8.6 115.6.5 125.5-.3 7.4-.6 20.3-1.1 28.5-1.1h15.1l7.4-3.7c4.1-2 7.8-3.6 8.1-3.5.9.2 10.2-9 12.8-12.7 1.2-1.7 2-3.5 1.7-3.9-.3-.5.3-3.5 1.3-6.8 1.7-5.6 1.8-12.1 1.2-125l-.6-119.1-3.7-7.2c-2.1-3.9-4.4-7.9-5-8.8-3.3-4.2-9.3-9.2-14-11.9-5.1-2.8-5.9-2.9-20.5-3.2l-15.3-.4.1-3.6c0-2.9.2-3.3.9-1.7 1.6 4.1 2.5-5.8 2.2-25-.1-10.5-.2-25.5-.2-33.4 0-7.9-.4-14.9-.9-15.5-.4-.6-1.1-2.9-1.5-5.1-1.4-9.2-2.3-13.1-3.4-15-2.4-4.3-6.2-13.8-6.2-15.5 0-1-1.1-3.2-2.5-4.8-1.4-1.7-2.5-3.7-2.5-4.5 0-4.2-20.1-27-29.6-33.5-2.1-1.5-4.3-3.2-4.9-3.8-1.8-1.9-7.3-5.4-8.6-5.4-.7 0-2-.6-2.8-1.3-.9-.7-3.6-2.1-6.1-3.1-2.5-1.1-5.9-2.5-7.7-3.2-1.7-.8-3.7-1.4-4.4-1.4-.7 0-2-.6-2.8-1.4-3.7-3.1-31.8-5.3-47.6-3.6zm35 15.4c5 1 10.4 2.4 12 3.1 1.7.7 4.1 1.6 5.5 2 1.4.4 3.2 1.2 4 1.9 2.7 2 5.9 3.6 7.3 3.6.8 0 3.2 1.4 5.3 3.1 2.2 1.7 5.6 4 7.6 5 2.4 1.2 4.3 3.2 5.2 5.2.7 1.9 3 4.7 4.9 6.3 2 1.6 4.9 4.7 6.5 6.9 1.6 2.2 4.3 5.5 6 7.3 3.5 3.7 9.3 15.3 11.6 23.2.8 2.7 2.8 7.8 4.4 11.2l3 6.3.1 31.5c.1 29.8 1 42 3.1 46.1.6 1 1 2 1 2.3 0 .7-27.3.7-32 0l-3.5-.6-.2-31.1c-.2-29.7-.9-42.3-3.2-51.2-1.4-5.7-3.6-11.4-4.9-12.7-.7-.7-1.2-1.5-1.2-1.9 0-1.9-7.1-12.3-11.6-17.2-4.5-4.8-13.3-11.7-14.9-11.7-.3 0-2.1-1.1-3.8-2.4-1.8-1.4-4.5-2.8-6.2-3.2-1.6-.4-3.4-1-4-1.4-.5-.4-2.8-1.1-5-1.5-17.2-2.9-40.3-.2-51.3 6.2-2.6 1.5-4.9 3-5.2 3.4-.3.3-1.8 1.3-3.5 2.2-7 3.6-19.6 19.8-24.7 31.7-5 11.7-5 11.4-4.6 52.8l.3 39-4.4.6c-2.4.3-10.4.6-17.8.6-12.5 0-13.5-.1-12.7-1.8.4-.9 1.1-17.9 1.5-37.7.7-33.1 1.9-49.6 4.2-54.5.4-.8 1.1-3.5 1.6-6s.9-3.7 1-2.8c.2 3.9 2.1 1.5 2.1-2.7 0-2.7.5-4.5 1.1-4.5 1.5 0 3.5-2.6 5.4-6.7.7-1.8 2.6-4.5 4-6 1.5-1.6 4-4.8 5.7-7.3 1.7-2.5 4-5.3 5.2-6.2 1.2-1 1.5-1.8.8-1.8-1.8 0 1.3-4.5 5.1-7.2 1.7-1.2 2.7-1.7 2.3-1-1.3 2.2.6 1.3 5.8-2.6 9.8-7.5 26.1-15.2 31.8-15.2 1.5 0 3-.5 3.3-1 .3-.6 1.5-1 2.6-1s1.9-.7 1.9-1.6c0-1.4 1.8-1.6 16.3-1.2 9.7.3 19.8 1.2 25.2 2.2zm-4.9 45.1c7.7 2.5 10.6 3.9 13.8 6.7 1.1 1 2.7 1.8 3.5 1.8 2.3 0 10.8 7.9 12.9 12 1.1 1.9 3.5 6.5 5.4 10.1 4.2 7.9 5.8 14.4 5.8 24.3 0 4 .2 7.5.5 7.8.4.3.7 13.5.8 29.3l.2 28.7-27.5-.2c-15.1-.1-41.8.1-59.2.5l-31.7.8-.3-31.4c-.3-30.8.2-42.4 2.1-46.4.5-1.1 2-4.7 3.2-8 1.3-3.3 2.7-6.4 3.1-7 .4-.5.8-1.7.8-2.7 0-.9.6-2.1 1.3-2.5 1.6-1 3-4.3 1.8-4.3-.5 0-1.2.6-1.4 1.2-.3.8-.6.6-.6-.4-.1-1 1.6-2.9 3.7-4.3 2-1.4 6.2-4.6 9.2-7 7.5-6.2 16.3-10.5 23.5-11.5 8.8-1.2 21-.1 29.1 2.5zM363 198.9c15.1.5 28.5 1.1 29.8 1.4 7.2 1.8 14.3 9.8 16.3 18.3.8 3.6 1.1 34.4.9 113.8-.1 70 .2 108.6.8 108.2 1.4-.8 2.2 2.9 2.2 10.6 0 6.9-1 11-3.4 13.3-.8.8-2.3 3-3.5 4.8-2.5 4.1-8 8-14.1 10.2-3.7 1.3-8.8 1.6-28.5 1.5-13.2-.1-74.2-.3-135.5-.4-104.8-.2-111.8-.4-117-2.1-7.8-2.6-13.6-7-17.6-13.7l-3.5-5.8.3-66.2c.1-36.5.1-89.4 0-117.6-.4-58.2-.5-56.9 7.4-66.3 2.5-3 5.2-6 5.8-6.7 3.8-4 4.8-4 120.6-4 61.3 0 123.9.3 139 .7z"/><path fill="#2e3338" d="M241 284.6c-14.1 3.8-24.6 15.7-27 30.6-2.3 14.9 6.3 31.9 19.5 38.4l5.4 2.6.3 21.1c.3 23.9.9 26.1 7.4 29.2 6.7 3.1 14.4-.3 16.4-7.3.5-2 1-12.8 1-23.9v-20.1l4.7-2.3c13.6-6.6 22-23.4 19.2-38.4-2.7-15-13-26.2-27.4-30-7.2-1.8-12.3-1.8-19.5.1z"/></svg>