<svg version="1.0" xmlns="http://www.w3.org/2000/svg" viewBox="0 0 500 500"><path fill="#2e3338" d="M237 5c-16 2-36 9-48 16a126 126 0 00-44 49c-5 9-7 15-9 24s-3 11-3 47a191 191 0 003 43v3h-11c-14 0-23 2-30 8-6 5-9 9-13 17l-4 7 1 118c0 125 0 125 5 134 3 5 13 15 20 19l6 3h112a2724 2724 0 00155-1h15l7-4 8-3 13-13 2-4 1-7c2-5 2-12 1-125V217l-4-7-5-9c-3-4-9-9-14-12-5-2-6-3-21-3h-15v-4c0-3 0-3 1-2a4389 4389 0 010-79l-4-14-6-16-2-5-3-4a118 118 0 00-67-53c-4-4-32-6-47-4zm35 15a88 88 0 0121 7l7 4 6 3 7 5c3 1 5 3 5 5l5 7 7 7 6 7c3 3 9 15 11 23l5 11 3 7v31a159 159 0 004 48h-35l-1-31c0-30-1-43-3-51a40 40 0 00-6-15c0-2-7-12-12-17-4-5-13-12-14-12l-4-2-6-4-4-1-5-1c-18-3-41-1-52 6l-5 3-3 2c-7 4-20 20-25 32s-5 11-5 53l1 39h-5l-18 1c-12 0-13 0-12-2l1-38a227 227 0 017-63c0 4 2 2 2-2l1-5c2 0 4-3 6-7 0-2 2-4 4-6l5-7 5-6c2-1 2-2 1-2-2 0 2-4 5-7l3-1 5-3a82 82 0 0136-16l2-1 2-2 16-1 26 2zm-5 46c7 2 10 3 13 6l4 2c2 0 11 8 13 12l5 10c4 8 6 14 6 24l1 8v29l1 29h-28l-59 1h-32v-31c0-31 0-42 2-46l3-8 3-7 1-3 1-3c2-1 3-4 2-4l-1 1h-1l4-5 9-6c8-7 16-11 24-12s21 0 29 3zm96 133l30 1c7 2 14 10 16 19l1 113a2437 2437 0 000 133l-4 4c-2 4-8 8-14 11l-28 1a40047 40047 0 00-253-2c-8-3-14-7-18-14l-3-6v-66-118c0-58 0-57 8-66l5-7c4-4 5-4 121-4l139 1z"/><path fill="#2e3338" d="M241 285c-14 3-25 15-27 30s6 32 20 39l5 2v21c1 24 1 26 8 30 6 3 14-1 16-8l1-24v-20l5-2a37 37 0 00-8-68c-8-2-13-2-20 0z"/></svg>