<svg id="Layer_1" data-name="Layer 1" xmlns="http://www.w3.org/2000/svg" viewBox="0 0 48 48"><defs/><path class="cls-1" d="M18.9 46.8c.3 0 .3 0 0 0h1-.5v-.1h-.2c-.1 0-.1 0 0 0h.2c.2 0 .3 0 .2-.1a1.2 1.2 0 01.3 0h.2a2.3 2.3 0 00.3 0h-.2l-.1-.1a1 1 0 01.3 0h.4-.2a.6.6 0 01.2 0s.1 0 0-.1a2.6 2.6 0 00.5 0 .8.8 0 00-.2 0h.6a.3.3 0 01.2 0H22.2c.2 0 .3-.1.1-.1h1a3.5 3.5 0 00.5-.1 3.8 3.8 0 01.7 0 .5.5 0 00.2 0h.5a.6.6 0 01.1 0 .8.8 0 00.3 0 2.8 2.8 0 01.4 0 1 1 0 00.3 0 7.8 7.8 0 011.3 0H29.7h2.8a2.1 2.1 0 00.6 0H35a4.8 4.8 0 01.6 0h0a2.3 2.3 0 01-.5 0H34.2a4.5 4.5 0 01.6 0h1.5a1.5 1.5 0 00.3 0h-.7a7.4 7.4 0 001 0 1.7 1.7 0 00.5-.1 3 3 0 001.2-.6 2.7 2.7 0 00.8-1.2v-.1.2c-.2.3-.2.3 0 .1a.5.5 0 000-.1 2.2 2.2 0 00.1-.4c.1-.2 0-.1 0 0a2.5 2.5 0 01-.3.9c-.2.3-.2.3 0 0a2.7 2.7 0 00.5-1.3v-.7l-.1-.4c0 .6 0 .6 0 0V42a1.3 1.3 0 01-.2.4v-1V40 38v-.3c0 .4 0 .4 0 0a54 54 0 000-2.6 4.5 4.5 0 000-.5 5.2 5.2 0 010-.6v-.3-.5-.4-1-.4-1V28a.8.8 0 010-.3v-1.5a23.4 23.4 0 010-2.5l.1-.2v-1.1a2.7 2.7 0 000-.4l-.2-.9a3.3 3.3 0 00-.2-.7 4.2 4.2 0 01-.3-.4v-.1a2.7 2.7 0 00-.7-.5 1.9 1.9 0 00-.5-.3.9.9 0 01.2.2l-.4-.2a2.5 2.5 0 00.3.1l.2.1-.8-.2h-.5-.5a3.3 3.3 0 01-.6 0 4.6 4.6 0 00-1 0h-1.2H33.7l-1-.1h-.1a.8.8 0 00-.2 0h-.7a.4.4 0 01-.1 0h-.8a2.2 2.2 0 01-.3 0 9 9 0 01-1 0H27.1c-.2 0-.1 0 0 0h-.3a2 2 0 01-.3 0h-1.2a3.5 3.5 0 01.4 0 1.5 1.5 0 00-.3 0H22.7a2.9 2.9 0 00-.6 0 5.8 5.8 0 01-.7 0h-.7v.1H19h-.6a6 6 0 00-1.4-.1h-1a5.4 5.4 0 01-1 0 4.8 4.8 0 00-1 0h-2.8a3 3 0 00-1 .2l-.4.3-.2.3a2.9 2.9 0 00-1 2.2v3.1-.2.3a1.8 1.8 0 01-.1.6v-1.4a3.7 3.7 0 000-.5 2.5 2.5 0 000 .4V28a1.5 1.5 0 000 .4V28v-1.3a1.6 1.6 0 010-.6l.1.4v1a2.2 2.2 0 010 .2v.1a2.6 2.6 0 010 1 1.5 1.5 0 000 .6 4.5 4.5 0 010 .6 1.3 1.3 0 000 .4v.3l.1.8v3.6a4.5 4.5 0 000 1V37.1a2.6 2.6 0 000 .6 2 2 0 00-.1.5v.5a3.7 3.7 0 000 .6 1.3 1.3 0 01.1.4V39.6v.7a1.1 1.1 0 010-.4c0-.3 0-.3 0 0-.1.6-.1.6-.1 0V41a7 7 0 010 .7c0 .6 0 .6 0 0v-.3a4 4 0 010 1v.3a3.7 3.7 0 010 .6 2.5 2.5 0 00.1.9l.2.3.2.4a4.3 4.3 0 00.5.5 1.6 1.6 0 00.4.3l.2.1-.1-.1-.4-.3.2.2.2.1a1.1 1.1 0 00.4.2 3.8 3.8 0 001 .2h.5l.3.1a14.8 14.8 0 011.3 0h.7c.6 0 .4-.1.1-.1H14 15.8a2 2 0 01-.4 0c-.6 0-.6 0 0 0H16.3a1 1 0 00.4 0h1a3 3 0 01.2 0 2 2 0 00.6 0c.3 0 .3 0 0 .1h2a.5.5 0 00.2 0h.4l-.2-.1h.6a3 3 0 01.3 0h.2a.6.6 0 01.1 0 1 1 0 00.2 0 .5.5 0 00.1 0 3 3 0 01.4 0 1.5 1.5 0 00.3 0h.4a2 2 0 01.3 0H25.1a1 1 0 00.1 0h.1a.5.5 0 00.1 0 1 1 0 01.1 0h.2-.2a1.5 1.5 0 01.2 0H27a.7.7 0 00.2 0h.2a1.8 1.8 0 00.5 0h.2c-.1 0 0 0 0 0h.2a2.2 2.2 0 01.2 0h.5l-.1.1a.8.8 0 00.2 0h.6-.1H29.9a2.7 2.7 0 00.3 0h.2-.2c-.3.1-.2.1 0 .1h.3a.4.4 0 01-.1 0 1.3 1.3 0 01.3 0 .7.7 0 01.2 0 1 1 0 01-.1 0h-.2.2a1.5 1.5 0 01.2 0H31c-.1 0-.1 0 0 0h.4v.1a2.2 2.2 0 01.3 0H32.3a.4.4 0 00-.1 0h-.4H32h-.2.4a.6.6 0 01-.2 0s-.1 0 0 0h.2l-.2.1h-.2H32.1a1.7 1.7 0 00-.2 0 1 1 0 01-.1 0h.1a1.2 1.2 0 01-.2 0h.2-.3.3c.3 0 .3 0 0 0l-.3.1h.1-.1H32.2h-.6.4c-.1 0 0 0 0 0H31.4h.3a27 27 0 00.3.2h-.6c.2 0 .1 0 0 0a1 1 0 00.2 0h.6a.5.5 0 01-.1 0h-1a1.2 1.2 0 00.3.1h.2a2 2 0 01-.3 0s-.2 0 0 0h-.1.3-.2c.3 0 .6 0 .5.1a1 1 0 01-.3 0h-.6l-1 .2a1 1 0 00-.2 0H29.8a.5.5 0 01-.1 0 1 1 0 01-.4 0h-.5H27.9l-.9.1a2 2 0 00-.3 0h-.1a.6.6 0 00-.3 0h-.1-.2a.3.3 0 01-.1 0h-.1-.2-.1a1.7 1.7 0 01-.4 0H25a1.5 1.5 0 01-.2 0H24h-.5a2 2 0 01-.5 0h-.5a1 1 0 01-.1 0 2.2 2.2 0 01-.3 0H22a6.2 6.2 0 01-.9 0h-4.2a5 5 0 01-1 0h.1-.6a10.6 10.6 0 00-1.3 0 2.8 2.8 0 01-.7 0h-1-1.6a3 3 0 01-1.1-.5l-.6-.4a4.3 4.3 0 01-1-1.1 4.5 4.5 0 01-.5-2.2 3.7 3.7 0 010-.6 2.8 2.8 0 000-.7V40a2.7 2.7 0 000-.3V39v-.3-.7-2.6-1.2a4.5 4.5 0 010-.6v-.4a5.3 5.3 0 010-.6V31a7.2 7.2 0 010-1 5.4 5.4 0 010-1V29v-.7-.6l-.1-.3a37 37 0 000-3.5 14.6 14.6 0 010-1.7 4.5 4.5 0 01.1-1.4l.2-.3a4.6 4.6 0 01.5-1l.5-.5a3.9 3.9 0 01.6-.5l.4-.2.3-.1.3-.1a4.1 4.1 0 01.8-.2 3.7 3.7 0 00.4 0h4.7a.7.7 0 00.3 0 10.2 10.2 0 011.3 0H19.7a3 3 0 01.3 0h1.6a13.1 13.1 0 001.6 0 10.6 10.6 0 012-.1 9.4 9.4 0 011.2 0h1.9c-.3 0 0 0 0 0h2.4a13.2 13.2 0 01.9 0h1a.3.3 0 01.1 0h1.9a26.4 26.4 0 002.3 0 6 6 0 01.8.1 2.8 2.8 0 011 .4l.3.2.6.5a2.4 2.4 0 01.2.4h.1a1.2 1.2 0 01.1.2l.2.4a1.4 1.4 0 01.2.3 5.3 5.3 0 01.3 1 2.8 2.8 0 010 .8 6.2 6.2 0 000 .6v.4a5.8 5.8 0 000 1V29a7 7 0 010 .7v.7a1.5 1.5 0 000 .2 3.4 3.4 0 010 .7v.1a7.5 7.5 0 010 1.3 3 3 0 000 .6v.6a15.2 15.2 0 010 1.7v1.5a8.8 8.8 0 010 1.3v.7a.4.4 0 000 .1v.3l.1.4v.3a4.8 4.8 0 010 .6v.3a1 1 0 010 .3v1.2a9.3 9.3 0 000 1 3.5 3.5 0 01-.2.7c-.2.7-.4 1 0 .4l.1-.4a3 3 0 01-.3.9l-.4.6c.2-.4-.2.2-.8.7-.3.2-.4.3 0 0 .6-.5.5-.4 0 0a3.2 3.2 0 01-1 .6l.7-.4a2.7 2.7 0 00.4-.4l-.4.3a7.7 7.7 0 01-1.3.6.8.8 0 01-.1 0h-.3c-.4 0-.3 0 0 0h-1 0-.6-.3a5.1 5.1 0 00-1 0 1.3 1.3 0 01-.4.1 5.2 5.2 0 00-1 .1h-.4a5.3 5.3 0 01-.9 0H31a5.4 5.4 0 01-.7 0h-.6H28.9a.8.8 0 00-.2 0 .6.6 0 01-.2 0h-.1H27.8a1 1 0 01-.3 0h-.2a1.2 1.2 0 01-.2 0 1.9 1.9 0 00-.4 0h-.2-.1-.2a.8.8 0 00-.2 0 2 2 0 01-.6 0H25a2.3 2.3 0 01-.3 0 1 1 0 00-.2 0h-.9s.1-.1-.2-.1h-1.3c-.1 0-.5 0-.2-.1h.2a1.2 1.2 0 00.3 0 1.7 1.7 0 00-.5 0h-.5a.2.2 0 01-.1 0h-.2a2.1 2.1 0 00-.4 0h-.3a.4.4 0 00-.1-.1H20.6a2 2 0 00.4 0h.2a1.5 1.5 0 00.2 0h.2-.2c-.1 0-.2 0 0 0 0 0-.2-.1-.2 0H21h-.5a1.5 1.5 0 00-.2 0 1.9 1.9 0 01-.3 0H19.7V47a.6.6 0 01-.3 0c.1 0 0 0 0 0-.2-.1 0-.1.3-.1h.4-.7a.7.7 0 01-.2 0H19c.2 0 .2 0 .2-.2H19c-.2 0-.2 0 0 0zM16.5 46.7z"/><path class="cls-1" d="M34.7 18.2c0-.1 0-.1 0 0V18 17.8a.5.5 0 000 .1c0 .1 0 .1-.1 0a.8.8 0 010 .2v-.2a.4.4 0 000-.1 2.2 2.2 0 000 .3V18h-.1a.2.2 0 010-.2.3.3 0 000-.1h-.1a.5.5 0 000-.2h-.1v-.2s0-.1 0 0v-.1c-.1 0-.1 0 0 0l-.1-.1a.1.1 0 010-.1.5.5 0 000-.2v-.2a.5.5 0 00-.1-.2.5.5 0 010-.2V16v-.1a.1.1 0 000-.1.4.4 0 010-.2 1 1 0 010-.3.7.7 0 000-.3v-.1a1.8 1.8 0 010-.5v-.1-.1-.2V13.4v-.1-.2-.1a.5.5 0 000-.3.9.9 0 010-.2v-.1a.6.6 0 010-.3V12.7a.6.6 0 01-.1-.3V12l.1.2a1.3 1.3 0 000-.4.9.9 0 000-.2 4.6 4.6 0 010-.6l-.1-.6v.1a1.2 1.2 0 000-.2c0-.1 0 0 0 0l.1.3c0 .2 0 .2 0 0a2.4 2.4 0 000-.5l-.2-.2v-.2c0 .3 0 .2 0 0a.8.8 0 00-.1 0l-.1-.3a1.2 1.2 0 000-.2h-.1a.9.9 0 000-.1l-.1-.2a1.8 1.8 0 01-.1-.3l-.1-.3a3 3 0 00-.3-.8h-.1v-.2a1 1 0 01-.1-.2v-.1a1 1 0 01-.2-.2.5.5 0 000-.2.4.4 0 01-.1 0v-.1h-.1v-.2A1.3 1.3 0 0032 6c0-.1 0-.1 0 0l-.3-.4c-.2-.3-.3-.3-.2-.4a4.6 4.6 0 01-.4-.3l-.4-.4c-.2-.3-.3-.3-.1-.3a.1.1 0 01-.1 0V4a1.5 1.5 0 00-.3-.2h-.1l-.3-.2-.3-.2a.4.4 0 01-.1-.1L29 3a1.1 1.1 0 00-.2 0 .4.4 0 01.1 0 .5.5 0 01-.2 0H28.7l-.2-.2c.1 0 0 0 0 0h-.1a.4.4 0 01-.2-.1.5.5 0 00-.3-.2 2.5 2.5 0 01-.3-.1h.1a3 3 0 01-.4-.1.9.9 0 01-.3-.2h-.2-.2a1 1 0 01-.3-.1H26s-.1 0 0 0l-.2-.1a.8.8 0 01-.2 0 .2.2 0 01-.1-.1h-.1-.1-.1a1 1 0 00-.2 0h-.2l.1-.1H24a.3.3 0 00-.2 0 .7.7 0 01-.2 0h-.3a.5.5 0 01-.2 0 .5.5 0 00-.2 0c-.2.1-.2.1-.1 0h-.2-.5V2a1.2 1.2 0 00-.2 0h-.1a.6.6 0 01-.4.2.6.6 0 00-.3 0H21l-.4.2a6.4 6.4 0 00-.8.3l-.3.2a8.4 8.4 0 00-.9.5 3.3 3.3 0 00-.5.4l-.2.1-.1.1h-.1l-.2.1a1.8 1.8 0 00.5-.4 2.2 2.2 0 00-.5.3l-.4.4c-.1 0 0 .1 0 .1a1 1 0 01-.2.1v.1h.1l.3-.3.2-.1h-.1l-.3.3v.1a.4.4 0 01-.3.2l-.1.2-.1.1-.1.2a2.8 2.8 0 01-.2.3l-.4.4-.1.2-.2.1v.2a.5.5 0 00-.2.3V7a.6.6 0 00-.2.2c0 .1 0 .2 0 0l-.1.2h-.2v.2c.1-.1.1 0 0 0V8.2l-.2.1v-.3h.1v0c-.2.2-.2.2 0 0 0-.1 0-.1-.2 0v.4a.8.8 0 01-.1.2c0 .2 0 .2 0 0s.1-.3 0 0v.3l-.2.2v.5l-.1.5a.8.8 0 000 .2V10v.5l-.2.5v.1a1.7 1.7 0 010 .4v.3c0 .2 0 .2 0 0a.8.8 0 010-.2 1.5 1.5 0 010 .3V12.2c0-.2 0-.2 0 0V12.8a1 1 0 000 .2V13.3c0 .1 0 .1 0 0v.7a.3.3 0 010 .1.8.8 0 010 .1c0-.2 0-.2 0 0v.2a.1.1 0 010 .1v.2a.4.4 0 010 .2.7.7 0 010 .2.3.3 0 010 .1.8.8 0 000 .2 2.2 2.2 0 010 .3.1.1 0 010 .1V16.9a.3.3 0 010 .1.5.5 0 000 .1c0 .1 0 .1 0 0a.1.1 0 000 .1h-.1v.2a.1.1 0 010 .1.4.4 0 000 .1v.1s0 .1 0 0v.2-.1h-.1a.2.2 0 010 .1v.1a.3.3 0 010 .1v.2-.1.1h-.1a.2.2 0 010-.1.2.2 0 01-.1 0c0 .1 0 .1 0 0v.1a.6.6 0 000-.2v.2a.9.9 0 01-.1-.1.4.4 0 010-.1.9.9 0 000 .2c0 .2 0 .2 0 0 0-.1 0 0 0 0h-.1V18a1 1 0 010 .2h-.1V17.8v0h-.1a.5.5 0 010 .1 1.1 1.1 0 010-.1c0-.2 0 0 0 0v.1c0-.1 0 0 0 0 0 .1-.1 0-.1 0v-.2s0-.1 0 0l-.1-.4c0 .1 0 0 0 0h-.1v-.2a1.6 1.6 0 010-.2V17a.6.6 0 010-.1v-.1-.3a.3.3 0 000-.1v-.1-.1s0-.1 0 0V16v-.1s-.1-.1-.1 0a.2.2 0 010-.2.2.2 0 010-.1.9.9 0 010-.2v-.1a.6.6 0 010-.2V14.8v-.2a.8.8 0 010-.4 1 1 0 000-.2V13.3 12.7a.7.7 0 010-.3c0-.2 0-.2 0 0V12a2 2 0 000-.4v-.3a3.3 3.3 0 000-.4 1.1 1.1 0 010-.2 1.3 1.3 0 000-.3 1.2 1.2 0 01.1-.4v-.3a2.7 2.7 0 01.1-.4l.2-.8a.4.4 0 010-.2.4.4 0 00.1-.2 2 2 0 01.2-.5 3 3 0 00.1-.3 1.3 1.3 0 01.1-.3 1.2 1.2 0 01.2-.3 3.3 3.3 0 00.1-.4l.3-.5.3-.4.1-.2h.1c0-.2.1-.3.2-.3l.3-.5a1 1 0 01.3-.2c0-.2.2-.3.2-.3a1 1 0 00.2-.2l.2-.2.1-.1a2.2 2.2 0 00.3-.3 1 1 0 01.2-.1 4.1 4.1 0 00.6-.5 1.5 1.5 0 01.5-.3l.4-.3.4-.2.2-.1.2-.1h.1l.2-.1c-.1 0-.1 0 0 0a1.2 1.2 0 01.3-.2 2.4 2.4 0 00.5-.1 4.2 4.2 0 011.3-.4h.2l.4-.2a6.2 6.2 0 00.7 0h.5V.4a1 1 0 01.3 0 3.3 3.3 0 00.6 0h1.2l.7.2a1.5 1.5 0 01.3 0 1.7 1.7 0 00.4.1h.3a2 2 0 01.2.2h.2a1.3 1.3 0 01.2.1h.2l.2.2h.3a4 4 0 00.5.3 3 3 0 01.3.1 2.5 2.5 0 00.2.2 1 1 0 01.4.1c.1 0 .1 0 0 0l.3.2a1 1 0 010 .1h.1l.2.1v.1a2.1 2.1 0 00.4.2l.1.2a1 1 0 00.3.1.9.9 0 00.3.3l.4.4v.1h.2l.2.3.3.3a2.2 2.2 0 01.3.4 1 1 0 01.1.2 2.2 2.2 0 01.2.2.4.4 0 01.2.3l.3.4v.3a1.8 1.8 0 00.2.2 2.2 2.2 0 01.3.4V7.1l.2.4a1.3 1.3 0 01.2.4v.3h.1v.1l.2.2c0-.2 0-.2 0 0a.5.5 0 010 .3v.1a.2.2 0 010 .1v.2h.1l.1.3a.8.8 0 000 .3v.3c.1.2.1.3.1 0l.1.2V11c0 .1 0 .1 0 0 0-.2 0-.2 0 0v.1c0-.2 0-.2 0 0a.9.9 0 000 .5v.1c0 .1 0 .1 0 0h-.1v.3c0-.2 0 0 0 0v.3c0-.2 0-.2 0 0V12.9s.2.5.2.3v.7a.7.7 0 010 .2 1.2 1.2 0 010 .3V15.3a.2.2 0 000 .2s0 .1 0 0v.6a.1.1 0 000 .1v.3l-.1.1a1.1 1.1 0 010 .4c0 .1 0 .3-.1.2V17v-.1V17.5l-.1.1c0 .1 0 0 0 0v-.2a.2.2 0 000-.2.3.3 0 00-.1 0s0 .1 0 0a.2.2 0 000 .1V17.6a.2.2 0 000 .1V18h-.1v-.2a1.5 1.5 0 000 .2.5.5 0 000 .2h-.2zM13.5 12.6z"/><path class="cls-1" d="M30.3 18.6v-.2h-.1a.4.4 0 010 .2v-.2a1.3 1.3 0 000 .1H30v-.2H30a.3.3 0 000-.2h-.1V18s0-.1 0 0v-.2s0-.1-.1 0v-.1a.3.3 0 000-.1.3.3 0 000-.1.3.3 0 000-.2.3.3 0 01-.1-.1V17a.2.2 0 010-.1v-.1a.2.2 0 010-.1v-.1a.5.5 0 010-.2v-.2a1 1 0 010-.4v-.1-.2-.5-.2a.3.3 0 000-.2.5.5 0 010-.2v-.3V14.1 14v.2a.7.7 0 000-.3v-.2a2.8 2.8 0 010-.4v-.5.1a.7.7 0 000-.2h.1a2.3 2.3 0 010 .3c0 .1 0 .2 0 0a1.4 1.4 0 000-.4v-.2c0-.2 0-.2 0 0h-.1a.5.5 0 000-.2l-.1.1v-.2a.7.7 0 000-.2.4.4 0 000-.1v-.1a.6.6 0 010-.3 1 1 0 000-.2 2.1 2.1 0 00-.1-.6v-.2-.1l-.1-.2a.3.3 0 000-.2l-.1-.1v-.1a.6.6 0 00-.2-.2l-.1-.3-.1-.3a2.2 2.2 0 01-.2-.3 1.4 1.4 0 01-.2-.3l-.1-.2V8a2.1 2.1 0 00-.2-.2l-.3-.2a1.7 1.7 0 01-.1-.2h-.1a1.8 1.8 0 00-.2-.2.6.6 0 00-.2-.1c0 .1 0 0-.1 0L27 7H27v-.1a.2.2 0 01-.2 0 .3.3 0 00-.1-.2.7.7 0 01-.2 0v-.1a1.4 1.4 0 01-.2-.1.7.7 0 01-.2-.1.5.5 0 01-.2 0l-.1-.1h-.2l-.2-.1-.2-.1a.1.1 0 01-.1 0H25a.5.5 0 00-.2-.1.9.9 0 01-.2 0h.1a1 1 0 00-.3 0H24c-.2 0-.2 0 0 0v-.1h-.2-.2c-.2 0-.3.1-.1.1a.4.4 0 01-.2 0 .4.4 0 00-.1 0c-.2.1-.2.1-.1 0H23h-.4l-.2.1s-.2.1-.2 0a.3.3 0 00-.2.2 2.3 2.3 0 00-.4.1 4.7 4.7 0 00-.5.3l-.2.2-.6.4-.3.3-.1.1-.1.1c-.1 0-.2.1-.2 0a1.2 1.2 0 00.3-.3l-.3.3a1.9 1.9 0 00-.3.3v.1a.6.6 0 010 .1v.1l.2-.3h.1l-.1.2c0 .2-.1.3-.2.3h-.1V9a1 1 0 01-.2.2l-.1.4-.1.2-.1.2a.3.3 0 00-.1.2V10.5s0 .1 0 0h-.1l-.1.2v.5a.3.3 0 000-.2v.1c-.1.1-.1.1 0 0 0-.1 0-.1-.1 0v.3a.7.7 0 010 .1c0 .2 0 .2 0 0 0-.1 0-.2 0 0v.4c-.1.1 0 .5 0 .4v.4a.5.5 0 000 .1v-.1.8a1 1 0 010 .3V14c0 .1 0 0 0 0a.6.6 0 010-.2.7.7 0 010 .2 1.9 1.9 0 000 .3c0-.2 0-.2 0 0V14.5a.5.5 0 000 .2v.8a.4.4 0 010 .1c0-.1 0-.1 0 0v.5a.4.4 0 010 .2v.2a1.2 1.2 0 010 .2V17.7a.2.2 0 010 .1v.1h-.1v.2a.2.2 0 000 .1.4.4 0 010 .1v.1h-.1v.1a.2.2 0 010 .1.2.2 0 010 .1H18 18c0-.1 0-.1 0 0 0-.1 0-.1 0 0v-.1.1h-.1v-.1a.5.5 0 000 .1c0 .1 0 .1 0 0h-.1v-.2.1a.5.5 0 010 .1h-.1a.8.8 0 000-.1v-.1c0 .1-.1.2-.1 0 0-.1 0 0 0 0v.2c-.1 0 0-.1 0-.1 0-.1-.1 0-.1 0v-.2l-.2-.3c0 .1 0 0 0 0v-.1a.8.8 0 010-.1v-.1a.3.3 0 010-.1 1.9 1.9 0 010-.3v-.1-.1h-.1V17v-.1-.1a.1.1 0 010-.1v-.2a.3.3 0 010-.1v-.1a.7.7 0 010-.1V16a.2.2 0 000-.1v-.3a.5.5 0 000-.1 1 1 0 010-.1V15v-.5a.4.4 0 010-.2c0-.1 0-.1 0 0v-.2-.3-.2a1.5 1.5 0 000-.2.5.5 0 010-.2V13a.6.6 0 010-.2v-1a.3.3 0 010-.2v-.2a.8.8 0 010-.4 1 1 0 000-.3.7.7 0 010-.1v-.1a.7.7 0 010-.2 1.9 1.9 0 00.1-.3 3 3 0 01.2-.4v-.4l.2-.1V9v-.2a4.2 4.2 0 00.3-.4.6.6 0 01.1-.2l.1-.3h.1a.6.6 0 000-.1v-.1c.2 0 .3-.2.2-.2l.2-.3a.5.5 0 01.1-.1 4.5 4.5 0 00.4-.4l.3-.3.3-.3a1.7 1.7 0 00.3-.2c.2 0 .2-.1.2 0l.1-.2c.2 0 .2-.1.2 0-.1 0-.1 0 0-.1a.8.8 0 01.2-.1 1.4 1.4 0 00.3-.2 2.4 2.4 0 011-.3h.2l.3-.2a3.6 3.6 0 00.5 0H23.5c.2 0 .2 0 .1-.1a.5.5 0 01.2 0 1.7 1.7 0 00.5 0h.9a3 3 0 01.5.2h.2a1.2 1.2 0 00.3 0l.2.2a1.1 1.1 0 01.2 0 .8.8 0 01.2.1.5.5 0 01.1 0l.1.1.2.1.2.2a2.3 2.3 0 00.3.1 1.7 1.7 0 01.3.2l.1.1.3.1v.1l.2.1a.6.6 0 010 .1h.1v.1h.1a1.3 1.3 0 00.2.3l.1.1a.5.5 0 00.2.2.6.6 0 00.2.2l.2.4.1.1.1.2.2.3a1.4 1.4 0 01.1.3.6.6 0 01.2.2 1.2 1.2 0 010 .2.2.2 0 01.1.2l.2.4v.2a1 1 0 000 .2 1.3 1.3 0 01.2.3V10.6a1.5 1.5 0 000 .2c0 .2.1.4 0 .4l.1.2v.2s.1 0 0 .1a.3.3 0 010 .2c0-.1 0 0 0 0v.5a.4.4 0 000 .2v.2c0 .1 0 .2 0 0l.1.2v.4c0-.2 0-.2 0 0s0 .3 0 0c0-.1 0-.1 0 0a.4.4 0 000 .4c0 .1-.1.1-.1 0V14c0-.1 0 0 0 0V14.7l.1.4V15.6a.7.7 0 010 .2V16.2c0 .1 0 .1 0 0V16.5a.1.1 0 000 .2c0 .1 0 0 0 0V17.5h-.1a.6.6 0 010 .3s0 .2-.1.1v-.1.5h-.1V18a.3.3 0 010-.1.2.2 0 000-.1.1.1 0 000 .1v.4h-.1v.1h-.1v-.2a.8.8 0 000 .2.2.2 0 000 .1h-.2zM17.9 14.5zM25.3 34.4V38a1.1 1.1 0 11-2.3 0v-3.8a3.6 3.6 0 114.7-3.5 3.5 3.5 0 01-2.4 3.4v2.8"/></svg>