<svg width="12" height="15" fill="none" xmlns="http://www.w3.org/2000/svg"><path stroke="#fff" stroke-width="1.1" stroke-linecap="round" stroke-linejoin="round" d="M1 5.75h10v8.18H1z"/><ellipse cx="6.07" cy="9.32" rx="1.29" ry="1.36" fill="#fff"/><mask id="a" fill="#fff"><path d="M1.85 5.86a5.13 5.13 0 01.78-4.05c.4-.57.92-1.02 1.51-1.33a3.97 3.97 0 013.78.04c.58.32 1.1.78 1.49 1.36a4.92 4.92 0 01.72 4.06l-1.2-.36a3.65 3.65 0 00-.5-2.89c-.29-.4-.65-.73-1.06-.96a2.83 2.83 0 00-2.7-.03c-.41.22-.78.54-1.07.95a3.65 3.65 0 00-.56 2.88l-1.2.33z"/></mask><path d="M1.85 5.86a5.13 5.13 0 01.78-4.05c.4-.57.92-1.02 1.51-1.33a3.97 3.97 0 013.78.04c.58.32 1.1.78 1.49 1.36a4.92 4.92 0 01.72 4.06l-1.2-.36a3.65 3.65 0 00-.5-2.89c-.29-.4-.65-.73-1.06-.96a2.83 2.83 0 00-2.7-.03c-.41.22-.78.54-1.07.95a3.65 3.65 0 00-.56 2.88l-1.2.33z" fill="#fff" stroke="#fff" stroke-width="2.2" mask="url(#a)"/><path d="M5.39 11.4a.75.75 0 00.2.5.68.68 0 00.47.21.65.65 0 00.48-.2.72.72 0 00.2-.51H5.4z" fill="#fff"/><path fill="#fff" d="M5.39 10.16h1.35v1.3H5.39z"/></svg>