<svg version="1.1" id="Layer_1" xmlns="http://www.w3.org/2000/svg" x="0" y="0" viewBox="0 0 7325.3 1575" xml:space="preserve"><g id="Layer_3"><path class="st0" d="M6703.1 1088l86-27V349l-86 27z"/><path class="st0" d="M6871.3 659.5l.7-86h-252.7l-.7 86zM5762 1088l86-27V349l-86 27zM5451 1088l86-27V349l-86 27zM4992 575c-138 0-250 112-250 250s112 250 250 250 250-112 250-250-112-250-250-250zm.6 418h-.6c-92.8 0-168-75.2-168-168s75.2-168 168-168 168 75.2 168 168c.2 92.6-74.8 167.8-167.4 168z"/><path class="st0" d="M5160.9 1088l86-27V571l-86 27z"/><g><path class="st0" d="M6490 822c0-138-91-248-234-248-148 0-234 117-234 246 0 140 111 254 249 254 70 0 123-21 163-50v-99c-42 42-103 67-156 67-71 0-149-44-165-137h377v-33zm-377-43c6-81 77-123 144-123s138 42 144 123h-288z"/></g><g><path class="st0" d="M4551 574.5L4423.2 894l-140.7-332.6-1-.4-139.8 332.6-128.2-319.1-96.4-.2 217 513.9L4280.4 748l150.4 340.6L4646 574.2z"/></g></g><g id="Celo_Logotype"><path class="st0" d="M2817 1089l86-27V350l-86 27zM1825 657c54 0 104 24 136 64l35-81c-46-44-107-65-171-65-148 0-250 117-249 246 1 140 111 254 249 254 70 0 123-21 163-50v-99c-42 42-103 67-156 67-80 0-170-65-170-172 0-99 78-164 163-164zM2631 823c0-138-91-248-234-248-148 0-234 117-234 246 0 140 111 254 249 254 70 0 123-21 163-50v-99c-42 42-103 67-156 67-71 0-149-44-165-137h377v-33zm-377-43c6-81 77-123 144-123s138 42 144 123h-288zM3326 575c-138 0-250 112-250 250s112 250 250 250 250-112 250-250-112-250-250-250zm.6 418h-.6c-92.8 0-168-75.2-168-168s75.2-168 168-168 168 75.2 168 168c.2 92.6-74.8 167.8-167.4 168z"/><path id="Bottom_Ring" d="M751 1100c151.9 0 275-123.1 275-275S902.9 550 751 550 476 673.1 476 825s123.1 275 275 275zm0 100c-207.1 0-375-167.9-375-375s167.9-375 375-375 375 167.9 375 375-167.9 375-375 375z" fill="#fbcc5c"/><path id="Top_Ring" d="M951 900c151.9 0 275-123.1 275-275s-123.1-275-275-275-275 123.1-275 275 123.1 275 275 275zm0 100c-207.1 0-375-167.9-375-375s167.9-375 375-375 375 167.9 375 375-167.9 375-375 375z" fill="#35d07f"/><path id="Rings_Overlap" d="M963.3 999.8c26-31.5 44.6-68.4 54.5-108 39.6-9.9 76.5-28.5 108-54.5-1.4 45.9-11.3 91.1-29.1 133.4-42.3 17.8-87.5 27.7-133.4 29.1zM684.2 558.2c-39.6 9.9-76.5 28.5-108 54.5 1.4-45.9 11.3-91.1 29.1-133.4 42.3-17.8 87.5-27.7 133.4-29.1-26 31.5-44.6 68.4-54.5 108z" fill="#5ea33b"/><text transform="translate(1025.776 4276.22)" opacity=".5" fill="#faed25" font-family="Futura-Book" font-size="1009.514" letter-spacing="105">celo</text></g></svg>