<svg data-name="Celo Logotype" xmlns="http://www.w3.org/2000/svg" viewBox="0 0 3952 1400"><path d="M2817 1089l86-27V350l-86 27zm-992-432c54 0 104 24 136 64l35-81c-46-44-107-65-171-65-148 0-250 117-249 246 1 140 111 254 249 254 70 0 123-21 163-50v-99c-42 42-103 67-156 67-80 0-170-65-170-172 0-99 78-164 163-164zm572-82c-148 0-234 117-234 246 0 140 111 254 249 254 70 0 123-21 163-50v-99c-42 42-103 67-156 67-71 0-149-44-165-137h377v-33c0-138-91-248-234-248zm929 0c-138 0-250 112-250 250s112 250 250 250 250-112 250-250-112-250-250-250zm-928 82c67 0 138 42 144 123h-288c6-81 77-123 144-123zm928 336a168 168 0 11168-168 167.72 167.72 0 01-168 168z" fill="#2e3338"/><path data-name="Bottom Ring" d="M751 1100c151.88 0 275-123.12 275-275S902.88 550 751 550 476 673.12 476 825s123.12 275 275 275zm0 100c-207.1 0-375-167.9-375-375s167.9-375 375-375 375 167.9 375 375-167.9 375-375 375z" fill="#fbcc5c"/><path data-name="Top Ring" d="M951 900c151.88 0 275-123.12 275-275s-123.12-275-275-275-275 123.12-275 275 123.12 275 275 275zm0 100c-207.1 0-375-167.9-375-375s167.9-375 375-375 375 167.9 375 375-167.9 375-375 375z" fill="#35d07f"/><path data-name="Rings Overlap" d="M963.3 999.8a274.13 274.13 0 0054.52-108 274.18 274.18 0 00108-54.51 373.33 373.33 0 01-29.14 133.35 373.33 373.33 0 01-133.37 29.16zM684.19 558.18a274.18 274.18 0 00-108 54.51 373.33 373.33 0 0129.14-133.35A373.33 373.33 0 01738.7 450.2a274.18 274.18 0 00-54.51 107.98z" fill="#5ea33b"/></svg>