<?xml version="1.0" encoding="utf-8"?>
<!-- Generator: Adobe Illustrator 22.1.0, SVG Export Plug-In . SVG Version: 6.00 Build 0)  -->
<svg version="1.1" xmlns="http://www.w3.org/2000/svg" xmlns:xlink="http://www.w3.org/1999/xlink" x="0px" y="0px"
	 viewBox="0 0 7325.3 1575" style="enable-background:new 0 0 7325.3 1575;" xml:space="preserve">
<style type="text/css">
	.st0{fill:#2E3338;}
	.st1{fill:#FBCC5C;}
	.st2{fill:#35D07F;}
	.st3{fill:#5EA33B;}
	.st4{opacity:0.5;}
	.st5{fill:#FAED25;}
</style>
<g id="Layer_2">
</g>
<g id="Celo_Logotype">
	<title>Artboard 1</title>
	<polygon class="st0" points="2817,1089 2903,1062 2903,350 2817,377 	"/>
	<path class="st0" d="M1825,657c54,0,104,24,136,64l35-81c-46-44-107-65-171-65c-148,0-250,117-249,246c1,140,111,254,249,254
		c70,0,123-21,163-50v-99c-42,42-103,67-156,67c-80,0-170-65-170-172C1662,722,1740,657,1825,657z"/>
	<path class="st0" d="M2631,823c0-138-91-248-234-248c-148,0-234,117-234,246c0,140,111,254,249,254c70,0,123-21,163-50v-99
		c-42,42-103,67-156,67c-71,0-149-44-165-137h377V823z M2254,780c6-81,77-123,144-123s138,42,144,123H2254z"/>
	<path class="st0" d="M3326,575c-138,0-250,112-250,250s112,250,250,250s250-112,250-250S3464,575,3326,575z M3326.6,993
		c-0.2,0-0.4,0-0.6,0c-92.8,0-168-75.2-168-168s75.2-168,168-168s168,75.2,168,168C3494.2,917.6,3419.2,992.8,3326.6,993z"/>
	<path id="Bottom_Ring" class="st1" d="M751,1100c151.9,0,275-123.1,275-275S902.9,550,751,550S476,673.1,476,825
		S599.1,1100,751,1100z M751,1200c-207.1,0-375-167.9-375-375s167.9-375,375-375s375,167.9,375,375S958.1,1200,751,1200z"/>
	<path id="Top_Ring" class="st2" d="M951,900c151.9,0,275-123.1,275-275s-123.1-275-275-275S676,473.1,676,625S799.1,900,951,900z
		 M951,1000c-207.1,0-375-167.9-375-375s167.9-375,375-375s375,167.9,375,375S1158.1,1000,951,1000z"/>
	<path id="Rings_Overlap" class="st3" d="M963.3,999.8c26-31.5,44.6-68.4,54.5-108c39.6-9.9,76.5-28.5,108-54.5
		c-1.4,45.9-11.3,91.1-29.1,133.4C1054.4,988.5,1009.2,998.4,963.3,999.8L963.3,999.8z M684.2,558.2c-39.6,9.9-76.5,28.5-108,54.5
		c1.4-45.9,11.3-91.1,29.1-133.4c42.3-17.8,87.5-27.7,133.4-29.1C712.7,481.7,694.1,518.6,684.2,558.2z"/>
	
		<text transform="matrix(1 0 0 1 1025.7759 4276.2202)" style="opacity:0.5;fill:#FAED25; font-family:'Futura-Book'; font-size:1009.5135px; letter-spacing:107;">celo</text>
</g>
<g id="Layer_3">
	<g>
		<polygon class="st0" points="6706.1,1088 6792.1,1061 6792.1,349 6706.1,376 		"/>
		<polygon class="st0" points="6874.3,671.5 6875,585.5 6622.3,585.5 6621.6,671.5 		"/>
	</g>
	<g>
		<polygon class="st0" points="5765,1088 5851,1061 5851,349 5765,376 		"/>
	</g>
	<g>
		<polygon class="st0" points="5454,1088 5540,1061 5540,349 5454,376 		"/>
	</g>
	<g>
		<path class="st0" d="M4995,575c-138,0-250,112-250,250s112,250,250,250s250-112,250-250S5133,575,4995,575z M4995.6,993
			c-0.2,0-0.4,0-0.6,0c-92.8,0-168-75.2-168-168s75.2-168,168-168s168,75.2,168,168C5163.2,917.6,5088.2,992.8,4995.6,993z"/>
		<polygon class="st0" points="5163.9,1088 5249.9,1061 5249.9,571 5163.9,598 		"/>
	</g>
	<g>
		<path class="st0" d="M6493,822c0-138-91-248-234-248c-148,0-234,117-234,246c0,140,111,254,249,254c70,0,123-21,163-50v-99
			c-42,42-103,67-156,67c-71,0-149-44-165-137h377V822z M6116,779c6-81,77-123,144-123s138,42,144,123H6116z"/>
	</g>
	<g>
		<polygon class="st0" points="4554.8,565.1 4423.2,900.5 4282.5,533.1 4281.5,532.7 4141.7,900.1 4010.1,564.7 3911,566 
			4134.1,1110.1 4280.4,748 4430.8,1110.5 4654,566.3 		"/>
	</g>
</g>
</svg>
