<svg xmlns="http://www.w3.org/2000/svg" viewBox="0 0 7325.3 1575"><path class="st0" d="M6703.1 1088l86-27V349l-86 27z"/><path class="st0" d="M6871.3 659.5l.7-86h-252.7l-.7 86zM5762 1088l86-27V349l-86 27zm-311 0l86-27V349l-86 27zm-459-513a250 250 0 000 500 250 250 0 000-500zm.6 418h-.6a168 168 0 11.6 0z"/><path class="st0" d="M5160.9 1088l86-27V571l-86 27z"/><path class="st0" d="M6490 822c0-138-91-248-234-248-148 0-234 117-234 246 0 140 111 254 249 254 70 0 123-21 163-50v-99c-42 42-103 67-156 67-71 0-149-44-165-137h377v-33zm-377-43c6-81 77-123 144-123s138 42 144 123h-288z"/><path class="st0" d="M4551 574.5L4423.2 894l-140.7-332.6-1-.4-139.8 332.6-128.2-319.1-96.4-.2 217 513.9L4280.4 748l150.4 340.6L4646 574.2z"/><g><path class="st0" d="M2817 1089l86-27V350l-86 27zm-992-432c54 0 104 24 136 64l35-81c-46-44-107-65-171-65-148 0-250 117-249 246 1 140 111 254 249 254 70 0 123-21 163-50v-99c-42 42-103 67-156 67-80 0-170-65-170-172 0-99 78-164 163-164zm806 166c0-138-91-248-234-248-148 0-234 117-234 246 0 140 111 254 249 254 70 0 123-21 163-50v-99c-42 42-103 67-156 67-71 0-149-44-165-137h377v-33zm-377-43c6-81 77-123 144-123s138 42 144 123h-288zm1072-205a250 250 0 000 500 250 250 0 000-500zm.6 418h-.6a168 168 0 11.6 0z"/><path d="M751 1100a275 275 0 100-550 275 275 0 000 550zm0 100a375 375 0 110-750 375 375 0 010 750z" fill="#fbcc5c"/><path d="M951 900a275 275 0 100-550 275 275 0 000 550zm0 100a375 375 0 110-750 375 375 0 010 750z" fill="#35d07f"/><path d="M963.3 999.8a274 274 0 0054.5-108 274 274 0 00108-54.5 373.2 373.2 0 01-29.1 133.4 373.2 373.2 0 01-133.4 29.1zM684.2 558.2a274 274 0 00-108 54.5 373.2 373.2 0 0129.1-133.4 373.2 373.2 0 01133.4-29.1 274 274 0 00-54.5 108z" fill="#5ea33b"/><text transform="translate(1025.8 4276.2)" opacity=".5" fill="#faed25" font-family="Futura-Book" font-size="1009.5" letter-spacing="105">celo</text></g></svg>