<svg xmlns="http://www.w3.org/2000/svg" xml:space="preserve" style="enable-background:new 0 0 4202.7 950" viewBox="0 0 4202.7 950"><path d="M375 850a275 275 0 1 0 0-550 275 275 0 0 0 0 550zm0 100a375 375 0 1 1 0-750 375 375 0 0 1 0 750z" style="fill:#fbcc5c"/><path d="M575 650a275 275 0 1 0 0-550 275 275 0 0 0 0 550zm0 100a375 375 0 1 1 0-750 375 375 0 0 1 0 750z" style="fill:#35d07f"/><path d="M587.4 750a274 274 0 0 0 54.5-108c39.7-10 76.6-28.6 108.1-54.7a375.5 375.5 0 0 1-29.2 133.4A373.5 373.5 0 0 1 587.4 750zM308 308a275.8 275.8 0 0 0-108 54.7 375.5 375.5 0 0 1 29.2-133.4A373.5 373.5 0 0 1 362.6 200a274 274 0 0 0-54.5 108h-.1z" style="fill:#5ea33b"/><path d="M2256.4 784h-78.5V138.4h78.5v264.3a208.6 208.6 0 0 1 61.9-59.3c18.8-11.7 40-19.1 61.9-21.8a191 191 0 0 1 26.2-1.7c14.7-.1 29.3 1.3 43.6 4.4 30.2 7 54.1 20.9 71.5 41.9 23.3 29.1 35.8 67.2 37.5 114.3V784h-78.5V497c0-32.6-7.6-58.7-22.7-78.5a73.3 73.3 0 0 0-54.1-28.8l-9.6-.9c-20.6.2-40.8 5.9-58.5 16.6-6.1 3.4-11.9 7.2-17.4 11.3a282.2 282.2 0 0 0-61.9 67.2l.1 300.1h0zm805.2-194.5H2744c1.6 14.8 4.9 29.5 9.6 43.6a151.4 151.4 0 0 0 34.9 55.8c24.4 23.8 56.7 35.8 96.8 35.8 26.2 0 49.7-2.9 70.7-8.7a351 351 0 0 0 60.2-20.9l18.3 67.2a359.6 359.6 0 0 1-70.7 22.7 340.7 340.7 0 0 1-43.6 7.9 440.2 440.2 0 0 1-44.5 1.7 246 246 0 0 1-67.2-8.7 184.1 184.1 0 0 1-87.2-54.1 204.2 204.2 0 0 1-46.2-82.9 342 342 0 0 1-11.3-91.6c-.2-22.9 2.1-45.7 7-68a252.4 252.4 0 0 1 19.2-54.1 214.5 214.5 0 0 1 43.6-61.1 183 183 0 0 1 117.8-53.2c5.8-.5 11.6-.8 17.4-.9 43.6 0 80 9.6 109.1 28.8 28.5 18.6 50 43.9 64.6 75.9a243.4 243.4 0 0 1 20.9 86.4c.5 6.4.8 12.8.9 19.2 0 19.5-.9 39-2.6 58.5l-.1.7h0zm-1212.7 38.4V415h-78.5v-68h80.3l16.6-143.1h60.2V347h125.6v68h-125.6v219c.1 8.2.6 16.3 1.7 24.4 2.3 20.9 9 36.4 20.1 46.2a70.4 70.4 0 0 0 50.6 20.1c14.5 0 28.5-2.3 41.9-7a230.3 230.3 0 0 0 35.8-16.6l21.8 62.8c-4.5 2.8-9.2 5.5-14 7.9l-15.7 6.1c-5.8 2.5-11.6 4.8-17.4 7a199.8 199.8 0 0 1-61.9 9.6c-43.6 0-77.9-14.5-102.9-43.6a141.6 141.6 0 0 1-28.8-51.5 256.3 256.3 0 0 1-9.8-71.5zM1363 787.5c21.8 4.6 44 7 66.3 7a261.8 261.8 0 0 0 121.3-25.3c35.5-16.3 65.7-39 90.7-68 25-28.5 44.2-61.9 57.6-100.3a404 404 0 0 0 18.3-123c.2-8.1.2-16.3 0-24.4-1.9-33-8.4-65.6-19.2-96.8-13.4-37.8-32.6-71.2-57.6-100.3s-55-52.1-89.9-68.9a261 261 0 0 0-52.3-17.4 338.4 338.4 0 0 0-123-2.6 259.7 259.7 0 0 0-100.3 37.5 266.6 266.6 0 0 0-98.6 111.7 338.8 338.8 0 0 0-26.2 71.5 399 399 0 0 0-8.7 89.9v16.6a371 371 0 0 0 20.1 106.4l3.5 10.5a301.3 301.3 0 0 0 52.3 89.9 261.8 261.8 0 0 0 145.7 86zm1801.6-145.7V138.4h78.5V634c0 8.5.6 16.9 1.7 25.3 2.9 19.2 8.7 34 17.4 44.5a64.4 64.4 0 0 0 40.1 21.8 130.6 130.6 0 0 0 48-3.5c4.1-1 8.2-2.2 12.2-3.5l14.8-5.2 19.2 63.7c-8.1 3.5-17.7 6.7-28.8 9.6l-9.6 2.6a218.8 218.8 0 0 1-51.5 5.3c-14.4 0-28.8-1.8-42.7-5.2a110 110 0 0 1-75.9-51.5l-4.4-7.9a152.7 152.7 0 0 1-18.3-68c-.4-6.8-.7-13.5-.7-20.2zm301.8 0V138.4h78.5V634c0 8.5.6 16.9 1.7 25.3 2.9 19.2 8.7 34 17.4 44.5a64.4 64.4 0 0 0 40.1 21.8 130.6 130.6 0 0 0 48-3.5c4.1-1 8.2-2.2 12.2-3.5l14.8-5.2 19.2 63.7c-8.1 3.5-17.7 6.7-28.8 9.6l-9.6 2.6a218.8 218.8 0 0 1-51.5 5.3c-14.4 0-28.8-1.8-42.7-5.2a110 110 0 0 1-75.9-51.5l-4.4-7.9a152.7 152.7 0 0 1-18.3-68c-.3-6.8-.6-13.5-.7-20.2h0zM3847.7 764a229.7 229.7 0 0 0 116 30.5c43 0 81.7-9.9 116-29.7a216.3 216.3 0 0 0 80.3-82.9 231.4 231.4 0 0 0 23.6-62.8c4.3-20.9 6.4-42.3 6.1-63.7.1-17.5-1.4-35.1-4.4-52.3-4.5-25.5-13.4-50-26.2-72.4a209 209 0 0 0-80.3-82 242.4 242.4 0 0 0-115.2-28.7h-14a229 229 0 0 0-101.2 28.8 207 207 0 0 0-81.1 82 226.3 226.3 0 0 0-23.6 66.3 304.3 304.3 0 0 0-3.5 98.6 240.2 240.2 0 0 0 26.2 85.5c19.9 35.4 47 63 81.3 82.8h0zm-2418.4-41c17.6.3 35.2-1.5 52.3-5.2 21.7-5 42.1-14.1 60.2-27a196.2 196.2 0 0 0 63.7-77.6 226 226 0 0 0 5.2-9.6c10.2-25.1 17-51.6 20.1-78.5 1.8-15.6 2.7-31.4 2.6-47.1 0-31.4-4.7-61.7-14-90.7a257.5 257.5 0 0 0-35.8-72.4l-4.4-5.2a191.8 191.8 0 0 0-63.7-55 174.6 174.6 0 0 0-65.4-19.2c-7-.6-13.9-.9-20.9-.9-19.1-.3-38.2 2.1-56.7 7a169 169 0 0 0-52.3 25.3 201.2 201.2 0 0 0-67.2 79.4l-2.6 7.9a286.3 286.3 0 0 0-21.8 80.3 353 353 0 0 0-2.6 43.6c0 31.4 4.7 61.9 14 91.6a257.1 257.1 0 0 0 35.8 74.2l3.5 4.4a189 189 0 0 0 64.6 55c20.1 10.5 42 17 64.6 19.2 6.8.2 13.8.5 20.8.5zm2534.4 1.7c45.9 0 81.7-15.7 107.3-47.1a164.2 164.2 0 0 0 33.2-69.8c3.6-16.6 5.3-33.6 5.2-50.6 0-30.2-6.4-57.9-19.2-82.9a167.2 167.2 0 0 0-51.4-61.1 126.4 126.4 0 0 0-75-23.6c-15.3 0-30.6 2-45.4 6.1a121.1 121.1 0 0 0-61.9 39.3 155.8 155.8 0 0 0-32.3 64.6 243.5 243.5 0 0 0-6.1 55.8c0 30.2 6.4 58.5 19.2 84.6a167.8 167.8 0 0 0 30.5 43.6 146 146 0 0 0 21.8 17.4 121.2 121.2 0 0 0 74.1 23.7h0zM2743.2 525.8h248.6a215 215 0 0 0-3.5-40.1 135.5 135.5 0 0 0-14-40.1 108.8 108.8 0 0 0-76.8-55 164.6 164.6 0 0 0-30.5-2.6 118.8 118.8 0 0 0-83.8 34.9c-22 23.8-35.4 58.1-40 102.9h0z" style="fill-rule:evenodd;clip-rule:evenodd;fill:#2e3338;stroke:#2e3338;stroke-width:.7087;stroke-linecap:round"/></svg>