<svg xmlns="http://www.w3.org/2000/svg" viewBox="376 250 3200 950"><path d="M2817 1089l86-27V350l-86 27zm-992-432c54 0 104 24 136 64l35-81c-46-44-107-65-171-65-148 0-250 117-249 246 1 140 111 254 249 254 70 0 123-21 163-50v-99c-42 42-103 67-156 67-80 0-170-65-170-172 0-99 78-164 163-164zm572-82c-148 0-234 117-234 246 0 140 111 254 249 254 70 0 123-21 163-50v-99c-42 42-103 67-156 67-71 0-149-44-165-137h377v-33c0-138-91-248-234-248zm929 0a250 250 0 000 500 250 250 0 000-500zm-928 82c67 0 138 42 144 123h-288c6-81 77-123 144-123zm928 336a168 168 0 11168-168 167.7 167.7 0 01-168 168z" fill="#2e3338"></path><path d="M751 1100a275 275 0 100-550 275 275 0 000 550zm0 100a375 375 0 110-750 375 375 0 010 750z" fill="#fbcc5c"></path><path d="M951 900a275 275 0 100-550 275 275 0 000 550zm0 100a375 375 0 110-750 375 375 0 010 750z" fill="#35d07f"></path><path d="M963.3 999.8a274.1 274.1 0 0054.5-108 274.2 274.2 0 00108-54.5 373.3 373.3 0 01-29.1 133.3 373.3 373.3 0 01-133.4 29.2zM684.2 558.2a274.2 274.2 0 00-108 54.5 373.3 373.3 0 0129.1-133.4 373.3 373.3 0 01133.4-29.1 274.2 274.2 0 00-54.5 108z" fill="#5ea33b"></path></svg>