<svg xmlns="http://www.w3.org/2000/svg" viewBox="0 0 48 48"><defs><style>.cls-2{mix-blend-mode:multiply}.cls-3{fill:#2e3338}</style></defs><g style="isolation:isolate"><g id="Layer_1" data-name="Layer 1"><g class="cls-2"><path class="cls-3" d="M6.2 33.4v-.1a.4.4 0 010 .1V34a1 1 0 010 .1v.1a.6.6 0 00.1-.2V34a1.8 1.8 0 010 .2s0 .1 0 0V34v.3c0 .4.1 0 .1-.1v-.4a.7.7 0 010 .2v-.1.6c0 .2 0 .3 0 0 .1-.2.2.7.2 1a.4.4 0 000 .1v-.2V35.6a.5.5 0 000 .2c0 .2 0 .1 0 0v.6s.1.1 0 .4 0 .4.1.1v.2a5 5 0 000 .7c0-.3 0 0 0 0V38.8a.2.2 0 010 .1V39.2s0 .2 0 0v.1a1.4 1.4 0 010 .3v.2a.8.8 0 010 .2 1.8 1.8 0 000 .3v.4c0 .1 0 0 0 0a.1.1 0 000 .1V42.1a1.1 1.1 0 010 .2 1 1 0 000 .3 4.7 4.7 0 010 .7 4.9 4.9 0 000 .5v.5a4.6 4.6 0 010 .6v.2-.1.1a4 4 0 000 .4V45.8a.3.3 0 010 .2v.2a.4.4 0 010 .1v.1a.3.3 0 00.1 0 3.2 3.2 0 00.5 0h.2a3 3 0 00.7 0H12a3.6 3.6 0 01.5 0h.4a.4.4 0 00.2 0 1.7 1.7 0 01.4 0h.2a3.5 3.5 0 01.8 0h.9a8.2 8.2 0 01.9 0H17.5a4.8 4.8 0 011 0h1 .2a1.6 1.6 0 01.4 0h.2a.6.6 0 01.2 0h.4.5a3.2 3.2 0 00.6 0h.7H23.3h.7c.2 0 .3 0 0 0-.4 0-.4 0 0 0h.2c-.4 0-.4 0 0 0a3 3 0 00.9 0h.2c.3.1.2.1 0 .1a1.1 1.1 0 00.2 0h.2.7.2a2.5 2.5 0 00.7 0h.3c.2 0 .9 0 .7-.1h.2a2.9 2.9 0 01.6 0h.5a2.7 2.7 0 01.4 0 1.5 1.5 0 01.3 0 .8.8 0 01.2 0 .7.7 0 00.1 0 2 2 0 01.3 0 1 1 0 00.2 0h.3-.1.2c.1 0 0 0 0 0a1.1 1.1 0 00.3 0h.7a1.1 1.1 0 01.2 0 .6.6 0 00.3 0 4.4 4.4 0 01.6 0 1.6 1.6 0 00.4.1H34.9c.2 0 .4 0 .2.1H35a1.3 1.3 0 00-.3 0 1.7 1.7 0 00.4 0h.3a.2.2 0 01.2 0h.4c.1 0 .1 0 0 0l.3.1h-.5a1 1 0 01-.2 0 .9.9 0 00-.2 0h-.1a.3.3 0 00.1 0h.1a.5.5 0 00.2 0h1.2l.1.1H37.3s-.1 0 0 0l-.3.1h-.3.5a.5.5 0 01.1 0s.1 0 0 0a1.2 1.2 0 00.2 0h.1l-.1.2h.1c.2 0 .2 0 0 0s-.2 0 0 0h-.8.2l.2.1h.2c.1 0 .1 0 0 0h-.3-.2-.2a5 5 0 00.6 0h-.1l-.2.1a1 1 0 01-.2 0h-.2a2 2 0 00-.2 0h.2v.1a1.2 1.2 0 01-.2 0H36c-.1 0 0 0 0 0h0q-.1 0 0 0v.1a.7.7 0 00-.1 0 1.6 1.6 0 01-.3 0h-.3-.4l-.2.1H34.2a1.2 1.2 0 00-.2 0 2 2 0 00-.4 0 2.3 2.3 0 01-.6.1.4.4 0 00-.2 0h-.2a1.3 1.3 0 01-.2 0 .7.7 0 00-.3 0h-.7a3.6 3.6 0 01-.5 0 3.8 3.8 0 00-.5 0c-.2 0 .1 0 0 0a2 2 0 00-.2 0H30l-.7-.1h-.1a1.2 1.2 0 00-.5 0h-.2a2 2 0 00-.4 0 3.5 3.5 0 01-.5 0h-.2a2.8 2.8 0 01-.5 0h-.2H28a10.5 10.5 0 01-1 0 2.1 2.1 0 01-.5 0 1 1 0 00-.2 0h.4a5.3 5.3 0 00-.6 0 3.5 3.5 0 00-.5 0H23.2c-.1 0 0 0 0 0h-.3c-.2 0 0 0 0 0h.8c.2 0 .3 0 0-.1a9.5 9.5 0 00-1.2 0h-.4c-.5 0-.5 0-.3.1.5 0 .5 0 0 0h-.2-2a5.8 5.8 0 01-.6 0H18c.2 0 .2 0 0 0a8.8 8.8 0 00-1.1.1h-.2a3.5 3.5 0 00-.5 0 2.6 2.6 0 01-.4 0h-.2a3.7 3.7 0 01-.4 0h-.2a2 2 0 00-.3 0h-.4-2a4.5 4.5 0 01-.9 0h-1a12 12 0 01-1.8-.1h-1a1.5 1.5 0 00-.3 0 3.4 3.4 0 01-.6 0 1.3 1.3 0 01-1-.5 1 1 0 01-.3-.8v-.8-.4a.8.8 0 010 .2 1.6 1.6 0 010-.4 2 2 0 000 .3v.2a3 3 0 010-.7V43.9a1.7 1.7 0 010-.4v-.1a1.3 1.3 0 010-.2 2.2 2.2 0 000-.4 5.3 5.3 0 010-.6V42v.4a1.3 1.3 0 000-.2.6.6 0 000-.1 2.5 2.5 0 010-.4 1 1 0 000-.2l-.1-.4a2 2 0 010-.3v-1.2a.7.7 0 010-.2 1 1 0 000-.1V39a1.3 1.3 0 010 .2 1 1 0 010-.1v-.9-.3a.5.5 0 000-.2v-.2-.4-.2-.2a2 2 0 010-.2 2.4 2.4 0 00.1-.3c0-.2 0-.2 0 0V36v-.5.1h.1a.3.3 0 000-.1.3.3 0 010-.1v-.1a1.9 1.9 0 000-.2v-.2.2c0 .2 0 .2 0 0a1 1 0 010-.2v-.2a.5.5 0 010-.2v.2h.1v-.1a1.4 1.4 0 010-.3v.2V34.2 34a2 2 0 010-.3v-.4.3a2 2 0 000-.2l.1.2v-.4a.6.6 0 010 .2s0 .1 0 0v-.2V33.6v-.2a1.2 1.2 0 00.1.2.8.8 0 010 .1c0 .1 0 .1 0 0v-.2V33.8 33.5 33.8v-.5.3l.1.2v-.4c0 .2 0 .1 0 0V34v-.2-.4.1c0 .2.1 0 .1 0 0-.2 0-.3 0 0v.5c0-.1 0-.1 0 0v-.2c.1 0 .1 0 0 0l.1-.4z"/><path class="cls-3" d="M8.4 47l-.1-.1a.6.6 0 01.1 0h.8a1.7 1.7 0 01.2 0h.1a1 1 0 00-.2-.1H9a3.1 3.1 0 01.4 0s.1 0 0 0H9.2h.2c-.4 0-.6 0-.5-.1a1.1 1.1 0 01.3 0H9.8c.3 0 .3 0 0 0-.3-.1.9-.2 1.3-.2a.8.8 0 00.2 0h-.2a.6.6 0 01.2 0 .9.9 0 00.2 0c.3 0 .3 0 0 0H13.4a8.7 8.7 0 00.9 0c-.3-.1 0-.1 0-.1H15.6a.3.3 0 01.1 0h.4s.2 0 0 0h.1a2.4 2.4 0 01.5 0h.1a1.4 1.4 0 01.3 0 3.2 3.2 0 00.4 0h.3-.1a1.3 1.3 0 00.1 0H18.1a.3.3 0 00.1 0h.2a1.8 1.8 0 01.7 0h.7a2 2 0 01.4 0 1.7 1.7 0 00.3 0 8.1 8.1 0 011 0H22.8a8 8 0 011 0H24.9a.6.6 0 01.2 0h.2a1.2 1.2 0 01.4 0H27a5.6 5.6 0 00.6 0h.3a5.1 5.1 0 00.9 0h4.8a6.2 6.2 0 01.7 0h.6a.6.6 0 00.2 0 3 3 0 01.6 0h.2a6.1 6.1 0 011 0 2.7 2.7 0 00.7 0H41a8.3 8.3 0 011.2 0h.6V46a.6.6 0 010-.2v-.3a1 1 0 01.1-.3v-.4-.6a5.5 5.5 0 000-1v-.5-.3c-.1.6-.1.6-.1-.3v-.6-.9c0-.2 0-.3 0 0 0 .6 0 .6 0 0v-.2c0 .6 0 .6.1 0a5.2 5.2 0 000-1.2v-.3c0-.3 0-.2 0 0a2 2 0 000-.2V38v-.6-.3a4.3 4.3 0 000-.9V36v-1.3a5 5 0 010-.8v-.6a4.6 4.6 0 010-.6 2.6 2.6 0 010-.3.6.6 0 000-.1l-.1.1a1.3 1.3 0 010-.3 1.3 1.3 0 000-.2v.1-.1-.3a1.7 1.7 0 000-.3v-.4V30.8v-.1-.3a1.9 1.9 0 010-.6.7.7 0 000-.3 2 2 0 010-.4 1.1 1.1 0 000-.2v-.5a2.2 2.2 0 01.1-.4 2.8 2.8 0 000-.5v-.9-.4l.1-.2V26.6a2.9 2.9 0 000-.5v-.5a.4.4 0 010-.2v-.2a1.5 1.5 0 000-.4c0-.1 0-.1 0 0l.1-.4v-.2.9a1.8 1.8 0 010 .3 1.5 1.5 0 00.1.2v.2a.5.5 0 000-.2v-.2a.8.8 0 000-.1V25a2 2 0 010-.5v-.1-.2-.3-.3a.6.6 0 010-.3v-.2c0 .1 0 .2.1.1V23.3a1 1 0 010-.2s0-.1 0 0a2.1 2.1 0 00.1-.3v-.1.2l.1-.2c0-.3 0-.3 0 0s0 .3 0 0v.2h.1V23.4 23c0-.1 0-.1 0 0v.4c0 .1 0 .1 0 0v.5a2 2 0 000-.3l.1-.5v.4a1.6 1.6 0 010 .3v.4l.1-.2a2.1 2.1 0 010 .3v.4c0 .1 0 0 0 0v-.2.2a.6.6 0 00.1.1 1.1 1.1 0 000 .1 2.8 2.8 0 010 .3v.4l.1.3v1.3a2 2 0 000 .3 3.4 3.4 0 00.1.5 4 4 0 010 .8.7.7 0 000 .2.7.7 0 010 .2v.4a.6.6 0 010 .1 1.3 1.3 0 000 .3V30.9a6.3 6.3 0 010 .6v.7c0 .3 0-.1 0 0v1.7a2.1 2.1 0 000 .6v1.4V35.8a.9.9 0 000-.3V35v1.8a3.6 3.6 0 010 .6 1.8 1.8 0 000 .3c0-.6 0-1-.1-.6v.8a6 6 0 000 .7V41.8v-.3c0-.3 0-.3 0 0v.6c0 .3 0 .1 0 0v-1c0-.4 0-.5 0 0v2.5c0-.6 0-.6 0 0v.3c.1-.3 0 .2 0 .2h.1V46a2.9 2.9 0 010 .5 1.3 1.3 0 01-1 1.1 3 3 0 01-.7 0h-.7c.3 0 .3 0 0 0l-1.4.1H40a6 6 0 00-.6 0 4.5 4.5 0 01-.6 0h-.2-.8H36.9 36a2.4 2.4 0 00-.3 0h-4a20.8 20.8 0 01-2.2-.1H28a2.7 2.7 0 00-.3 0 6.1 6.1 0 01-.9 0H26a2.4 2.4 0 01-.6 0h-1.6a2.3 2.3 0 01.3 0 2.8 2.8 0 01-.5 0H24.2a5 5 0 01-.9.1h-.5H22.2a2.9 2.9 0 01-.5 0H21.4a1.3 1.3 0 00-.2 0 3.9 3.9 0 00-.4 0h-1.1.6-.3-.1a4.3 4.3 0 01-.6 0 1.7 1.7 0 00-.2 0h-2.4a.3.3 0 00-.1 0 1.3 1.3 0 01-.2 0 1.8 1.8 0 00-.3 0H16 16.2a1.8 1.8 0 01-.2 0h-1.6a.8.8 0 00-.2 0H14 14 13c.1 0 0 0 0 0h-.2-.6c-.3 0-.3-.1-.2-.1H11.8a.2.2 0 00-.1 0h-.5.1l.1-.1a.3.3 0 00-.1 0 .6.6 0 00-.1 0 .5.5 0 01-.2 0 3.2 3.2 0 00-.4 0h-.1.2c.2 0 .2 0 0 0h-.1a1.8 1.8 0 01-.2 0 2 2 0 01-.3 0 .8.8 0 01-.2 0h.1a2.3 2.3 0 01-.4 0h.3v-.1h-.4.2-1.4a.5.5 0 00.1 0H9h-.4H8.8h-.5a1 1 0 01.3 0c0-.1.1-.1-.2-.1h-.2c.1 0 0 0 0 0h.2-.2a.6.6 0 00.1 0 .4.4 0 01.2 0h.2-.3a2 2 0 00.3 0v-.1a1.5 1.5 0 01.1 0c.2 0 .2 0 0 0h-.2a.5.5 0 00.1 0H9h-.4.5-.2.2-.7H9c-.5 0-.6-.1-.4-.1.2 0 0 0 0 0h.7H8.6c.2 0 0-.1 0-.1-.4 0-.4 0 0 0h.7-.5-.4zM19.5 33.6h-.1-.1a.2.2 0 01-.1-.1c.1.1.1.1 0 0v.1c-.2-.2-.1 0 0 0 0 0 .1.1 0 .1-.1-.1 0 0 0 0h-.1c0-.1-.1-.2 0-.2H19c0 .1-.3 0-.4 0v-.1c.1.1 0 0 0 0h-.1l-.2-.1-.2-.2c-.2-.2 0 0 0 0l-.3-.2c0 .1 0 0 0 0h-.1l-.2-.2c-.1 0-.1 0 0 0h-.2s0-.1 0 0c0-.1-.1-.2 0-.2h-.1s-.1 0 0 0a.3.3 0 00-.2-.1.1.1 0 000-.1h-.1a.4.4 0 000-.1h-.1l-.1-.1a.8.8 0 00-.2-.2h-.1l-.3-.3h-.2l-.1-.2a.7.7 0 01-.2-.1v-.1a.6.6 0 00-.2-.1l-.1-.1-.2-.1a1.1 1.1 0 00-.2-.2v-.1a.5.5 0 00-.2-.1h-.1a.5.5 0 00-.2-.2L14 30H14l-.2-.2-.3-.2a3 3 0 01-.2-.2.6.6 0 01-.2-.1 1 1 0 01-.1-.2.3.3 0 01-.2 0 .3.3 0 000-.1l-.3-.2-.2-.1a.8.8 0 00-.1-.1 1.3 1.3 0 01-.3-.2s-.1-.1 0-.1l-.2-.1a1.3 1.3 0 00-.2-.2l-.3-.2-.1-.1H11l-.1-.1-.2-.2a.1.1 0 01-.1-.1l-.1-.1c0 .1-.2 0-.2 0a.5.5 0 00-.2-.2l-.1-.2c-.2 0-.2-.1-.1 0 .1.2 0 .2-.1 0l-.1-.1-.2-.2s-.1 0 0 0c.1.1 0 .1 0 0-.3-.1-.3-.2 0 0v-.1a.5.5 0 00-.3-.2H9V26l-.1-.2c0 .2 0 .1 0 0-.2 0-.3-.1-.2 0v-.1l-.3-.2-.4-.1-.2-.2-.2-.1s-.1-.2 0-.2a.2.2 0 01-.2 0h-.1v-.1a.2.2 0 00-.1-.1h-.1s0-.1 0 0v-.1c-.1 0 0 0 0 0H7l-.2-.2-.1-.1a.7.7 0 01-.3-.2V24l-.3-.1v-.1c-.1 0-.1-.1 0-.1a.8.8 0 00-.2 0v-.1l-.1-.2-.1-.1H6a.4.4 0 00.1.1h.1v.1-.1c-.1 0-.1 0 0 0l-.2-.1-.2-.1V23a1.1 1.1 0 00.2 0 1 1 0 00-.2 0v-.1a.3.3 0 00-.1-.1v-.1c.1 0 .1 0 0 0H6v.1a.9.9 0 01-.1-.2l.1.1a.3.3 0 00.1.1.9.9 0 00-.1-.2.1.1 0 01.2.1.3.3 0 000 .1v-.1a.2.2 0 01.1 0 .5.5 0 00.1.1h.1a.3.3 0 01.1 0 .4.4 0 00.1 0h.1v.1h.1s0 .1 0 0H7a.4.4 0 00.1.1l.1.1a.3.3 0 00.2.1.4.4 0 01.2.1v.1h.1v.1a.1.1 0 00.1 0l.1.1a1.4 1.4 0 01.1.1.6.6 0 01.2.1l.2.2v.1l.2.2h.1l.2.1.1.2a.5.5 0 01.2 0v.2a.4.4 0 01.2 0v.1l-.2-.3H9h-.1c0-.1 0 0 0 0a1.1 1.1 0 01.6.3v.1c-.1-.1-.2-.1-.2 0a.8.8 0 00.2 0l.2.2.4.2.4.4c-.2-.2-.2-.2-.1 0h.1c.1 0 0 0 0 0a2.6 2.6 0 01-.2-.1c-.1 0-.2 0 0 0a1.5 1.5 0 00.3.3 1.2 1.2 0 00.2 0c.1.2.1.1 0 0h.1a.5.5 0 000 .1h.1l.2.2a1.6 1.6 0 00.2.1l.2.1a.9.9 0 01.2.2l.2.2a1.5 1.5 0 00.5.2.6.6 0 00.1.2l.2.1v.1h.1l.1.1v.1a.3.3 0 01.1 0l.1.1h.1a1.2 1.2 0 00.2.2s.1 0 0 0a21.9 21.9 0 00.6.5 3.1 3.1 0 01.3.2 1.8 1.8 0 01.4.3l.1.2v.1h.1a1.8 1.8 0 00.2.2h.1l.3.2a2.5 2.5 0 01.2.1.2.2 0 01.1.1l.2.2a1 1 0 00.2.1c0-.1 0 0 .2 0 0 .2.1.2 0 .2h.2a.3.3 0 01.1.2.2.2 0 01.1 0 .4.4 0 00.1.1.8.8 0 01.2.2h.1-.1a.4.4 0 01.2.1.7.7 0 01.2.1l.2.2a2 2 0 01.2.2.2.2 0 00.1 0v.1c.1 0 .2 0 .3.2h.1v.1h.1l.1.1.1.1c.1 0 .1.1 0 .1a.3.3 0 01.1 0 .4.4 0 00.1.1v.2h.2v.1a.3.3 0 00.1.1.2.2 0 010 .1h.1v.1h.1v.1s.1.1 0 0a.3.3 0 01.1.1.4.4 0 01.1.1.3.3 0 000 .1h-.1c-.1 0-.1 0 0 0h-.1.1-.1l.1.1a.5.5 0 00-.1 0c.1 0 .1 0 0 0h-.1a.8.8 0 00.2 0c.1.2 0 .2-.1 0v.1h-.2a1 1 0 01.2.1z"/><path class="cls-3" d="M43.8 22.7v.1l-.1.1-.1.1c.2-.1.2-.1.1 0-.2.2 0 .1 0 0h.1c-.1.1 0 .1 0 0v.1h-.1v.1c-.1 0-.1 0 0 0l-.2.3v.1c0-.1 0 0 0 0h-.1c0 .1 0 .1 0 0l-.1.2-.2.2c-.1 0-.1 0 0 0l-.3.2c.1 0 0 0 0 0l-.1.2h-.1v.1h-.1v.1c-.1 0-.1 0 0 0h-.1l-.1.1-.1.1a.3.3 0 00-.1 0v.1H42v.1a.4.4 0 00-.1 0l-.2.2a.8.8 0 00-.1.1l-.1.1-.3.3a.8.8 0 00-.2 0l-.1.2a.7.7 0 01-.2.2.6.6 0 00-.2.1l-.1.1-.1.1a1.1 1.1 0 00-.3.2.5.5 0 00-.2.2.5.5 0 00-.3.2l-.3.2v.1H39l-.2.2-.2.2a3 3 0 01-.3.2.6.6 0 01-.1.2 1 1 0 01-.2 0v.1a.3.3 0 01-.1.2.3.3 0 00-.1 0l-.2.2-.2.1a.8.8 0 00-.1.1 1.3 1.3 0 01-.3.3l-.2.1a1.2 1.2 0 00-.2.2l-.2.2-.2.1v.1l-.1.1-.2.1-.1.1-.2.1c.1 0 0 .2 0 .2a.5.5 0 00-.3.1l-.1.1c-.2.1-.2.2 0 .1l-.1.1-.2.1-.2.2c.2-.2.2-.1 0 0-.2.2-.3.2 0 0 0-.1 0-.1 0 0a.5.5 0 00-.3.2h-.1-.1l-.1.1c.1 0 0 0 0 0l-.2.2c0-.1 0-.1 0 0l-.2.2v.1l-.2.2-.1.1-.2.1-.1.2H33a.2.2 0 010 .1v.1a.1.1 0 01-.1 0l-.1.1-.2.1c0 .1 0 0 0 0l-.1.1-.1.1h-.1c0 .1 0 .2-.1.1a.7.7 0 01-.3.2v.1h-.1l-.2.2h-.1s-.1.1-.1 0h.1a.8.8 0 00-.2.1h-.1v.1H31 31c-.1.1 0 0 0 0a.4.4 0 000-.1h.2v-.1H31v.2a.3.3 0 00-.1 0v.1h-.1l-.1.1h-.1V34l.1-.1a1 1 0 00-.1.1s-.1 0 0 0h-.2v0c-.1 0-.1 0 0 0-.1 0-.1 0 0 0v-.1l.1-.2c-.1.1-.1.1 0 .1h-.1a.9.9 0 01-.1 0h.1a.3.3 0 00.1-.1.8.8 0 00-.2 0 .1.1 0 01.1-.1.3.3 0 00.2 0h-.1a.2.2 0 010-.2c.1 0 0 0 0 0v-.1a.3.3 0 01.1-.1.4.4 0 00.1-.1V33a.3.3 0 01.1 0v-.1a.4.4 0 00.1-.1v-.1h.1l.2-.2a.4.4 0 01.1-.1l.1-.1a.2.2 0 01.1 0v-.1l.2-.1a1.4 1.4 0 010-.1.6.6 0 01.2-.2h.2c0-.1 0 0 0 0a.3.3 0 000-.1h.2l.2-.2.1-.2h.1l.1-.1a.5.5 0 01.2-.1l.2-.2-.3.2-.1.1a1.1 1.1 0 01.5-.5c0 .1-.1.2 0 .2a.8.8 0 00.2-.2v-.2s.2 0 .4-.3l.4-.3c-.1.1-.1.1 0 .1V30c0-.1.1 0 .1 0a2.6 2.6 0 01-.2.2c-.1 0 0 .1 0 0a1.5 1.5 0 00.3-.3 1.2 1.2 0 00.2 0v-.2c-.1.1-.1 0 0 0 0 0 .1-.1 0-.1l.3-.2a1.6 1.6 0 00.1-.1.6.6 0 00.1-.1l.1-.1a.9.9 0 01.2-.2l.2-.1c0-.1 0 0 .1 0a1.5 1.5 0 00.3-.4.6.6 0 00.2-.2h.1V28l.2-.1a.3.3 0 00.1-.1l.2-.1v-.1l.3-.2.2-.3.3-.2a3 3 0 01.3-.2 1.8 1.8 0 01.4-.3l.2-.1h.1a1.7 1.7 0 00.2-.3l.3-.2a2.5 2.5 0 01.2-.2v-.1h.1l.2-.2a1 1 0 00.2-.1h-.1v-.1.1l.1-.2c.2 0 .2-.1.1-.1h.1a.3.3 0 01.2-.2.1.1 0 00.1 0 .4.4 0 000-.2.8.8 0 01.3-.1.4.4 0 01.1-.1v-.1a.7.7 0 01.2-.1V24l.2-.1a2 2 0 01.2-.2.2.2 0 00.1 0v-.1l.3-.2.1-.1h.1l.1-.1.1-.1c.1 0 .1-.1.1 0a.3.3 0 010-.1.4.4 0 00.2 0s0-.1 0 0h.1v-.1h.1v-.1h.2v-.1c0 .1 0 .1 0 0a.2.2 0 01.1 0l.1-.1c.1 0 0 0 0 0h.1s.1-.1 0 0h.1a.3.3 0 010-.1h.1a.3.3 0 01.1-.1 1 1 0 000 .1h.1a.1.1 0 010 .1c-.1 0-.1 0 0 0-.1 0 0 0 0 0s.1 0 0 0a1.2 1.2 0 010 .1.8.8 0 00.1 0c.1-.2.1-.1 0 0 0 0 .1 0 0 0l-.1.2c.1 0 .1 0 0 0a1 1 0 01.2-.2z"/><path class="cls-3" d="M43.5 39.8c0-.1 0-.1 0 0v-.1-.5a1.5 1.5 0 000 .1v.4h-.1v-.3-.1a1.2 1.2 0 000-.2v.5-.1-.1h-.1a.5.5 0 010-.2V39a1 1 0 000-.1v.1a.4.4 0 010-.1 1.5 1.5 0 000-.3l-.1.2c-.1 0 0 0 0-.2a1 1 0 000-.3.3.3 0 00-.1 0v-.1-.1-.1-.2-.2a1.5 1.5 0 00-.1-.3V37a1.5 1.5 0 000-.3 1.5 1.5 0 010-.4.2.2 0 000-.2v-.2a1.2 1.2 0 010-.1.3.3 0 000-.3 1.1 1.1 0 010-.2.4.4 0 000-.2 3.2 3.2 0 010-.5 2.2 2.2 0 000-.4V34a5.7 5.7 0 010-.9V33v-.2-.4-1-.2a.9.9 0 000-.4v-.2a1.7 1.7 0 000-.4 2.7 2.7 0 010-.4v-.2a2 2 0 010-.5V29v.2a1 1 0 010 .4V30a1.8 1.8 0 01-.1-.4v-1l.1-.2v.5a4.1 4.1 0 000-.6 2.8 2.8 0 000-.5v-1-1.2.2c0 .2 0 .2 0 0v-.4c0-.2 0 0 0 0v.7c0 .3.1.3.1 0a8 8 0 000-1v-.4-.3c-.1.4-.1.4-.1 0v-.3l-.1.3v-.6a1.5 1.5 0 000-.3v-.1a1.2 1.2 0 000-.2l-.2-.2-.2-.4a2.1 2.1 0 00-.2-.4c-.1-.1-.1-.1 0-.1a2.4 2.4 0 00-.3-.2l-.3-.3-.6-.4-.1-.1a1.9 1.9 0 00-.3-.3 2.1 2.1 0 01-.3-.3c.1.1 0 0-.1 0a3.4 3.4 0 01-.3-.3l-.2-.1a1.8 1.8 0 00-.1-.2h-.1l-.2-.2-.2-.2-.5-.4h-.1l-.7-.5a3.8 3.8 0 01-.6-.6l-.7-.6a9.6 9.6 0 01-.8-.7l-.4-.3v-.2h-.1l-.5-.4a1.1 1.1 0 00-.3-.1 2.7 2.7 0 01-.5-.4l-.4-.4a1.1 1.1 0 01-.4-.3l-.5-.4a4 4 0 00-.3-.3 1.2 1.2 0 01.1.2 1.8 1.8 0 01-.3-.3 1.6 1.6 0 00.2.2l.2.1-.6-.4-.3-.2-.1-.1-.1-.1a1.4 1.4 0 01-.3-.3 1.9 1.9 0 00-.5-.4 4.8 4.8 0 01-.5-.3l-.1-.2.3.3-.1-.1-.5-.4v-.1a.3.3 0 00-.1 0 3.2 3.2 0 01-.4-.4l-.3-.2a.8.8 0 01-.1-.1 1 1 0 01-.2-.1 3.4 3.4 0 01-.4-.3l-.3-.2c-.2-.1-.2-.1-.1 0l-.2-.2-.4-.2a.6.6 0 01-.1 0L27 10H27h-.2a2 2 0 00-.3-.2h-.3a1 1 0 01.2 0 .5.5 0 00-.2 0 3 3 0 00-.5 0h-.1v-.1h-.2-.5c-.6.1-.6.1-.2 0a.9.9 0 00-.4 0l-.3.2-.4.2a3 3 0 01-.3.1 1.2 1.2 0 00-.4.2c-.3.2-.3.2-.1 0l-.2.1c-.1.1-.1.1-.1 0l-.8.6-.3.3h-.2a2.2 2.2 0 01-.4.5 2 2 0 00-.5.3L18 14c-.7.5 0 .1-.5.5l-2.4 1.8-.5.3-.2.2h-.1l-.3.2.1-.1a6.2 6.2 0 00.8-.6 1 1 0 00-.2.1l-.7.5-.8.7-.2.1-.2.2-.1.1h.1l.2-.2.5-.3.3-.2-.2.1-.5.4a.9.9 0 01-.1.1 1 1 0 01-.5.5c-.2 0-.3 0-.3.2a1.8 1.8 0 01-.3.2l-.2.2a1 1 0 01-.2.1l-.4.3a9624.5 9624.5 0 01-1.2 1l-.3.1-.3.3a1.8 1.8 0 00-.5.4l-.2.2a3 3 0 00-.3.2c-.2.1-.3.2-.1 0h.1a1 1 0 00-.3.2l-.3.1-.2.1h.2l-.2.1-.2.3-.1.1a2.3 2.3 0 00-.2.3V22.5l.2-.2a1.3 1.3 0 00-.1.2l-.1.1v-.2c.2 0 .2-.1 0 0-.1.3-.1.3 0 0 .2-.1.1-.1 0 0l-.3.5v.4c-.1.3-.1.3 0 0 0-.3.1-.4 0-.1v.5l-.1.1a1.7 1.7 0 010 .4 3.5 3.5 0 000 1v.9a2.7 2.7 0 000 .3v.1a1.3 1.3 0 010-.4 1 1 0 010 .2v.2a1.3 1.3 0 000 .4 2.7 2.7 0 010 1.1v.2a6 6 0 010 .6V29.5a3.5 3.5 0 010-.4 3.9 3.9 0 010 .4v.8a.8.8 0 010-.2c0-.4 0-.4 0 0v1a3 3 0 000 .4 1.2 1.2 0 010 .2v.4c0 .2 0 .2 0 0v1.3a.8.8 0 010 .2v.4a1.2 1.2 0 010 .1V34.4a.4.4 0 000 .1 1.2 1.2 0 010 .3.6.6 0 000 .2 2 2 0 010 .3.8.8 0 010 .1 2.4 2.4 0 000 .5v.5a.4.4 0 010 .2v-.1a.6.6 0 010 .1v.6a2.6 2.6 0 010 .3.3.3 0 000 .1V38.3a.9.9 0 010 .2 1.4 1.4 0 000 .2s0 .1 0 0h-.1a.3.3 0 000 .2v.4a1.1 1.1 0 000 .3v-.1c-.1-.1-.1-.1 0 0h-.1v.5-.2.1a.6.6 0 010 .2V40v.2h-.1a.9.9 0 010 .2v.4-.3V40.8a.3.3 0 010-.1s0-.1 0 0v.1l-.1-.1v-.1.1a.4.4 0 010-.2v.1a.5.5 0 010-.1v-.1.2c0 .2 0 .2 0 0l-.1-.2v.4-.4.3c0-.1 0 0 0 0v-.2a1.2 1.2 0 010-.2v.4c0 .3 0 .3-.1 0 0-.2 0 0 0 0 0 .1 0 .2 0 0v-.4c0 .1 0 0 0 0a.4.4 0 00-.1.1V40.7 40a.5.5 0 00-.1.2v.1a.8.8 0 010-.2s0-.1 0 0a1.6 1.6 0 010 .2V40v.2l-.1.3a.4.4 0 010-.2c0-.3 0-.2 0 0v-.2-.2c0-.1 0-.2 0 0l-.2-.7c0 .2 0 0 0 0a.2.2 0 010-.1V39a4.8 4.8 0 010-.6v-.9a.8.8 0 000-.2v-.1-.1-.1l-.1-.1a.1.1 0 010-.1c0-.1 0-.1 0 0v-.2s0-.1 0 0v-.1a.6.6 0 010-.2v-.1a.6.6 0 010-.2v-.2-.2-.1a2 2 0 010-.3.8.8 0 010-.2v-.3a.4.4 0 010-.1.9.9 0 010-.2v-.1-.1a2.5 2.5 0 010-.5 3 3 0 000-.4V32v-1a2 2 0 010-.6c0-.2 0-.2 0 0V30a4.3 4.3 0 000-.8v-.4-.7a3.1 3.1 0 010-.4 2.2 2.2 0 000-.6 3.3 3.3 0 010-.6 1.6 1.6 0 000-.4v-.8-1.2a1.4 1.4 0 010-.5 3.2 3.2 0 000-.5 2.5 2.5 0 01.4-1 4.4 4.4 0 01.2-.3 2.4 2.4 0 00.2-.2 2.2 2.2 0 01.3-.4l.2-.1a3.1 3.1 0 01.3-.3l.5-.4.8-.6.7-.5a1.8 1.8 0 01.3-.2l.1-.2a2.1 2.1 0 01.4-.2l.8-.7a3 3 0 01.4-.3 2.2 2.2 0 01.5-.4h.2l.2-.2.1-.2c.2 0 .5-.3.3-.2l.2-.1.5-.4a2.6 2.6 0 01.3-.3 11 11 0 001-.7 6 6 0 01.8-.7l.6-.4.2-.1a7.9 7.9 0 00.8-.6l.3-.3.2-.1.1-.1c-.1.2-.1.2.2-.1l.3-.3a6.5 6.5 0 00.7-.5 18 18 0 011.9-1.4l.1-.1a4.2 4.2 0 01.7-.6l1-.6a.9.9 0 01.1 0 1.5 1.5 0 01.2-.2L23 9l.2-.1a2 2 0 01.5-.2l1-.1c-.2 0 .3-.2 1.4 0a2.8 2.8 0 01.9.1 6 6 0 011.3.5c-.2-.1 0 0 0 0a4.3 4.3 0 01.4.2l.6.4a5.6 5.6 0 01.7.6l.1.1.2.2a3.5 3.5 0 01.3.2l.2.2.3.2.5.4a10.7 10.7 0 001 1 2.9 2.9 0 00.4.2 4 4 0 01.5.3l.1.2.4.2.1.2a.5.5 0 01.2.1l.1.1a.5.5 0 01.2.2l.4.4a1.8 1.8 0 01.3.2 2.5 2.5 0 00.4.3h.1a2.4 2.4 0 00.5.5l.6.5.2.2.1.1.4.3.6.5.6.5a2.8 2.8 0 01.4.3l.3.3a.7.7 0 00.1 0 1.4 1.4 0 01.4.3 3 3 0 01.6.6l.4.2.3.3a6.2 6.2 0 01.6.5l.2.1.3.3.4.4a2.2 2.2 0 01.7.7l.3.4v.1l.2.3v.2c0-.2 0-.2.2.2a1.6 1.6 0 010 .5v.2a.5.5 0 010 .3v.7a2.1 2.1 0 000 .6V25.8c0-.3.1-.3.1.3v1c0 .1 0 .2 0 0 0-.5 0-.4 0 0v.1c0-.4 0-.4-.1 0a2.5 2.5 0 000 .8v.2c0 .2 0 .2 0 0v1c-.1-.3-.1-.3 0 .2a2.1 2.1 0 000 .6V31.1a2.2 2.2 0 010 .6v.4a2.2 2.2 0 010 .4 3.9 3.9 0 010 .5V34.5a.5.5 0 010 .2.8.8 0 000 .2v1a1 1 0 010 .2.5.5 0 000 .1.4.4 0 000 .1V37a3.5 3.5 0 01-.1.5v.4-.1a.5.5 0 000-.3V38.3H44v.6l-.1-.1v-.1a.8.8 0 000-.3v-.1a.6.6 0 000-.2v.1a.8.8 0 000 .1v.5a.6.6 0 000 .2v.5h-.1v-.2l-.1-.2v.4a.3.3 0 010 .1 1.5 1.5 0 000 .2l-.1-.1v.1zM6.2 30.8z"/><path class="cls-3" d="M43.5 46.9c-.1 0-.1 0 0 0h-.1l-.1-.1-.1-.1v.1a.9.9 0 01.1.1l-.1-.1a.4.4 0 000-.1 2.4 2.4 0 000 .2s0-.1 0 0l-.2-.1a.3.3 0 000-.2v.1a.1.1 0 01-.1 0 .5.5 0 00-.1-.1h-.1-.2v-.1a.2.2 0 00-.1 0v-.1h-.1c0-.1-.1-.1 0 0l-.1-.1a.5.5 0 00-.1-.1H42V46a.5.5 0 00-.2-.1.5.5 0 01-.2-.2l-.1-.1a.4.4 0 01-.1-.1.1.1 0 00-.1-.1.4.4 0 01-.1-.1v-.1a1.1 1.1 0 01-.3-.2l-.1-.2a.9.9 0 01-.1 0 2 2 0 01-.4-.4c-.1-.1-.1-.1 0-.1l-.2-.1-.1-.2-.1-.2-.3-.2-.1-.1-.2-.2a.6.6 0 00-.2-.2 1 1 0 01-.1-.2l-.1-.1-.2-.2h-.1l.2.2v.1l.2.2-.2-.2-.3-.4v-.1l.1.1a1.5 1.5 0 00-.2-.2 1 1 0 00-.2-.2 5.8 5.8 0 01-.5-.4l-.4-.5c.1.1.1.1 0 0a1.5 1.5 0 000-.1c-.1-.1 0-.1 0 0l.2.2c.1.1.2.1 0 0a2.8 2.8 0 00-.3-.4l-.3-.2c-.2-.1-.2-.1-.1 0s0 .1 0 0a1 1 0 00-.2-.1v.1l-.2-.2a1.5 1.5 0 00-.1-.2 1.1 1.1 0 00-.2-.1l-.1-.1a1.6 1.6 0 01-.3-.3l-.2-.3a7.7 7.7 0 00-.7-.7l-.2-.2-.1-.2h-.1a.8.8 0 01-.2-.2v-.1a.6.6 0 00-.1-.1l-.2-.2-.1-.1a2.5 2.5 0 00-.3-.3l-.4-.3-.3-.4-.4-.4a3.3 3.3 0 01-.4-.5l-.2-.2v-.1a5 5 0 00-.5-.4l-.2-.2-.3-.3a.4.4 0 01-.2-.2v-.1H30c.1.1 0 .1-.1 0h-.1a.5.5 0 01-.2 0 .7.7 0 00-.4 0 1.7 1.7 0 01-.3 0h-.2H29h-.4a.1.1 0 00-.1 0 1.1 1.1 0 01-.3 0 1.4 1.4 0 01-.2 0 .3.3 0 01-.1 0h-.1a1.3 1.3 0 01-.4 0H27a1 1 0 01-.3 0 .3.3 0 01-.1 0h-.1-.1-.1a1.3 1.3 0 00-.3 0h-.2a.5.5 0 01.2 0 .2.2 0 00-.2 0H25c-.3 0-.3 0 0 0a.4.4 0 00-.3 0 .9.9 0 01-.3 0h-.2a.7.7 0 01-.3 0 1 1 0 00-.2 0h-.1-.2l-.6-.1h-.3a.8.8 0 01-.4 0 .7.7 0 00-.4 0H19.4l-.7.7-.3.2-.1.1-.3.2.1-.1a2.2 2.2 0 00.4-.5 2.7 2.7 0 00-.5.5l-.4.4v.1a1.2 1.2 0 01-.1.2h-.1.2l.2-.3.2-.1-.3.3h-.1v.1a.4.4 0 01-.3.3l-.2.1-.1.2v.1a8.7 8.7 0 01-.8.8l-.2.2-.2.1-.1.2a.7.7 0 00-.3.3v.1a1 1 0 00-.2.2c-.1 0-.2.1-.1 0v-.1l-.1.2h-.2l-.1.2s0-.1.1 0c0-.1 0 0 0 0l-.2.2-.1.2-.2.2v-.2a.8.8 0 00.2-.1h-.1l-.1.2v-.2c.2 0 .2 0 0 0-.1.2-.1.2 0 0 .1-.1.1-.1 0 0l-.3.3a1 1 0 01-.2.2c-.1.2-.1.2 0 0 .2-.2.3-.2.2 0l-.3.3c-.2 0-.3.2-.3.2l-.4.4-.3.4a1 1 0 00-.2.2l.2-.2v.1l-.1.1-.2.2-.6.4a2.1 2.1 0 01-.3.3v.1l-.2.2c-.2.2-.1.2 0 0a1.2 1.2 0 01.2 0 1.4 1.4 0 01-.2.1l-.3.3c.2-.3.2-.3 0-.1l-.2.1v.1l-.1.1v.1a1 1 0 00-.3.2l-.2.2c-.1 0-.1 0 0 0l-.5.5a.3.3 0 01-.1.1.8.8 0 01-.1.1h.1c.1 0 .1 0 0 0l-.2.1v.1h-.1a.1.1 0 010 .1h-.1l-.1.2H9a.7.7 0 01-.1.2h-.1l-.2.2a2.4 2.4 0 01-.1.2h-.1a.2.2 0 010 .1l-.3.3-.1.1h-.1v.1l-.2.2h-.1a.3.3 0 010 .1.5.5 0 00-.2 0c0 .1 0 .1 0 0a.1.1 0 00-.1.1.4.4 0 01-.1.1H7a.4.4 0 00-.1.2c0-.1 0-.1 0 0h-.1l-.1.1c0-.1 0-.1 0 0 0-.1 0-.1 0 0-.1 0 0 0 0 0h-.1c0 .1-.1.2 0 0h-.1a.3.3 0 010 .1h-.1v.1l-.1.1V47h-.1a.2.2 0 010-.1c.1 0 .1 0 0 0 .1-.1 0 0 0 0v-.1.2-.1a.6.6 0 000-.1c0 .1-.1.1 0 0a.4.4 0 010-.1 1 1 0 00-.1.2c-.1 0-.1 0 0 0 0-.1 0 0 0 0s-.1 0 0-.1l.1-.2-.1.1a1 1 0 01-.1 0c0 .1 0 0 0 0l.1-.1a.4.4 0 010-.1c-.1.1-.1.2 0 0 .2-.2 0-.1 0 0-.1 0-.2.1-.2 0h.1c.1-.1 0 0 0 0-.1 0 0 0 0-.1h.1v-.1l.2-.4c0 .1 0 0 0 0l.1-.2a1.7 1.7 0 01.2-.1v-.1a.6.6 0 01.1-.1l.3-.3a.3.3 0 000-.1c.1 0 0 0 0 0a.1.1 0 01.1 0l.1-.1v-.1h.1v-.1l.2-.2a1 1 0 01.2-.1q0-.1 0 0v-.2H8a.7.7 0 01.1 0V44l.1-.1.1-.1a.2.2 0 01.1 0v-.1a.4.4 0 00.1 0v-.1l.3-.2a1 1 0 00.1-.2l.2-.1V43l.3-.3.3-.3h.1v-.2a.7.7 0 01.3-.2c.1-.1.1-.1 0 0l.2-.2.3-.3.2-.2a3.1 3.1 0 00.2-.3 1.1 1.1 0 01.2-.2l.3-.2a1.1 1.1 0 01.2-.3l.2-.1.3-.4.5-.5a.5.5 0 01.2-.2l.2-.2a2 2 0 01.3-.4 1.7 1.7 0 00.2-.2 1.3 1.3 0 01.2-.2 1.2 1.2 0 01.2-.3 3.1 3.1 0 00.3-.2l.4-.4.4-.4.1-.1.1-.1.2-.2a3.9 3.9 0 00.4-.4 1 1 0 01.2-.3l.3-.3a1 1 0 00.2-.1v-.1l.2-.2a2.1 2.1 0 00.3-.3 1 1 0 01.2-.2 3.9 3.9 0 00.5-.5l.4-.5.5-.4.1-.2a10.2 10.2 0 001 0h.4.4a2.3 2.3 0 00.5 0 6.4 6.4 0 011.4.1h.6a5.8 5.8 0 00.6 0h.5c.2 0 .2 0 0 0a1 1 0 01.3 0 1.9 1.9 0 00.6 0h2.2a1.6 1.6 0 00.4 0h.3a1.9 1.9 0 01.2 0h.2a1.2 1.2 0 01.3 0h.1a1.7 1.7 0 01.3 0h.3a3.8 3.8 0 00.5 0 3 3 0 01.4 0 1 1 0 00.2 0h.7l.1.2.3.3a1 1 0 01.1 0v.1l.2.1v.1a2 2 0 00.3.3l.1.2a.9.9 0 00.2.1l.1.1a.8.8 0 00.3.3l.3.3v.2h.2l.2.3.3.3.3.3a1 1 0 01.2.2 2.2 2.2 0 01.2.2.5.5 0 01.2.2l.4.4.1.2a1.8 1.8 0 00.2.1 2.2 2.2 0 01.4.4s.1.1 0 0l.2.2a2.5 2.5 0 00.2.3l.4.3.1.2.2.1.1.1s0-.1.1 0a.5.5 0 01.1.3c0-.1 0 0 .1 0a.2.2 0 010 .2h.2l.2.2a.7.7 0 00.3.3l.1.2c.2.1.3.2.1 0l.2.1.1.2.2.3s.1 0 0 0c-.1-.2-.1-.2 0 0 .3.2.4.3 0 0-.1-.1-.1-.1 0 0a.9.9 0 00.4.4v.1c.1.1 0 .1 0 0v.1l.2.2v-.1c-.1-.1 0 0 0 0l.2.2c-.1 0-.1 0 0 .1l.4.3.4.3h.1l.2.3.2.2.2.2a1.4 1.4 0 01.2.2v.1h.1v.2h.2c0 .1 0 .1 0 0v.1h.1l.1.2h.1a.3.3 0 00.1.2s.1.1.1 0v.1h.1l.2.3v.1a.2.2 0 00.1 0l.3.3v.1a1.2 1.2 0 01.2.3h.1c0 .1.1.3 0 .2l-.1-.1.1.1.1.1.1.1a3.4 3.4 0 00.1.2v.1c.1 0 0 0 0 0l-.1-.1a.6.6 0 01-.1-.1.3.3 0 00-.1 0h.1l.2.2.1.1v.1h.1v.1c0 .1 0 .1 0 0h-.2a1.7 1.7 0 00.2.1.5.5 0 000 .2v.1zM10.4 42.7z"/></g><path d="M35.2 13.5C32.5 20.8 26 26.4 20.7 26s-7.6-6.4-5.3-13.3S23.7.3 29.4.3s8.6 5.9 5.8 13.2z" fill="#35d07f"/></g></g></svg>