<svg version="1.0" xmlns="http://www.w3.org/2000/svg" viewBox="0 0 256 256"><path fill="#35D07F" d="M145 3c-26 6-51 31-62 61-3 8-6 25-6 34 0 6 3 19 7 25 11 19 35 21 60 6a112 112 0 0043-53l7-28c0-10-2-20-5-28-3-6-11-13-18-16s-18-3-26-1z"/><path fill="#2e3338" d="M184 80c-1 3 0 3 1 4l9 8 11 9 12 10c9 7 12 11 9 12l-9 7a288 288 0 01-25 22l-9 8-6 5-5 4-5 4-3 3h-59l-6-5a136 136 0 00-19-15 277 277 0 00-25-19l-16-13-3-2 2-2 5-4a277 277 0 0035-29l1-5c0-3 0-3-12 6a2478 2478 0 01-35 29l-3 4v113l1 16 2 2c3 2 4 2 100 2 101 0 101 0 102-4l2-64v-63l-2-4-6-8-38-31-5-3-1 3zM45 136l3 2 15 13a115 115 0 0113 10l4 3 17 13c1 0-2 4-22 25a3454 3454 0 01-31 31l-8 8v-24l-1-56v-32l4 3 5 4zm184-3v108l-11-11-47-50a651 651 0 0159-49l-1 2zm-81 50h15l4 4a769 769 0 0145 47l13 13H39l28-27a667 667 0 0032-34l5-4h14l30 1z"/></svg>