<svg version="1.0" xmlns="http://www.w3.org/2000/svg" viewBox="0 0 256 256"><path fill="#35D07F" d="M144.9 2.5c-26.2 6.6-50.8 31-61.9 61.3-3.1 8.5-6 24.9-6 33.7 0 6.9 3.3 19.4 6.6 25 11.2 19.2 35.3 21.8 60.2 6.5 14.8-9.2 31.4-28.1 38.3-43.8 1.6-3.7 3.6-7.9 4.4-9.3 2.7-4.8 6.5-20.1 7.1-28.3.7-9.2-1.2-20.1-4.7-27.3-3.2-6.7-10.8-13.7-17.6-16.3-7.3-2.8-18.7-3.5-26.4-1.5z"/><path fill="#2e3338" d="M184.3 80c-1 2.5-.8 3.1 1.1 4.3 1.2.8 5.2 4.3 9 7.8s8.5 7.5 10.5 8.9c2.1 1.4 7.6 5.8 12.4 9.8 8.4 7.2 11.3 11.2 8.7 12-.7.3-4.8 3.7-9.2 7.6-4.3 3.9-9.8 8.6-12.1 10.4-2.3 1.9-8 6.9-12.6 11.3-4.7 4.3-8.8 7.9-9.2 7.9-.5 0-3 2-5.6 4.5-2.6 2.4-5.1 4.5-5.4 4.5-.4 0-2.4 1.6-4.5 3.5l-3.9 3.5h-58.8l-5.7-5.3c-3.1-2.8-8.3-7-11.5-9.2-3.2-2.2-6.6-4.7-7.4-5.5-3.2-3-21.7-17-22.5-17-.5 0-1.8-1-3-2.3-3.1-3.1-12.4-10.9-15.7-13l-2.7-1.8 2.1-2.2c1.2-1.3 3.4-3 4.9-4 1.6-1 7.6-5.6 13.4-10.2 5.9-4.7 11.1-8.5 11.6-8.5s.7-.4.4-.8c-.3-.5 1.7-2.6 4.4-4.6 2.8-2.1 5-4.4 5-5.1 0-.7.3-2.7.7-4.5.6-3.3.5-3.2-11.3 5.9-6.5 5.1-16.7 12.9-22.6 17.4-5.9 4.5-11.7 9.9-13.1 11.9l-2.4 3.7-.4 48.3c-.3 26.6-.2 55.7.1 64.7l.5 16.4 2.7 2c2.7 2 3.6 2.1 100.2 1.9 100.3-.1 100.6-.1 102-3.9.3-.6.8-29.5 1.2-64.2l.6-63-2.5-4.3c-1.4-2.4-4-5.7-5.9-7.4-3.4-3.3-30.8-25.5-38.2-31.1l-4.2-3.2-1.1 2.9zM44.5 136c.6 0 2 1 3.1 2.2 2.1 2.5 5.2 4.9 15.4 12.5 3.6 2.6 7.1 5.3 7.8 6 .8.8 3 2.6 5 4.1 2.1 1.5 3.9 2.9 4.2 3.2.9 1 14.7 11.5 16.6 12.6 1.5.9-1.2 4.1-21.2 25a3453.6 3453.6 0 01-30.9 31.8l-8 7.9-.6-24.4c-.3-13.4-.7-38.7-.8-56.2l-.1-31.9 4.2 3.6c2.3 2 4.7 3.6 5.3 3.6zm184.8-2.6c-.3 1.2-.5 25.7-.5 54.6l.1 52.5-10.9-11c-30.7-31.1-47.5-48.7-47.5-49.8 0-1 7.6-8.4 16-15.6 11.9-10.2 21.2-18 23.6-19.7 1.5-1.1 5.2-4.1 8.1-6.6 9.3-8.1 10.3-8.7 11-7.5.3.5.4 2 .1 3.1zM147.9 183h14.6l4 3.8c2.2 2.1 9.6 9.8 16.4 17 6.8 7.3 13 13.2 13.7 13.2.7 0 1.8.9 2.5 2.1.6 1.2 6.6 7.7 13.2 14.5 6.7 6.9 12.3 12.8 12.5 13.2.1.4-41.6.7-92.8.7-51.1 0-93 0-93-.1 0 0 12.4-12.4 27.5-27.6 15.1-15.2 27.5-28 27.5-28.5 0-.4 2.1-2.7 4.7-5.1l4.8-4.3 14.9.5c8.2.4 21.5.6 29.5.6z"/></svg>