<svg xmlns="http://www.w3.org/2000/svg" viewBox="0 0 100 125"><g transform="translate(0 -952.4)"><path d="M34.3 954.6a31.6 31.6 0 00-22.8 9.3 31.6 31.6 0 000 44.6 31.6 31.6 0 0044.6 0 31.6 31.6 0 000-44.6 31.6 31.6 0 00-21.8-9.3zm0 4.7a26.8 26.8 0 0118.5 8 26.8 26.8 0 010 37.9 26.8 26.8 0 01-38 0 26.8 26.8 0 010-38 26.8 26.8 0 0119.4-7.9z"/><rect transform="rotate(-45)" ry="3.6" y="748.9" x="-677" height="39.5" width="7.2"/><rect transform="rotate(-45)" ry="3.6" y="768.1" x="-681.6" height="37.5" width="16.3"/><rect transform="scale(1 -1) rotate(45)" ry="2.4" y="-733.9" x="-675.8" height="25.3" width="4.8"/><rect width="4.8" height="25.3" x="718.9" y="-686.1" ry="2.4" transform="scale(1 -1) rotate(-45)"/></g></svg>