<svg xmlns="http://www.w3.org/2000/svg" viewBox="0 0 150 150"><g fill="#2e3338"><path d="M147.7 128.9h.2a1.6 1.6 0 01-.3 0h-.4l-1 .1a4.6 4.6 0 01-.6 0h-.2a2.7 2.7 0 00.5 0h.5l-.8.1s-.2 0 0 0h-.1.8-1c-1 0 0 .1.5.1h1.2a3 3 0 01-.7 0 1.4 1.4 0 00-.3 0h.5l-.8.1h-.7-.2c-.5 0-.6 0 0 0 .7.1-1.7.3-2.5.3a2 2 0 00-.4 0h-.1.4a1.6 1.6 0 01-.5 0 2.3 2.3 0 00-.4 0c-.6 0-.5 0 0 .1h-1.7a4.1 4.1 0 01-1.1 0c-.8 0-1 0-.4.1h-2.2c.6 0 0 .1 0 .1H133a.7.7 0 01-.3 0h-.2l-.4.1h-.3-.1a6.2 6.2 0 01-.9 0h-.4a3.8 3.8 0 01-.5 0h-1.3.1H128.1 127.8a.7.7 0 00-.2 0h-.4a4.7 4.7 0 01-1.3 0h-.6l-1 .1a5.1 5.1 0 01-.8 0 4.4 4.4 0 00-.6 0h-1.1a5.9 5.9 0 01-.8 0 2.6 2.6 0 00-.4 0h-2.3l-1.6.1h-.5.2a1.3 1.3 0 01-.2 0h-.1a18.3 18.3 0 00-1.2 0h-.8a1.5 1.5 0 01-.3 0h-.6a3.2 3.2 0 01-.6 0H110a2.3 2.3 0 01-.3 0h-1.3l-.6.1a13.4 13.4 0 00-1.8 0h-5.3l-2.2.1h-5.1a1.5 1.5 0 00-.3.1 7.9 7.9 0 01-1.2 0h-.4a16 16 0 01-2.3 0h-1.1l-1.2.1h-2.5a2.4 2.4 0 01-1.2-.3c-.3 0-.3 0 .2.1h-.1A2.5 2.5 0 0182 129a2.5 2.5 0 010-1.8 2.9 2.9 0 01.4-.6l.1-.3 1.3-1.2a4.2 4.2 0 01.6-.5l.8-.7.1-.2a1.3 1.3 0 00.1-.1l.4-.4.5-.5c-.4.4-.5.3.4-.4l.6-.5a1.6 1.6 0 01.3-.2l.5-.5a2.7 2.7 0 01.4-.3l.6-.6v-.1l1-.9a14.4 14.4 0 001.3-1.2l.9-.8c.8-.8 1.2-1.2.3-.5l.5-.5.8-.7 1.4-1.2c.4-.4.4-.5 0 0-1 .8-.9.7 0 0l.4-.4c-.9.9-.9.9 0 .2a13.7 13.7 0 001.8-1.7v-.1l.4-.3c.5-.5.4-.4 0 .1a5.1 5.1 0 00.5-.4l.8-.8-.4.4c-.5.4 0 0 .4-.5.9-.9 1.3-1.3.9-.8s-.4.5.4-.3a11.2 11.2 0 001.3-1.4l.5-.5 1.3-1.4.5-.4a13 13 0 011.2-1.1l1-.9.8-.8a6.7 6.7 0 01.4-.4 1.6 1.6 0 00.2-.3l-.2.2a3.5 3.5 0 01.5-.5l.3-.2-.2.2.2-.2.5-.4a4.4 4.4 0 00.4-.5l.5-.4-.2.2.4-.4.2-.2c.1 0 0 0 0 0l.5-.4a5 5 0 01.9-.8 1.9 1.9 0 00.4-.4 5.2 5.2 0 01.6-.5 2.9 2.9 0 00.4-.4l.7-.7.4-.3a1 1 0 01.1-.1 7.3 7.3 0 00.8-.7l1.4-1.3.4-.3a1.5 1.5 0 01.2-.2c.3-.3.7-.6.4-.2l-.3.2-.1.2-.5.5a7.5 7.5 0 00.8-.8l.7-.7a1 1 0 01.3-.2l.3-.3c.1-.1.1-.1 0 0l.6-.5.1-.1.5-.4a.7.7 0 00.2-.1l.1-.1-.2.2-.1.2-.2.1-.7.7a4.6 4.6 0 01-.4.4 3.9 3.9 0 00-.3.3l-.3.3a1.2 1.2 0 00.3-.3l.2-.2a2 2 0 00.3-.2l.4-.4.1-.2.6-.5.2-.2.3-.3.4-.4.4-.3.2-.2a1.5 1.5 0 01.3-.2l.3-.2c-.1 0-.2.2 0 .1l-.4.5-.7.6 1-.9a2.5 2.5 0 01.3-.3s.2-.1 0 0a5.5 5.5 0 00.5-.3l.2-.2c-.4.3-.3.2-.3.4l.3-.2c.5-.4.5-.4.1 0-.4.3-.4.3 0 0l-.2.2-.1.2-1.4 1.2.5-.4.3-.3.6-.5c.2 0 .2 0 0 .1l-.7.6c-.1.1-.1.1 0 0l-.3.3-.4.3a.8.8 0 00.2 0l.3-.4.8-.6-.2.2-.2.1-.2.2h.1a4.1 4.1 0 01-.6.6l-.2.3-.5.4.1-.1.2-.1.2-.2h.1a5.6 5.6 0 01-.5.5h-.1l-.5.5c-.2.2 0 0 0 0l.4-.3-.3.4a1.5 1.5 0 00-.2.1q0 .1 0 0h.2a3 3 0 00-.3.2l-.4.5a1.3 1.3 0 00.1-.1l-.3.3-.4.4v-.1c.3-.2 0 .1-.3.4l-.2.2-.3.3-.1.1-.2.2v.1l-.3.2-.5.6-.3.2v.1h-.1l-.4.4a9 9 0 00-.7.8 10.5 10.5 0 01-1.1 1 2 2 0 00-.4.4 1.8 1.8 0 01-.3.2l-.2.3-.4.3a1.5 1.5 0 01-.1.1 3.3 3.3 0 00-.4.4l-.5.4-.8.9-1 1a2 2 0 00-.3.2l-.7.6c-.5.5.2-.2 0 0l-.5.4-.5.4-1.3 1.1c.1 0 .2 0-.3.4a5.6 5.6 0 00-.9.8l-.4.4a2.1 2.1 0 00-.3.2l-.6.6-.9.8-.4.5a2.3 2.3 0 01-.3.2l-.6.6-.4.4.4-.4 1.6-1.4.4-.4.7-.7-.5.5-2 2-.8.7a1.5 1.5 0 01-.3.2 4.5 4.5 0 00-.4.3l.8-.8-1.2 1.1-.6.7a2.2 2.2 0 00-.3.3l-2.2 2-2.5 2.4-.2.1.4-.4c.5-.4.5-.4.1-.2l-1 1 .1-.1 1.4-1.3c.6-.6.7-.7-.1 0l-2.1 2-1 .9c-.8.8-.8 1-.4.5 1-.8 1-.8 0 0l-.5.5c.4-.2-.2.3-.2.3v.1l-1.4 1.2-.8.8-.2.2-.5.4-.6.6-1.3 1.3-1.3 1.2-.5.3c.4-.4.4-.4 0 0l-.6.6a2.9 2.9 0 00-.5.5.5.5 0 000 .4.4.4 0 00.1.2.3.3 0 00.3.2.8.8 0 00.1 0h.7a.7.7 0 01.1 0h4.2 2.2a1 1 0 00.2 0h.2c.3 0 .5-.1.2-.1h4.2a1.9 1.9 0 01.5 0H107.2a7 7 0 00.8-.1 1.9 1.9 0 01.5 0h3.1v-.1a6.3 6.3 0 011.2 0 .9.9 0 00.2 0H116.1h-.5a7.4 7.4 0 011-.1h-.1-.7-.5a13.2 13.2 0 011.9-.1h1.1 1a7.5 7.5 0 011 0h.5a5.3 5.3 0 01.6 0l.9-.1h2.2-1.1 1.9a4.5 4.5 0 00.6 0h1.8a2.1 2.1 0 00.4 0l1-.1h1.7a.9.9 0 00.2 0h.3a4.7 4.7 0 00.5 0h.4-.7.2l.4-.1h3.2a2 2 0 00.5 0h2.2 2c-.3.1.1.2.5.2h.3a.6.6 0 00.2 0h.7l.2-.1H141.6l-.1.1a.9.9 0 01.2 0 .9.9 0 00.1 0 1.5 1.5 0 00.2 0h.1a1.3 1.3 0 01.2 0H143.4h-.4c-.5 0-.4 0 0 0h.2a4.7 4.7 0 01.4 0h-.1a5.2 5.2 0 01.7 0 2.2 2.2 0 01.5 0H144.2v.1h.2a.7.7 0 01.2 0 6.1 6.1 0 01.7 0h-.6.2-.2c-.1 0-.1 0 0 0h.9a4.1 4.1 0 01-.4 0H147.8a1.3 1.3 0 00-.2 0h-.8l-.1.1h.8-.6.9a2.6 2.6 0 01-.5 0H148.1h-.1l-.3.1h.3a1.5 1.5 0 00-.2 0 1 1 0 01-.3 0h-.3.4-.4l-.2.1h.2H147h.2a1.3 1.3 0 00-.2 0l-.5.1h.8H146.5h.3-.3 1.4H146.5h1c-.5 0-.2 0 0 0l-1 .1h-.6 1.7c1 0 .9 0-.4.1-.5 0 0 0 0 0 .7 0 .8 0 0 .1H146 147.8zM24.5 96h-.1a.8.8 0 01.2 0h.3l.7-.1a2.3 2.3 0 01.4 0h.2a1.4 1.4 0 00-.4 0h-.4a4.2 4.2 0 01.6 0s.2 0 0-.1h-.5.7c.7 0 0-.1-.4 0-.5 0-.9 0-.8-.1a1.5 1.5 0 01.5 0h.9l.2-.1c.3 0 .4 0 0 0-.5 0 1.2-.3 1.8-.2a1 1 0 00.3 0h-.6l.4-.1a.8.8 0 01.3 0 1.2 1.2 0 00.3 0c.4 0 .3 0 0 0h.7l.5-.1h1.1l.2-.1a11.6 11.6 0 001.3 0c-.4 0 0 0 0 0l1-.1H35a.4.4 0 01.2 0h.5c.1 0 .3 0 .2-.1a3.2 3.2 0 01.7 0h.2a2 2 0 01.5 0 4.3 4.3 0 00.5 0h.4-.1a1.7 1.7 0 00.2 0h.4c.1 0 0 0 0 0a.3.3 0 00.2 0h2.3a2.6 2.6 0 01.6 0 2.2 2.2 0 00.5 0 10.9 10.9 0 011.3-.1 1.3 1.3 0 00.3 0h1.6a10.7 10.7 0 011.1-.1h.5-.2a.7.7 0 01.2 0H48.5a.8.8 0 01.2 0h.4a1.6 1.6 0 01.5 0h1.9a1.2 1.2 0 01.2 0 7.5 7.5 0 00.9 0l.5-.1a6.8 6.8 0 001.3 0h5.3l1.7-.1a8.3 8.3 0 011 0h.9a.8.8 0 00.3-.1 4 4 0 01.8 0h.3a8.2 8.2 0 011.6 0h.1a5.3 5.3 0 00.5 0 .4.4 0 000-.1l.1-.1a19 19 0 011.4-1.8l.5-.6.5-.7.3-.3a11 11 0 011.1-1.4l.5-.7a.7.7 0 00.2-.2l.2-.3.2-.4.3-.3.4-.5a.8.8 0 01.1-.2c-.2.4 0 0 .3-.3a1.4 1.4 0 01.3-.3l.4-.5c-.3.2.2-.5.5-.8a7.3 7.3 0 00.8-1l.6-.7.2-.3c-.6.6-.6.6.2-.4l.5-.6.9-1c.2-.3.2-.4 0 0-.6.7-.6.6 0 0l.2-.3c-.5.7-.5.7 0 0a7 7 0 001.1-1.3v-.1l.3-.2c.3-.4.3-.3 0 0a2.6 2.6 0 00.3-.3l.5-.6-.3.3.3-.4.5-.6.3-.3a5.8 5.8 0 00.8-1.1l.3-.4c.2-.3 1-1.5.7-1.2l.3-.3a6.6 6.6 0 01.8-1l.5-.7a6.2 6.2 0 01.5-.6 3.5 3.5 0 01.3-.4.9.9 0 000-.2h.1l-.2.2v-.1a1.8 1.8 0 01.4-.3 1.7 1.7 0 00.1-.2v.1-.1l.3-.4a2.2 2.2 0 00.3-.3l.3-.4-.1.2.2-.4.1-.1.3-.3.6-.7.2-.3a2.7 2.7 0 01.4-.4 1.5 1.5 0 00.2-.3l.5-.6a3 3 0 01.3-.4 3.8 3.8 0 00.5-.5v-.1l.8-1 .3-.3a.8.8 0 01.1-.1c.2-.3.5-.5.3-.2l-.2.2v.1l-.3.4a3.8 3.8 0 00.4-.6l.5-.6a.5.5 0 01.2-.2l.1-.2h.1l.3-.4.4-.4.1-.1.1-.1-.1.2v.1l-.2.2-.4.5a2.4 2.4 0 01-.2.3 2 2 0 00-.2.3l-.2.2a.6.6 0 00.2-.2l.1-.2a1 1 0 00.2-.2l.3-.3.3-.5.2-.2.2-.3.2-.3.2-.2v-.1h.2l.2-.3.2-.2c0 .1-.2.3 0 .2l-.3.3-.3.6.5-.8a1.3 1.3 0 01.2-.2s.1-.1 0 0a2.8 2.8 0 00.3-.3l.2-.2c-.2.3-.2.3-.1.4l.2-.2c.3-.3.3-.3 0 0-.2.3-.2.3 0 0 .1 0 0 0 0 .2l-.1.1-.8 1 .3-.3.2-.2.3-.4c.1-.1.1-.1 0 0l-.4.5c0 .1 0 .1 0 0l-.2.3-.2.2.8-.8-.2.2-.1.2a2.1 2.1 0 01-.3.5l-.2.2a4.7 4.7 0 00-.3.4l.1-.1.1-.1.2-.1a2.9 2.9 0 01-.3.4l-.3.4c-.1.1 0 0 0 0l.2-.2-.1.2a.8.8 0 00-.1.2l.1-.1a1.5 1.5 0 00-.1.2 3.8 3.8 0 01-.3.4.7.7 0 000-.1c.1 0 .1 0 0 0l-.1.3-.3.3c.2-.2 0 0-.1.3H92v.2l-.2.2h-.1c-.2.3-.3.5-.1.3l-.1.2-.4.4v.1l-.1.2H91a2.7 2.7 0 00-.2.3 4.6 4.6 0 00-.5.7 5.4 5.4 0 01-.6.9 1 1 0 00-.2.2 1 1 0 01-.2.2l-.2.2a3.1 3.1 0 01-.2.3.8.8 0 010 .1 1.7 1.7 0 00-.3.3l-.3.4-.5.7a8.4 8.4 0 01-.6.8 1 1 0 00-.2.1l-.4.6c-.3.4.1-.2 0 0l-.3.3-.3.3-.8 1v-.1l-.2.4a2.9 2.9 0 00-.5.6l-.3.3a1 1 0 00-.2.2l-.3.5a8 8 0 01-.6.7l-.3.3a1.2 1.2 0 01-.1.2l-.4.5-.2.4.3-.3 1-1.2.2-.4.4-.5-.3.4-1.2 1.7a4.8 4.8 0 01-.7.7 2.4 2.4 0 00-.3.3c.6-.7.8-1.1.5-.8l-.7 1a8.2 8.2 0 00-.5.8l-1.4 1.7-1.4 1.9c-.2.2-.2.1-.2 0l.3-.2c.3-.4.3-.4 0-.2l-.6.8c-.3.3-.1.1 0-.1l.9-1c.3-.5.3-.6-.1 0L77 84.1l-.5.7-.3.5c.6-.7.6-.7 0 0l-.2.4-.2.3-.8 1-.5.6-.1.2-.3.4-.4.5-.8 1-.8 1-.3.3c.3-.4.3-.4 0 0a20.4 20.4 0 00-1.2 1.8l-.2.3a8 8 0 00-.6.7 6 6 0 01-.5.6l-.2.2-.5.6-.3.5a.7.7 0 01-.1.1l-.3.4h-1.7H65a3.3 3.3 0 00-.4 0h-.2c-.2 0-.3.1-.1.1h-5.6l-2.1.1h-1.2l-.4-.1h-1.5a3.6 3.6 0 00-.5.1 8.2 8.2 0 01-1.3.1h-1.3a3.2 3.2 0 01-.8 0 .5.5 0 00-.2 0H48l-1 .1a3.1 3.1 0 01.5 0 3.8 3.8 0 01-.7 0c-.1 0-.1 0 0 0a4.7 4.7 0 00.5 0h.4a6.8 6.8 0 01-1.4.1h-.8-.7a3.8 3.8 0 01-.8 0h-.2-.3a1.7 1.7 0 00-.2 0 5.2 5.2 0 00-.6.1h-1.6.8a3.1 3.1 0 00-.4 0h-.2a5.7 5.7 0 01-.8 0 2.3 2.3 0 00-.4 0l-.7.1a4.4 4.4 0 01-.6 0 1 1 0 00-.3 0h-1.9a.4.4 0 00-.1 0 1.7 1.7 0 01-.3 0 2.4 2.4 0 00-.3 0h-.3.5l-.2.1a2.4 2.4 0 01-.2 0h-2.3a1 1 0 00-.4 0h-.2-.2-1.1-.4a4.7 4.7 0 01-.4 0H30c.3-.1 0-.2-.3-.1H28.6 29a.4.4 0 00-.2-.1.8.8 0 00-.1 0h-.1a.7.7 0 01-.1 0h-.2a4.3 4.3 0 00-.4 0h-.2.2c.4 0 .4 0 0 0-.1 0-.1 0 0 0a2.4 2.4 0 01-.4 0h.2a2.7 2.7 0 01-.6 0 1.1 1.1 0 01-.3 0 1.7 1.7 0 01.1 0h.3-.2a3.1 3.1 0 01-.6 0h.4-.1l.1-.1c.1 0 .1 0 0 0H26h.3-.5c.1 0 .1 0 0 0a4.7 4.7 0 01-.5 0h-1a.7.7 0 00.2 0h.6H24.7h.5H24.4h.1a1.3 1.3 0 01.3 0c0-.1.2-.1-.2-.1h-.3.2-.2a.8.8 0 00.1 0l.2-.1h.3-.3a2.8 2.8 0 00.3 0h.1a2 2 0 01.2-.1h-.4a.7.7 0 00.2 0h.3H24.7h.7-.2l.2-.1h-1 .9-.7c.4 0 .2 0 0 0h.8v-.1h.3H24.8c.4 0 0 0 0 0-.5 0-.6-.1 0-.2h1-.2-1.1zM69 36.4v-.2a1.1 1.1 0 01.2.2l.1.4.2.4.2.4a3.3 3.3 0 01.1.3l.1.3a2.2 2.2 0 00-.1-.5l-.2-.4a6 6 0 01.3.6s0 .2 0 0c0 .2.2.4 0 .1l-.2-.6.3.7c.4.8.1 0 0-.4l-.4-.9a2.4 2.4 0 01.2.6l.1.2-.1-.4.3.6.2.6c.2.5.3.5.1.1-.2-.5.8 1.2 1 1.8a1.4 1.4 0 00.2.3l-.2-.6.2.4a1.1 1.1 0 01.1.3 1.6 1.6 0 00.2.3c.2.4.2.4 0 0l.4.8.3.5.4.8c.3.6.3.7.2.3l.1.3A13.4 13.4 0 0074 45c-.2-.5.1 0 .1 0l.5 1 .2.2.2.4c.1 0 .1 0 0 0l.3-.2a1 1 0 01.2 0l.2-.2a2.7 2.7 0 01.5-.2 6 6 0 00.5-.4l.4-.2H77h.2l.2-.3h.2c.1-.1 0 0 0 0a.5.5 0 00.2-.1l.2-.2h.1c.5-.5 1-.8.9-.6l.4-.3.7-.5a3.7 3.7 0 01.6-.3 3.1 3.1 0 00.4-.3 15.2 15.2 0 011.4-.9 1.9 1.9 0 00.3-.2l.6-.4 1-.6 1.1-.7.4-.3-.1.1a1 1 0 01.1 0l.1-.1.8-.5.4-.3.2-.1a1 1 0 01.2-.1l.4-.3a2.3 2.3 0 01.5-.3l.5-.3.8-.5.5-.3a1.6 1.6 0 01.3-.2l1.3-.9a9.6 9.6 0 001.3-.8l1.6-1a1.6 1.6 0 00.4-.4 2 2 0 00.3-1 2.1 2.1 0 00-.4-1.3L93.9 30 93 29l-.6-.8a1 1 0 00-.3-.2 5.7 5.7 0 01-.7-.8l-.1-.2a14.6 14.6 0 01-1.4-1.4l-.7-.7-.7-.6-1.5-1.3c-.4-.4-.8-.6-.4-.4L86 22l-.8-.5-.4-.3-1.7-1-.8-.5H82a.9.9 0 00-.1-.1l-.5-.2c-.4-.2-.4-.1-.5-.1l-.4-.2a6.7 6.7 0 01-.8-.3l-.5-.2a3 3 0 01-.4 0l-.7-.2c.4.2-.6 0-1 0a4 4 0 00-1.4 0l-.2.1a5.1 5.1 0 00-.7.2l-.4.1c1-.1.9-.2-.4.3l-.8.3c.4-.2-.5 0-1.2.7-.4.2-.4.3 0 0a2.3 2.3 0 01.6-.4l-.6.4-1 .8.6-.6c.8-.6.8-.6 0-.1a4.2 4.2 0 00-1.3 1.3 2.7 2.7 0 00-.3.3c-.3.4-.3.3 0 0a3.2 3.2 0 00-.3.3 8.6 8.6 0 00-.5.8l.3-.4-.3.5c-.3.8-.5 1.2-.4.7.2-.4.1-.4-.1.5a4 4 0 00-.4 1.4v.5 3.4a9.7 9.7 0 00.1 1l.2.9a4.4 4.4 0 010 .5 1 1 0 00.2.2v.1-.3a3 3 0 010 .6 2.2 2.2 0 00.1.2v-.1.2l.1.5a3 3 0 00.1.5l.2.5-.1-.2s.1.5.2.4v.2c0 .1 0 0 0 0a6.8 6.8 0 00.1.5 3.4 3.4 0 01.4 1 1.2 1.2 0 00.1.4 3.5 3.5 0 01.2.6 1.9 1.9 0 00.2.4l.3.8a4 4 0 01.2.6 4.3 4.3 0 00.3.8l.7 1.4.1.4a1 1 0 010 .2h.1c.2.3.3.7 0 .4v-.3l-.1-.2-.3-.4a5.3 5.3 0 00.4.7l.4.8a.8.8 0 01.1.3l.2.3c0 .1 0 .1 0 0l.2.6h.1l.2.6a.4.4 0 000 .2l.1.1-.2-.3-.1-.2-.4-.7a3.3 3.3 0 01-.2-.4 3.3 3.3 0 00-.2-.4l-.2-.2a.8.8 0 00.1.2l.1.3a1.5 1.5 0 00.2.2l.2.5h.1l.3.6.1.2.2.4.3.4.2.3V46.1a1.1 1.1 0 01.2.3c0-.1 0 0 0 0l.1.2s-.2-.2 0 0c0 .2-.1 0-.4-.4l-.4-.7.6 1a1.8 1.8 0 01.2.3s0 .1-.1 0a3.5 3.5 0 00.3.4v.2c-.1-.3-.1-.2-.2-.2v.3c.3.4.3.4 0 0-.2-.3-.2-.3 0 0l-.1-.2-.1-.1-.4-.5-.4-.8.2.5.2.3.3.6v-.1l-.4-.6c-.1-.2-.1-.2 0-.1l-.2-.3-.2-.3a3.7 3.7 0 00.2.4l.4.8-.1-.2-.1-.2-.2-.1a3 3 0 01-.4-.6l-.1-.2-.3-.5v.1l.1.2.1.2a4 4 0 01-.3-.5l-.3-.5c-.1-.3 0-.1 0 0l.1.3-.2-.3a1.1 1.1 0 000-.1q-.2-.1-.1 0v.1a2.2 2.2 0 00-.1-.2 5.3 5.3 0 01-.3-.5 1 1 0 000 .1l-.1-.3-.3-.5v.1l-.2-.4V43l-.1-.1-.2-.3v-.1c-.2-.3-.3-.5-.2-.2v-.1l-.2-.2-.3-.6-.1-.3V41l-.3-.4a8.3 8.3 0 00-.4-.9 6.6 6.6 0 01-.5-1.2 1.4 1.4 0 00-.2-.4 1.2 1.2 0 010-.3l-.2-.3-.2-.3a1.1 1.1 0 010-.2 2.8 2.8 0 00-.2-.5l-.1-.4-.4-1a9.6 9.6 0 01-.3-1.2 2 2 0 000-.3l-.2-.9c-.2-.5 0 .3 0 0l-.1-.5v-.6l-.2-1.4-.1-.5a6.6 6.6 0 000-1V28a1.7 1.7 0 000-.3v-.7a8.2 8.2 0 010-1l.2-.7a5.1 5.1 0 01.2-1 4.3 4.3 0 01.1-.6l-.1.5a18.2 18.2 0 00-.4 2 1.9 1.9 0 000 .5 5.9 5.9 0 000 .8l-.1-.5a10.2 10.2 0 01.4-2.7 6 6 0 01.3-.8 1.3 1.3 0 01.1-.3l.3-.5-.4 1 .6-1.4.5-1.1.5-.6a9.7 9.7 0 011.4-1.5 10.5 10.5 0 012.5-1.7c.4-.2.3 0 .3 0l-.5.1c-.6.3-.5.3-.1.2l1-.5c.5-.1.3 0 0 0a12.2 12.2 0 00-1.5.8 1.5 1.5 0 00-.5.3 4 4 0 00.6-.3 14.5 14.5 0 012.4-1 9.7 9.7 0 011.1-.3c1.1-.2 1.2-.2.7-.2-1.2.1-1.2 0 0 0l.6-.1h.4a10.9 10.9 0 011.7.1l.7.2h.5l.6.2.8.2a9.7 9.7 0 011.5.7l1.4.7.4.3c-.5-.2-.5-.2 0 0l2.3 1.4.4.3.8.7a6.1 6.1 0 01.7.6l.3.3a7.1 7.1 0 01.7.6l.4.4.4.4.2.2.4.4.2.2.4.4.7.7a4.8 4.8 0 00.4.4v.1l.2.1 1.3 1.6 1 1.2.3.4a12.1 12.1 0 011 1.4 3.6 3.6 0 01.4.9 3 3 0 010 .3 3.8 3.8 0 010 1.7 3.5 3.5 0 01-.7 1.5 3.6 3.6 0 01-1 .8l-.4.3c-.2 0-.2 0 0-.1l-.4.2h-.2v.1l-1.3.9a5 5 0 00-.5.3 11.4 11.4 0 01-1.2.9l-1.3.8a4.5 4.5 0 01-.9.6.6.6 0 00-.1 0l-1.4.9-.8.6a4.3 4.3 0 01.4-.3 5.3 5.3 0 01-.8.5c0 .1 0 .1.1 0l.5-.3.4-.3a9.5 9.5 0 01-1.3 1l-.8.5-.5.3-.3.1a5.4 5.4 0 01-.7.5l-.3.2-.3.1-.2.2-.6.4-1.2.8-.4.2.8-.5-.4.2-.2.2a8 8 0 01-.7.4 3.2 3.2 0 00-.4.3l-.7.5-.7.4a1.5 1.5 0 00-.2.2l-.8.4-1.1.8a.6.6 0 00-.2 0 2.6 2.6 0 01-.3.3H76a2.6 2.6 0 01-.4.3 1.8 1.8 0 01-.6 0 2.1 2.1 0 00.6 0 2 2 0 00.4-.2l-.3.2a1.6 1.6 0 01-.6.1 1.8 1.8 0 01-1.2-.3 4 4 0 01-.6-.8l-.3-.6-.5-.8a1.5 1.5 0 00-.1-.4l-.2-.2-.1-.3-.2-.3-.2-.4-.2-.4v-.2l-.2-.3v.1l-.2-.5-.2-.5-.1-.2c.2.2 0-.2-.1-.4l-.1-.3a.5.5 0 000-.1l-.3-.4v-.1l-.2-.2.2.2v.1a.6.6 0 010-.1.6.6 0 000-.2 1.1 1.1 0 00-.1-.1V41a1 1 0 01-.1-.1v-.2l-.3-.5-.1-.2.1.3c.3.4.2.3 0 0v-.1a3 3 0 01-.1-.4 1.6 1.6 0 000 .1 3.7 3.7 0 01-.2-.5 1.5 1.5 0 01-.2-.4v.1l.2.3v-.1l-.1-.2a4.2 4.2 0 01-.2-.5l.2.4V39v.1c0 .1 0 .1 0 0l-.2-.4v-.2l-.1-.1a3 3 0 01.2.3l-.2-.5a6.7 6.7 0 01-.3-.6v-.1l-.1-.3-.2-.4v-.2a1 1 0 000 .1l.3.7-.2-.4v-.2.2l.2.3-.1-.2v-.2l-.2-.4v.1a2.7 2.7 0 01.1.3s.1.2 0-.2v-.1l-.1-.2v-.1c0 .1 0 0 0 0l.1.3v-.3a1.1 1.1 0 000 .2.8.8 0 010 .2l.2.3-.1-.4.1.4.1.1V37a2.8 2.8 0 010 .3c.2.2.2.2 0-.2v-.2a1 1 0 000 .2l.2.3-.2-.4v-.3.3l.3.5-.1-.2a2.2 2.2 0 000 .2v-.3l-.4-.8.3.6.2.4-.3-.8c.1.4 0 .2 0 0l.3.7v.1l.2.4-.2-.5-.3-.8c-.3-.9-.2-.7.2.3.1.4 0 0 0 0-.2-.6-.2-.7 0-.1l.5 1.1c-.1-.4 0-.3 0-.2l-.1-.3-.1-.2-.3-.7zM64.3 133.9c.1.2 0 0 0 0v-.1l-.2-.2-.3-.6a1.9 1.9 0 01-.2-.3v-.2a1.4 1.4 0 000 .4l.2.3a3.3 3.3 0 01-.2-.5s-.1-.1 0 0c0 0-.2-.2-.1 0l.2.4-.3-.5.1.3c.3.4.4.8.3.7a1.2 1.2 0 01-.1-.4l-.1-.2c-.2-.3-.1-.1 0 .3l-.2-.5c0-.1-.2-.5-.2-.3v-.1c-.2-.3-.3-.3-.1 0l-1-1.3a.8.8 0 00-.1-.2l.2.4-.2-.2-.1-.3a1 1 0 00-.2-.2c-.1-.3-.1-.2 0 0l-.4-.5-.2-.3-.4-.6c-.2-.4-.4-.5-.2-.2l-.2-.1a9 9 0 00-.7-1v.1c.2.3 0 0 0 0l-.6-.6-.1-.2-.4-.4-.2-.1a.3.3 0 01-.1-.2c-.2-.1-.2-.1 0 0l-.3-.2-.1-.1-.5-.5-.1-.1a1.5 1.5 0 01-.3-.3 3.3 3.3 0 00-.3-.3l-.3-.2h.1a1.3 1.3 0 00-.1-.1l-.2-.1H56c-.1-.2 0-.2 0-.2h-.1l-.2-.2-.7-.5a3 3 0 00-.3-.2l-.5-.4a2 2 0 01-.4-.3 1.4 1.4 0 00-.3-.2 8.4 8.4 0 01-1-.6 1 1 0 00-.3-.1l-.5-.3-.7-.5a8.3 8.3 0 01-1-.4l-.2-.1a7.3 7.3 0 00-.7-.4l-.3-.1-.2-.1-.2-.1-.3-.1a1.3 1.3 0 01-.4-.2l-.4-.1-.6-.3a5.3 5.3 0 01-.7-.2 5.8 5.8 0 00-.8-.3h-.4a5.4 5.4 0 00-1-.3l-1.5-.4-.6-.2a1.8 1.8 0 00-.3 0l-1-.2-1.3-.1-1.5-.3a6.6 6.6 0 01-1 0H36a.7.7 0 00-.2 0 3.2 3.2 0 01-.8 0h-.3a8.6 8.6 0 01-1.4 0c0-.1 0-.1-.8 0h-.7a15.2 15.2 0 01-1.6.1h-.4-.7a7.2 7.2 0 00-.8.1h-.4a8.9 8.9 0 01-1.5.3h-.8a.5.5 0 00-.2.1h-.4l-.4.2h-.3a3 3 0 01-.7.2c.3-.1 0 0-.4 0a1.1 1.1 0 01-.4 0l-.5.2-.8.2a3.9 3.9 0 00-1.1.3l-.8.2c-.7.2-1 .4-.3.2s.7-.1-.4.2l-.7.2c.3-.2-.4 0-1 .3-.4.1-.5.2 0 0 .6-.3.6-.2 0 0-1.2.5-1.5.6-.4.1.7-.3.7-.3 0 0a5.5 5.5 0 00-1.4.5v.1h-.4c-.4.2-.3.2 0 0a1.8 1.8 0 00-.3.1l-.7.4.4-.2-.4.3-.7.3c.3-.3.3-.3-.3.1a4.3 4.3 0 00-.7.5c-.2 0-.3.2-.3.2l-.3.2-1 .8-.3.2a5 5 0 01-.8.7l-.6.5-.5.4a2.6 2.6 0 01-.3.3.7.7 0 00-.1.2l.1-.1a1.4 1.4 0 01-.3.3 1.3 1.3 0 00-.1.1l-.3.3a1.7 1.7 0 00-.3.3l-.3.3v-.2l-.1.3-.1.2a2 2 0 00-.3.2l-.4.6-.3.3a2 2 0 01-.2.4 1.1 1.1 0 00-.2.3l-.6.8a2.8 2.8 0 00-.4.6l-.5 1-.1.3a.6.6 0 01-.1.2c-.1.2-.3.5-.2.2v-.2l.1-.1a4 4 0 00.1-.4 3 3 0 00-.2.6l-.2.6-.1.2v.2c-.1.1-.1.1-.1 0l-.2.5-.2.5v.2-.3-.2l.2-.6a1.9 1.9 0 010-.3l.1-.3.1-.3a.5.5 0 000 .3c-.1.2-.2.3-.2.1a.8.8 0 000 .3l-.1.3a2 2 0 01-.2.6v.5l-.1.3-.1.3v.2a1 1 0 01-.1.2v.3l-.1-.2V134.5a7.9 7.9 0 00-.1.8 1 1 0 010 .3s0 .1 0 0a2.3 2.3 0 00-.1.4v.1c0-.3 0-.2-.2-.3v.3c-.1.3-.1.3 0 0 0-.3 0-.3-.1 0v-.2-.7l.1-.6v.4l-.1.2-.1.5c0 .2 0 .2 0 0v-.6c0-.1 0-.1 0 0l.1-.3v-.3a2.4 2.4 0 000 .4 3.8 3.8 0 00-.2.6V135.2v-.2a1.9 1.9 0 010-.5l.1-.2a4.2 4.2 0 00.1-.5v.2l-.1.1v.2h-.1a2.6 2.6 0 010-.5l.2-.5c0-.2 0 0 0 0l-.1.3v-.3a.7.7 0 000-.1q0-.1 0 0a1.4 1.4 0 000-.2 3.5 3.5 0 01.1-.4.6.6 0 000 .1v-.3l.2-.4v-.3l.1-.1.1-.3v-.1c.2-.3.2-.5 0-.2l.1-.1v-.2a5.5 5.5 0 01.3-.5v-.2l.1-.1a2.5 2.5 0 00.2-.3 4.3 4.3 0 00.3-.7 3.8 3.8 0 01.5-1 .9.9 0 00.2-.2.8.8 0 01.1-.2l.2-.2a2.9 2.9 0 01.2-.3 1.6 1.6 0 00.3-.4l.2-.3.6-.7a3.5 3.5 0 01.6-.7 1 1 0 00.2-.1l.4-.5c.4-.3 0 .1 0 0 .2 0 .3-.3.3-.3l.4-.2 1-.7H8l.2-.3a2.6 2.6 0 00.7-.5l.3-.2a7.4 7.4 0 00.6-.4 7 7 0 01.7-.5l.4-.2a1 1 0 01.2-.2l.5-.3.3-.2-.4.2-1.2.7-.3.3-.5.3.3-.3 1.6-1a4 4 0 01.9-.4 2.1 2.1 0 00.3-.2l-.7.5a11 11 0 001-.6 7.4 7.4 0 00.8-.5l.5-.2 1.3-.6a18.5 18.5 0 012.1-.8h.2l-.4.1c-.4.1-.4.1 0 .1l.8-.3c.4 0 .2 0 0 .1l-1.3.4c-.4.2-.5.3.1 0l1.9-.6.7-.3c.8-.2.9-.3.5-.2-.8.2-.8.2 0 0l.4-.1c-.3 0 .2-.1.2-.2l1.3-.2.7-.1h.2l.4-.2.6-.1a5.4 5.4 0 011.1-.2l1.2-.2h.4c-.4.1-.4.1 0 0a17.9 17.9 0 002-.4h.4a7 7 0 00.8 0 5.2 5.2 0 01.7 0H32.7l.4-.1h.2H36.7a12 12 0 011.3.1l.3.1 1.8.3h.2a11.5 11.5 0 012 .3c1 .3 1.5.4 1 .4l.4.1h.2l1.1.3a3.2 3.2 0 00.5 0 5.4 5.4 0 011.2.4l1.1.4a2.8 2.8 0 01.8.3l1.2.6.8.3a1.7 1.7 0 01-.3-.2 3.3 3.3 0 01.6.3 4.1 4.1 0 00-.4-.3l-.4-.1a6 6 0 011.2.5l.7.3.4.2.2.2a3.4 3.4 0 01.6.3l.2.2.2.1a1.5 1.5 0 00.2.1 4.7 4.7 0 00.5.3 4.3 4.3 0 011 .6l.2.2-.6-.4a2.8 2.8 0 00.3.2 1.2 1.2 0 00.1.1 5 5 0 01.6.5 2 2 0 00.3.2l.6.4a2.2 2.2 0 01.4.3 1 1 0 00.2.2l.6.5.8.7.1.1a1 1 0 01.2.2 2.1 2.1 0 00.2.2l.2.2-.2-.2-.1-.2v.1a2 2 0 01.3.2l1 1a2.8 2.8 0 01.4.6 1 1 0 00.2.2l.2.2v.2l.3.2.2.3c.3.2.3.2.2.3v.1l.2.2a4.1 4.1 0 01.2.3l.3.4c.1.3.2.3 0 .2l.2.3v.1l.1.1.2.3.1.1.1.2-.1-.2h-.1a.4.4 0 00.1.2l.1.1a.6.6 0 01.1.1v.1a3.8 3.8 0 00.3.4v.2-.2h-.1c-.2-.3-.2-.3 0 0a1.4 1.4 0 01.2.3v-.1l.2.4a1 1 0 01.1.3l-.2-.3v.1l.1.1a2.7 2.7 0 01.3.4l-.2-.3c-.1 0-.1 0 0 0l.1.3v.1l.1.1-.2-.2c.3.4.5.7.2.4a4 4 0 01.3.4v.1l.1.2a4.1 4.1 0 00.2.3v.2s0-.1 0 0a5.6 5.6 0 00-.3-.6l.1.3.1.2v-.2a1.4 1.4 0 00-.2-.2v.2h.1l.2.4v-.1a1.2 1.2 0 01-.2-.2v.2h.1v.2-.2.2a.7.7 0 000-.1l-.1-.2-.1-.2v.3a2.4 2.4 0 000-.3h-.1l-.1-.2c-.1-.1-.1-.1 0 .2l.1.1v-.1l-.2-.3.1.4.1.1-.1-.2-.2-.3.1.2v-.2.2l.3.6-.2-.4-.2-.3.2.5c-.1-.3 0 0 0 0l-.2-.5-.2-.3.1.4.3.5c.3.7.2.6-.2-.2 0-.3 0 0 0 0 .2.5.2.6 0 .1l-.4-.8c.1.3 0 .2 0 .1v.2l.2.2a5.7 5.7 0 01.2.6z"/><path d="M90.2 48.8l.3-.2a4.3 4.3 0 01-.4.3v.1l-.6.4-1.3 1.2-.6.5-.3.3a7.4 7.4 0 00.7-.6l.6-.5-1 .8c0 .1-.3.3 0 .1-.1.1-.5.4-.1.2l.5-.5.6-.4-1.2 1c-1.4 1-.1.1.6-.5l1.5-1.2a8.2 8.2 0 01-.9.7l-.3.3c-.9.7-.4.4.6-.4l-1 .9c-.5.2-1.3 1-1 .7l-.1.2c-.6.5-.8.6-.1.1l-3 2.8a5.5 5.5 0 00-.5.4H83l1-.8-.5.5a4.3 4.3 0 01-.6.5l-.5.4c-.7.6-.6.5-.1.2l-1.2 1-.8.7a11.2 11.2 0 01-1.5 1.2c-1 .8-1.2 1-.4.4l-.5.4-2.3 2c.8-.6 0 0 0 0L74 63.5H74l-.4.4-1.1.9-.4.4a2.6 2.6 0 01-.4.3l-.3.2a4.8 4.8 0 01-.5.5l-.4.3v.2l-.3.2v.1l.3.4a2.4 2.4 0 01.3.2c0 .2.5.6.8 1l.6.7-.2-.3.3.4.5.4.2.2c.2.3 0 .2 0 .2a1.7 1.7 0 00.3.2l.4.4a1 1 0 00.1.1 14.7 14.7 0 011.4 1.5l.8.7 1.1 1 1 1a9.1 9.1 0 00.8.6l2 1.8a2.5 2.5 0 01.3.2 8 8 0 00.5.4l1.2 1 1.7 1.3 2.2 1.5.7.4v.1l-.2-.2.2.2.2.1 1.5 1 .8.4.4.3.4.2.8.4 1 .5 2.6 1.2 1.2.5.5.2a14.2 14.2 0 001.9.5l1 .3 1.3.3 1.5.2a8.3 8.3 0 00.8 0l1.2.2h1.8l1.5-.1a6.8 6.8 0 00.7-.1l1.1-.2 1.2-.4a12.8 12.8 0 001.6-.6 11.3 11.3 0 001.6-.7 17.5 17.5 0 002-1.1 12.6 12.6 0 001.2-.9l.8-.6.9-.8.7-.7.7-.7v-.1l.3-.4 1.2-1.5a3 3 0 00.4-.5l.7-1.2.5-1 .4-1v-.2l.3-.5a6.7 6.7 0 00.3-1l.3-1.3v-.5a24.4 24.4 0 00.2-3.9v-1l-.2-1.9a28 28 0 00-.5-2.8l-.8-2.6-.3-.8a1.8 1.8 0 010-.4l-.7-1.7-.1-.3-.2-.3-.4-.8-.5-1-.4-.8-.5-1.2-.2-.5-.5-1a8 8 0 01-.4-.8l-.7-1.2h-.2l-1-1.8a28 28 0 00-1.6-2.4l-1.2-1.7-.5-.7c1 1.6 1 1.5-.7-.9l-1-1.5-1.8-2.4c-.6-.7-.7-.8 0 0 1.2 1.6 1 1.5-.1 0-2-2.4-2.5-3.2-.5-.7 1.3 1.5 1.3 1.5.2 0l-1.5-1.9-.3-.3-.1-.2a.4.4 0 00-.3 0 .5.5 0 00-.4 0 3.9 3.9 0 00-.3.2l-.2.1a1.4 1.4 0 01.2-.2l.2-.1a.6.6 0 01.2-.1c-.2 0 0-.2-.8.5l-1.4 1.2h.1l.6-.6-.8.7L104 38l-.8.6-1.7 1.5a4.1 4.1 0 00-.6.6h-.1l-.7.7a26.8 26.8 0 00-2.3 2.1l-.9.7-2.2 1.8-1.5 1.3-1.5 1.2-.8.7-.3.4a1 1 0 01-.1 0l.5-.3-.1.1a9.6 9.6 0 01-.9.7l-.4.3.3-.2-.4.3-.7.6-.9.7-.8.7.3-.3-.7.6-.3.3c-.1 0 0 0 0 0l-.8.6a13.6 13.6 0 01-1.5 1.3.8.8 0 00-.2.1l-.5.5-.7.5a2 2 0 01-.3.3 8 8 0 00-.7.6l-1.3 1-.6.5-.3.2-1.4 1.1v.1l-2.3 2h-.1l-.7.5-.2.2-.2.1c-.5.4-1 .9-.5.3a3.4 3.4 0 01.5-.4 1.2 1.2 0 00.2-.2l.8-.7-1.3 1.1-1.3 1.2a2.7 2.7 0 01-.4.4l-.5.4c-.2.2-.2.2-.1 0a10.7 10.7 0 00-.9.8l-.2.2c.3-.4 0 0-.9.6a.5.5 0 00-.1.2l-.1.1c-.1.3 0-.2.2-.3l.2-.2.2-.2.2-.1 1-1 .7-.6.6-.5.4-.5a3.3 3.3 0 00-.4.4c-.5.5-.6.6-.4.3l-.5.5-.7.6-.2.2-1 .8-.2.3a.8.8 0 00-.3.5 1.3 1.3 0 00.1.6l.4.8v.1l.2.3.2.6c0-.2 0 0 0 0l.3.5c-.2-.2-.3-.5-.2-.2l-.5-.8-.5-1a1.7 1.7 0 01-.2-.4 15.6 15.6 0 001 2 6.8 6.8 0 01.3.6s.2.3 0 0l.4 1 .2.3c-.3-.7-.3-.5-.5-.6l.2.6c.5.8.5.8.1.1-.4-.8-.5-.8-.1 0l-.2-.5-.2-.3-1.4-2.6.5 1 .3.6.5 1c.2.4.1.4 0 0l-.7-1.3c-.1-.3-.1-.3 0-.1a2.4 2.4 0 00-.3-.6l-.4-.7a2.4 2.4 0 00.1.3l.3.6.7 1.5-.2-.4-.1-.3-.3-.4v0a11.3 11.3 0 01-.6-1 2 2 0 01-.3-.8 2 2 0 01.4-1.4 1.7 1.7 0 00-.2.4l-.2.4a.8.8 0 000 .2 3 3 0 000 .4v.2a2 2 0 01-.1-.8 1.9 1.9 0 01.4-.9 1 1 0 01.1-.2l.9-.7c.3-.3 0-.1 0 0l-.7.5.6-.6.2-.2q.2-.2 0 0a1 1 0 01-.1 0l-.2.1.5-.4.8-.7-.2.2.1-.1.5-.5.7-.6-.1.1c-.4.3 0-.1.6-.7l.3-.2.6-.5.2-.2.3-.3.1-.1.4-.3 1-.9.4-.4.1-.1h.1l.6-.6 1.4-1.2 2-1.7a5.2 5.2 0 00.6-.5 4.9 4.9 0 01.4-.4l.5-.4.6-.5.2-.2a9 9 0 00.8-.6l.7-.6 1.5-1.3 1.8-1.5.5-.4 1.2-1c.9-.7-.3.3 0 0l.8-.6.9-.6 2.1-1.8h-.1l.7-.6a3.8 3.8 0 00.5-.4l1-.9.8-.5.5-.4 1-.8 1.5-1.3.8-.7.5-.4 1-1 .8-.6h-.1l-.6.6-2.8 2.3a6.4 6.4 0 00-.7.6l-1.2 1 .8-.7 3.6-3.1 1.3-1 .4-.3a.6.6 0 01.1-.1l.8-.6-1.6 1.4 2.2-1.8 1.1-1 .4-.4a.8.8 0 00.1-.1l.3-.3.3-.2.3-.2a2.3 2.3 0 01.4-.3 2.3 2.3 0 012.5.3 2.5 2.5 0 01.3.3l.5.6.6.8 3.4 4.5.2.3-.5-.8-.2-.2c0 .2.7 1 1.3 1.8.5.8.2.4-.2-.1l-1.8-2.5c-.8-1-1-1.2 0 .2l2.9 3.9 1.2 1.6.8 1c-1.1-1.7-1.1-1.7 0 0l.6 1c-.4-.8.4.5.4.4v.2l1.6 2.6 1 1.6.1.5.6 1 .7 1.2 1.2 2.8 1 2.8.3 1c-.3-1-.3-1 0 0a48 48 0 011.4 4.9l.1 1 .2 2a16.7 16.7 0 010 2l-.1.9v.4a9.9 9.9 0 01-.2 1.3l-.2 1.2-.3 1.1a5.7 5.7 0 01-.2.6l-.3 1.1-.2.5c.3-1 0 .2-.5 1l-.4.9-.5.8-.4.8-.2.3-.2.2-.2.3-.5.7-.9 1a14.1 14.1 0 01-1.3 1.4 24 24 0 01-2.5 2 3 3 0 01-.7.5 1.1 1.1 0 01-.2 0l-1.5 1-1.1.6a10.8 10.8 0 01-1.5.6l-.4.1a17.6 17.6 0 01-5.1 1.2c-3 .2-4.1 0-2.8 0a4.5 4.5 0 00-1-.1h-.5l-1.6-.2-1.4-.3-.9-.1-.4-.1a4.4 4.4 0 01-.8-.2l-2.1-.7-2.8-1.1a14 14 0 01-2-.9 2.4 2.4 0 00-.2-.2l-2.8-1.5-1.8-1 .8.4a4 4 0 01-.5-.2l-1-.7.2.1.4.4.5.2h.1l.7.5a4.4 4.4 0 01-.7-.4c-.5-.2-1.1-.7-2-1.3l-1.5-1-1-.8-.4-.3a15.2 15.2 0 01-1.4-1.1l-.5-.4-.5-.4-.3-.3-1.1-1L76 76l-.6-.7 1.4 1.3a1 1 0 01-.2-.1l-.5-.6-.3-.2-1.3-1.3-.7-.6-1.3-1.2-.1-.2-.9-.9-.4-.4-1.2-1.3-1-1.2-.3-.3a2.2 2.2 0 01-.3-.4 2.4 2.4 0 01-.2-.8 3 3 0 010-.6v-.3a2.3 2.3 0 01.4-.7 2.5 2.5 0 01.4-.5l.3-.3.5-.4-.5.4-.4.4V65l.2-.1v-.1l.6-.4 2.7-2.3 1.4-1.1a5.7 5.7 0 00.6-.5 2.8 2.8 0 01.5-.4 1.7 1.7 0 00.3-.3l.6-.5.6-.5.7-.6.3-.2.5-.4-.1.1.8-.7.9-.6.1-.1.3-.2c-.5.4.2 0 .6-.4l.4-.3a1.8 1.8 0 00.2-.2l.6-.6h.1l.2-.2.3-.3-.3.4h-.1l-.1.2a2.3 2.3 0 01.2-.2 2.3 2.3 0 00.3-.2l.2-.2.1-.1.2-.2.3-.2.8-.7.2-.1.2-.2-.1.1-.4.3v.1c-.6.5-.5.5 0 0l.2-.2.6-.5-.2.2 1-.8a6 6 0 01.5-.5h.1l-.3.2-.5.5c-.1 0 0 0 0 0l.2-.1H85l.3-.1a1.8 1.8 0 01.2-.2l.8-.7-.5.5h-.1l.2-.1-.1.1-.1.1c-.2.1-.2.1 0 0l.7-.6.2-.2.3-.2-.6.5.8-.7c0 .1 0 .1.2 0l.8-.8-.1.1.3-.3.4-.3.7-.6.4-.3-.3.2-1 1h-.1l.7-.5.1-.1.3-.2-.4.3-.5.4.4-.3.2-.2.6-.5-.6.5.4-.3.1-.1v.1l.4-.4h.1c-.2.1 0 0 0 0l-.4.3.3-.3-.2.2a2.9 2.9 0 01-.3.4l-.5.4.6-.5-.6.5-.2.2.2-.2-.4.4.3-.3.3-.2-.8.8.7-.6.3-.3-.4.4-.7.6.3-.3-.3.3.4-.4 1.2-1-.8.7-.7.6 1.2-1c-.6.6-.2.3 0 0l-1 1-.3.2.1-.1-.7.6.9-.7 1.2-1-.5.4c-.6.6.2 0 .2 0 .8-.7 1-.8 0 0L88 50.6c.6-.5.5-.4.3-.1l.5-.4.3-.3zM32.4 61.3V61.7l.1-.1a.7.7 0 010-.1v.2a.3.3 0 000 .1 2 2 0 00.1-.3v.1h.1v.2a.3.3 0 000 .2v-.1h.1v.1a.5.5 0 000 .2l.1-.1c.1 0 0 0 0 0s0 .1.1 0v.4h.1V62.8h.1a.4.4 0 000 .2.3.3 0 000 .1.5.5 0 000 .1.5.5 0 00.1.3.4.4 0 010 .3v.1a.4.4 0 010 .2.1.1 0 000 .1.3.3 0 010 .2v.1a1 1 0 010 .3v.3a.7.7 0 010 .1 1.7 1.7 0 010 .7c0 .1 0 .1 0 0v.7l-.1.5v.4c0 .1 0 0 0 0a.5.5 0 000 .3.8.8 0 010 .3V68.4l.1-.2v-.4V68.8l-.1-.3a1.2 1.2 0 000 .4v.3a4.7 4.7 0 010 .7V70.6a1.2 1.2 0 000 .3H33a3.9 3.9 0 010-.5c0-.2 0-.2-.1 0a2.3 2.3 0 000 .7l.1.3c0 .3.1.3.1.2 0-.3 0-.3 0 0a.8.8 0 000 .1l.2-.1v.4a1.2 1.2 0 000 .2v.1a.9.9 0 000 .2v.2a1.3 1.3 0 010 .4v.5c0-.1 0-.1 0 0a6.3 6.3 0 000 1V75.3a.6.6 0 010 .3v.1a.5.5 0 000 .2v.4a2 2 0 000 .4V78a4.8 4.8 0 010 .6 2.7 2.7 0 010 .7c-.1.4-.1.6-.2.4v.8l.1.4a3.7 3.7 0 010 .4.3.3 0 010 .3v.5a1.2 1.2 0 000 .2.5.5 0 010 .2h.1v-.2-.1V83a.4.4 0 010 .2.5.5 0 000 .5 1.4 1.4 0 010 .4V84v.1a3 3 0 010 .4v.1a1 1 0 010 .4 1.2 1.2 0 010 .3V86.2s0 .1 0 0v.2a.9.9 0 010 .3.2.2 0 010 .2s0 .1 0 0c0 .1 0 .1 0 0V87.1a1.1 1.1 0 000 .3 1.9 1.9 0 010 .2.4.4 0 010-.1h-.1v1.8c0 .4 0 .6.1.3a.6.6 0 010 .3.8.8 0 000 .3c0 .2 0 .2 0 0V90.6c-.2 0-.2.4-.2.7v.4c.1 0 .1.4 0 .4a.6.6 0 000 .4v1.8c0 .5.2 0 .2.4v2l-.1.5v.2-.1.1c-.1.1-.1.3-.2.2v-.1a1.8 1.8 0 000-.7 2.2 2.2 0 000 .8V98.3a1 1 0 010 .2v.2l.1-.2V98l.1-.3V98.4c.2.2.2.4.1.5 0 0-.1.2 0 .2v.5a7 7 0 010 1.2v.8a.5.5 0 000 .4s.1.2 0 .2a.9.9 0 000 .2v.3c-.1 0-.2 0-.2.2a1.3 1.3 0 000 .2l.1-.2v.2l.1.3v.1l.1.3v.1l-.1-.3a.7.7 0 000-.1 1.3 1.3 0 000 .1v0c0-.1-.1-.1-.1 0 0 .3 0 .3 0 0l-.1.1v.4a.9.9 0 010 .3c0 .3.1.3 0 0 0-.2.1-.4.1 0v.7h-.1v.7l.2.6a.8.8 0 000 .3c0 .1 0 .1 0 0v-.3.2c0 .1 0 0 0 0v.3l-.1.8-.1.1a1.7 1.7 0 010 .5 3 3 0 000 .4c0 .2.2.2.2 0a1 1 0 010-.2 1.1 1.1 0 010 .2 3.1 3.1 0 000 .4v0c0-.2 0-.2 0 0v.3.4a.9.9 0 000 .3v.1l-.1.2c0 .2 0 .2-.1 0a22.9 22.9 0 000 .9h.1a.3.3 0 010 .1.7.7 0 010 .2l.1-.1c0-.2 0-.2 0 0v.9a.6.6 0 010 .2.2.2 0 010 .1v.3a2 2 0 010 .3v.2a.2.2 0 010-.1.2.2 0 010 .1v1h-.1v.2a.5.5 0 000 .2h-.1a.1.1 0 000 .1c-.1 0-.1 0 0 0a.3.3 0 010 .2H33a.1.1 0 010 .1.3.3 0 000 .2c-.1-.2-.1-.1 0 0H33v.2c0-.1 0-.1 0 0 0-.1 0-.1 0 0v.1h-.1v.1a.3.3 0 010 .2.3.3 0 010 .1v-.1a.7.7 0 000 .1.3.3 0 00-.1 0 .3.3 0 000 .1h-.1a.6.6 0 010-.2v.1a.2.2 0 01-.1 0c0-.1 0-.1 0 0v-.1c0 .2 0 .2 0 0v.2-.1a.5.5 0 00-.1-.1v.1a.8.8 0 010-.1.3.3 0 010-.1h-.1a.8.8 0 000 .3v-.1c0 .1-.1.1-.1 0v-.2c-.1.1-.1.1 0 .1a.9.9 0 01-.1.2l-.1-.1a1.4 1.4 0 000-.2v-.1.1a.2.2 0 01-.1 0v-.1.1a1 1 0 010-.1c0-.2-.1 0 0 0l-.1.2v-.1c0-.1 0 0 0 0 0 .1-.1 0 0 0v-.2h-.1c0-.1 0-.1 0 0l-.2-.5c0 .2 0 0 0 0l-.1-.1v-.1a1.4 1.4 0 010-.3v-.1a.5.5 0 010-.2 3.1 3.1 0 010-.4.2.2 0 000-.2v-.1l-.1-.1v-.1-.1s0-.1 0 0v-.2-.1a.8.8 0 010-.2v-.2a.6.6 0 010-.2v-.2a1.1 1.1 0 010-.2v-.2-.1-.4a.9.9 0 000-.2 1.8 1.8 0 010-.2V110.5v-.8a.6.6 0 010-.4c0-.1 0-.1 0 0v-.3-.5-.3a2.5 2.5 0 000-.4.9.9 0 010-.3v-.4a1 1 0 010-.4v-.8a8.3 8.3 0 000-.9.4.4 0 010-.2v-.3a1.6 1.6 0 01-.1-.6 1.4 1.4 0 000-.4 1 1 0 010-.2v-.2a1 1 0 010-.3 2.5 2.5 0 000-.4v-.7a5.2 5.2 0 000-.5v-.4-.3a3.2 3.2 0 000-.7.8.8 0 010-.4V99 99a.8.8 0 000-.2v-.1-.3-.1a1.7 1.7 0 000-.4.8.8 0 010-.3 3.1 3.1 0 000-.8v-1.4a2.3 2.3 0 000-.4v-.5-.1-.2c0 .2 0 .2 0 0v-.4a1.8 1.8 0 000-.5 5.2 5.2 0 010-1.6v-.2-.5a4.7 4.7 0 000-.7V90v-.3-.2a.8.8 0 010-.3v-.6-.9-1.6a1.3 1.3 0 000-.4v-.4a1.5 1.5 0 010-.3 1.1 1.1 0 010-.2 1 1 0 010-.3v-.2a1.4 1.4 0 010-.2v-.4a3 3 0 000-.6 2.4 2.4 0 010-.4.8.8 0 000-.3.8.8 0 010-.4v-.1-.3a.8.8 0 010-.1v-.1-.2-.1a1.7 1.7 0 000-.4v-.3a.7.7 0 000-.3V80a.7.7 0 000-.4v-1.7a4.4 4.4 0 010-.6.8.8 0 010-.3 1.8 1.8 0 010-.3.4.4 0 010-.3.3.3 0 000-.1v-.5-.3a1.4 1.4 0 000-.3 1.8 1.8 0 010-.6c0-.1 0-.2 0 0v-.3a2 2 0 000-.5v-.5-.3-.2l-.1-.2c0 .2 0 .2 0 0a.4.4 0 010-.3V72a.1.1 0 01.1-.1v-.5a.6.6 0 000-.4v-.3-.1c-.1.2-.2.2-.2-.2v-.2c.1.1.2-.2.1-.4 0-.2 0-.2 0 0s0 .2 0 0v-.2c0 .3 0 .3.1 0a.7.7 0 000-.5V69c0-.2.1-.1.1 0v-.4-.3-.1-.4-.2l-.2-.5v-.1-.7-.2a1.1 1.1 0 010-.3v-.1a.4.4 0 010-.1v-.1-.1-.1s0-.1 0 0v-.1-.1-.1-.1-.1-.1a.2.2 0 000-.2c.1 0 .1-.2 0-.1 0-.1 0 0 0 0q.1 0 0-.2V64h.1v-.2a.1.1 0 000-.1v-.4l.1-.2a1 1 0 010-.3.7.7 0 010-.1s.1-.2.2-.1v0-.2a.7.7 0 010-.1V62l.1-.2c0-.1.1 0 0 0l.1.1v.2a.2.2 0 000 .2s0-.1 0 0a.2.2 0 000-.1v-.1-.2a.2.2 0 000-.2v-.2l.1-.1h.1c0-.1 0 0 0 0l.1.3a1.4 1.4 0 000-.3v-.1a.4.4 0 000-.1h.2c0-.1.1-.1.1 0zM32.5 109.6z"/></g><path d="M29 58.2C16.3 62.7 16 46.8 16.9 42.7c4.9.1 20.2 3.5 12.3 15.5zm-2.4 7c0 13.6-15.1 8.6-18.7 6.4 1.8-4.6 10.2-17.8 18.7-6.3zm10-6.5c-9.9-9.3 4.1-16.9 8.2-18 2 4.5 6 19.7-8.2 18z" fill="#35d07f"/><path d="M54.7 43h-.1a.4.4 0 01.1-.2l.2-.1.4-.3a1 1 0 01.2 0v-.2a.6.6 0 00-.2.1l-.2.1a1.9 1.9 0 01.3-.2s.2 0 0 0h.1a3.4 3.4 0 01-.4.2l.4-.3-.2.1-.5.2.3-.1h.1c.3-.2.1-.2-.2 0l.3-.2c.2 0 .4-.2.3-.2.3-.1.3-.2 0 0-.2 0 .7-.6 1-.8a.5.5 0 00.2-.1 3.8 3.8 0 01-.4.1l.2-.1.2-.1a.5.5 0 00.2-.1c.2-.2.2-.2 0 0-.1 0 0-.2.4-.3a3.2 3.2 0 00.2-.2l.5-.3c.3-.2.4-.2.1 0l.2-.2a5.2 5.2 0 00.7-.4c-.2 0 0 0 0 0l.5-.4a1 1 0 01.2 0l.3-.3s.2-.1.2 0a.2.2 0 01.1-.1c.2-.1.2-.1 0-.1l.3-.1s.2-.2 0-.1h.1a1.1 1.1 0 01.4-.2l.1-.1a.9.9 0 01.3-.1 1.9 1.9 0 00.3-.2l.2-.1.2-.2h.2l.2-.2.5-.3a5.3 5.3 0 00.7-.4l.3-.2a1 1 0 00.2-.1 4.8 4.8 0 01.8-.5 5 5 0 00.6-.3l.5-.3a4.8 4.8 0 01.7-.4l.2-.1a4.2 4.2 0 00.5-.3 2.6 2.6 0 01.2-.1l.2-.1.3-.2a.7.7 0 01.3-.2 7.4 7.4 0 00.7-.4 3 3 0 01.5-.2 3.3 3.3 0 00.5-.4l.3-.1a3 3 0 00.7-.5l1-.5.4-.2.2-.1.6-.4.9-.5 1-.6a3.7 3.7 0 01.5-.4l.6-.2.1-.2a1.8 1.8 0 01.5-.3 1.8 1.8 0 00.2 0 3.7 3.7 0 01.9-.6l.5-.3a5.2 5.2 0 00.5-.3 8.4 8.4 0 011-.6l.2-.1.5-.3a8.4 8.4 0 00.8-.4 5 5 0 011-.6l.4-.3h.1l.3-.2c.3-.2.3-.2.2-.3-.2.2-.2.2.3 0a1.7 1.7 0 01.5-.3l.3-.2a.6.6 0 01.2 0l.4-.3c-.3 0 .2-.3.5-.4a3.3 3.3 0 00.7-.4l.5-.3.2-.1c-.5.2-.5.2.3-.3l.4-.2c-.2.2.3 0 .8-.4.2-.1.3-.2 0 0-.5.3-.5.2 0 0l.2-.1c-.4.3-.4.3 0 0a3.1 3.1 0 001-.5V21h.3c.3-.2.3-.1 0 0a1.2 1.2 0 00.3 0l.4-.4-.2.1.2-.2.5-.2c-.2.2-.2.2.3-.1l.7-.5.3-.2c.2-.2 1-.7.7-.6l.2-.2a3 3 0 01.8-.3l.5-.3a2.8 2.8 0 01.4-.3 1.5 1.5 0 01.3-.2h.1v-.1h-.1a.8.8 0 01.3-.1.8.8 0 00.1 0 2.1 2.1 0 01.3-.2 1 1 0 00.3-.2l.2-.1s.2 0 .1-.1h.2a1.1 1.1 0 00.2-.2l.5-.3.3-.1.3-.2a.7.7 0 00.2 0 4.5 4.5 0 01.7-.5l.5-.2.7-.5h.3l.1-.1c.2-.1.4-.2.2 0h-.1l-.1.1a1.4 1.4 0 00-.2.2 1.7 1.7 0 00.4-.2l.4-.3.2-.1h.1c.1-.1.1-.1 0 0l.4-.2.3-.2h.2l-.1.1-.2.1a2.4 2.4 0 00-.3.2 1 1 0 01-.3.2.9.9 0 00-.2.1 1.8 1.8 0 01-.1.1.3.3 0 00.1 0l.2-.1a.5.5 0 00.1-.1l.3-.2.3-.2h.2a2 2 0 00.1-.2l.3-.1.2-.1h.1l.2-.2h.2c-.1 0-.2.1 0 0l-.3.3-.4.2.6-.3a.6.6 0 01.2-.1 1.3 1.3 0 00.2 0l.2-.2-.2.3h.2c.3-.2.3-.2 0 0-.2 0-.1.1 0 0 .1 0 0 0 0 0l-.1.2-.7.4.2-.2h.2l.3-.2c.1 0 .1 0 0 0l-.3.3c-.1 0-.1 0 0 0h-.3a2 2 0 00-.2.2 5.3 5.3 0 00.8-.3h-.2l-.1.2a1 1 0 01-.3.2l-.2.1a2 2 0 00-.2.2s.1-.1.1 0v-.1h.2a1.3 1.3 0 01-.3.2l-.3.1c-.1.1 0 0 0 0h.2a2 2 0 01-.1.1l-.1.1h.1a.7.7 0 00-.1.1 1.7 1.7 0 01-.3.2h-.1a2.6 2.6 0 00-.3.2c.2 0 0 0-.1.2h-.1a1.7 1.7 0 01-.2.1c-.2.2-.3.3-.1.2l-.2.1a2.9 2.9 0 00-.3.2 1 1 0 00-.1.1h-.1a1.2 1.2 0 00-.2.2 2 2 0 00-.4.3 2.4 2.4 0 01-.7.4.4.4 0 00-.2 0l-.1.2h-.2a1.4 1.4 0 01-.1.2.4.4 0 01-.1 0 .8.8 0 00-.3.2h-.2l-.5.4a3.7 3.7 0 01-.6.4 3.9 3.9 0 00-.5.3c-.3.1 0-.1 0 0a2.2 2.2 0 00-.3 0l-.3.2-.7.3-.2.2a1.3 1.3 0 00-.5.3l-.2.1a2.1 2.1 0 00-.5.3 3.6 3.6 0 01-.5.3l-.3.1a3 3 0 01-.5.3l-.2.2.3-.1.9-.5.2-.2.4-.2-.3.2a7.5 7.5 0 01-1.7 1h-.3l.5-.3a5.5 5.5 0 00-.7.5 3.7 3.7 0 00-.5.4l-1.2.7-1.5.8.2-.1c.3-.2.3-.2 0-.1l-.5.3c-.2.1-.1 0 0 0l.8-.5c.3-.2.3-.3 0 0a9.8 9.8 0 00-1.3.7l-.5.3c-.4.4-.5.4-.2.3.5-.3.5-.3 0 0l-.3.2c.3 0-.1 0-.1.1l-.8.5-.5.2-.3.3-.4.2a6 6 0 01-.7.4l-.8.4-.2.1c.2-.1.2-.1 0 0a9.2 9.2 0 00-1.2.9l-.2.2a3.6 3.6 0 00-.5.2 2.7 2.7 0 01-.5.2l-.2.1a2.5 2.5 0 01-.4.3l-.3.2a2 2 0 00-.3.1 1.8 1.8 0 01-.2.1l-.2.2h-.1l-.3.2a8 8 0 00-.7.4h-.1c-.1.2-.2.2 0 .2l-1 .5a4.6 4.6 0 01-1 .6l-1.2.6v.1a12.4 12.4 0 01-1.3.7l-.7.3-.3.1h-.1l-.7.6a1.6 1.6 0 00-.3.2 3.7 3.7 0 01-.7.4l-.8.5a1.4 1.4 0 01-.5.3l-.9.5-.4.3a.9.9 0 01.2-.1 1.7 1.7 0 01-.4.2 2 2 0 00.3-.1l.2-.2-.7.5-.5.3-.3.2H67a1.7 1.7 0 01-.4.3h-.2a1.4 1.4 0 01-.2.2 2.3 2.3 0 00-.4.3 5.5 5.5 0 01-.7.4l-.3.1.5-.3a1.4 1.4 0 00-.2.1.6.6 0 00-.1 0v.1a2.5 2.5 0 01-.5.3 1 1 0 00-.2.1 4.6 4.6 0 01-.4.3 2 2 0 01-.3.2 4.8 4.8 0 00-.6.4l-.7.3h-.1a.8.8 0 01-.1.2 1 1 0 00-.2 0l-.2.2a1.4 1.4 0 01.2-.1c.1 0 .1 0 0 0a1 1 0 01-.1 0l-1 .6a2.8 2.8 0 01-.4.2.5.5 0 00-.2.1l-.1.1h-.2l-.1.2-.2.1-.3.1-.2.1a2 2 0 01-.3.2 2.5 2.5 0 00-.3 0v.1c-.2.1-.2.1-.1 0h-.2l-.2.1-.2.2h-.1l-.1.1.1-.1a.2.2 0 00-.1 0l-.1.1a.3.3 0 01-.1 0h-.1a2 2 0 00-.3.3v-.1c.3-.2.2-.2 0 0a1 1 0 01-.2.1l-.2.2h-.2l.2-.1a.6.6 0 00-.1 0 1.4 1.4 0 01-.3.2l.1-.1c.1 0 .1 0 0 0l-.2.1H56h.1c-.2.1-.5.3-.2 0v.1a2.1 2.1 0 01-.3.2h-.2a2.6 2.6 0 01-.3.2v.1l.3-.3a2.1 2.1 0 00-.2.1H55a1 1 0 00.1 0l.2-.1h-.2a.6.6 0 000 .1l-.2.1a.6.6 0 01.2-.1H55a1.8 1.8 0 00-.1.1l.1-.2h.2-.2a1.3 1.3 0 00.1 0l.1-.1a.9.9 0 010-.1c.2 0 .2 0 0 0l-.1.1.2-.2-.2.1-.1.1.1-.1.3-.1h-.2a1 1 0 00.1 0h-.1l-.4.3.3-.2.2-.1-.4.2c.2-.2 0-.1 0 0l.3-.3h.1l.2-.2-.3.2-.4.2c-.4.3-.4.2.1-.1.2-.1 0 0 0 0-.3.1-.3.1 0 0l.5-.4c-.2 0-.1 0 0 0a1.4 1.4 0 00-.2 0l-.1.1-.4.2z" fill="#2e3338"/></svg>