<svg version="1.0" xmlns="http://www.w3.org/2000/svg" viewBox="0 0 1000 1000"><path fill="#2e3338" d="M688.2 93a11.3 11.3 0 01-4 1.8c-1.3-.3-5.6 1.4-8 3.3-1.3 1-3 1.5-3.8 1.2-.8-.3-2.2.1-3.2.9-.9.8-3 2.2-4.7 3-3.1 1.5-15.4 8.1-21.4 11.4-1.9 1-4.4 2.7-5.5 3.7-1.1.9-4 2.7-6.5 3.9a92.8 92.8 0 00-11 7.1c-3.6 2.8-8 5.6-9.7 6.3a16 16 0 00-4.4 2.8c-.7.9-1.8 1.6-2.6 1.6-.7 0-3 1.1-5 2.5a14 14 0 01-5.3 2.5c-.9 0-3.9-2-6.6-4.4a243.3 243.3 0 00-36.8-23.1 77.7 77.7 0 00-27.8-7.4c-9-1-10.4-.9-19.9 1.4-5.6 1.4-13.1 3.9-16.6 5.5-3.6 1.6-6.2 2.4-5.8 1.8 1.1-1.8-5.3 2.4-11.2 7.2-3 2.5-7.2 6.7-9.5 9.5a106.6 106.6 0 00-14 26.7l-1.6 6.3c-2 7.3.9 47.2 4.3 60.5.3 1.1-1.8 2.8-6.3 5.5a925.9 925.9 0 00-32.3 19 147 147 0 00-6.9 4C380 271.2 372 277.1 370.3 281c-.7 1.6-1.7 3.1-2.2 3.5-1.2.7-.3 3.5 1 3.5.5 0 4.8-1.9 9.6-4.1 4.9-2.3 10.1-4.5 11.6-5 2.4-.7 24.2-12.9 42.7-23.9 12-7.1 18.8-11 19.4-11 .3 0 .6.8.6 1.8s.6 2.6 1.3 3.7c.7 1.1 1.9 3.8 2.6 6 1.9 5.4 10 22.3 12.6 26.1 1.2 1.7 5.9 10.7 10.6 20 10.1 20.2 12.7 23.4 19.2 23.4a11 11 0 007.4-2.3 94 94 0 018.3-5.7l15-9.5c20.4-13.3 30.8-20 37.6-24 3.9-2.3 9.6-6.3 12.7-8.8a101 101 0 0110.4-7.3 557 557 0 0037.4-25 4 4 0 012.8-1.4c2.5 0 10.5-5.9 12.8-9.5 4.6-7 5.3-18.6 1.6-26-3.6-7.2-20.6-28-33.9-41.5-7.9-8-9-9.6-7.6-10.4.9-.5 4.3-2.6 7.4-4.7a26 26 0 017.2-3.9c.8 0 1.6-.6 1.9-1.3.3-.8 2.2-2.2 4.2-3.1 2-1 7.2-4 11.7-6.7 4.5-2.7 8.7-4.9 9.4-4.9.6 0 3.5-1.6 6.4-3.5 2.8-1.9 8.1-5.1 11.8-7 3.7-2 7.6-4.4 8.7-5.4l6.4-4.7c5.2-3.4 14.9-12.4 13.5-12.5-.5 0 .2-.4 1.4-1 1.3-.5 2.2-1.4 2-2.1-.7-1.9-4.2-1.8-7.6.2zm-7.2 4.4c0 .2-.7.7-1.6 1-.8.3-1.2.2-.9-.4.6-1 2.5-1.4 2.5-.6zM518.9 123c14.6 1.7 29.4 7.6 47.1 18.8 5.5 3.5 13 10 13 11.3 0 .3-2 1.7-4.5 3s-4.5 2.7-4.5 3.2c0 .4-1.2 1.2-2.7 1.8-1.5.5-7.7 4.1-13.9 7.9-6.1 3.9-11.4 7-11.8 7-.3 0-6.2 3.4-13.1 7.5-6.9 4.1-12.9 7.5-13.3 7.5-.5 0-1.7.8-2.8 1.7a28 28 0 01-4.7 3.3l-11.9 7.1c-5.1 3.1-12 7.1-15.3 8.8-3.3 1.8-8.9 5-12.5 7.2a61 61 0 01-7.2 3.9c-.4 0-1-1.7-1.3-3.8a135.5 135.5 0 01-3-53.8 57.7 57.7 0 0114.3-24.7c3.7-3.7 7.4-6.7 8.3-6.7.9 0 2.4-.9 3.4-2s3.6-2.5 5.8-3.1c2.2-.6 6.3-2.1 9.1-3.3 9-4.1 8.8-4.1 21.5-2.6zm82.6 50.2c15 15.4 32.6 35.8 34.2 39.7 1.6 3.7 1.2 8.2-1.1 11.7-1.5 2.1-20.7 14.7-64.9 42.3a2922 2922 0 00-46.6 30c-9.9 6.5-10.2 6.7-16.9 10.3a27.7 27.7 0 01-6 2.8c-.5 0-2.2-2.4-3.7-5.3a67 67 0 00-3.5-5.7c-.4-.3-2.2-3.4-4-7l-9.1-17.2a177 177 0 01-13.9-33l-1.8-5.7 9.7-6.3c5.3-3.4 13.2-8 17.6-10.1 4.3-2.1 8.2-4.1 8.5-4.6.3-.4 5-3.1 10.5-6.1 5.5-2.9 10.5-5.9 11.2-6.5a207 207 0 0123.8-13.5 95.5 95.5 0 0116.6-10.9C576.2 170.3 583 166 583 165c0-1.6 5.4-3.9 7-3 .8.4 6 5.5 11.5 11.2z"/><path fill="#2e3338" d="M713.2 222.6c-1.8.9-7.2 5.3-12 9.6a244.6 244.6 0 01-26.4 21.1 69 69 0 00-8.5 7.5 280 280 0 01-29.2 25 452.1 452.1 0 00-20.5 17.1 258.5 258.5 0 01-18.1 14.9A509.7 509.7 0 00577 335l-24.9 20.8c-5.8 4.8-14.3 12.1-19 16.2a669 669 0 01-15.6 13c-3.9 3-9.9 8-13.5 11.1l-15.1 12.5c-32.4 26.1-35.4 29.4-34.7 37.9.4 4.9 1 6 8.9 15.1 10.1 11.9 39.3 41 54.1 54.1l10.8 9.5-6.6 7.6a510.5 510.5 0 00-29.1 36.8c-1.7 2.4-5.2 6.8-7.8 9.8a157 157 0 00-7.3 9.4c-1.5 2.3-9.1 12.1-16.9 21.9l-14.2 17.9-29.3 1.3c-16.1.6-43.9 1.2-61.8 1.2-17.9-.1-44.6.4-59.5.9-14.8.6-37.4 1.1-50.2 1.3l-23.2.2-.5-3.5c-.8-4.7-.8-6.6-.1-83.9.4-48.3.2-67.7-.6-68.1-.6-.4-1.2-2.7-1.5-5.1-.3-3.4-.2-3.9.5-1.9s.9 1.3 1-3.5l.7-24.2c.6-19.6-.3-27.5-3.6-31.1-1.1-1.2-2-2.6-2-3.2 0-1.6-1.1-1.2-3.1 1.2a7.2 7.2 0 00-1.9 4.3c0 1.1-.6 2.7-1.2 3.4-1 .9-1.3 7.3-1.3 24.9-.1 13-.4 24.4-.9 25.3-.4 1-.3 2 .3 2.3.7.5 1 27.9 1 82.5v81.8l-13.2.6c-7.3.3-15.3 1.3-17.9 2-2.5.8-5.9 1.2-7.5 1-2.2-.4-2.5-.2-1.3.6s.6 1.1-2.5 1.2c-3.7.2-3.8.2-.7.6 3.5.5 3.5 2.3-.1 2.3-1.8 0-1.9.2-.7 1 .8.5 6.5 1 12.5 1 6.1 0 15.6.5 21.3 1.2l10.2 1.2v27.5l.1 54.1c0 14.6.3 29.5.7 33.2l.8 6.8h-10.9c-5.9 0-12.7.4-15 .9-2.3.5-8 1.5-12.7 2.1-4.7.6-12.3 2-17 3l-13 2.8c-2.5.6-7 2-10 3.2a92.8 92.8 0 01-16.7 4.9A189.7 189.7 0 0073.1 806a32 32 0 01-6.2 3.5c-.4 0-1.4.7-2.1 1.6-.7.9-3.4 3.1-6 4.9-2.7 1.8-4.8 3.8-4.8 4.5 0 .6-1.5 1.9-3.2 3a93.7 93.7 0 00-21.7 22 96.4 96.4 0 00-19.6 48.3c-.5 6.7-.3 8 1.5 10.2l2 2.5.1-4c.1-2.9.3-3.3.7-1.5.4 2 .8 1.2 2.4-4 1.1-3.6 2.1-7.3 2.1-8.2.1-.9.5-1.6 1-1.5.5.1 1.4-1.2 2-2.8a176 176 0 0114.8-26.2c11.9-16.7 39.8-41.6 55.2-49a133.5 133.5 0 0130-11.3c.7 0 2.9-.9 4.9-2 4.1-2.1 23.5-7.4 31.3-8.4 2.7-.3 6.3-1 8-1.5 9-2.8 30.5-4.4 58.8-4.5 25.4-.1 30.9.2 42.2 2 11.7 2 33.1 7 39.5 9.3a241.3 241.3 0 0160.9 31.8 292.6 292.6 0 0141.9 42.3c6 8.8 15.8 19.6 17.4 19.2.6-.2.8.3.5 1.1-.7 1.9.8 4.3 1.7 2.8.4-.6.2-1.1-.4-1.1-.6 0-.8-.5-.5-1 .5-.8 1.1-.8 2 0 2.3 1.9 2.8-.8.7-4.3-1-1.8-2.2-4.6-2.6-6.1-.4-1.6-2.1-4.9-3.7-7.3-1.7-2.3-2.7-4.3-2.4-4.3.4 0-.3-1.2-1.4-2.6a10.2 10.2 0 01-2.1-3.6c0-.6-1-2.4-2.2-4.1a101.5 101.5 0 00-8.4-11.8c-6-7.2-16.2-17-25.4-24.3l-9-7.1a306 306 0 00-8.8-6.3l-11-6.9a68 68 0 00-12.7-6.3c-3.3-1.2-9.4-3.7-13.5-5.5a139.6 139.6 0 00-29.4-9.5c-3.8-.7-8-1.9-9.4-2.6-1.4-.7-5.5-1.8-9.1-2.3l-19-3.1c-7.8-1.3-17.2-2-25.5-2h-13.1l.1-56c.1-37.6-.2-55.7-.9-55.3-.9.6-.5-8.3.4-9.1.7-.6 55.5-2.6 72.4-2.6 9.4 0 18.8-.5 21-1 2.2-.5 23.8-1.1 48-1.4 24.2-.3 54.5-.9 67.3-1.2 23.2-.7 23.3-.7 25-3.1.9-1.3 4.4-5.7 7.8-9.6 3.3-4 7.9-9.9 10-13.2 2.2-3.3 8-11 13-17.1a279.2 279.2 0 0022.1-29.4c4.4-7.3 10.2-14.2 11.4-13.5.5.3.6 0 .3-.8-.3-.9.7-2.4 2.4-3.8 1.7-1.3 5.8-5.9 9.2-10.1l6.1-7.8 9.2 7.3a306 306 0 0051.7 33c4.1 2.2 8.5 4.8 9.8 5.8a323 323 0 0042.7 16.7 190.2 190.2 0 0076 6.7A150.6 150.6 0 00781 581c1.9 0 19.3-14.2 26.4-21.4a125 125 0 0024.6-34.4 137.1 137.1 0 0014.7-69.7c-.6-18.2-2-25.9-8.4-46.5a297 297 0 00-27.8-67.4c-.9-2-5.1-9.4-9.3-16.4-4.3-7-8.1-13.4-8.4-14.2-.4-1.2-15.8-22.1-27.2-36.9-.9-1.2-.8-1.3.4-.7.8.4.5-.1-.7-1.1-3.4-2.8-7.3-8.5-6.6-9.6.3-.6.2-.7-.4-.4-1 .7-6.5-6.3-8.2-10.4a215.1 215.1 0 00-22.2-28.2 16 16 0 00-14.7-1.1zm14.6 18.8c8.6 10.5 11.9 15.1 10.2 14.1-.8-.5.2 1.1 2.3 3.6 2.1 2.4 6.1 7.7 9 11.8 2.9 4 10.1 14.2 16.2 22.5 6 8.3 13.8 19.8 17.2 25.6 3.4 5.8 7.2 11.6 8.4 13 1.2 1.4 4.6 7.4 7.4 13.5l11.1 23a193 193 0 0111.4 26.1c0 .6 1.6 6 3.5 11.8 6.6 20.1 8.5 32.7 8.6 54.9 0 8.9-.5 19.6-1 23.7a61.1 61.1 0 01-5.2 19.4c-.5.6-.9 1.7-.9 2.6 0 3.2-9.7 20.8-16.1 29a135.4 135.4 0 01-50.4 41.5c-24.9 12-34.5 14.1-60.4 13.2-19-.7-26.6-1.9-45.1-7-25.4-7.1-65.3-28.8-96.2-52.4a169 169 0 01-10.8-8.8c-.9-1.1-.2-2.6 3.7-7.5l7.8-10c4-5.2 10.1-12.5 15-18.1 6.5-7.5 8.5-10 14.3-17.9 3-4.1 6.7-8.9 8.2-10.5 3.4-3.6 14-19.3 14-20.6 0-.5.7-1.2 1.5-1.5.8-.4 1.5-1 1.5-1.6 0-.5 1.1-2.1 2.4-3.5a42 42 0 005.2-8.2c1.5-3.1 3.4-6.4 4.2-7.4.9-.9 1.2-2 .9-2.3-.4-.4.3-2 1.4-3.5 1.1-1.6 1.5-2.9.9-2.9-1.8 0-6 3.2-5.4 4.1.3.5.1.8-.4.7-1.1-.4-8.7 7.1-8.7 8.7-.1.5-.5.9-1.1.8-.5-.1-3.3 2.2-6.1 5a1195 1195 0 00-49.6 61c-3.7 4.7-9.4 12.6-12.7 17.6-3.4 5-6.5 9.1-6.9 9.1-2.8 0-49.3-44.4-62.2-59.5l-5.2-5.7c-2.4-2.5-1.6-3.5 11.5-15L506 412a748 748 0 0135-29.5 2627.9 2627.9 0 0051.2-42c6.8-5.5 12.9-10.8 13.6-11.7 1.4-1.9 17.3-15.4 36.2-30.8 6.4-5.2 18.6-15.9 27.1-23.6a602.9 602.9 0 0135-30.3l10-8.6c4.1-3.5 7.2-2.2 13.7 5.9z"/><path fill="#35D07F" d="M289.3 273.9c-8.1 3.2-21 10.1-29.5 15.8-27.8 18.6-42.5 42.6-39 63.9a69.1 69.1 0 0013.1 27.8c9.1 11.3 8.4 11 22.4 10.9 30.7-.1 47.5-11.6 54.4-37.3 2.1-8 2.4-30.9.5-42-3.2-18-10.6-41.3-13.3-41.7-.8-.1-4.6 1.1-8.6 2.6zM111.3 289.9a230 230 0 00.6 43.1c7.1 41.9 27.2 63 57.8 60.6 6.7-.6 24.8-4.6 25.8-5.8a147 147 0 0011.1-23.3 53 53 0 00.5-32.7c-8.1-20.8-33.8-37.2-69.2-44.2-6.8-1.3-15.4-2.6-19.1-2.9l-6.7-.5-.8 5.7zM122 405c-2.5.4-7.1 1.8-10.2 3-17.9 6.7-39.3 29.1-53.5 55.8-7.4 14-7.3 13.4-.9 16.5 27.1 13.3 59.3 18.8 80.5 13.7 24.3-5.8 36.9-22.1 39.6-51.1l.7-7.6-5.1-6a67 67 0 00-34.1-23.7 34 34 0 00-17-.6z"/><path fill="#2e3338" d="M816 600.7c-.8.3-2.1 1.1-2.9 1.6-.7.6-2 1.2-2.8 1.3-.9.2-3.7 2.3-6.2 4.7a35.7 35.7 0 01-6.1 5 440 440 0 00-35.9 30.2l-20.9 18.9a1770.8 1770.8 0 00-58.8 56.1c-9.4 9.3-19.8 19.5-23.1 22.5l-13.5 12.7a97.3 97.3 0 01-11.7 9.7c-2.2 1.5-9 7.5-14.9 13.4a873.8 873.8 0 01-36.6 34.8 341 341 0 00-34.5 34.4c-3.8 6.4-2.1 16.5 3.6 21 4.7 3.7 10.5 4.1 51.1 3.1 21.3-.6 64.8-1.3 96.7-1.6 125.4-1.4 201.1-2.5 226-3.4 26.7-1 46.8-2.8 46-4.1-.3-.4 2.7-1.1 6.5-1.4 4-.4 6.8-1.1 6.5-1.7-.4-.5-1.5-.9-2.5-.9-3.4 0-3.2-2 .2-2.1 2.9-.1 2.8-.2-1.2-.9-2.5-.5-13.9-.9-25.5-1-13.1-.1-21.4-.5-22.2-1.2-.9-.7-11.7-.8-35-.3L821 853l-81.5 1.8c-20.9.6-69.8 1.3-108.7 1.6l-70.7.7-1.1-2.1c-.6-1.1-.7-2.6-.3-3.4.4-.8 6.4-6.3 13.3-12.4 6.9-6 23.1-21.5 36-34.3a745.4 745.4 0 0128.5-27.4c7.7-6.2 46.2-42.2 75.9-71 1.7-1.7 8.3-7.4 14.6-12.7a1731 1731 0 0076.4-74.7c2.6-3 4.8-6.3 4.9-7.2.1-1 .4-1.6.7-1.4.4.2 2.2-1.5 4.1-3.8 3.4-4.1 5.3-6.8 4.7-6.6l-1.8.6z"/></svg>