<svg version="1.0" xmlns="http://www.w3.org/2000/svg" viewBox="0 0 1000 1000"><path fill="#2e3338" d="M688 93a11 11 0 01-4 2c-1-1-5 1-8 3-1 1-3 2-4 1l-3 1-4 3a861 861 0 00-34 19 93 93 0 00-11 7l-10 7a16 16 0 00-4 2l-3 2-5 3a14 14 0 01-5 2l-6-4a243 243 0 00-37-23 78 78 0 00-28-8c-9-1-10-1-20 2l-17 5-5 2c1-2-6 2-12 7l-9 10a107 107 0 00-14 26l-2 7c-2 7 1 47 5 60l-7 6a926 926 0 00-32 19 147 147 0 00-7 4c-22 13-30 19-32 23l-2 4 1 3 10-4 11-5a649 649 0 0062-35l1 2 1 3 3 6 13 27 10 20c10 20 13 23 19 23a11 11 0 008-2 94 94 0 018-6l15-10a1174 1174 0 0150-32 101 101 0 0111-8 557 557 0 0037-25 4 4 0 013-1c2 0 10-6 13-10 4-7 5-18 1-26-3-7-20-28-34-41-7-8-9-10-7-10l7-5a26 26 0 017-4l2-1c1-1 3-3 5-3a253 253 0 0021-12l6-4 12-7 9-5 6-5c5-3 15-12 13-12l2-1 2-2c-1-2-4-2-8 0zm-7 4l-2 1h-1l3-1zm-162 26a112 112 0 0160 30l-4 3-5 3a145 145 0 00-17 10l-11 7a232 232 0 00-27 15l-3 2a28 28 0 01-4 3l-12 7a326 326 0 01-28 16 61 61 0 01-7 4l-1-4a136 136 0 01-3-54 58 58 0 0114-24l8-7 4-2 5-3 9-3c9-4 9-4 22-3zm82 50c16 16 33 36 35 40 1 4 1 8-1 12l-65 42a2922 2922 0 00-47 30l-17 10a28 28 0 01-6 3l-3-5a67 67 0 00-4-6l-4-7-9-17a177 177 0 01-14-33l-2-6 10-6a202 202 0 0126-15l11-6 11-6a207 207 0 0124-14 96 96 0 0116-11l21-13c0-2 5-4 7-3l12 11z"/><path fill="#2e3338" d="M713 223c-2 0-7 5-12 9a245 245 0 01-26 21 69 69 0 00-9 8 280 280 0 01-29 25 452 452 0 00-20 17 259 259 0 01-18 15 510 510 0 00-22 17l-25 21-19 16a669 669 0 01-15 13l-14 11-15 13c-33 26-36 29-35 38 1 4 1 6 9 15 10 12 39 41 54 54l11 9-7 8a511 511 0 00-29 37l-8 9a157 157 0 00-7 10l-17 22-14 18-29 1a2005 2005 0 01-122 2l-50 1h-23v-3l-1-84a689 689 0 000-79l1-24c0-19-1-27-4-31l-2-3c0-2-1-1-3 1a7 7 0 00-2 4l-1 4c-1 1-2 7-2 25a225 225 0 010 27l1 83v82h-13l-18 2-8 1c-2 0-2 0-1 1s1 1-3 1c-3 0-3 0 0 1 3 0 3 2 0 2-2 0-2 0-1 1l12 1 22 1 10 1v82l1 33 1 7h-11a102 102 0 00-28 3l-17 3-13 3-10 3a93 93 0 01-17 5 190 190 0 00-42 20 32 32 0 01-6 4l-2 1-6 5-5 5-3 3a94 94 0 00-22 22 96 96 0 00-20 48c0 6 0 8 2 10l2 3v-4c0-3 0-4 1-2 0 2 1 1 2-4l2-8 1-2c1 0 2-1 2-3a176 176 0 0115-26c12-16 40-41 55-49a134 134 0 0130-11l5-2a173 173 0 0140-10c9-3 30-4 58-4a218 218 0 0182 11 241 241 0 0161 32 293 293 0 0142 42c6 9 16 20 17 19l1 1c-1 2 0 5 1 3v-1l-1-1h2c3 2 3-1 1-4l-2-6-4-8-3-4-1-3a10 10 0 01-2-3l-2-4a102 102 0 00-9-12c-6-7-16-17-25-24l-9-7a306 306 0 00-9-7l-11-7a68 68 0 00-13-6l-13-5a140 140 0 00-29-10l-10-3-9-2-19-3-25-2h-13v-56a529 529 0 00-1-64 1440 1440 0 0194-4l48-1 67-2c23 0 23 0 25-3l8-9 10-13 13-18a279 279 0 0022-29c4-7 10-14 11-13v-1l3-4 9-10 6-8 9 7a306 306 0 0052 33l10 6a323 323 0 0043 17 190 190 0 0076 7 151 151 0 0054-22c2 0 19-14 26-21a125 125 0 0025-35 137 137 0 0015-69c-1-19-2-26-9-47a297 297 0 00-27-67 277 277 0 00-18-31 820 820 0 00-43-59 215 215 0 00-22-28 16 16 0 00-15-1zm15 18c8 11 12 16 10 15l2 3 9 12 17 22a412 412 0 0133 53l11 23a193 193 0 0111 26l4 11c6 21 8 33 8 55l-1 24a61 61 0 01-5 19l-1 3c0 3-10 21-16 29a135 135 0 01-50 42c-25 12-35 14-61 13-19-1-26-2-45-7-25-7-65-29-96-53a169 169 0 01-11-8c-1-2 0-3 4-8l8-10a421 421 0 0129-36l8-10a135 135 0 0016-23l1-1 2-4a42 42 0 006-8l4-7 1-3 1-3 1-3c-2 0-6 3-5 4l-1 1c-1-1-8 7-8 9h-2l-6 5a1195 1195 0 00-49 61 314 314 0 00-20 27c-3 0-49-44-62-59l-5-6c-3-3-2-4 11-15l25-22a748 748 0 0135-29 2628 2628 0 0051-42l14-12a847 847 0 0063-54 603 603 0 0135-31l10-9c4-3 7-2 14 6z"/><path fill="#35D07F" d="M289 274c-8 3-21 10-29 16-28 18-43 42-39 64a69 69 0 0013 27c9 12 8 11 22 11 31 0 48-11 55-37 2-8 2-31 0-42-3-18-10-41-13-42l-9 3zm-178 16a230 230 0 001 43c7 42 27 63 58 61l25-6a147 147 0 0012-23 53 53 0 000-33c-8-21-34-37-69-44l-19-3-7-1-1 6zm11 115l-10 3c-18 7-39 29-54 56-7 14-7 13-1 16 28 14 60 19 81 14 24-6 37-22 40-51v-8l-5-6a67 67 0 00-34-23 34 34 0 00-17-1z"/><path fill="#2e3338" d="M816 601l-3 1-3 2-6 4a36 36 0 01-6 5 440 440 0 00-36 31l-21 18a1771 1771 0 00-59 57l-23 22-13 13a97 97 0 01-12 9l-15 14a874 874 0 01-36 35 341 341 0 00-35 34c-4 6-2 17 4 21 4 4 10 4 51 3l97-1 226-4a209 209 0 0059-7l-3-1c-3 0-3-2 0-2s3 0-1-1l-25-1-23-1h-35l-77 1-81 2-109 1-71 1-1-2v-3l13-13 36-34a745 745 0 0128-27 2315 2315 0 0091-84 1731 1731 0 0076-75l5-7 1-2 4-3 5-7-2 1z"/></svg>