<svg xmlns="http://www.w3.org/2000/svg" fill="discrete" viewBox="0 0 16 16"><g clip-path="url(#clip0)"><path d="M1.3 10.2v-.1a.9.9 0 01.2-.2l8.3-8.6h.1C10.7.3 11.7 0 12.7 0c.8 0 1.6.3 2.3 1 .6.6.9 1.3.9 2.1 0 1-.5 2-1.4 2.9l-8.6 8.7a.8.8 0 01-.2.1.8.8 0 01-.2.1L1 16a.9.9 0 01-.9-.2 1 1 0 01-.2-.9l1.4-4.6zm3.5 3l8.4-8.4v-.1c.6-.6.9-1.1.9-1.6 0-.3-.1-.6-.4-.8-.3-.3-.6-.5-1-.5-.5 0-1 .3-1.5.7l-.1.1L2.9 11 2 13.8l2.7-.6z" clip-rule="evenodd"/></g><defs><clipPath id="clip0"><path fill="#fff" d="M0 0h16v16H0V0z"/></clipPath></defs></svg>