<svg id="Layer_1" data-name="Layer 1" xmlns="http://www.w3.org/2000/svg" viewBox="0 0 24 24"><defs><style>.cls-1{fill:#fff}</style></defs><path class="cls-1" d="M2.4 11.7l.2-.1h.1c-.2 0-.2-.1-.1-.1h0a.6.6 0 01.1 0c.2 0 0-.2 0-.1l-.2-.1h.1c.1 0 0 0 0 0-.1 0 0-.1 0 0h.2c.1 0 .1 0 0-.1l.4-.2h.1a.3.3 0 01-.1 0c-.1 0 0-.1 0-.2h.1s0 .1 0 0H4.3v-.1h.5c.1 0 .1 0 0 0H5c.1-.1.2 0 .2 0h.1a.2.2 0 00.1 0h.2a.3.3 0 00.1 0h.2a.5.5 0 00.3 0h.1a.1.1 0 00.1 0h.5a1.5 1.5 0 01.3 0 .5.5 0 01.2 0h.1a.4.4 0 00.2 0H8a.7.7 0 00.4 0l.1.1a.3.3 0 00.2 0h.1a.3.3 0 00.3 0h.4a1 1 0 00.2 0h.6a1.8 1.8 0 01.4 0 .3.3 0 01.2 0 .7.7 0 01.2 0H12a.5.5 0 00.2 0h.4s.2 0 0 0h.2a.8.8 0 00.3 0h.8c0-.1 0-.1.2 0H14.3l.2.1c-.1-.2 0-.2.2-.1a.3.3 0 00.3 0 1.2 1.2 0 01.2 0c.1 0 .2 0 0 0-.1-.1-.1-.2.2-.1h.4c.1.1.1 0 0 0-.2 0-.2 0 0 0 .3 0 .4 0 .1.1-.2 0-.2 0 0 .1a.3.3 0 00.4 0c.2 0 .2 0 0 .1H16.7c-.1 0 0 0 0 0 .3-.1.4 0 .2 0h.5c.1 0 .4-.2.3-.3H18.2l.2.1a.1.1 0 01.1 0 .3.3 0 000-.1.1.1 0 01.1 0h.4c0 .1 0 .1 0 0v.1H20l.2.1h.4v.1c.1 0 .2 0 .1.1h-.2c0 .1 0 .1.2 0a.5.5 0 00.1 0h.1v.1h.2l.1.1c.1.1 0 .1 0 .1h-.4v.1c.1 0 .1 0 0 0h.7v.1h.1v.2a.7.7 0 00-.2 0 .6.6 0 00.2 0h.1v.4c.2 0 .2 0 0 0 .1 0 0 0 0 0h-.3l.1.1c.1 0 .1 0 0 0a.6.6 0 01.2.1h-.2-.1.3-.1v.2h-.2a.2.2 0 00-.2 0h.1v.1a.3.3 0 00-.2 0l.1.1H21v.1a.2.2 0 01-.1.1.2.2 0 00-.2 0l-.1.1h-.2v.1h-.1-.1l-.3.1a.2.2 0 01-.2 0h-.2-.1-.1a.9.9 0 01-.3 0h-.2-.2c-.1 0 0 0 0 0a.2.2 0 00-.1 0l-.1-.1H18h-.3-.2a.3.3 0 01-.2 0c0-.1 0-.1-.1 0H17a2.4 2.4 0 01.4 0h.1a1.3 1.3 0 00.2 0h-.1c-.4.2-.7 0-.7 0h-.1c.2 0 .3 0 .2-.1a.5.5 0 00-.3 0l-.2.1a3.1 3.1 0 01-.5 0h-.6.1c.1 0 .1 0 0-.1h-.1c-.1 0 0 0 0 0a1.6 1.6 0 01.3 0s.1-.1 0-.2a1 1 0 00-.5 0v.1a.7.7 0 00-.2 0c-.2 0-.2.1-.1.1.2 0 .2.1 0 0a.3.3 0 00-.1.1h-.4a1 1 0 00-.2 0 .4.4 0 00-.1 0h-.2a.6.6 0 01-.2 0h-.4l-.5.2a.3.3 0 01-.1 0h-.2l-.2-.1H12 11.7h-.4c-.1 0-.1 0 0 0h-.8a1.9 1.9 0 01-.5 0 1.1 1.1 0 01-.5 0c-.3-.1-.4-.1-.3-.2H9a1.1 1.1 0 00-.3 0h-.1l-.3.1a1.5 1.5 0 01-.3 0h-.5a.6.6 0 00-.2 0c0 .1 0 0 0 0h.1l-.3.1h-.1-.2a.2.2 0 01-.2 0 .1.1 0 01-.1 0 .3.3 0 00-.2 0 .5.5 0 01-.3 0h.1H6h-.2a.4.4 0 01-.2 0 .2.2 0 01-.1 0h-.3a1.3 1.3 0 01-.2 0H5h-.7-.1H3.9s-.1 0 0 0a.2.2 0 01-.2 0 .3.3 0 000-.1h-.1V13a.2.2 0 00-.1 0h-.2s0-.1 0 0h-.1H3a.2.2 0 010-.1h-.2a.5.5 0 010-.1h-.1v-.1h-.1a.2.2 0 01-.1 0h-.1a.2.2 0 01-.1 0 .7.7 0 00.1 0v-.1h-.1a.2.2 0 00.1 0 .4.4 0 01-.2 0h.1l-.1-.1a.3.3 0 00.2-.1h-.1a.1.1 0 01.1 0v-.2h-.2.2-.1a.8.8 0 01.1-.1.9.9 0 01.1 0 .5.5 0 00-.2 0c-.2 0-.2-.1 0-.1.1 0 0 0 0 0s-.1-.2 0-.2a2 2 0 01.2 0 .6.6 0 01-.2 0z"/><path class="cls-1" d="M11.7 21.6l-.1-.2v-.1c0 .2-.1.2-.1.1v-.1.1a.6.6 0 010-.1c0-.2-.2 0-.1 0l-.1.2v-.1c0-.1 0 0 0 0 0 .1-.1 0 0 0v-.2c0-.1 0-.1-.1 0l-.2-.4v-.1a.3.3 0 010 .1c0 .1-.1 0-.2 0v-.1s.1 0 0 0v-.1-.2-.2-.1-.3h-.1v-.3-.2c0-.1 0-.1 0 0V19c-.1-.1 0-.2 0-.2v-.1a.2.2 0 000-.1v-.1-.1a.3.3 0 000-.1v-.2a.5.5 0 000-.3v-.1a.1.1 0 000-.1v-.3-.2a1.5 1.5 0 010-.3.5.5 0 010-.2v-.1a.4.4 0 000-.2v-.1-.2a.7.7 0 000-.4l.1-.1a.3.3 0 000-.2v-.1a.3.3 0 000-.3v-.4a1 1 0 000-.2V14v-.3a1.8 1.8 0 010-.4.3.3 0 010-.2.7.7 0 010-.2v-.3-.4-.2a.5.5 0 000-.2v-.4s0-.2 0 0v-.2a.8.8 0 000-.3v-.4-.2-.2c-.1 0-.1 0 0-.2V10v-.1-.1l.1-.2c-.2.1-.2 0-.1-.2a.3.3 0 000-.3 1.2 1.2 0 010-.2c0-.1 0-.2 0 0-.1.1-.2.1-.1-.2v-.1-.3c.1-.1 0-.1 0 0 0 .2 0 .2 0 0 0-.3 0-.4.1-.1 0 .2 0 .2.1 0a.3.3 0 000-.4c0-.2 0-.2.1 0v-.4.1c0 .1 0 0 0 0-.1-.3 0-.4 0-.2V7v-.3-.1c0-.1-.2-.4-.3-.3v-.2-.4l.1-.2a.1.1 0 010-.1.3.3 0 00-.1 0 .1.1 0 010-.1v-.2V5c.1 0 .1 0 0 0h.1v-.2-.2-.2V4l.1-.2v-.3-.1h.1c0-.1 0-.2.1-.1v.2c.1 0 .1 0 0-.2a.5.5 0 000-.1v-.1h.1V3l.1-.1c.1-.1.1 0 .1 0v.4h.1c0-.1 0-.1 0 0V3v-.2-.1-.2h.1v-.1h.2a.7.7 0 000 .2.6.6 0 000-.2v-.1h.4c0-.2 0-.2 0 0 0-.1 0 0 0 0v.3l.1-.1c0-.1 0-.1 0 0a.6.6 0 01.1-.2V2.5h.2v.2a.2.2 0 000 .2v-.1h.1a.3.3 0 000 .2l.1-.1V3h.1a.2.2 0 01.1.1.2.2 0 000 .2l.1.1v.2h.1v.2l.1.3a.2.2 0 010 .2v.4a.9.9 0 010 .3v.4c0 .1 0 0 0 0a.2.2 0 000 .1l-.1.1v.8a.3.3 0 010 .2c-.1 0-.1 0 0 .1V7a2.4 2.4 0 010-.4v-.1a1.3 1.3 0 000-.2v.1c.2.4 0 .7 0 .7v.1c0-.2 0-.3-.1-.2a.5.5 0 000 .3l.1.2a3.1 3.1 0 010 .5v.6-.1c0-.1 0-.1-.1 0v.1c0 .1 0 0 0 0a1.6 1.6 0 010-.3s-.1-.1-.2 0a1 1 0 000 .5h.1a.7.7 0 000 .2c0 .2.1.2.1.1 0-.2.1-.2 0 0a.3.3 0 00.1.1v.4a1 1 0 000 .2.4.4 0 000 .1v.2a.6.6 0 010 .2v.4l.2.5a.3.3 0 010 .1v.2l-.1.2v1c0 .1 0 .1 0 0v.8a1.9 1.9 0 010 .5 1.1 1.1 0 010 .5c-.1.3-.1.4-.2.3v.1a1.1 1.1 0 000 .3v.1l.1.3a1.5 1.5 0 010 .3v.5a.6.6 0 000 .2c.1 0 0 0 0 0v-.1l.1.3V17a.2.2 0 010 .2.1.1 0 010 .1.3.3 0 000 .2.5.5 0 010 .3v-.1V18.2a.4.4 0 010 .2.2.2 0 010 .1v.3a1.3 1.3 0 010 .2v1.2s0 .1 0 0a.2.2 0 010 .2.3.3 0 00-.1 0v.1H13a.2.2 0 000 .1v.2s-.1 0 0 0v.2a.2.2 0 01-.1 0v.2a.5.5 0 01-.1 0v.1h-.1v.1a.2.2 0 010 .1v.1a.2.2 0 010 .1.7.7 0 000-.1h-.1v.1a.2.2 0 000-.1.4.4 0 010 .2v-.1l-.1.1a.3.3 0 00-.1-.2v.1a.1.1 0 010-.1h-.2v.2-.2.1a.8.8 0 01-.1-.1.9.9 0 010-.1.5.5 0 000 .2c0 .2-.1.2-.1 0 0-.1 0 0 0 0s-.2.1-.2 0a2 2 0 010-.2.6.6 0 010 .2z"/></svg>