<svg version="1.0" xmlns="http://www.w3.org/2000/svg" viewBox="0 0 256 256"><path fill="#2e3338" d="M23 22l-2 2v95l2 3 3 3h33c35 0 48-1 45-4-3-1-16-2-47-2-27 0-28-1-30-2l-1-46V28h87v6l1 43c-1 37-1 38-5 43-2 1-2 2-1 3 1 2 5 0 9-4l3-4v-14a6087 6087 0 00-2-78c-2-2-3-2-8-2a1014 1014 0 01-87 1zm113 0c-4 1-3-3-3 49 0 38 0 50 2 52l49 2c41 0 48 0 50-2l2-1V25l-2-2c-2-2-3-2-49-2l-49 1zm75 7h18v88h-3l-44 1h-41l-1-2V89 28l27 1h44z"/><path fill="#2e3338" d="M163 51c-1 1-2 5-1 22v23c1 2 3 2 22 2 15 0 20-1 21-2v-3l-19-1h-17V56h36v18c0 15 1 20 3 23l1-1c2-1 2-5 2-22l-1-23c-1-2-3-2-23-2s-23 0-24 2zM44 50c-1 2-2 35 0 39l2 4 1 1h-1c-2 0-2 2-1 3s44 1 46 0V50c-1-2-46-1-47 0zm41 24v18h-5l-18 1H48l1-2 1-12V56h35v18zm-62 65l-3 2v89l4 3 3 3h40l43-1c3 0 5-1 6-3 2-3 2-6 2-46 0-43 0-43-2-46l-2-3H70c-40 0-45 0-47 2zm87 12l-1 77H28v-82c1-1 11-2 50-2h33v7z"/><path fill="#2e3338" d="M44 162a150 150 0 001 45v2c1 2 4 2 24 2 18 0 22-1 23-2v-47c-1-2-46-2-48 0zm41 24v18l-19 1-18 1v1-3l1-20v-16h36v18zm141-46l-5 6-11 16-7 10h-6l-15 1h-8l1-3 1-13 2-14v-3h-21l-23 2c-2 2-2 3-1 24l1 24 1 20 2 19c1 2 19 2 22 1 2-1 2-2 2-7 0-6-1-10-2-10s-2 1-2 3l-1 6v3h-7c-6 0-6-1-7-3l-3-55v-20l4-1 26 1-2 30a582 582 0 0030 1h9l4-5a354 354 0 0016-23l1 7-2 32v4h-30l-33 1c-4 0-4 3 0 3l3 1c1 2 55 2 61 1 5-1 5-2 6-8l1-25c1-21 1-21-1-24-2-2-6-4-6-2z"/><path fill="#2e3338" d="M172 219c-2 0-1 4 1 6h10c1 0 2-1 2-3 0-3 0-3-4-3h-9zm22 0c-1 0-2 1-2 3v3h8c8 0 9 0 8-3v-3h-14zm22 0c-2 0-3 3 0 5 1 2 6 2 11 1 2 0 3-1 3-3l-1-3h-13z"/></svg>