<svg id="Layer_1" data-name="Layer 1" xmlns="http://www.w3.org/2000/svg" viewBox="0 0 48 48"><defs/><path class="cls-1" d="M19.7 23c-.2 0-.2 0 0 0h-.1-.5.4c.1 0 0 .1 0 .1h-.2-.1a.9.9 0 00-.1 0h.4-.2a.4.4 0 01-.2 0H19a.7.7 0 00-.1 0v.1h.1a.3.3 0 01-.1 0 1.2 1.2 0 00-.3 0h0v.1a.8.8 0 00-.2 0H18c-.1 0-.2 0-.1.1a2 2 0 00-.3 0h-.2a1.1 1.1 0 00-.3 0 1.2 1.2 0 01-.4 0 .2.2 0 00-.1 0h-.2a.2.2 0 01-.1 0 .2.2 0 00-.2 0 .9.9 0 01-.2 0 .3.3 0 00-.1 0 2.4 2.4 0 01-.5 0 1.8 1.8 0 00-.3 0h-.2a4.4 4.4 0 01-.7 0h-.2-.5-.8-.2-.5a1.2 1.2 0 00-.3 0 2 2 0 01-.4 0H11a1.5 1.5 0 01-.3 0h-.2 1a1.4 1.4 0 01-.4 0h-.8-.1.3a3.1 3.1 0 00-.5 0 2.2 2.2 0 00-.4 0H7.7h.1c.2 0 .2 0 0 0a3 3 0 00-.3-.1c-.1 0 0 0 0 0h.6c.2 0 .3 0 0-.1a6 6 0 00-.9 0H7c-.4 0-.4.1-.3.1.4 0 .3 0 0 0h-.2l.2.1-.5.1a3 3 0 00-.3 0h-.4a2.2 2.2 0 01-.4-.1 1.6 1.6 0 01-.6-.4 2.4 2.4 0 01-.5-.5v-.3c0 .3 0 .3 0 0a2.7 2.7 0 01-.3-.8v-.6-.2a1.5 1.5 0 000-.3 1.5 1.5 0 010-.3v-.2a2.5 2.5 0 010-.3v-.2-.5-.2a5.1 5.1 0 000-.6s0-.1 0 0v-.7a2.9 2.9 0 010-.7v-.8a7.1 7.1 0 010-1v-.4l.1-.1a.1.1 0 010-.1v-.5a.9.9 0 000-.3 2 2 0 010-.5v-.5a.8.8 0 010-.4v-.6a2.9 2.9 0 000-.3 1 1 0 010 .2 1.3 1.3 0 010-.4h-.1a1.1 1.1 0 000 .3v.1a1.7 1.7 0 010-.5v-.4V10.1a1 1 0 010-.3 1.4 1.4 0 000-.5 3.8 3.8 0 010-.5v-.2-.3a.3.3 0 000-.1 2.3 2.3 0 010-.5 3 3 0 010-.3.6.6 0 010-.1.7.7 0 010-.2 2.7 2.7 0 010-.5v-.4s0-.1 0 0V6a2.2 2.2 0 010-.4V5v.1a.7.7 0 010-.3l.1-.3a1.3 1.3 0 01.5-.4 1.2 1.2 0 01.5-.1 1.7 1.7 0 00-.3 0h1.8a.9.9 0 00.4 0 1.9 1.9 0 01.4 0h.3V4a1.4 1.4 0 01.4 0A2.2 2.2 0 008 4h.5a1.9 1.9 0 00.8.1h.5a1.7 1.7 0 01.6 0 1.5 1.5 0 00.5 0H17s-.1 0 0 0l.4.1c0 .1 0 0-.2 0a4.6 4.6 0 00-.9 0 .8.8 0 00.3 0h2.2-.2-.7l-.3-.1c0-.1 0 0 .2 0h.5a.7.7 0 01.2 0 .8.8 0 01.5 0 .5.5 0 00.4 0 1.4 1.4 0 01.3 0h.2a4.5 4.5 0 01.6-.1h.8a1.5 1.5 0 01.4 0 1.1 1.1 0 01.5.3v.1a1 1 0 01.3.4 1.2 1.2 0 010 .3v.3a1.4 1.4 0 000 .6h.1v.2a2.4 2.4 0 000 .3v0a.8.8 0 000 .3l-.1.3V7.7l.1.2V7.8 8c0-.2 0-.2-.1 0 0 .3 0 .3 0 0v.6a2.1 2.1 0 010 .4c0 .3 0 .4 0 0V9v.6a1.2 1.2 0 010 .4 2.6 2.6 0 000 .8v.8a2 2 0 000 .3v-.3a.8.8 0 01.1.2v.1a1 1 0 000 .4l-.1 1a4.4 4.4 0 010 .6V14.4c0 .3 0 .2 0 0a2.6 2.6 0 010-.3 3 3 0 01.1.3V15c0-.3 0-.3 0 0v.5c-.1.1 0 .2 0 .2v.2a2.4 2.4 0 000 .3 1 1 0 010 .2l-.1.3c0 .2 0 .1 0 0v1a.4.4 0 000 .2v.1c.1-.2.1-.2 0 .1v.2a.9.9 0 010 .2.2.2 0 010 .2.1.1 0 000 .1.9.9 0 010 .2.5.5 0 000 .2 1.5 1.5 0 010 .2.7.7 0 010 .2 1.8 1.8 0 000 .3v.4a.1.1 0 000 .1.3.3 0 010 .1 3.3 3.3 0 010 .7 1.3 1.3 0 010 .2.3.3 0 00-.1.2s0 .1 0 0l-.2.4v.1H22c0 .2-.1.2 0 .1a1 1 0 01-.2.2l-.1.1s0 .1 0 0a.4.4 0 00-.2.1.2.2 0 000 .1.7.7 0 01-.1 0v.1l-.1.1v-.1h-.1v.1a1.3 1.3 0 00-.2.2c.1-.2 0-.2 0 0a.7.7 0 01-.2 0s0 .1 0 0l-.2.1a1 1 0 00.1 0 .6.6 0 01-.2 0h.1-.1-.1.1c-.2.1-.3.1-.2 0a.6.6 0 01-.1.1h-.1a.5.5 0 01-.2 0 1.2 1.2 0 00.2 0H20h.1-.2a.3.3 0 01.1 0h-.2.2a.4.4 0 01.1-.1c.1 0 .1 0 0 0 .1 0 .1 0 0 0-.2 0-.2 0 0 0h.1V23h-.1a1.3 1.3 0 01-.2 0 1.2 1.2 0 00.1 0h.2-.2H20.3a.7.7 0 01-.2 0H20c-.2 0-.2 0 0 0v-.1a2 2 0 00.4 0c-.1 0-.1 0 0 0H20a.8.8 0 01-.2 0c-.1 0 0 0 0 0a.3.3 0 000-.1 1.2 1.2 0 00.3 0 .8.8 0 010-.1h.1-.2a.5.5 0 01.2 0 1 1 0 01-.2 0l.2-.1c.2 0 0 0 0 0H20a.3.3 0 01.1 0c.2 0 .1 0 0 0h.1c.1 0 .2-.1.2 0v-.1l.3-.4c-.1.1 0 0 0 0l.1-.2.2-.2.1-.1v-.2l.2-.4a.3.3 0 000-.1v-.1-.1-.1c0-.1 0-.1 0 0v-.2a.5.5 0 010-.2V20a.5.5 0 010-.1v-.2V19.4h.1a1.8 1.8 0 010-.2.7.7 0 010-.3v-.2a.3.3 0 010-.1.7.7 0 010-.2.2.2 0 000-.1 2 2 0 010-.4 2.2 2.2 0 000-.3v-1.1V15.7a1.5 1.5 0 010-.5c0-.2 0-.2 0 0v-.4a3.4 3.4 0 000-.7v-.3-.6a2.4 2.4 0 010-.3 1.7 1.7 0 000-.5 2.5 2.5 0 010-.5v-1.1-1a1.1 1.1 0 010-.4.9.9 0 000-.3 4.2 4.2 0 010-.7 3.5 3.5 0 000-.5 2.6 2.6 0 010-.4v-.1a2.4 2.4 0 010-.4l-.1-.5V5.4v-.1c0-.1 0 0 0 0h-1a2.2 2.2 0 01-.6 0 1.7 1.7 0 01-.5 0h-.1-.2H18.3h-.6a2 2 0 01-.4 0 8.4 8.4 0 00-1 0 4.5 4.5 0 01-.9 0H14.6a6.1 6.1 0 00-.9 0h-.3-.4-.5a4.7 4.7 0 00-.7 0 13.6 13.6 0 01-2 0h-.2a3.1 3.1 0 01-.7 0H7.8a.9.9 0 01-.1 0h-.5a2 2 0 01-.4 0 4 4 0 00-.8 0H4.9V6c0-.1 0 0 0 0V8a2.5 2.5 0 010 .4v1a7.8 7.8 0 000 1.2 2 2 0 000 .4 3 3 0 010 .5V12.4a.4.4 0 010 .2v.5a1.3 1.3 0 010 .3 1.9 1.9 0 000 .4v.2a1.8 1.8 0 000 .5v2.8a2.1 2.1 0 010 .4v.4a.6.6 0 000 .1 1 1 0 010 .3v.1a2.4 2.4 0 010 .7v.7a4.8 4.8 0 010 .7v.5a.8.8 0 000 .3l.2.4.2.2h.2a2 2 0 01.3 0c-.2.1 0 .1.2.1a.3.3 0 01.1 0h.3.4a1.6 1.6 0 00.5 0h.5.5.5c.2 0 .2 0 0 0-.3 0-.3 0 0 0H9c-.4 0-.4 0 0 0a1.9 1.9 0 00.6 0h.2c.2 0 .2.1 0 .1h.3.5.2a1.6 1.6 0 00.5 0h.2c.2 0 .8 0 .6-.1h.2a1.6 1.6 0 01.5 0h.3a1.6 1.6 0 01.4 0 2.9 2.9 0 01.3 0h1a.3.3 0 01.2 0h.2a.6.6 0 00.2 0h.2-.1.8a.8.8 0 01.2.1.3.3 0 00.1 0h.6a2.5 2.5 0 01.5.1H18a.4.4 0 00-.2 0h.7l.2.1h.2c.2 0 0 .1 0 0v.1h-.1a.6.6 0 00-.2 0h-.2a.6.6 0 00-.2 0h.1c.1 0 .1 0 0 0a.5.5 0 00.2 0h.4a.4.4 0 00.1 0 .5.5 0 01.2 0H19.5v.1h-.2-.2a3.4 3.4 0 00.4 0v.1a1.1 1.1 0 00.2 0v.1c.2 0 .2 0 0 0zM22 15.5zM25.5 22c0-.1 0-.1 0 0v-.1-.5.2c0 .1 0 .1-.1 0v.3-.3-.1a1 1 0 000-.1v.4-.1l-.1-.1c-.1 0 0 0 0 0a.4.4 0 010-.2.8.8 0 000-.2v.1a.3.3 0 01-.1-.1 1.2 1.2 0 000-.2s0-.1 0 0H25a.8.8 0 000-.3v-.1-.1V20.1 20a2 2 0 000-.3V19.5a1.2 1.2 0 00-.1-.2 1.3 1.3 0 010-.4.2.2 0 000-.1v-.2a1.2 1.2 0 010-.1.2.2 0 010-.1.2.2 0 000-.1.9.9 0 010-.3.4.4 0 000-.1 2.4 2.4 0 010-.4 2 2 0 000-.4 1.6 1.6 0 010-.2 4.5 4.5 0 010-.7V16v-.2-.3-.9-.2-.3-.2a1.3 1.3 0 000-.3 2.2 2.2 0 010-.4l.1-.2a1.6 1.6 0 010-.3v-.2.5l-.1.1v.4a1.5 1.5 0 010-.4v-.8-.2l.1.4a3.2 3.2 0 000-.5 2.4 2.4 0 000-.4v-1-1 .2c0 .2 0 .2 0 0a3.1 3.1 0 000-.3c0-.1 0 0 0 0v.6c0 .2 0 .3 0 0a6.5 6.5 0 000-.9v-.4-.2c0 .3 0 .3 0 0v-.2l-.2.2V8a3.3 3.3 0 000-.3V7.1a3.7 3.7 0 010-.5v-.5-.2c.1.2.1.2.1 0v-.7a1.6 1.6 0 010-.5 1.3 1.3 0 01.2-.4l.3-.2h.2A1.8 1.8 0 0126 4a2 2 0 01.4 0h.7a1.1 1.1 0 00.2 0h.3 1.6a3 3 0 01.7 0h.8a8 8 0 011 0h.4l.2.1h.6a.9.9 0 00.2 0 2.2 2.2 0 01.5 0h.6a.9.9 0 01.3 0h.7a3 3 0 00.3 0 1 1 0 01-.2 0 1.4 1.4 0 01.4-.1 1.3 1.3 0 00-.2 0h-.2a1.8 1.8 0 01.5 0h.4H36.6a1.1 1.1 0 01.3 0 1.5 1.5 0 00.5 0 3.8 3.8 0 01.6 0h.1-.3.7a.3.3 0 00.1 0 2.6 2.6 0 01.4 0h.4a.7.7 0 01.1 0 .7.7 0 01.2 0 3 3 0 01.5 0h.7a2.3 2.3 0 01.4 0 .6.6 0 01.2 0H41.8a.7.7 0 01.1 0 2.9 2.9 0 00.4 0h.3a1 1 0 01-.2 0 .5.5 0 00.1 0H43.1a1 1 0 01.3 0l.3.2a1 1 0 01.2.2 1.2 1.2 0 01.3.5 2.4 2.4 0 010 .6 1.8 1.8 0 010-.3 1.2 1.2 0 000 .4 1.9 1.9 0 010 .4v.4a1.5 1.5 0 010 .4 2 2 0 000 .3v.5a2 2 0 000 .8V9a1.7 1.7 0 010 .5 1.5 1.5 0 000 .5v6.3s0-.1 0 0l-.1.4v-.2a4.9 4.9 0 000-.9.8.8 0 000 .3v1.8a2.8 2.8 0 010 .4V18v-.7l.1-.4c.1 0 0 0 0 .2v.6a.7.7 0 010 .1.9.9 0 010 .6.5.5 0 000 .3 1.4 1.4 0 010 .4v.2a.8.8 0 010 .2V22a1.2 1.2 0 01-.3.8l-.3.3a1.2 1.2 0 00-.2 0l-.3.1h-.2.2a1.2 1.2 0 00-.4 0h-.5.2c.2 0 0 .1-.2.2h-.4-.2l-.5.1H41h.4a1.4 1.4 0 00.2-.1h-.4.2c.2 0 .3 0 0 0s-.3 0 0 0 .2 0 0 0h-.6a2.2 2.2 0 01-.4 0c-.4 0-.4 0 0 0h.1-.5-.2a1.2 1.2 0 01-.3 0 2.8 2.8 0 00-.9 0h-.8a2 2 0 00-.3 0h-.2.5a.8.8 0 01-.2 0h-.1a1 1 0 00-.4 0h-1-.1a4.9 4.9 0 01-.6 0H35c-.4 0-.2 0 0 0a3 3 0 01.3 0 3 3 0 01-.4 0h-.7.2c.4 0 .4 0 0 0H33.4a2.5 2.5 0 00-.3 0 1 1 0 01-.2 0h-.3c-.2 0-.2 0 0 0h-1a.3.3 0 00-.1 0 .7.7 0 01-.2 0h-.2 0-.1a1 1 0 01-.2 0h-.1a.2.2 0 01-.1 0 .4.4 0 00-.1 0 1 1 0 01-.3 0 .5.5 0 00-.1 0 1.8 1.8 0 01-.3 0 .6.6 0 01-.1 0 1.9 1.9 0 00-.4 0H29a.2.2 0 00-.1 0 .3.3 0 01-.1 0H28a2 2 0 01-.2 0 .2.2 0 00-.1 0h-.1-.5a.5.5 0 01-.1 0 .8.8 0 00-.2 0s-.1 0 0 0a.2.2 0 00-.2 0h-.2v-.1h-.1c-.1 0 0 0 0 0h-.5a.5.5 0 00.1 0c.3 0 .2 0 0 0a.9.9 0 01-.2 0h.1-.2l-.2-.1a.7.7 0 00.2 0h-.1l-.2-.1h.1c.1 0 .1 0 0 0h-.1a.4.4 0 010-.1c-.1-.1-.2-.3 0-.1a.5.5 0 01-.2-.2v-.2a1.1 1.1 0 010-.1v-.1.3-.2.1-.2c0 .1 0 .2 0 0v-.1.1l.1.2v-.2a1 1 0 000 .1.6.6 0 010 .1c.1.1.1.1 0 0v-.1l.1.2a1.7 1.7 0 010-.2c0-.2 0-.2 0 0a1 1 0 000 .2.5.5 0 010-.1 2.2 2.2 0 010-.3 1.3 1.3 0 000 .2.8.8 0 000 .2v-.3c0 .1 0 0 0 0v.2a1.1 1.1 0 01.1.2v-.2-.2c0-.3 0-.3 0 0 0 .2 0 0 0 0 0-.1 0-.1 0 0a1.5 1.5 0 00.1.3.3.3 0 000-.1 1.1 1.1 0 010-.3v.1a1.2 1.2 0 00.1.2.2.2 0 000 .1v-.1s.1.1 0 0c0 0 .1.1.1 0 .1.2 0 0 0 0v-.2.1c0 .1 0 0 0 0l.1.2s.1 0 0 0c0-.1 0 0 .2 0l.2-.1c-.1 0 0 0 0 0v-.1h.2a3.1 3.1 0 01.4 0s0-.1.2 0a1.4 1.4 0 01.2-.1h.6a.6.6 0 00.2 0H28.5a.1.1 0 01.1 0h.2a.6.6 0 01.2 0h.1a.5.5 0 01.1 0h.5a1.5 1.5 0 01.3 0 .6.6 0 01.2 0h.2a.4.4 0 01.1 0 .8.8 0 01.2 0h.1a2 2 0 01.5 0 2.6 2.6 0 00.3 0H33.5a1.6 1.6 0 01.6 0c.1 0 .1 0 0 0h.3a3.4 3.4 0 00.7 0h.9a2.5 2.5 0 01.4 0 1.8 1.8 0 00.5 0 2.5 2.5 0 01.5 0h1.1l1-.1a1.2 1.2 0 01.4 0 .9.9 0 00.4 0 4.5 4.5 0 01.7 0h1a2.9 2.9 0 01.3-.2 3.3 3.3 0 00.5 0 .7.7 0 00.1-.1v-.5a1.5 1.5 0 010-.3v-.2a1.8 1.8 0 010-.4v-.9a2.4 2.4 0 010-.5 1.8 1.8 0 010-.5v-.2a2 2 0 000-.2V18v-.3-.2-.5a2.1 2.1 0 010-.4 8.8 8.8 0 000-1 4.6 4.6 0 010-1v-.8-.5c.1-.4 0-.5 0-.4v-.3-.2-.2c0 .2.1.2 0-.1v-.4a5.2 5.2 0 000-.7 14.4 14.4 0 01.1-2.1.2.2 0 000-.2 3.3 3.3 0 010-.7V7a1 1 0 010-.2v-.4-.2a2 2 0 010-.3v-.6H42.7a3 3 0 01-.7 0h-1-2.1a2.7 2.7 0 01-.4 0H38 36.7h-.5a2.3 2.3 0 00-.4 0 3.3 3.3 0 01-.5 0H35h-.6-.1-.2a.4.4 0 01-.2 0h-.5a1.5 1.5 0 01-.3 0 2 2 0 00-.4 0h-.2a1.9 1.9 0 00-.5 0H29.2a2.2 2.2 0 01-.4 0h-.4a1.1 1.1 0 01-.4 0h-.1a2.4 2.4 0 01-.7 0h-.4a2.9 2.9 0 00-.3 0h-.2v.5a2.8 2.8 0 010 .7c-.1 0-.1 0 0 .4v.6a1 1 0 010 .3V8a.3.3 0 01-.1.2V8.8a1.6 1.6 0 000 .5V10c0-.3.1-.3 0 .2v.8c0 .2 0 .2 0 0 0-.3 0-.3 0 0v.2c0-.4 0-.4 0 0a2 2 0 000 .6v.2c0 .2 0 .2 0 0l-.1.1v.9a1.7 1.7 0 000 .6v.2l.1.6v.2a1.6 1.6 0 010 .5v.3a1.8 1.8 0 010 .4 3.2 3.2 0 010 .3v.8c0 .1 0 .1 0 0v.2s0 .1 0 0a.3.3 0 010 .2V17.5a.6.6 0 000 .2v.1s0 .1 0 0v.8a.8.8 0 010 .1.4.4 0 000 .2v.4l-.1.2a2.6 2.6 0 010 .5v.2s0 .3-.1.1v-.1a.4.4 0 000-.2V21c0 .1 0 .1 0 0l-.1.2v.1c0 .1 0 0 0 0V21a.7.7 0 000-.2 1.4 1.4 0 010-.1.5.5 0 000-.2c0 .1 0 .2 0 0a.7.7 0 000 .2v.4a.5.5 0 000 .2v.2h-.1v.2c-.1.1-.1 0-.1-.1v-.3.4a.2.2 0 010 .1 1 1 0 000 .2l-.2-.1v.1zM33.7 23z"/><path class="cls-1" d="M26.3 4.7c.1 0 .1 0 0 0H27h-.2c-.1 0-.1 0 0-.1h-.3.4a1 1 0 00.1 0h-.4.1l.1-.1c0-.1 0 0 0 0a.4.4 0 01.2 0 .7.7 0 00.2 0H27a.3.3 0 01.1 0 1.3 1.3 0 00.2 0v-.1s.1 0 0 0a.9.9 0 00.3 0 .3.3 0 000-.1h.6a2 2 0 00.3 0H28.8a1.2 1.2 0 00.2-.1 1.2 1.2 0 01.4 0 .2.2 0 00.1 0h.2a.8.8 0 01.1 0 .2.2 0 01.1 0 .3.3 0 00.1 0 .9.9 0 01.3 0 .4.4 0 00.1 0 2.6 2.6 0 01.4 0 1.7 1.7 0 00.4 0h.2a4.6 4.6 0 01.8 0h.1 2.1a1.4 1.4 0 00.3 0 2 2 0 01.4 0l.2.1a1.6 1.6 0 01.3 0h0-.3-.5a1.5 1.5 0 01.4-.1h1l-.4.1a3.5 3.5 0 00.5 0 2.3 2.3 0 00.4 0h2-.2c-.2 0-.2 0 0 0h.3c.2 0 0 0 0 0h-.6c-.2 0-.3.1 0 .1a6.5 6.5 0 00.9 0H39.7c-.3-.1-.3-.1 0-.1h.2l-.2-.1h.6a3.3 3.3 0 00.3 0H41.2a3.9 3.9 0 01.5 0h.7c-.2 0-.2 0 0 0h.7a1.6 1.6 0 01.5.1 1.2 1.2 0 01.4.2l.2.3V5a1.7 1.7 0 01.1.4 2 2 0 010 .4V6a3 3 0 010 .3v.1a1 1 0 000 .2V7.2a5.4 5.4 0 000 .6c0 .1 0 .1 0 0v.7a3 3 0 010 .7v.8a7.5 7.5 0 010 1V12.2a1 1 0 000 .2 2.2 2.2 0 010 .6v.5a.9.9 0 010 .3.3.3 0 000 .1v.6a3 3 0 000 .3 1 1 0 010-.1 1.3 1.3 0 010 .3 1.3 1.3 0 000-.2v-.2a1.8 1.8 0 010 .5V15.8a1.1 1.1 0 010 .3 1.5 1.5 0 000 .6 4 4 0 010 .5v.1-.3.7a.3.3 0 000 .1 2.4 2.4 0 010 .5v.3a.6.6 0 010 .1.7.7 0 010 .2 2.8 2.8 0 010 .6V20a2.3 2.3 0 010 .4.6.6 0 010 .2V21a.7.7 0 010 .1 2.7 2.7 0 000 .4v.3a1.2 1.2 0 010-.2.5.5 0 000 .1v.7a1 1 0 010 .3v-.1l-.1.3a1 1 0 01-.3.2 1.2 1.2 0 01-.5.3 2.3 2.3 0 01-.6 0 1.8 1.8 0 01.3 0 1.1 1.1 0 00-.4 0 2 2 0 01-.4 0H42v.1a1.4 1.4 0 01-.3 0 2.3 2.3 0 00-.4 0h-.1-.2l-.2-.1a2 2 0 00-.8 0h-.5a1.7 1.7 0 01-.6 0 1.6 1.6 0 00-.5 0H32s.1 0 0 0l-.4-.1c0-.1 0 0 .2 0a4.9 4.9 0 00.9 0 .8.8 0 00-.3 0h-1.8-.4H31.4l-.2.1h-.6a.8.8 0 01-.1 0 .9.9 0 01-.6 0 .5.5 0 00-.3 0 1.5 1.5 0 01-.4 0H29a.7.7 0 01-.2 0h-1.7-.8a1.2 1.2 0 01-.8-.3h-.1l-.2-.3a1.5 1.5 0 000-.2l-.1-.3V22v.2a1.2 1.2 0 000-.4v-.5.2c0 .2-.1 0-.2-.2V21v-.2l-.1-.5v-.1.4a1.3 1.3 0 000 .2v-.4l.1.2c0 .2 0 .3 0 0s0-.3 0 0 0 .2 0 0V20a2.2 2.2 0 010-.4c0-.4 0-.4 0 0v-.4-.2a1.2 1.2 0 010-.3 2.8 2.8 0 000-.9V17a2 2 0 000-.3v-.2.5a.9.9 0 01-.1-.2v-.1a1 1 0 000-.4l.1-1a4.6 4.6 0 010-.7v-.5c0-.4 0-.2 0 0a2.8 2.8 0 010 .3 3.3 3.3 0 010-.4v-.5-.2.2c0 .4 0 .4 0 0V13v-.4a2.5 2.5 0 000-.3 1 1 0 010-.2v-.3c0-.2 0-.2 0 0v-1a.3.3 0 000-.1.6.6 0 010-.2v-.1-.1-.1a1 1 0 010-.2v-.1a.2.2 0 010-.1.3.3 0 000-.1 1 1 0 010-.3.5.5 0 000-.1 1.5 1.5 0 010-.3.8.8 0 010-.1 1.9 1.9 0 000-.4v-.4a.2.2 0 000-.1.4.4 0 010-.1v-.6a2 2 0 010-.2.2.2 0 000-.1v-.1-.3-.1-.1a.6.6 0 010-.1.7.7 0 000-.2.2.2 0 000-.1v-.4 0V5a.4.4 0 000 .2c0 .2 0 .1 0 0s0-.1 0 0a1 1 0 010-.3v.1L25 5v-.2h.1a.7.7 0 000 .2c-.1 0 0 0 0 0v-.1a.4.4 0 010-.2c.1 0 0 0 0 .1s0 .1 0 0a.8.8 0 01.1 0v-.1a.5.5 0 01.1 0h-.1c.2-.1.4-.2.2 0a.5.5 0 01.2-.2h.2a1.2 1.2 0 01.1 0H25.7h.2-.1.2c-.1 0-.2 0 0 0h.1l-.1.1h-.2.2a1.1 1.1 0 00-.1 0 .6.6 0 01-.1 0c0 .1 0 .1 0 0h.1v.1h-.2.2c.2 0 .2 0 0 0a1 1 0 00-.2 0 .4.4 0 01.1 0 2 2 0 01.3 0 1.2 1.2 0 00-.2 0 .7.7 0 00-.1 0h.2c-.1 0 0 0 0 0h-.2a1.1 1.1 0 01-.1.1H26c.3 0 .3 0 0 0-.2 0 0 0 0 0 .1 0 .2 0 0 0a1.4 1.4 0 00-.3.1.3.3 0 00.1 0 1 1 0 01.3 0H26a1.2 1.2 0 00-.2.1.2.2 0 00-.1 0h.2a1 1 0 01-.2 0s0 .1 0 0V5h.2a.7.7 0 00-.2 0c0 .1 0 0 .1 0h.1c-.1 0 0 0 0 0l-.2.1s0 .1 0 0c.1 0 0 0 0 .2l.1.2c0-.1 0 0 0 0h.1v.2a3.1 3.1 0 010 .4v.4h.1v.6a.6.6 0 000 .1V8a.6.6 0 010 .2v.1a.5.5 0 010 .1v.5a1.9 1.9 0 010 .2.7.7 0 010 .3v.2a.3.3 0 010 .1.7.7 0 010 .2v.1a2 2 0 010 .5 2.3 2.3 0 000 .3V12.7a1.6 1.6 0 010 .6c0 .1 0 .1 0 0v.3a3.4 3.4 0 000 .7v.9a2.5 2.5 0 010 .4 1.8 1.8 0 000 .5 2.6 2.6 0 010 .5v2.1a1.2 1.2 0 010 .4.9.9 0 000 .4 4.4 4.4 0 01.1.7v1a2.7 2.7 0 01.1.3 3.4 3.4 0 00.2.5.8.8 0 000 .1h.5a1.5 1.5 0 01.3 0h.2a1.7 1.7 0 01.4 0h.9a2.4 2.4 0 01.5 0 1.7 1.7 0 01.5 0h1.6a2 2 0 01.4 0 8.8 8.8 0 001 0 4.8 4.8 0 011 0H36c-.2 0-.2.1.1 0h.4a5 5 0 00.7 0 14.4 14.4 0 012 .1.2.2 0 00.3 0 3.3 3.3 0 01.7 0h1a1 1 0 01.2 0H42.1a2.1 2.1 0 01.3 0h.6V21.9a3 3 0 010-.7v-1-.5-.9a4 4 0 010-.5V18a2.7 2.7 0 010-.3v-.2-.3-.6-.7-.5a2.2 2.2 0 000-.4 3.2 3.2 0 010-.5v-.2-.6-.1-.2a.4.4 0 010-.2v-.5a1.4 1.4 0 010-.3 2 2 0 000-.4v-.2a1.9 1.9 0 000-.5V9.1v-.7a2.2 2.2 0 010-.4v-.4a1 1 0 010-.4V7a2.5 2.5 0 010-.7V6a3 3 0 000-.3 1.5 1.5 0 010-.2 5 5 0 00-.5 0 2.8 2.8 0 01-.7 0h-.4-.5-.1a1 1 0 01-.3 0h-.2a.3.3 0 01-.2-.1H40s-.3.1-.4 0a1.6 1.6 0 00-.5 0H38.4c.3 0 .3.1-.2.1h-.3-.5c-.2 0-.2 0 0 0 .3 0 .3 0 0 0h-.2c.4-.1.4-.1 0-.1a2 2 0 00-.7 0h-.1c-.2 0-.2 0 0 0l-.2-.1H36h0-.4-.1a1.7 1.7 0 00-.6 0h-.2l-.6.1h-.2a1.7 1.7 0 01-.5 0H33a1.6 1.6 0 01-.4 0 3 3 0 01-.4 0h-1a.3.3 0 01-.2 0 .4.4 0 01-.2 0 .6.6 0 00-.2 0h-.1s-.1 0 0 0h-.2-.4-.2a.7.7 0 01-.1 0 .3.3 0 00-.1 0H29h-.2v-.1a2.8 2.8 0 01-.5 0H28s-.3 0-.1-.1h.1a.4.4 0 00.2 0H27.4c-.1 0-.1 0 0 0h-.2a.2.2 0 000-.1H27c-.1 0 0 0 0 0h.2a.6.6 0 00.2 0 1.1 1.1 0 01.1 0 .5.5 0 00.1 0 .6.6 0 00.1-.1c-.1 0-.2 0 0 0a.6.6 0 00-.2 0h-.1-.3a.5.5 0 00-.2 0h-.4c-.1-.1 0-.1.1-.1a8 8 0 01-.1 0 .2.2 0 01-.1 0 1.2 1.2 0 00-.2 0l.1-.2h-.1zM25.4 13v-.1zM8.6 17.5v-.2c0 .1 0 .1 0 0a.4.4 0 01-.1.2v-.1a.2.2 0 000-.1 1.1 1.1 0 000 .1c-.1-.1-.1-.1 0-.1a.2.2 0 000-.1h-.1a.2.2 0 000-.1h-.1c-.1 0 0 0 0 0v-.2c-.1 0-.1 0 0 0h-.1v-.1-.1a.4.4 0 000-.2H8a.3.3 0 000-.2.2.2 0 010-.2.2.2 0 010-.1v-.1a.2.2 0 010-.1.5.5 0 010-.3v-.1a.4.4 0 010-.1.9.9 0 010-.4v-.1-.2V14.3v-.1-.2c0-.2 0 0 0 0a.3.3 0 000-.2.4.4 0 010-.2v-.2-.2.1a.7.7 0 000-.2v-.2a2.4 2.4 0 010-.4v-.4c0 .1 0 .1 0 0a.7.7 0 00.1-.1 2.1 2.1 0 010 .3 1.3 1.3 0 000-.4v-.2-.1c0 .2 0 .1 0 0H8v-.2a.7.7 0 000-.2.6.6 0 000-.1V11a.7.7 0 010-.3v-.2-.2c0 .2 0 .2 0 0a2.7 2.7 0 01.1-.5 1 1 0 01.2-.4c0-.1 0-.1 0 0l.3-.2h.3c-.1 0 0 0 0 0a.7.7 0 01.3 0h.2a.2.2 0 01.1 0h.2a1 1 0 00.3 0h.6a2.5 2.5 0 01.4 0 1.5 1.5 0 01.4 0h.2v.1h.1a2.3 2.3 0 00.3 0h.3a2.2 2.2 0 01.2 0 .2.2 0 01.2 0h.3a.7.7 0 00.1 0l.1-.1H13h.5a.2.2 0 01.2 0 .3.3 0 00.2 0 .7.7 0 01.3 0h-.1a1.8 1.8 0 01.3 0 .5.5 0 01.3 0 .6.6 0 01.1 0h.5c.1 0 .1 0 0 0h.2a.5.5 0 01.2 0h.2a1 1 0 00.3 0h.3a.8.8 0 01-.2 0 .3.3 0 00.1 0 1.2 1.2 0 01.4 0v.1h.1a.8.8 0 01.3.4c.1.3 0 .3 0 .1a.8.8 0 000 .2v.4a1.2 1.2 0 00.1.3.4.4 0 000 .2v.2s-.1.2 0 .4v.5a.3.3 0 000 .2V15l-.1.2V15a1 1 0 000-.4 1.2 1.2 0 000 .5v.4a.5.5 0 010 .1v0-.3-.1s.1 0 0 0v.3h.1v.7a3.9 3.9 0 010 .7 1.4 1.4 0 010 .2v.6l-.2.3v.1l-.4.2s-.2 0 0 0v-.1a.8.8 0 00-.2 0h-.3v.1h-.1l-.2.1h-.1l-.2.1.1-.1a.4.4 0 00.1 0h-.2.1c.1 0 .2 0 0 0-.1 0-.1 0 0 0 .2 0 .2 0 0 0v-.1h-.3a.5.5 0 01-.1 0c-.2 0-.2 0 0 0l-.2.1H15h-.1c-.2-.1-.5 0-.4 0H14a.5.5 0 00-.1 0h-.1.2-.1H13.4l-.1-.1a1 1 0 01-.2 0H13h-.2c-.1 0 0 .1 0 .1a.5.5 0 01.1 0 .6.6 0 01-.1 0 1.8 1.8 0 00-.3 0c.2 0 .2 0 0 0H12.1a.5.5 0 00-.2 0h-.2c-.1 0 0 0 0-.1h-.5a.4.4 0 01-.2 0l.1.1H11 11 10.6a.3.3 0 01-.1 0 .1.1 0 01-.1 0h-.2a1 1 0 01-.1 0h-.7c-.1 0-.1 0 0 0h-.2v-.1H9a.5.5 0 00-.2 0c.1 0 .1 0 0 0h-.2l-.2-.1a.5.5 0 00.1 0 .6.6 0 00.1 0 .4.4 0 01-.3-.1c0-.1 0 0 .2 0a.6.6 0 01-.1 0V18a.4.4 0 01-.1 0V18a.3.3 0 010-.2.3.3 0 010-.1c.1 0 .1 0 0 0h.1c0 .1 0 0 0 0a.3.3 0 01.1.1.7.7 0 000-.1c0-.2 0-.2 0 0 0 0 0-.1 0 0a.6.6 0 00.1.1.3.3 0 010-.2l.1.2s0-.1 0 0l.1-.1s.1 0 0 0-.1.1 0 0c0 0-.1.1 0 0a.6.6 0 010-.2H9a1 1 0 01.2 0c0-.1 0-.1.1 0a.4.4 0 01.1-.1 1.8 1.8 0 01.3 0H10a.1.1 0 01.1 0 .1.1 0 01.1 0 .4.4 0 01.1 0h.1a.3.3 0 01.2 0 .6.6 0 01.2 0 .2.2 0 00.1 0h.3a1.2 1.2 0 01.2 0h1c.1 0 .1 0 0 0h.7a1.3 1.3 0 00.2 0 .5.5 0 01.2 0h.2a.5.5 0 01.3 0h.4a4.8 4.8 0 00.5-.1.2.2 0 01.2 0h.1a.9.9 0 01.3 0 1.6 1.6 0 00.2 0H16V17 17a1.7 1.7 0 000-.4.5.5 0 010-.2V16a.4.4 0 000-.1v-.1-.2a1 1 0 000-.3.4.4 0 010-.1 1.7 1.7 0 000-.5v-.4-.3a1.3 1.3 0 000-.3V13.4v-.1c0-.1 0-.2 0 0V13 13a1 1 0 000-.3 2.8 2.8 0 010-1c.1 0 .1 0 0 0v-.4a2.5 2.5 0 000-.4v-.1V10.5c.1 0 0 0 0 0h-.7a.8.8 0 00-.2 0h-.2a.8.8 0 01-.2 0 .7.7 0 01-.1 0 .5.5 0 01-.2 0h-.2-.3a1.6 1.6 0 00-.3 0 1.4 1.4 0 01-.2 0 .5.5 0 00-.2 0 .5.5 0 01-.2 0c-.1 0-.1 0 0 0h-.2a.4.4 0 01-.1 0 .2.2 0 01-.1 0h-.2a.9.9 0 00-.2 0h-.1a.4.4 0 00-.2 0 .4.4 0 00-.3 0h-1a2.3 2.3 0 01-.3 0 .4.4 0 01-.2 0 1 1 0 01-.1 0 .1.1 0 00-.1 0 .2.2 0 01-.2 0h-.3-.1v.6a.2.2 0 010 .1v.5a.3.3 0 000 .2v.2c0 .1 0 .2 0 0s.1 0 .1.1v.4c0 .1 0 .1 0 0s0-.1 0 0v.1c-.1-.2-.1-.2-.1 0a.4.4 0 000 .3c0 .1 0 .1 0 0l-.1.1v.1c0-.1 0 0 0 0v.6l.1.3v.6a.6.6 0 010 .2v.6a.1.1 0 000 .1s0 .1 0 0V16.5h-.1a.6.6 0 010 .2v.1s0 .1 0 0H9v.4H9c0 .1 0 0 0 0V17a.1.1 0 000-.1v.4h-.1v.1h-.1c-.1 0 0-.2 0-.2a.8.8 0 000 .2.2.2 0 000 .1h-.1-.1zM12.3 18zM8.6 38.6v-.2a.4.4 0 01-.1.1v-.1a1.1 1.1 0 000 .1v-.1c-.1 0-.1 0 0 0v-.1h-.1v-.1c0-.1 0 0 0 0h-.1c-.1 0 0 0 0 0V38c-.1 0-.1 0 0 0 0 0 0-.1 0 0v-.1h-.1v-.1s0-.1 0 0v-.2H8a.3.3 0 000-.1.3.3 0 000-.1.2.2 0 010-.2V37 37a.2.2 0 010-.2.5.5 0 010-.2v-.2a.9.9 0 010-.4v-.2-.1-.4-.2-.1a.3.3 0 000-.1.4.4 0 010-.2v-.3V34.3s0 .2 0 0a.7.7 0 000-.1V34a2.4 2.4 0 010-.4V33v.1a.7.7 0 00.1-.1c0-.1 0 0 0 0a2.1 2.1 0 010 .2c0 .1 0 .1 0 0a1.3 1.3 0 000-.4v-.1-.1c0 .1 0 .1 0 0a.5.5 0 000-.1H8v-.2a.7.7 0 000-.1.6.6 0 000-.2.7.7 0 010-.3v-.3-.1c0 .2 0 .2 0 0a2.7 2.7 0 01.1-.5 1 1 0 01.2-.4v-.1l.3-.1H9c-.1 0 0 0 0 0a.7.7 0 01.3 0h.2a.3.3 0 01.1 0h.2a1 1 0 00.3 0h.6a2.5 2.5 0 01.4 0 1.5 1.5 0 01.4 0H11.7a2.3 2.3 0 00.3 0h.3a2.2 2.2 0 01.2 0 .2.2 0 01.2 0h.3a.6.6 0 00.1 0h0l.2-.1h.2a.2.2 0 01.2 0 .3.3 0 00.2 0 .7.7 0 01.3 0h-.1a1.8 1.8 0 01.3 0 .5.5 0 01.3 0 .6.6 0 01.1 0h.5c.1 0 .1 0 0 0h.2a.5.5 0 01.1 0H16a1 1 0 00.3 0h.3a.8.8 0 01-.2 0 .3.3 0 00.1 0 1.2 1.2 0 01.4 0v.1l.1.1a.8.8 0 01.3.3c.1.4 0 .4 0 .1a.8.8 0 000 .3v.3a1.2 1.2 0 00.1.3.3.3 0 010 .1.4.4 0 000 .2c0 .1 0 .1 0 0v.1c0 .1 0 0 0 0s-.1.3 0 .4v.5a.3.3 0 000 .3V36l-.1.2a1 1 0 000-.5 1.2 1.2 0 000 .5v.4a.5.5 0 010 .2v-.3-.2s.1 0 0 .1v.3h.1V37.3a3.9 3.9 0 010 .8 1.4 1.4 0 010 .2v.5l-.2.4v.1l-.4.1s-.2 0 0 0a.8.8 0 00-.2 0h-.3c.2 0 0 .1-.1.1h-.2l-.1.1h-.2.1a.4.4 0 00.1 0h-.2.1c.1 0 .2-.1 0-.1-.1 0-.1 0 0 0 .2 0 .2 0 0 0h-.3a.5.5 0 01-.1 0c-.2 0-.2 0 0 0h-.2-.1-.5-.4a.5.5 0 00-.1 0h-.1l.2.1c0 .1 0 0 0 0H14h-.2c-.2 0-.5 0-.4-.1h-.1a1 1 0 01-.2 0H13h-.2c-.1 0 0 0 0 0a.5.5 0 01.1.1.6.6 0 01-.1 0 1.8 1.8 0 00-.3 0c.2 0 .2 0 0 0H12.1a.5.5 0 00-.2 0l-.2-.1c-.1-.1 0 0 0 0h-.5a.5.5 0 01-.2 0h.1c0 .1 0 .1 0 0H11 11 10.6a.3.3 0 01-.1 0 .1.1 0 01-.1 0h-.2a1 1 0 01-.1 0h-.7c-.1 0-.1 0 0 0H9a.4.4 0 00-.2 0c.1-.1.1-.1 0 0l-.2-.1h-.2v-.1a.5.5 0 00.1 0 .6.6 0 00.1 0 .4.4 0 01-.3 0c0-.1 0 0 .2 0a.5.5 0 01-.1-.1.4.4 0 01-.1-.1v-.2a.3.3 0 010-.1v-.1.1-.1a.1.1 0 010 .1.1.1 0 01.1 0c0-.1 0-.1 0 0v-.1a.2.2 0 000 .1c0-.1 0-.1 0 0a.6.6 0 01.1 0 .7.7 0 000-.1c0-.1 0-.1 0 0a.6.6 0 00.1.1.3.3 0 010-.1l.1.1H9s.1 0 0 0a.4.4 0 000-.1.6.6 0 010-.1v-.1h.2a1 1 0 01.1 0h.1a.5.5 0 01.1 0 1.6 1.6 0 01.3-.1H10s.1 0 0 0a.1.1 0 01.2 0 .4.4 0 01.1 0h.1a.3.3 0 01.2 0 .6.6 0 01.2 0h.4a.5.5 0 00.1 0 1 1 0 01.1 0H12.2a.3.3 0 01.3 0H13a1.3 1.3 0 00.2 0 .5.5 0 01.2 0h.2a.5.5 0 01.3 0h.4a4.8 4.8 0 00.5 0 .2.2 0 01.2 0h.1a.9.9 0 01.3 0 1.4 1.4 0 00.2 0s.1-.1.1 0l.1-.1h.1V38v-.2a1.7 1.7 0 000-.4.5.5 0 010-.2v-.2-.1a.5.5 0 000-.1v-.2-.1a1 1 0 000-.3.4.4 0 010-.1 1.7 1.7 0 000-.5v-.4-.3a1.3 1.3 0 000-.3V34.4v-.2s0 .1 0 0V34a1 1 0 000-.3 2.8 2.8 0 010-1c.1 0 .1 0 0 0v-.3a2.5 2.5 0 000-.4v-.1-.2-.1c.1-.1 0-.1 0-.1h-.7a.7.7 0 00-.2 0h-.2a.8.8 0 01-.2 0 .7.7 0 01-.1 0 .5.5 0 01-.2 0h-.2-.3a1.6 1.6 0 00-.3 0 1.4 1.4 0 01-.2 0 .5.5 0 00-.2 0 .5.5 0 01-.2 0c-.1 0-.1 0 0 0h-.2a.4.4 0 01-.1 0 .2.2 0 01-.1 0h-.2a.9.9 0 00-.2 0h-.1a.4.4 0 00-.2 0 .4.4 0 00-.3 0h-1a2.6 2.6 0 01-.3 0 .4.4 0 01-.2 0 1 1 0 01-.1 0 .1.1 0 00-.1 0 .2.2 0 01-.2 0h-.3-.1v.5c0 .2 0 0 0 0v.1a.2.2 0 010 .2c0-.1 0 0 0 0v.4a.3.3 0 000 .2v.2c0 .1 0 .2 0 0s.1 0 .1.2V33.6c0 .1 0 .1 0 0s0-.1 0 0v.1c0-.1 0-.1-.1 0a.4.4 0 000 .3c0 .2 0 .2 0 0v.5c0-.1-.1-.1 0 0V35.8a.6.6 0 010 .1V36.3c0 .1 0 0 0 0v.1s0 .1 0 0v.2a.1.1 0 000 .1v.8l-.1.1a.6.6 0 010 .2c0 .1 0 .2-.1.1v-.1.5H9V38a.1.1 0 000-.1.1.1 0 000 .1V38.4l-.1.1h-.1c-.1 0 0-.1 0-.1a.8.8 0 000 .1.2.2 0 000 .2h-.1-.1zM12.3 39z"/><path class="cls-1" d="M38.6 18h-.2.1c.1 0 .1 0 0 0a.2.2 0 00-.1 0 1.2 1.2 0 00.2 0h-.1v.1h-.1a.1.1 0 00-.1 0 .3.3 0 00-.1 0v.1c0 .1 0 0 0 0H38v.1H38h-.2a.4.4 0 00-.1 0 .3.3 0 00-.1 0 .3.3 0 00-.2.1.2.2 0 01-.1 0h-.1a.2.2 0 01-.1 0H37h-.1a.5.5 0 01-.3 0h-.2a1 1 0 01-.3 0H35.8h-.4-.1-.2c-.2 0 0 0 0 0a.3.3 0 00-.2 0 .4.4 0 01-.1 0c0-.1 0-.1-.1 0h-.2.2-.4c.1 0 .2 0 .1-.1a.7.7 0 00-.2 0H34a2.6 2.6 0 01-.4 0h-.4c.1 0 .1 0 0 0-.2 0-.1 0 0 0a2.3 2.3 0 01.2 0s.1 0 0-.1a1.2 1.2 0 00-.4 0h-.2c-.2 0-.2.1 0 .1h-.1v.1h-.2a.6.6 0 00-.2 0 .6.6 0 00-.1 0h-.1a.7.7 0 01-.3 0H31.5c.1 0 .1 0 0 0a2.7 2.7 0 01-.6 0 1 1 0 01-.4-.2V18l-.1-.2v-.3-.1a.7.7 0 01-.1-.3v-.1a.7.7 0 000-.1v-.1-.2a1.1 1.1 0 000-.2s0-.1 0 0V16v-.3a2.5 2.5 0 010-.3 1.5 1.5 0 010-.4V15h.1v-.1a2.2 2.2 0 000-.2v-.1-.3a2.2 2.2 0 010-.2.2.2 0 010-.2v-.2a.6.6 0 000-.2h-.1V13.2 13a.2.2 0 010-.2.3.3 0 000-.2.8.8 0 010-.2v-.1.1a1.8 1.8 0 010-.3.5.5 0 010-.2.6.6 0 010-.2v-.1-.4s0-.1 0 0V11a.5.5 0 010-.2.1.1 0 010-.1c0-.1 0 0 0 0v-.1-.1a.9.9 0 000-.3v-.2a1 1 0 010 .2.3.3 0 000-.2 1.2 1.2 0 010-.4 1 1 0 01.1 0l.1-.1a.8.8 0 01.3-.3h.1a.8.8 0 00.3 0h.3a1.2 1.2 0 00.3 0v-.1a.4.4 0 00.2 0H32.3l.3.1h.5a.3.3 0 00.2 0H36.3s0 .1 0 0a1 1 0 00-.5 0 1.2 1.2 0 00.5.1h.4a.6.6 0 01.1 0h.1l-.1-.1h-.2-.2.4l.3-.1H37.4c.2 0 0 0 0 0a3.9 3.9 0 01.8 0 1.4 1.4 0 01.1 0h.6l.3.2.2.1v.3l.1.1v-.1a.8.8 0 000 .3V10.3c0-.2 0 0 .1 0V10.7l.1.2v-.1a.4.4 0 00-.1-.1v.2-.1c0-.1 0-.1 0 0 0 .2 0 .2 0 0 0-.1 0-.1 0 0v.3a.5.5 0 010 .2c0 .1 0 .1 0 0v.4c-.1.1 0 .4 0 .4v.3a.5.5 0 000 .2v-.2.8a1 1 0 010 .3 1.6 1.6 0 010 .2c0 .2 0 .1 0 0a.6.6 0 010-.1.6.6 0 010 .2 1.7 1.7 0 000 .2c0-.2 0-.2 0 0V14.3a.5.5 0 000 .2v.2c0 .1 0 .1 0 0v.5a.1.1 0 010 .1v.5a.3.3 0 010 .2v.2a1 1 0 010 .2v.3a.5.5 0 010 .1v.2c0 .1 0 0 0 0v.1a.1.1 0 000 .1h-.1V17.5a.4.4 0 000 .1c0-.1 0 0 0 0v.2l-.1.2a.5.5 0 000-.2v.1a.4.4 0 01-.1.2V18c0-.1 0-.1 0 0l-.1.1c-.1.1-.2.1-.1 0a.3.3 0 01-.1 0l-.1.1h-.1.1-.1V18c.1 0 .1 0 0 0 .1-.1.1-.1 0 0l.1-.1h-.1a.3.3 0 01.1 0 .8.8 0 00-.1 0c-.2 0-.1 0 0 0v-.1a.6.6 0 00.1 0 .3.3 0 01-.1 0v-.1h.1s-.1 0 0 0v-.1h-.1s0-.2 0 0h-.1v-.1h-.1v-.1a.8.8 0 010-.2h-.1a.3.3 0 010-.2 1.7 1.7 0 010-.2.1.1 0 000-.1v-.1s0-.1 0 0v-.1-.1a.1.1 0 010-.1v-.2-.1a.3.3 0 010-.1v-.1a.6.6 0 010-.1v-.1a.2.2 0 000-.1v-.2a.5.5 0 000-.2 1 1 0 010-.1V14.7v-.4-.3c0-.1 0-.1 0 0v-.2-.3-.2a1.3 1.3 0 000-.2.5.5 0 010-.1v-.3a.5.5 0 010-.2V12a4.4 4.4 0 00-.1-.5.3.3 0 010-.1v-.2a.9.9 0 010-.3 1.2 1.2 0 000-.2v-.1a.5.5 0 010-.2H38 38a1.8 1.8 0 00-.4 0 .5.5 0 01-.2 0H37a.4.4 0 00-.1 0H36.7a1 1 0 00-.3 0 .4.4 0 01-.2 0 1.7 1.7 0 00-.4 0H35a1.3 1.3 0 00-.2 0H34.5h-.2c.1 0 0 0 0 0a1.6 1.6 0 01-.2 0 1 1 0 00-.4 0 2.9 2.9 0 01-.9 0h-.4a2.5 2.5 0 00-.4 0h-.1H31.6v.7a.7.7 0 000 .2v.2a.9.9 0 010 .2.6.6 0 010 .1.5.5 0 010 .2c0 .1 0 .1 0 0a1.5 1.5 0 010 .2v.3a1.6 1.6 0 000 .3 1.4 1.4 0 010 .2v.2a.5.5 0 010 .2V13.8a.2.2 0 010 .1v.1a1 1 0 000 .3v.2a.4.4 0 000 .1v.1a.4.4 0 000 .2v1a2.6 2.6 0 010 .3.4.4 0 010 .2 1 1 0 010 .2.2.2 0 010 .2v.4c0 .1 0 0 0 0h.6a.2.2 0 01.1 0h.5a.3.3 0 00.2 0h.2c.1 0 .2 0 0 0s-.1 0 .1 0h.2.2s.1 0 0 0-.1 0 0 0c.3 0 .3 0 0 0a.4.4 0 00.4 0c.1 0 .1 0 0 .1H34.3c-.1 0 0 0 0 0H35l.3-.1h.6a.6.6 0 01.2 0h.4c.1 0 0 0 0 0h.2a.1.1 0 00.1 0h.8v.1a.6.6 0 01.3 0s.2 0 .1.1h-.1.4v.1c.1 0 0 0 0 0a.3.3 0 01-.1 0 .1.1 0 00-.1 0h.2a.1.1 0 00.1 0h.1v.1h.1v.1h-.2a.8.8 0 00.2 0 .2.2 0 00.1 0v.2c.1 0 .1 0 0 0zM39.1 14.2zM6.8 43.2h.5H7 7c-.1 0 0 0 0 0H7.2a.8.8 0 00.1 0H7 7V43h.1a.3.3 0 01.2 0h.1a.7.7 0 00.1 0h-.1V43a.3.3 0 01.1 0 1 1 0 00.2 0s.1 0 0-.1a.8.8 0 00.3 0h.4c.2 0 .2 0 .1-.1h.1a1.9 1.9 0 00.2 0H9.1a1 1 0 00.2 0 1 1 0 01.4 0h.2a1 1 0 01.2 0 .2.2 0 00.1 0 .8.8 0 01.3 0 .3.3 0 00.1 0 2.2 2.2 0 01.4 0 1.7 1.7 0 00.3 0 1.7 1.7 0 01.2 0 4 4 0 01.7-.1h.2.8l.5.1h.6a1.2 1.2 0 00.3 0 2 2 0 01.4 0h.1a1.4 1.4 0 01.4 0h0-.3-.5a1.3 1.3 0 01.3-.1h1l-.4.1a2.8 2.8 0 00.5 0 2 2 0 00.4 0h1.8-.2c-.1 0-.1 0 0 0a3.2 3.2 0 00.3 0c.2 0 .1 0 0 0h-.5c-.2 0-.3.1 0 .1a5.7 5.7 0 00.8 0h.4c.3 0 .3 0 .2-.1-.3 0-.3 0 0 0h.2l-.2-.1h.5a2.7 2.7 0 00.3 0h.7a.2.2 0 00.1-.1v-1-.1a1.3 1.3 0 000-.3 1.4 1.4 0 010-.4c0 .2.1 0 .1 0a2.5 2.5 0 010-.4v-.2-.5-.2a5 5 0 000-.5V38.1a2.6 2.6 0 010-.7v-.7a6.6 6.6 0 010-.9v-.4-.7a.8.8 0 000-.3 1.9 1.9 0 010-.5v-.5a.8.8 0 010-.3v-.6a2.8 2.8 0 000-.3.8.8 0 010 .2 1.2 1.2 0 010-.4 1 1 0 000 .2v.2a1.6 1.6 0 010-.5v-.3V31.4a1 1 0 010-.3 1.3 1.3 0 000-.5 3.5 3.5 0 010-.5v-.2-.3a.2.2 0 000-.1 2.2 2.2 0 010-.4 2.7 2.7 0 010-.4.7.7 0 010-.3 2.5 2.5 0 010-.5v-.3s0-.1 0 0v-.2-.2-.1h-.4a1.1 1.1 0 01.2 0V27a.4.4 0 00-.1 0H19.2a.8.8 0 00-.3 0 1.7 1.7 0 01-.3 0c-.6 0-.7 0-.4.1a1.3 1.3 0 01-.4 0 1.8 1.8 0 00-.3 0h-.1H17c0-.1-.4-.2-.8-.1h-.5a1.5 1.5 0 01-.5 0 1.4 1.4 0 00-.5 0H8.9s.1 0 0 0h-.3.1a4.3 4.3 0 00.8 0 5.4 5.4 0 00-.9 0h-1-.4 1.1l-.2.1h-.5a.6.6 0 01-.1 0 .8.8 0 01-.6 0h-.3a1.3 1.3 0 01-.3 0h-.2a4.2 4.2 0 01-.6 0H5a.2.2 0 000 .1h-.1c-.1 0 0 0 0 0v.2a1.3 1.3 0 000 .5v.2a2 2 0 000 .4c0 .1 0 .3 0 0a.8.8 0 000 .2l-.1.3V29.6l.1.2V29.9a1.3 1.3 0 000-.2v.2c0-.2-.1-.2-.1 0 0 .3 0 .3 0 0 0-.2 0-.2 0 0v.6a2 2 0 010 .3c0 .4 0 .4 0 0 0-.3 0-.4 0 0V31.3a1 1 0 010 .3v1.5a1.8 1.8 0 000 .3V33.3a.7.7 0 01.1.1v.2a.9.9 0 000 .3l-.1 1c0-.1 0-.1 0 0a4.3 4.3 0 010 .6v.5c0 .3 0 .2 0 0a2.6 2.6 0 010-.3 2.6 2.6 0 010 .4V36.5c0-.3 0-.3 0 0V37.4a2.2 2.2 0 000 .3.8.8 0 010 .2v.2c0 .2 0 .2 0 0v1a.3.3 0 000 .1.6.6 0 010 .2V39.7a1 1 0 010 .1v.2a.4.4 0 000 .1.8.8 0 010 .3.4.4 0 000 .1 1.5 1.5 0 010 .2.5.5 0 010 .2 1.6 1.6 0 000 .3v.4a.1.1 0 000 .1.3.3 0 010 .1V42.7H5a.1.1 0 000 .1H5v.1H5.4c.1 0 0 0 0 0a.8.8 0 00.2 0h.1-.1c-.1 0 0 0 0 0H6l-.2.1h.1a.4.4 0 01.2 0h-.1.2a.6.6 0 01.2 0 .7.7 0 01.2 0h-.2.2v.1h-.1.2a.2.2 0 01-.1 0s-.1 0 0 0h0-.1.1v.1a.3.3 0 01-.1 0c-.1 0-.1 0 0 0h-.1.1c.2 0 .2 0 0 0h-.1.3-.2a1.2 1.2 0 00-.1 0h.2c-.1 0 0 .1 0 .1h-.2a.8.8 0 01-.1 0h.1a7.3 7.3 0 00.2 0c.1 0 .1.1 0 .1h-.3.1a2 2 0 01.2 0c.1 0 0 0 0 0v.1h-.3a.8.8 0 01-.1 0h.1a.7.7 0 01-.1 0s-.1 0 0 0a1 1 0 01.1.1h-.1H6.2c-.2 0 0 0 0 0 .2 0 0 .1-.1 0h-.2s-.1 0 0 .1l-.5.1a.3.3 0 00-.1 0 1 1 0 01.1 0c.1 0 0 0 0 0a.1.1 0 01-.1 0H5a1.3 1.3 0 01-.4 0l-.2-.1a1 1 0 01-.2-.2H4v-.1a1.2 1.2 0 01-.4-.7V42.3v-.1-.2c0-.1 0-.1 0 0v-.2a.5.5 0 010-.2v-.1a.4.4 0 010-.1v-.2-.2-.1a1.3 1.3 0 010-.2.6.6 0 010-.2v-.2a.4.4 0 010-.1.7.7 0 010-.2.2.2 0 000-.1 1.8 1.8 0 010-.4 2.3 2.3 0 000-.3v-1V37.2a1.4 1.4 0 010-.5c0-.2 0-.2 0 0v-.3a3 3 0 000-.7v-.4-.5a2.2 2.2 0 010-.3 1.5 1.5 0 000-.5 2.2 2.2 0 010-.5v-1-1a1 1 0 010-.3.8.8 0 000-.4 4 4 0 010-.6 3.4 3.4 0 00-.1-.5 2.3 2.3 0 010-.4v-.1a2.2 2.2 0 010-.4V27.2a1.4 1.4 0 01.1-.5 1 1 0 01.4-.5 1.1 1.1 0 01.2-.1 1.1 1.1 0 01.6-.2h.9a2 2 0 01.5 0 1.5 1.5 0 01.5 0h.1a1.9 1.9 0 00.2 0h1.2a1.8 1.8 0 01.3 0 7.6 7.6 0 001 0 4 4 0 01.9 0h.7a5.6 5.6 0 00.9 0h.6.5a4.6 4.6 0 00.7 0 12.7 12.7 0 012 0h.1a3 3 0 01.7 0h1a.8.8 0 01.1 0h.5a1.8 1.8 0 01.4 0 3.8 3.8 0 00.8 0c-.1-.1.2-.1 1-.1h.4a1.4 1.4 0 01.3 0l.2.1a1.4 1.4 0 01.5.5 1.4 1.4 0 01.3.4 1.6 1.6 0 010 .5c0-.1 0 0 0 0v2a2.3 2.3 0 010 .3v1a8 8 0 000 1.2 2 2 0 000 .3 2.8 2.8 0 010 .5v1a.4.4 0 010 .2v.4a1.3 1.3 0 010 .4 1.8 1.8 0 000 .3v.2a1.7 1.7 0 000 .5v2.7a2 2 0 010 .4v.3a.6.6 0 000 .1 1 1 0 010 .4 2.1 2.1 0 010 .7v.6a4.3 4.3 0 010 .7v1a1.2 1.2 0 01-.5 1 4 4 0 01-.5.3l-.4.1h-.2-.2a1 1 0 01-.3 0H20a.3.3 0 01-.2 0h-.2-.4a1.5 1.5 0 00-.5 0h-.5c.3 0 .3.1-.2.1h-.3-.5c-.2 0-.2 0 0 0 .3 0 .3 0 0 0H17c.4 0 .4 0 0-.1a1.7 1.7 0 00-.6 0h-.2c-.1 0 0 0 0 0h-.4 0-.3-.2a1.5 1.5 0 00-.5 0h-.9a1.5 1.5 0 01-.5 0h-.3a1.5 1.5 0 01-.4 0 2.6 2.6 0 01-.3 0h-.5-.1-.4a.3.3 0 01-.1 0H11a.5.5 0 00-.1 0h-.2-.1-.4-.2a.6.6 0 01-.1 0 .3.3 0 00-.1 0h-.5H9a2.4 2.4 0 01-.4 0v-.1h-.2-.1.1a.3.3 0 00.1 0h-.8l-.2-.1c-.2 0 0 0 0 0h.1a.5.5 0 00.2 0H8a.5.5 0 00.1 0 .6.6 0 00.1-.1H7.8h-.3a.4.4 0 00-.1 0 .6.6 0 01-.2 0H7v-.1h0v-.1a1 1 0 00-.2 0v-.1c-.1 0-.1 0 0 0zM4.3 37.1z"/><path class="cls-1" d="M4.5 28.7c0 .1 0 .1 0 0v.5-.1-.1h.1v-.2.3a.8.8 0 000 .2v-.4.1s0 .1 0 0h.1a.4.4 0 010 .2v.1a.6.6 0 000 .2v-.1.1a1 1 0 000 .2l.1-.1c.1 0 0 0 0 0 0 .1 0 .2 0 0a.7.7 0 000 .3.3.3 0 00.1 0v.5c0 .1 0 .2 0 0v.1H5a1.9 1.9 0 000 .3v.2a1 1 0 000 .3 1 1 0 010 .3.2.2 0 000 .1v.1a.8.8 0 010 .2.2.2 0 000 .2.8.8 0 010 .2.3.3 0 000 .1 2.2 2.2 0 010 .4 1.5 1.5 0 000 .4v.1a4 4 0 010 .8v2.1a1.1 1.1 0 000 .3 1.8 1.8 0 010 .3v.2a1.3 1.3 0 010 .3v-.3-.4a1.2 1.2 0 01.1.3v.9l-.1-.3a3 3 0 000 .4 2 2 0 000 .4v1.9-.2c0-.2 0-.2 0 0a2.7 2.7 0 000 .3c0 .1 0 0 0 0v-.6c0-.2-.1-.3-.1 0a5.6 5.6 0 000 .8v.4c0 .4 0 .4.1.2 0-.3 0-.3 0 0v.2l.1-.2v.5a2.9 2.9 0 000 .3v.8a.2.2 0 00.1 0v.1h1.1a1.3 1.3 0 00.3 0 1.4 1.4 0 01.4 0c-.2 0 0 0 0 0a2.5 2.5 0 01.4 0H8h.2a5 5 0 00.5 0h.7a2.6 2.6 0 01.7 0h.8a6.6 6.6 0 01.8 0h.5l.1.1a.1.1 0 01.1 0h.5a.8.8 0 00.2 0 1.9 1.9 0 01.5 0h.5a.8.8 0 01.4 0h.5a2.6 2.6 0 00.4 0 .8.8 0 01-.2 0 1.2 1.2 0 01.3 0v-.1a1 1 0 00-.2 0h-.1a1.6 1.6 0 01.5 0h.3H16.4a1 1 0 01.3 0 1.3 1.3 0 00.5 0 3.5 3.5 0 01.5 0h.1-.3H18.2a2.2 2.2 0 01.5 0 2.7 2.7 0 01.3 0 .5.5 0 01.1 0 .7.7 0 01.2 0 2.5 2.5 0 01.5 0h.4s.1 0 0 0h.4s0-.1 0 0l.1-.2v-.2a1 1 0 010 .2.5.5 0 000-.1V42v-.7-.1a.8.8 0 000-.3 1.7 1.7 0 010-.4V40a1.3 1.3 0 010-.3 2 2 0 000-.3v-.2-.1-.2s.1-.4 0-.8V38v-.2a1.5 1.5 0 010-.5 1.4 1.4 0 000-.5v-2.1-.5-2.5-.8-.3l.1.2a4.3 4.3 0 000 .8 5.5 5.5 0 000-1v-.8-.2-.2-.2.4l-.1.4V30.1v-.5a.7.7 0 010-.2.8.8 0 010-.5v-.3a1.2 1.2 0 010-.4V28a4.2 4.2 0 01-.1-.5V27a.2.2 0 000-.1l-.1-.1h-.1a1.3 1.3 0 00-.6 0h-.2a2 2 0 00-.3 0h-.1.1a.8.8 0 00-.3 0l-.3-.1h-.2 0l-.3.1c0 .1 0 0-.2 0h-.5.4a1.5 1.5 0 00.1 0H17.7h.2c.1 0 .2 0 0 0-.3 0-.3-.1 0-.1h-.6a2.1 2.1 0 01-.4 0c-.3 0-.3 0 0 0h.1-.5-.1a1 1 0 01-.3 0h-.8c.2 0-.6.1-.8 0a2 2 0 00-.3 0h-.1l.1.1h.3a.8.8 0 01-.2 0h-.1a.9.9 0 00-.3 0h-1v-.1a4.3 4.3 0 01-.6 0h-.6a2.6 2.6 0 01.3.1 2.6 2.6 0 01-.3 0H11h.2c.3 0 .3 0 0 0h-.8a2 2 0 00-.3 0 .8.8 0 01-.2 0h-.3c-.2 0-.1-.1 0-.1h-1a.5.5 0 00-.1 0h-.2v.1c.2 0 .2 0 0 0H8a.8.8 0 01-.2 0h-.1a.3.3 0 00-.2 0 .8.8 0 01-.2 0 .4.4 0 00-.2 0 1.4 1.4 0 01-.2 0 .6.6 0 01-.1 0 1.7 1.7 0 00-.4 0h-.4a.3.3 0 01-.1 0h-.1.1a.4.4 0 01-.1 0h-.7a.1.1 0 01-.1 0 .1.1 0 000 .1H5v.1a.2.2 0 010 .1v.2a.7.7 0 000 .2h-.1c0-.1 0-.1 0 0V27.8v-.1a.4.4 0 010 .2c0-.1 0-.1 0 0v.2a.7.7 0 010 .1v.1a.8.8 0 010 .1v.1h-.1v-.2.1-.1.2c0-.1 0-.2 0 0h-.1v-.2.2-.1a.4.4 0 010-.1c0-.1 0 0 0 0 0 .2 0 .2 0 0h-.1v.2-.1a1.1 1.1 0 000-.2v.2-.1a.8.8 0 010-.2V28.4c0-.1-.1 0-.1 0 0 .1 0 .2 0 0v-.3.4h-.1V28a.4.4 0 00-.1.1c0 .2 0 .3 0 0 0 0 0-.1 0 0V28a1.2 1.2 0 010 .2V28c0-.3 0 0 0 0 0 .2 0 .4-.1.3s0-.1 0-.1c0-.2 0-.1 0 0V28 28c0-.2 0-.2 0 0l-.2-.6c0 .2 0 0 0 0a.1.1 0 010-.1V27a1.3 1.3 0 010-.4l.2-.3a1 1 0 01.1-.2h.1V26a1.2 1.2 0 01.7-.4H6s.1 0 0 0H6a.5.5 0 01.2 0 .4.4 0 01.2 0h.2q.1 0 0 0h.2a1.3 1.3 0 01.2 0 .5.5 0 01.3 0h.2a.3.3 0 01.1 0 .6.6 0 01.2 0 1.7 1.7 0 01.5 0 2.3 2.3 0 00.3 0H10.5a1.4 1.4 0 01.5 0c.2 0 .2 0 0 0h.3a3 3 0 00.7 0h.8a2.2 2.2 0 01.4 0 1.6 1.6 0 00.4 0 2.2 2.2 0 01.6 0H16a1 1 0 01.4 0 .8.8 0 00.3 0 4 4 0 01.7 0 3.4 3.4 0 00.5 0 2.7 2.7 0 01.3 0h.2a2.4 2.4 0 01.3 0H20.6a1.4 1.4 0 01.5 0 1.8 1.8 0 01.6.7 1.1 1.1 0 01.2.6v.8a2 2 0 010 .5 1.5 1.5 0 010 .5v.2a1.8 1.8 0 000 .2v1.1a1.7 1.7 0 010 .4 7.8 7.8 0 000 1 4.2 4.2 0 010 .8V35.2a4.3 4.3 0 000 .6 12.7 12.7 0 010 2v.2a3 3 0 010 .6v1a.9.9 0 010 .2v.5a1.8 1.8 0 010 .3 3.7 3.7 0 000 .8v1.4a1.5 1.5 0 010 .3v.2a1.4 1.4 0 01-.5.6 1.4 1.4 0 01-.4.2 1.6 1.6 0 01-.5 0v.1h-2a2.3 2.3 0 01-.3 0h-.5-1.2-.5a2 2 0 00-.3 0 2.8 2.8 0 01-.5 0H15h-.7-.1a.4.4 0 01-.2 0h-.5a1.2 1.2 0 01-.3 0 1.7 1.7 0 00-.3 0h-.2a1.6 1.6 0 00-.5 0H9.5a2 2 0 01-.4 0h-.4a1 1 0 01-.4 0 2.2 2.2 0 01-.7 0h-.7a4.4 4.4 0 01-.7 0h-.1-.8a1.2 1.2 0 01-1-.6l-.3-.4V43l-.2-.3v-.3-.2a1 1 0 010-.3V42a.3.3 0 010-.2v-.2-.4a1.4 1.4 0 000-.5v-.3-.2-.2-.3-.5c0-.1 0-.2 0 0 0 .4 0 .3 0 0V39c0 .3 0 .3 0 0a1.7 1.7 0 000-.7v-.1c.1-.2.1-.2.1 0v-.5-.3-.2a1.5 1.5 0 000-.5v-.2l-.1-.5v-.2a1.5 1.5 0 010-.5V35a1.6 1.6 0 010-.3 2.9 2.9 0 010-.4v-.2-.1-.2-.2c0-.1 0-.1 0 0v-.2a.3.3 0 010-.2V33a.4.4 0 010-.1.5.5 0 000-.2v-.1-.1c0-.1 0 0 0 0v-.2-.3-.2a.7.7 0 010-.1.3.3 0 000-.1v-.5l.1-.1V31a2.3 2.3 0 010-.4v-.2s0-.2.1-.1v.1a.4.4 0 000 .2V30 30v-.1-.2-.2a.2.2 0 00.1 0c0-.1 0 0 0 0v.1a.6.6 0 000 .2 1.1 1.1 0 010 .2.5.5 0 000 .2V30c0-.1 0-.1 0 0a.5.5 0 000-.2v-.1-.2a.4.4 0 000-.2.5.5 0 010-.1v-.1h.1V29 29c.1-.1.1 0 .1.1V29a.2.2 0 010-.1 1 1 0 000-.2l.2.1v-.1zM10.7 26.3zM29.8 39.6c0 .2 0 .2 0 0V40.2 40c0-.1 0-.1 0 0h.1v-.2V40a1 1 0 000 .1v-.4.2h.1a.4.4 0 010 .2v.1a.8.8 0 000 .2v-.1-.1a.3.3 0 010 .2 1.3 1.3 0 000 .2l.1-.1v.1a.9.9 0 000 .3.3.3 0 00.1-.1V42.3a2.7 2.7 0 010 .4v.1a.3.3 0 01-.1.2.7.7 0 01-.3.1.8.8 0 00-.2 0H29.3a1.6 1.6 0 01-.2.1.2.2 0 01-.1 0 .3.3 0 00-.2 0 1 1 0 01-.2 0 .4.4 0 00-.1 0 2.4 2.4 0 01-.5 0 2.2 2.2 0 00-.3 0h-.2a3.8 3.8 0 01-.9 0h-.2-.3a1.1 1.1 0 01-.4-.2l-.2-.2v-.3a4 4 0 010-.6v-.2l-.1-.2v-.3-.2a1.3 1.3 0 000-.3 2.2 2.2 0 010-.4v-.2a1.7 1.7 0 010-.4l-.1-.1v1a1.5 1.5 0 010-.4v-.9-.1.4a3.3 3.3 0 000-.5 2.3 2.3 0 000-.4v-1l-.1-1v.2c0 .2 0 .2 0 0v-.4c0-.2 0 0 0 0l.1.6c.1.2 0 .3 0 0a6.6 6.6 0 000-.8v-.4l-.1-.3c0 .4 0 .3 0 0v-.2l-.2.2V35 34.2a3.8 3.8 0 010-.6v-.5-.2c0 .2 0 .2 0 0l-.1-1.2v-.2a1.5 1.5 0 000-.4 1.7 1.7 0 010-.3v-.1a2.8 2.8 0 010-.4v-.1-.6-.2l-.1-.6V28c0-.2-.1-.7 0-.8V27c.1 0 0 0 0 0h.1a1.2 1.2 0 01.8-.6 2.6 2.6 0 01.3 0 5.4 5.4 0 011-.2h.6a.2.2 0 01.1 0h.6a.9.9 0 00.3 0 2.3 2.3 0 01.5 0h.6a1 1 0 01.3 0h.7a3.5 3.5 0 00.3 0 1 1 0 01-.2 0 1.6 1.6 0 01.4 0 1.4 1.4 0 00-.2 0h-.2a1.9 1.9 0 01.5 0H32.2a4.3 4.3 0 01.6 0 3.3 3.3 0 00.5 0v.6l-.2 1v-.4.9a2.6 2.6 0 01-.1.5v.4a.8.8 0 010 .3 3 3 0 01-.1.5v.4c0 .1 0 .2 0 0v.3a2.4 2.4 0 01-.1.4.6.6 0 010 .2l-.1.1V31.7a3.2 3.2 0 000 .4v.2s-.1.1 0-.1a.5.5 0 00-.1.1v.1H32.9a1.3 1.3 0 01-.2 0l.2.1a.3.3 0 00.1 0 2 2 0 01.4 0c.6-.1.8-.2.4-.2a1.6 1.6 0 01.4 0 2.1 2.1 0 00.3 0h.5a2 2 0 00.9 0h.5a1.8 1.8 0 01.6 0 1.6 1.6 0 00.5 0h.5l.7-1c.5-.6 0-.1.3-.5l1.6-2.3c0-.2.2-.2.3-.4l.1-.2s0 .1.1 0l.2-.3v.2a5 5 0 00-.6.7 1 1 0 00.2-.2l.4-.6.8-1 .1-.2.2-.2c.2-.1.2 0 .2 0h-.1-.2c-.3.1-.5.6-.5.5a1.7 1.7 0 01-.4.5l.2-.3.6-.7a.9.9 0 01.1 0 1.8 1.8 0 01.2-.2.3.3 0 01.2 0 .7.7 0 01.4 0l.3.4a.8.8 0 01.3.4 2.6 2.6 0 00.1.2.8.8 0 010 .4v2.4l-.1.4a1.5 1.5 0 000 .5v.2a2.6 2.6 0 000 .4v0a1 1 0 000 .3h-.1V33a1.8 1.8 0 000-.2V32.9c0-.1 0-.2 0 0-.1.4-.1.4-.1 0v.7a2.5 2.5 0 010 .4c0 .4 0 .4 0 0V34v.7a1.3 1.3 0 010 .3h-.1a2.8 2.8 0 000 .9v.2a1.1 1.1 0 01-.4 1 1.6 1.6 0 01-.6.2h-.2s-.1.1.2 0a2.6 2.6 0 00.6-.2l-.3.2h-.3l-.5.1h-1l-.1-.1a5 5 0 01-.6 0H39.6c-.3 0-.2.1 0 .1a3 3 0 01.3 0 3 3 0 01-.4 0h-.7a.7.7 0 01.2 0c.4 0 .4 0 0 0H38.2a2.4 2.4 0 00-.3 0 1 1 0 01-.2 0h-.3c-.2 0-.2-.1 0-.1h-1a.4.4 0 00-.1 0 .5.5 0 00-.1 0 .6.6 0 01-.1 0h-.2l.2.1h-.4a1 1 0 01-.1 0h-.2a.3.3 0 00-.2 0 1 1 0 01-.3 0 .5.5 0 00-.1 0 1.7 1.7 0 01-.2 0 .6.6 0 01-.2 0 2 2 0 00-.4 0h-.3a.3.3 0 00-.1 0 .2.2 0 00-.1 0h-.7a2.4 2.4 0 01-.2 0 .2.2 0 00-.1 0h-.1H31.7a1.3 1.3 0 00-.3-.1.3.3 0 00-.1 0h-.4.1V37h-.1a.9.9 0 00-.3 0c.2 0 .2 0 0 0H30.3h.1a.5.5 0 01-.2 0h.1-.1V37h-.1a.8.8 0 01-.2 0h-.1a.9.9 0 01-.1 0h-.1.2-.2c.1 0 .1 0 0 0h-.1v-.1H29.9h-.2.1a.4.4 0 01.1 0h-.1l.2-.1h-.2c-.1 0-.1 0 0 0h.2H29.6 29.9h-.2.1a1.2 1.2 0 01.2 0h-.4c-.2 0-.2 0 .1-.1.1 0 0 0 0 0-.2 0-.2 0 0 0h.3-.1l-.3-.1H30.3a.4.4 0 00-.2 0c-.2 0-.3-.1 0-.1h.1s.1 0 0 0a1.4 1.4 0 01-.2 0H30c-.1 0-.3 0-.2-.1s.1 0 .1 0c.3 0 .2 0 0 0H30.2c.2 0 .2 0 0 0l.7-.2a1 1 0 01-.1 0h.1a.2.2 0 01.1 0h1.5a.7.7 0 00.2 0h.2l.2-.1c.1 0 .1 0 0 0h.2s.1 0 0 0a.6.6 0 01.3 0 .5.5 0 01.2 0h.5a1.6 1.6 0 01.2 0 .6.6 0 01.3 0h.2a.3.3 0 01.1 0 .7.7 0 01.2 0 .3.3 0 00.1 0 2 2 0 01.5 0 2.3 2.3 0 00.3 0h2.1a1.7 1.7 0 01.5 0c.2 0 .2 0 0 0h.4a3.5 3.5 0 00.7 0h.9a2.7 2.7 0 01.4 0 1.8 1.8 0 00.5 0 2.8 2.8 0 01.4 0h.1a.1.1 0 000-.2l.1-1.1a1.3 1.3 0 010-.4 1 1 0 000-.4 4.6 4.6 0 010-.7 4.1 4.1 0 000-.5 2.8 2.8 0 010-.4c.1 0 .1 0 0-.2a2.6 2.6 0 010-.3l.1-.6v-.9-.7a1.6 1.6 0 01.1-.3v-.2a1.7 1.7 0 010-.4V28 28c0-.1 0 0 0 0a1.7 1.7 0 01-.3.3 9.3 9.3 0 00-.6.9 4.9 4.9 0 01-.5.8l-.4.5-.1.2a6.8 6.8 0 00-.5.7l-.2.3-.1.1-.1.2c0-.1 0-.2-.1.1l-.3.3v.2l-.5.5-.2.3h-1.5a4 4 0 01-.7 0 .3.3 0 00-.2 0 3.4 3.4 0 01-.7.1h-1.1a1 1 0 01-.2 0h-.5v.1a2 2 0 01-.4 0h-1.2l-.9.1.1-1.2.1-.7v-.1l.2-1.1c0 .1 0 0 0 0v-.4-1l.1-.4v-.3a2.6 2.6 0 010-.4l.1-.2v-.3a.2.2 0 010-.1h-.2a2.2 2.2 0 00-.4 0 3.3 3.3 0 01-.6 0h-.1l-.4-.1h-.4-.1a.4.4 0 01-.2 0h-.5a1.6 1.6 0 01-.4 0 1 1 0 00-.3 0H28a1.6 1.6 0 00-.5 0h-.7l-.2.1h-.2l-.4.1v.4a2.3 2.3 0 010 .4v.4a.6.6 0 000 .1 1.1 1.1 0 010 .4v.1a2.6 2.6 0 010 .7v.4l.1.3a5.1 5.1 0 010 .8v1a3 3 0 010 .7l.1.4v.5c0-.2.1-.2 0 .2a1 1 0 010 .3v.2a.3.3 0 010 .1v.3c.1-.1.2.3.1.4a1.7 1.7 0 000 .5V36.8c0-.3.1-.3.1.2V38c0 .1 0 .2 0 0 0-.4 0-.4 0 0v.1c0-.3 0-.3 0 0a2 2 0 000 .7v.2c0 .2 0 .2 0 0v1a1.8 1.8 0 000 .6v.2l.2.6V42h.1v.1H27.7a.3.3 0 01.2 0 .4.4 0 01.2 0 .6.6 0 00.2 0h.2c.1 0 0 0 0 0H29.3a.7.7 0 000-.1.8.8 0 010-.2v-.2-.1.1a.4.4 0 00.1.1V41v-.2-.2h.1c0-.2 0 0 0 0v.1a.6.6 0 000 .3v.1a.5.5 0 000 .1.7.7 0 000 .1V41a.6.6 0 000-.1v-.2-.2a.5.5 0 000-.2.8.8 0 010-.1V40l.1-.2.1.2v-.2a1.3 1.3 0 000-.2h.1c.1-.2.1-.2.1 0zM38.4 36.8z"/><path class="cls-1" d="M32 41.5v-.1-.1c0-.1 0-.1 0 0V41 41h.2a.2.2 0 00.1 0c.1 0 0 0 0 0v.1h.1s0-.1 0 0V41a1 1 0 010-.1h.2c.1 0 0 0 0 0h.2v.1h.1c.1 0 0 0 0 0h.5v-.1h.1c.1 0 0 0 0 0v.2c0-.1 0-.1 0 0h.2c.1 0 0-.1 0-.1a1 1 0 01.1 0 .1.1 0 010 .1h.1V41s0-.1 0 0h.2s0-.1 0 0h.1v-.1.2c0 .1 0 0 0 0V41c.1.1.1 0 .1 0h.1v0h.1v.1h.1a.3.3 0 000-.1h.1a.1.1 0 000 .1V42.2h-.2-.2s0 .1-.1 0 0 0 0 .1H33.8h-.1s-.1 0 0 0H33.4h-.1-.1-.1-.1-.2-.1c-.1 0 0 0 0 0h-.1-.1V42h-.1v0c0-.1 0 0 0 0h-.1c-.1 0-.1 0 0 0h-.2-.1V42v-.1-.2-.1-.1H32zM34.5 41.5zM36 41.5v-.2c0-.1 0-.1 0 0V41h.4v.1h.1V41v-.1h.2c.1 0 0 0 0 0h.2v.1h.2s0-.1 0 0c0-.1 0-.1 0 0 0-.1 0-.1.1 0 0 0 .1 0 0 0H37.6v-.1.1s0 .1 0 0H37.9a1 1 0 01.1 0 .1.1 0 010 .1.3.3 0 01.1 0V41H38.4v.1c0 .1 0 0 0 0 0-.1 0-.1 0 0h.1V41h.1v0h.1v.1a.2.2 0 00.1 0 .2.2 0 000-.1h.1c.1 0 0 0 0 0v.1s0 .1 0 0v.1h.1v.5l.1.1v.1c0 .1 0 0 0 0v.2h-.1v.1h-.1s0-.1 0 0h-.2-.1c-.1 0 0 0 0 0H38h-.5-.1c-.1 0 0 0 0 0h-.6-.1-.2s-.1 0 0 0c0 0-.1-.1-.1 0V42h-.1a.2.2 0 000 .1H36V42 42v-.1-.1H36v-.2-.1zM38.7 41.5zM40 41.5v-.1h.1v-.1c0-.1 0-.1 0 0V41H40.5c.1 0 0 0 0 0h.1v.1h.1a.8.8 0 010-.2h.2v.1s.1 0 0 0H41.2c.1 0 0 0 0 0h.2c.1 0 0 0 0 0H41.7s0 .1 0 0h.1s0 .1 0 0h.1a1 1 0 01.2 0 .1.1 0 010 .2V41c0-.2 0-.2.1-.1h.1c.1 0 0 0 0 0h.1c.1 0 0 0 0 0a.1.1 0 000 .1V41v.1h.2V41l.1.1V41a.1.1 0 00.1 0v.1a.2.2 0 00.1 0c0-.1 0-.1 0 0h.1v.1h.1c.1 0 0 0 0 0V42.2h-.1-.1s-.1 0 0 0h-.1-.1-.2s0 .1 0 0v.1h-.1-.1-.1-.2-.1-.1-.1-.1a.1.1 0 01-.1 0h-.1c-.1 0 0 0 0 0h-.1c-.1 0 0 0 0 0H41h-.1-.2s-.1 0 0 0h-.1c-.1 0 0 0 0 0s0-.1 0 0V42h-.1a.2.2 0 000 .1h-.1-.1c-.1 0 0 0 0 0V42l-.1-.1v-.1-.1-.1-.2H40zM42.8 41.5z"/></svg>