<svg version="1.0" xmlns="http://www.w3.org/2000/svg" width="341.33" height="341.33" viewBox="0 0 256 256"><path fill="#2e3338" d="M23 22.2l-2.5 1.4V118.9l2.8 2.9 2.8 2.9 32.9.2c34.8.2 48.2-.8 44.6-3.5-2.6-1.9-15.3-2.6-46.7-2.8-26.5-.1-28.1-.2-29.5-2-1.2-1.6-1.4-9.4-1.4-45.2V28.1h86.8l.7 6.3c.4 3.5.5 22.5.3 42.2-.4 37.7-.4 38-5.1 43.2-1.4 1.5-1.7 2.6-1 3.3 1.5 1.5 5.5-.4 9.1-4.5l3.2-3.7.1-13.7c.1-10.8.1-55.1-.1-73 0-1.9-.8-4-2.1-5.3-1.9-1.9-2.9-2.1-7.8-1.5-6.5.8-46.6.8-69.1.1-11.7-.4-16.1-.3-18 .7zM135.8 22.2c-3.4 1.2-3.1-2.8-3 48.3.1 38.3.6 50 2.2 52.6.8 1.2 8.7 1.4 48.6 1.7 41.7.2 48 .1 50-1.3l2.4-1.5V25.3l-2.2-2c-2.3-2.1-3-2.1-48.8-2.1-26 .1-47.7.5-49.2 1zm75.5 6.8l17.7.2v87.5l-3.1.7c-1.7.3-21.6.6-44 .6H141l-.8-2.3c-.4-1.2-.7-13.2-.6-26.7.1-13.5.2-32.6.3-42.5l.1-18.1 26.8.2c14.7.1 34.7.3 44.5.4z"/><path fill="#2e3338" d="M162.8 50.8c-1.3 1.4-1.5 5.1-1.3 22.7.1 11.5.5 21.8.9 22.7.7 1.5 2.9 1.6 21.1 1.5 15.4-.2 20.7-.5 21.7-1.5 1.1-1.1 1-1.6-.6-2.8-1.5-1.1-5.8-1.4-18.8-1.4H169V56.2l6-.4c3.3-.1 11.4-.2 18 0l12 .3v17.4c0 15.5.6 20.4 2.7 23.4.1.2.9-.2 1.8-.9 1.3-1 1.5-4.6 1.5-22.2 0-11.8-.4-21.7-1-22.8-.9-1.7-2.7-1.8-23.3-1.9-20.1-.1-22.5.1-23.9 1.7zM44.1 50.4c-1.5 1.8-1.6 34.5-.2 38.9.7 2 1.7 3.7 2.2 3.7.5 0 .9.5.9 1.1 0 .5-.4.8-.9.4-1.6-.9-2.2 1.2-.6 2.5s43.1 1.1 45.3-.3c1.7-1.2 1.7-45-.1-46.5s-45.3-1.4-46.6.2zM85 73.9v17.8l-4.6.7c-2.6.3-11 .6-18.7.6H47.8l.8-2.3c.5-1.2.9-6.5 1-11.7 0-5.2.1-12.5.2-16.3L50 56h35v17.9zM23 138.7c-1.4.9-2.8 2.2-3.2 2.7-1 1.5-1 86.8 0 88.4.5.6 2.3 2.3 4.2 3.7l3.4 2.5h39.5c21.8 0 41.3-.3 43.5-.7 2.8-.4 4.3-1.4 5.7-3.7 1.8-2.9 1.9-5.7 1.9-45.9 0-42.4 0-42.8-2.2-45.7l-2.2-3H69.5c-39.7 0-44.3.2-46.5 1.7zm87.1 12.7c.2 11.3-.3 76.1-.6 76.4-.6.6-81.7.7-82.1 0-.7-1.1-1.1-80.7-.4-81.8.8-1.3 11-1.6 49.8-1.7l33.2-.1.1 7.2z"/><path fill="#2e3338" d="M44.2 162.2c-1.9 1.9-1.6 37.4.3 41.2 1.2 2.3 1.3 3.1.3 3.7-.9.6-.9 1.1.2 2.4 1.2 1.5 3.9 1.6 23.7 1.3 18.6-.2 22.5-.6 23.3-1.8 1.1-1.8.9-45-.3-46.8-1.1-1.7-45.7-1.8-47.5 0zm40.6 24l-.3 18.3-18.2.3c-12.9.2-18.3.6-18.3 1.4 0 .6-.2.9-.5.6-.3-.3-.1-1.7.5-3.2.5-1.5 1-10.1 1.1-19.2l.1-16.4H85l-.2 18.2zM226 139.7c0 .5-2.2 3.5-5 6.8-2.7 3.2-7.9 10.3-11.5 15.7l-6.6 9.8h-6.2c-3.4.1-9.9.3-14.4.5l-8.1.4.4-2.7c.2-1.5.8-7.4 1.4-13.2.6-5.8 1.3-12 1.7-13.8l.6-3.4-21.1.4c-18.6.3-21.2.5-23 2.1-1.9 1.8-2 2.7-1.5 23.5.2 11.9.8 22.6 1.3 23.7.5 1.1 1.1 10.2 1.3 20.3.3 12.6.8 18.7 1.6 19.5 1.3 1.3 19.3 1.6 22.4.4 1.3-.5 1.7-1.9 1.6-6.4-.1-6.7-1-10.4-2.4-10.4-.5 0-1.1 1.3-1.3 2.8-.1 1.5-.5 4.3-.8 6.1l-.5 3.3-6.6-.3c-6.5-.3-6.7-.4-7.4-3.3-.7-2.9-1.2-12.6-2.5-54.2l-.7-20.2 3.8-.7c3.9-.7 25.3.1 26.2 1 .4.4-.8 18.3-2 30-.2 1.8.5 1.9 10.3 1.7 5.8-.2 14.8-.6 20-1l9.4-.6 3.8-5c2.1-2.8 6.3-8.7 9.3-13.2 3-4.5 6-8.5 6.6-8.9.8-.4.9 1.5.4 6.7-.6 6.5-1.1 17.7-1.4 31.6l-.1 4.3h-29.9c-16.4 0-31.3.3-33 .6-4 .8-4.1 3.4-.2 3.4 1.6 0 3.1.6 3.4 1.2.5 1.6 54.9 2.1 60.9.6 4.5-1 5.1-1.9 5.3-7.7.1-2.5.8-13.9 1.5-25.4 1.3-20.4 1.3-20.8-.7-23.5-1.9-2.6-6.3-4.3-6.3-2.5z"/><path fill="#2e3338" d="M172.3 218.7c-1.9.7-1.6 4.4.5 5.9 1.8 1.4 6.3 1.8 10 .8 1.6-.5 2.2-1.4 2.2-3.5 0-2.8-.2-2.9-4.4-2.9-2.4 0-5-.2-5.8-.4-.7-.3-1.9-.2-2.5.1zM193.8 218.8c-1.2.2-1.8 1.3-1.8 3.2v2.8l8.3-.2c8.1-.1 8.2-.1 7.9-2.6-.2-1.4-.5-2.6-.5-2.6-.5-.4-12.5-.9-13.9-.6zM215.7 218.8c-2.1.4-2.2 3.6-.1 5.6 1.6 1.7 6 2 11.3 1 2.4-.5 3.1-1.2 3.1-3 0-1.2-.5-2.6-1.1-3-1.2-.7-10.4-1.1-13.2-.6z"/></svg>