<svg xmlns="http://www.w3.org/2000/svg" viewBox="0 0 48 48"><path d="M.6 47.4A2 2 0 010 46V34a2 2 0 014 0v10h10a2 2 0 010 4H2a2 2 0 01-1.4-.6zm46.8 0a2 2 0 01-1.4.6H34a2 2 0 010-4h10V34a2 2 0 014 0v12c0 .6-.2 1-.6 1.4zm0-46.8c.4.3.6.8.6 1.4v12a2 2 0 01-4 0V4H34a2 2 0 010-4h12c.6 0 1 .2 1.4.6zM.6.6A2 2 0 012 0h12a2 2 0 010 4H4v10a2 2 0 01-4 0V2C0 1.4.2 1 .6.6zM12 14c0-1.1.9-2 2-2h20a2 2 0 012 2v20a2 2 0 01-2 2H14a2 2 0 01-2-2V14zm4 18h16V16H16v16z" fill="#FFFFFF" fill-rule="evenodd"></path></svg>