<svg xmlns="http://www.w3.org/2000/svg" width="400" height="394.6"><g fill-rule="evenodd"><path d="M323 5h-1l-4 2h-1-2l-1 1h-2a6 6 0 00-2 1l-2 1h-2l-2 1h-1l-1 1-1 1a1 1 0 01-1 0l-1 1h-1a2 2 0 00-1 1h-1l-1 1-1 1h-1l-2 2-2 1-2 1-1 1a1 1 0 00-1 1h-1l-1 2h-1l-1 1-1 1-2 1-1 1v1h-1v1l-2 1-4 4v1l-2 1-1 1-1 2-1 1c0 1 0 1 0 0l-1 1-1 1-1 1v1h-1l-1 1a7 7 0 01-1 2l-1 1v1l-1 1-1 1c1 0 0 0 0 0l-1 2-1 1-1 1v1l-1 1-1 1v1l-1 1-1 1-1 2v1l-1 1-1 1v2l-1 2-1 1-1 2v1l-1 1v2l-1 1a3 3 0 010 1l-1 2-1 2v1l-1 2-1 1v1l-1 1v2l-1 4-1 1v2l-1 4a10 10 0 010 3l-1 3-1 4a217 217 0 002 31v3l1 2v1l1 2 1 2v2l1 2 1 1v1l1 1v1l1 1 1 2a2536 2536 0 013 4l3 2 1 1 2 2 3 2 1 1 2 1v1h2l1 1h2l1 1 3 1h2l4 1h2l6 1 6-1h3l3-1h2a6 6 0 003-1h2l1-1h2a6 6 0 012-1h1l1-1h1a4 4 0 012-1l1-1h1l2-1 1-1 1-1h2l2-2 3-1 1-1 1-1 1-1h1a15 15 0 002-2l2-1 1-2h1l1-1 1-1v-1c1 1 1 0 4-2l1-2 2-1 3-3 3-3v-1l1-1 1-1 1-1 1-2h1v-1c-1 1 0 0 0 0l1-1 1-1 2-2 1-2 1-2 2-2v-1l1-1 1-1 1-1v-1l1-1v-1l1-1 1-1v-1-1l1-1 1-1v-1l1-1v-1l1-2 1-1 1-2v-1l1-2 1-1c0-1 0-2 1-1v-2l1-2 1-2 1-3v-1l1-1 2-5v-3l1-3v-2l1-3v-1l1-2V61a79 79 0 000-16l-1-1v-1l-1-1v-3l-1-2-1-2v-1-2l-1-1-1-1v-1l-2-3a5 5 0 01-1-2l-1-1a9 9 0 01-1-2l-2-1v-1h-1v-1l-2-2h-1v-1h-1v-1l-2-1-1-1h-1c0-1 0-1 0 0l1-1h-2-1l-1-1V9h-1l-2-1h-2l-1-1h-1V6h-3-1a109 109 0 00-24-1m-210 5h-2l-4 1h-3l-2 1-2 1h-1a6 6 0 00-2 1h-2l-2 1-1 1-4 2h-1l-1 1h-1l-2 1-1 1a1 1 0 00-1 1h-1l-1 1h-1l-1 1c-1 0-1 0 0 0l-1 1h-1v1h-1l-1 1-1 1-2 1-1 1h-1l-1 1-1 1-3 3-3 2-2 2v1l-2 2-1 1c1 0 0 0 0 0 0 1 0 0 0 0l-1 1s0 1 0 0l-1 1c0 1 0 0 0 0l-1 1-1 2-1 1-1 1-1 1s-1 0 0 0l-1 1-1 1-1 1-1 1a1 1 0 000 1l-1 1-1 1-1 2-1 1v1l-1 1v1l-1 1-2 3-1 1a1 1 0 000 1l-1 1v1l-1 1v1l-1 2a1 1 0 00-1 1v1l-1 1v1l-1 1v1l-1 1-1 2v2l-1 1v1l-1 1v2l-1 3-1 3-1 1v1l-1 3v2l-1 2-1 2v3l-1 3a286 286 0 000 31v1l1 3v2l1 2 1 1v4l1 1 1 1v1l1 2v1l1 1a7 7 0 001 2l1 2 1 1 1 2 1 1 2 2 1 1 2 2 2 1 1 1 1 1v1l1-1 1 1 1 1 2 1 1 1h1l2 1a3 3 0 002 0v1h3l1 1a117 117 0 0026-1l2-1h2l1-1h3l2-1 1-1h1l1-1h1l2-1h1v-1h1l1-1 2-1h1l1-1 2-1 1-1 1-1h2l1-1 2-2 2-1v-1h1l1-1s1-2 2-1l1-1 2-2h1l3-4h1v-1l2-2v-1l5-4v-1h1l1-1v-1l1-1c1-1 1-1 0 0l1-1 1-1v-1l2-2 3-3 1-2 1-2 2-2v-1l1-1 1-1 1-2v-1l1-1 1-1v-1l1-2 1-1 1-2 1-2v-1l1-1a4 4 0 011-1v-1-1l1-1v-1l1-1 1-2v-1c0 1 0 0 0 0l1-1v-2l1-2 1-2v-1l1-2v-2l1-2 1-2v-2l1-1v-4l1-3v-5l1-4a122 122 0 00-1-19v-3l-1-4v-3l-1-1v-1l-1-2-1-2v-1l-1-2v-1h-1v-1l-1-2v-1h-1v-1a1 1 0 01-1 0 1 1 0 00-1-1v-1l-3-3a9 9 0 00-2-2l-3-3-2-2-2-1-1-1h-1l-1-1h-1l-1-1h-2l-1-1-2-1h-3l-3-1h-18m270 41v-1-1a7 7 0 010 2m0 20v-1-1 2M163 289h-4l-6 1-6 1h-4l-4 1h-2l-4 1-4 1h-4l-1 1h-1-3l-3 1-2 1h-3l-1 1h-1-1-1a7 7 0 01-3 1l-1 1h-2l-3 1-2 1h-1l-2 1h-2l-1 1-2 1h-1c-1 0-4 1-3 2h-2-1l-3 2h-2l-1 1h-1l-2 1-2 1-1 1-2 1h-1l-1 1-2 1a39 39 0 00-7 4h-1l-1 1c-1 0 0 0 0 0l-1 1-1 1h-1l-1 1-2 1-1 1h-1l-1 1-2 2-1 1-2 1v1h-1l-1 1-2 2-7 7-2 2-5 6-1 1-1 2-1 1a1 1 0 000 1h-1v1l-1 2a1 1 0 00-1 0v2l-1 1v1l-2 3v1h-1v1l-1 3-1 2v3l-1 1v5h30l2-3 2-4v-1l1-1 1-2 2-3h1l3-4c3-2 4-4 4-5h1l2-1 1-1 1-1 2-2h1l2-1 1-2h1a2 2 0 001-1l1-1 3-1 2-1 2-2h1l1-1 2-1h1l1-1h1l1-1 2-1h1v-1a8 8 0 003 0l2-1v-1l3-1h1l4-2h3l1-1h1l2-1 2-1h2l1-1h3l2-1 3-1a7 7 0 012 0l3-1h3l3-1 3-1h3l11-2 4-1a14 14 0 014 0 81 81 0 0116-1 73 73 0 0013-1l12 1a76 76 0 0116 1h4l5 1a61 61 0 0110 2h4l3 1 3 1h3l2 1h2l3 1 2 1h2l2 1h2l2 1 2 1h2l1 1h2l1 1h1l2 1h1l2 1 1 1h1l2 1a8 8 0 002 0l1 1h1l1 1 1 1h1l1 1h2v1l2 1a19 19 0 003 2 21 21 0 013 1l3 2 1 1h1l2 2a37 37 0 014 3l2 1 2 2 2 1v1l3 3 2 2 2 3 2 2 2 2v1l1 1v1l1 1 2 4v1h31v-2a9 9 0 00-1-3v-1l-1-1v-2l-1-1v-1l-1-2v-2l-1-1-1-2v-1-1l-1-1-1-1-2-3v-1h-1a1 1 0 000-1l-1-1-3-5-4-4a44 44 0 00-11-11 39 39 0 00-5-5l-2-1-1-1a4 4 0 00-1 0l-1-1a1 1 0 00-1-1h-1l-1-1-1-1a1 1 0 00-1 0l-1-1-1-1h-1l-3-2h-1a19 19 0 00-3-2 990 990 0 01-6-3v-1h-2l-1-1h-1l-2-1a18 18 0 01-3-2l-3-1h-1l-2-1h-1l-1-1-2-1h-2l-1-1h-1l-2-1-3-1h-1l-2-1h-2l-2-1h-3l-2-1-2-1h-2l-3-1a10 10 0 01-3-1 11 11 0 00-2 0 8 8 0 01-3-1h-3a15 15 0 01-3-1l-4-1h-4-2l-2-1h-4l-6-1a32 32 0 01-8-1h-47" fill="#ec6c5c"/><path d="M383 50v1a7 7 0 000-2v1m0 20v1-2 1M18 119l-1 3 1-1v-2m213 8v4a139 139 0 000-4M17 142l1 1v-2l-1 1m41 47h1c1 0 0 0 0 0h-1m14 0h1c1 0 0 0 0 0h-1" fill="#ec745c"/></g></svg>