<svg fill="none" xmlns="http://www.w3.org/2000/svg" viewBox="0 0 240 264"><g clip-path="url(#clip0)"><path d="M206 142c-12.4 64-61 111.5-108.6 105.8-47.7-5.6-76.4-62.1-64-126.2C45.5 57.6 94.1 10 141.8 15.8c47.6 5.6 76.3 62.1 64 126.2z" fill="#EC745C"/><path d="M206 142c-12.4 64-61 111.5-108.6 105.8-47.7-5.6-76.4-62.1-64-126.2C45.5 57.6 94.1 10 141.8 15.8c47.6 5.6 76.3 62.1 64 126.2z" fill="#EC745C"/><path d="M70.3 103s-4.4 19 19.7 18c21.1-.9 19-18 19-18" stroke="#fff" stroke-width="8"/><path d="M138.3 103s-4.4 19 19.7 18c21.1-.9 19-18 19-18" stroke="#fff" stroke-width="8"/><path d="M66 86.8s8 .4 16.3 0C99.6 86 101 75 101 75" stroke="#fff" stroke-width="5"/><path d="M180 86.8s-8 .4-16.3 0C146.4 86 145 75 145 75" stroke="#fff" stroke-width="5"/><path d="M150.9 195.6s-5-16.8-35.4-18.6C75.9 174.6 73 191 73 191" stroke="#fff" stroke-width="8"/><ellipse cx="73.2" cy="190.2" rx="4.2" ry="3.6" transform="rotate(8.7 73.2 190.2)" fill="#fff"/><ellipse cx="151.1" cy="196.4" rx="4.1" ry="4" transform="rotate(-25 151.1 196.4)" fill="#fff"/></g><defs><clipPath id="clip0"><path fill="#fff" transform="rotate(-13.5 189.3 22.5)" d="M0 0h192v225H0z"/></clipPath></defs></svg>