<svg version="1.0" xmlns="http://www.w3.org/2000/svg" width="341.33" height="341.33" viewBox="0 0 256 256"><path fill="#2e3338" d="M193 25c-4.2.9-8.9 2.5-10.5 3.6-5.2 3.2-13.1 10.2-14.4 12.8l-1.4 2.5-73.6.3-73.6.3-5 2.5C8 50.3 1.6 59.4.6 66.8c-1.2 9.1 4.7 19.7 13.3 23.4 4.5 2 6.7 2.1 78.7 2.4l74.1.4 5.4 5c3 2.7 5.7 5 6.2 5 .4 0 .7.6.7 1.4 0 .7 2.6 2.5 5.8 3.9 24.7 10.9 54.3.3 61.6-22.3 1-3 2.3-6.3 2.8-7.3.5-1.1.9-6.3.9-11.6 0-8.2-.4-10.8-2.6-16.2-2.7-6.9-8.7-14.9-14.6-19.6-10-7.9-23.6-10.1-39.9-6.3zm28.1 9.7c7.9 3.6 13.9 9.6 18.1 17.8 2.7 5.1 3.2 7.4 3.6 15.7.4 9.2.3 10.1-2.4 15.4-3.2 6.3-12 14.9-18.6 18.2-6.2 3-14.3 4.5-20.2 3.8-5.5-.6-14.3-4.4-16.5-7-.7-.9-1.9-1.6-2.6-1.6-.7 0-1.9-1-2.8-2.3-.8-1.2-2.5-3.2-3.7-4.5-1.2-1.2-3.3-4.8-4.7-8-2.2-5.1-2.5-6.7-2.1-15.2.3-7.6.9-10.5 2.8-14.4 4.9-9.7 13.8-17.4 23.5-20.3 6.9-2.1 18.1-1 25.6 2.4zm-60.3 18.2c1.1.7 1.1 1.9.1 7-.9 4.9-.9 8.1 0 14.8.7 4.7 1 8.7.8 8.9-.9.9-141.5.4-143.8-.5-2.7-1-7-5.4-8.8-8.8-3.7-7.3 2.2-19.6 10.4-21.5 3.6-.9 140-.8 141.3.1zM31.9 146.6c-7.4 2.2-13.4 6.1-18.9 12.1-5.4 5.9-8 10.3-10.6 18-4.4 13 1.9 36.1 12.5 45.5 9.3 8.2 15.9 10.8 27.7 10.8 16.7 0 26.7-3.7 35.4-13l5.6-6 69.9-.4c68.3-.4 70.1-.4 75.3-2.5 5.7-2.3 10.6-7.1 13.4-12.9 1.4-2.9 1.6-5.2 1.1-10.2-.3-3.6-1-7.4-1.6-8.5-2.6-5.3-7.3-9.8-12.4-12.1l-5.5-2.4-69.9.2-70 .2-4.1-4.7c-4.5-5.3-11.6-10.2-19.7-13.5-6.4-2.6-20.7-3-28.2-.6zm24.6 7c8.9 3.7 16.2 10.2 22 19.4 2.5 3.9 2.9 5.7 3.3 14 .5 10.7-.8 15.3-7.2 25.3-3.7 5.8-8.3 9.1-17.6 12.6-4.7 1.8-6.4 1.9-14.4 1.1-10.7-1-15.8-3.4-23.8-11.3-6.9-6.8-10.8-14-10.8-20.1 0-5.9 2.7-19.1 4.7-22.9C16 165.1 28.3 155 32.9 155c.6 0 1.1-.4 1.1-.9 0-2.4 17.2-2.8 22.5-.5zm168.2 20.3c1.8.5 4.9 2.6 6.9 4.7 3.2 3.1 3.8 4.5 4.1 8.8.5 6.1-1.6 10.6-7 14.9l-3.5 2.9-39.4-.1c-21.6 0-52.5 0-68.7-.1H87.8l.7-2.3c.3-1.2.9-6.5 1.2-11.7.4-7.4.2-10.3-1.1-13.4-.9-2.1-1.6-4-1.6-4.2 0-.9 134.7-.3 137.7.5z"/></svg>