<svg xmlns="http://www.w3.org/2000/svg" viewBox="20.899993896484375 23.468246459960938 39.47499084472656 32.531768798828125"><defs><style>.cls-1{fill:#2e3338}.cls-2{fill:#fff}</style></defs><path class="cls-1" d="M37 27.5h-.1l-.2.1h-.3a1 1 0 01-.2 0H36a.6.6 0 00.2 0h.2a1.8 1.8 0 01-.3 0s-.1 0 0 0c0 0-.2 0 0 0a3.3 3.3 0 00-.1.1H36.7a.7.7 0 01-.3 0h-.5v.1c-.2 0-.2 0 0 0l-1 .1a.4.4 0 00-.1 0H34.9c-.1.1 0 0-.2 0a.5.5 0 00-.1 0c-.2 0-.2 0 0 0l-.4.1H34 33.3a4.9 4.9 0 00-.7 0c.2 0 0 0 0 0H31.7 31.4h-.2s-.2 0-.1.1a1.4 1.4 0 01-.4 0h-.1a.8.8 0 01-.2 0 1.8 1.8 0 00-.3 0h-.4c-.1 0 0 0 0 0a.1.1 0 00-.1 0h-.7-.6a1.1 1.1 0 01-.2 0 1 1 0 00-.3 0 4.6 4.6 0 01-.7 0 4.8 4.8 0 00-.5 0h-.4a4.5 4.5 0 01-.6 0h-.2a4 4 0 00-.5 0h-.2a.5.5 0 01-.2 0h-.1a.4.4 0 01-.2 0 1.9 1.9 0 00-.5.1c-.2 0-.3.2-.3.2a1.2 1.2 0 00-.3.2l-.2.1a1.1 1.1 0 00-.3.4l-.1.2a2.4 2.4 0 00-.2.4l-.1.3v.2a3.3 3.3 0 000 .3 2.3 2.3 0 000 .7 3 3 0 00.3.6l.3.4.2.2a.3.3 0 00.1 0 2.3 2.3 0 01.3.3.4.4 0 00.1 0c.3.2.7.2.6.3h.4a2.4 2.4 0 00.4 0 8 8 0 01.9 0H27a4.7 4.7 0 01.9 0h1 .2a1.6 1.6 0 01.4 0h.3a.6.6 0 01.2 0h.3.5a3.1 3.1 0 00.6 0h.7.7.6c.2 0 .3 0 0 0-.4 0-.4 0 0 0h.2c-.4 0-.4 0 0 0a3 3 0 00.9 0h.2c.3 0 .2.1 0 .1a1.1 1.1 0 00.2 0h.2.7.2a2.4 2.4 0 00.7 0h.2l.7-.1h.3a2.8 2.8 0 01.6 0h.4a2.6 2.6 0 01.5 0 1.4 1.4 0 01.2 0 .4.4 0 00.1 0h-.1a.8.8 0 01.3 0h.1a2 2 0 01.2 0 1 1 0 00.3 0h.4a1 1 0 00.2 0h.7a1.1 1.1 0 01.3 0 .6.6 0 00.2 0 4.3 4.3 0 01.6 0 1.6 1.6 0 00.4 0h.7l.2.1h.2s-.1.1-.1 0a1.3 1.3 0 00-.3.1 1.6 1.6 0 00.4 0h.3a.2.2 0 01.2 0h.4c.1 0 .1 0 0 0h.3l.2.1h-.2-.5a1 1 0 01-.2 0 .8.8 0 00-.2 0h-.1a.3.3 0 00.1 0h.1a.5.5 0 00.2 0h1.3l.1.1h.2s-.2 0 0 0l-.3.1h-.3.4a.5.5 0 01.2 0 1.2 1.2 0 00.2 0h.1l-.1.1v.1h.1c-.2 0-.2 0 0 0H46.2 46.5l.3.1h-.3c-.1 0-.1 0 0 0h-.2-.2a5 5 0 00.6 0h-.2s-.1 0 0 0v.1a.9.9 0 01-.3 0H46a2 2 0 00-.2 0h.2a1.2 1.2 0 01-.2.1h-.3c-.1 0 0 0 0 0h0c-.1 0-.1 0 0 0v.1a.6.6 0 00-.1 0 1.6 1.6 0 01-.3 0h-.3-.4c-.2 0-.3 0-.2.1h-.5-.1a1.1 1.1 0 00-.2 0 2 2 0 00-.4 0 2.3 2.3 0 01-.6 0 .4.4 0 00-.1 0 .4.4 0 01-.2 0H42a1.3 1.3 0 01-.2 0 .7.7 0 00-.3 0H41a3.5 3.5 0 01-.5 0 3.7 3.7 0 00-.5 0c-.3 0 0 0 0 0a2 2 0 00-.2 0H38.8h-.2a1.2 1.2 0 00-.4 0H38a2 2 0 00-.4 0 3.4 3.4 0 01-.5 0h-.2a2.8 2.8 0 01-.5 0h-.2 1.3a10.3 10.3 0 01-1 0 2 2 0 01-.5 0 1 1 0 00-.3 0h.5a5.3 5.3 0 00-.6 0 3.5 3.5 0 00-.5 0H32.7c-.1 0 0 0 0 0h.2c.2 0 .2 0 0 0h-.5c-.3 0 0 0 0 0h.8c.3 0 .3-.1 0-.1a9.4 9.4 0 00-1.1 0h-.8c.5.1.5.1 0 .1h-.2-1.9a5.7 5.7 0 01-.7 0h-.8c.2 0 .2 0 0 0a8.7 8.7 0 00-1.2.1h-.2a3.4 3.4 0 00-.4 0 2.5 2.5 0 01-.4 0h-.2a3.6 3.6 0 01-.4 0h-.2-.3a.9.9 0 01-.2 0l-.3-.1-.4-.1a6.8 6.8 0 01-.7-.3l-.2-.1a1.1 1.1 0 01-.2-.1 3.6 3.6 0 01-.6-.6 2.2 2.2 0 01-.5-.9 3.2 3.2 0 01-.4-1.1v-.5h.6H21v-.2-.2a3.2 3.2 0 01.1-.5l.3-.6.2-.2v-.1a4.4 4.4 0 01.5-.7l.2-.2a2 2 0 01.6-.5 3.3 3.3 0 01.7-.3 1.3 1.3 0 01.5-.1.3.3 0 00.1 0 5.1 5.1 0 01.8 0h.5a.8.8 0 01-.2-.1 1.6 1.6 0 01.3 0 2 2 0 00-.2 0H25a2.9 2.9 0 01.7 0h.5H26.5a1.6 1.6 0 01.4 0h.2a1.3 1.3 0 01.1 0 .7.7 0 00.1 0 2.2 2.2 0 00.3 0 5.2 5.2 0 01.6 0h.2-.4a1.3 1.3 0 00.2 0 .6.6 0 00.1 0 2.4 2.4 0 01.4 0 1 1 0 00.2 0h.4a1.9 1.9 0 01.3 0H30.8a.7.7 0 01.1 0 1 1 0 00.2 0h.2a1.3 1.3 0 01-.2 0 1 1 0 01.1 0H32.4a.5.5 0 00.2 0h1a2 2 0 01.2 0 2.3 2.3 0 00.2 0h.1l.2.1h.5-.1a.2.2 0 00.1 0h.2a1.8 1.8 0 00.3 0h.1-.1c-.3 0-.2.1 0 0a1 1 0 01.2 0h-.1.3a.5.5 0 01.1 0v.1h-.2.1a1.3 1.3 0 01.3 0h-.2.4a2 2 0 01.3 0h.4l-.3.1a2 2 0 00.2 0h-.2.4a.6.6 0 01-.2 0H37.1 37l-.1.1h-.2.2a1.2 1.2 0 00-.2 0c-.2 0-.2 0 0 0l-.2.1h.4-.4.1-.1.5-.5.4c-.2 0 0 0 0 0H36.3l.3.1a18.3 18.3 0 00.2.1h-.5c.2 0 .1 0 0 0H37z"></path><path class="cls-1" d="M29.6 33.6c.1 0 .1 0 0 0h.5a.9.9 0 00-.1 0l-.1-.1a1.5 1.5 0 01-.2 0h.3a.7.7 0 00.2 0h-.4.1s.1 0 0-.1a.3.3 0 01.2 0h.1a.6.6 0 00.2 0h-.1v-.1a1 1 0 00.2 0s.1 0 0-.1a.6.6 0 00.3 0h.4l.1-.1a.9.9 0 00.3 0h.2a.9.9 0 00.2 0 1 1 0 01.4-.1h.2a.7.7 0 01.1 0 .2.2 0 00.2 0 .7.7 0 01.2 0 .3.3 0 00.1 0 1.9 1.9 0 01.4 0 1.3 1.3 0 00.3 0 1.5 1.5 0 01.2 0 3.4 3.4 0 01.7 0h.1H36.7a1 1 0 00.3 0 1.6 1.6 0 01.3 0h.2a1.2 1.2 0 01.3 0h0-.2-.5a1 1 0 01.3 0h.9c-.3 0-.5 0-.3.1a2.5 2.5 0 00.4 0 1.7 1.7 0 00.4 0H40.5h-.2c-.1 0-.1 0 0 0a2.5 2.5 0 00.3 0c.1 0 0 0 0 0H40c-.2 0-.3 0 0 0a4.8 4.8 0 00.8 0h.5c-.3 0-.3 0 0 0a1.6 1.6 0 00.2 0l-.2-.2h.5a2.4 2.4 0 00.3 0h.5a2.8 2.8 0 01.4 0h.6c-.1 0-.1 0 0 0a13 13 0 001.3 0 1.1 1.1 0 00.3 0 1.3 1.3 0 01.3 0h.1a2 2 0 01.3 0h.2a1 1 0 00.1 0h.5a4.2 4.2 0 00.5 0h.7a2.2 2.2 0 01.7 0h.7a5.6 5.6 0 01.8 0l.4.1h.1a.1.1 0 01.1 0h.5a.7.7 0 00.2 0 1.6 1.6 0 01.5 0h.4a.7.7 0 01.3 0h.6a2.3 2.3 0 00.3 0 .7.7 0 01-.1 0 1 1 0 01.2 0 1 1 0 00-.1 0h-.2.8c-.1 0 0-.1.2 0a.8.8 0 01.3 0 1.1 1.1 0 00.5 0 3.3 3.3 0 01.5 0h.4a2 2 0 01.3-.2h.2a.3.3 0 01.1-.1 1.3 1.3 0 01.1 0l.3-.3.2-.2c.1-.1.1-.1.1 0a.2.2 0 000-.1 1.4 1.4 0 01.2-.2.3.3 0 01.1-.1s0-.1 0 0c.1-.1 0-.1 0 0v-.2s.1-.1.1 0a.8.8 0 00.2-.3v-.2a.6.6 0 010 .1 2 2 0 000-.4 1 1 0 000-.1.2.2 0 00.1 0v-.5c0-.3 0-.3 0 0a.4.4 0 000-.3 2 2 0 01-.2-.3l-.1-.2a.7.7 0 01-.2-.2.9.9 0 00-.1-.2c-.2-.2-.2-.2 0-.1h-.1c-.1-.2-.1-.2 0-.2l-.5-.4h-.3v-.1a1.2 1.2 0 01-.5-.1.6.6 0 00-.3-.1H50.3 50l.2-.1a3.6 3.6 0 00.8 0 4.6 4.6 0 00-1 0H49 48.7 49l.4.1H49.5h-.4a.5.5 0 01-.2 0 .6.6 0 01-.5 0h-.3a1 1 0 01-.3 0h-.2a3.6 3.6 0 01-.5.1h-1.2-.6a1.1 1.1 0 00-.5 0h-.2a1.8 1.8 0 00-.3 0c-.1 0-.3 0 0 0a.6.6 0 00-.2 0l-.3-.1h-.2 0-.3l-.2.1h-.5.4a1.4 1.4 0 00.1 0H42.8h.2c.1 0 .2 0 0-.1-.3 0-.3 0 0 0h-.6a1.7 1.7 0 01-.3 0c-.3 0-.3 0 0 0h.1-.5-.1a.9.9 0 01-.3 0h-.8-.7a1.6 1.6 0 00-.2 0h-.2.1l.3.1H39.5a.8.8 0 00-.3 0l-.9-.1a3.6 3.6 0 01-.6 0h-.5c-.3 0-.2 0 0 0a2 2 0 01.3.1 2.3 2.3 0 01-.3 0h-.6.1c.3 0 .3 0 0 0H36a1.8 1.8 0 00-.4 0 .7.7 0 01-.1 0l-.3-.1c-.1 0-.1 0 0 0h-1a.5.5 0 01-.1 0 1.4 1.4 0 01-.2 0h.2c.1.1.1.1-.2 0h-.1a.7.7 0 01-.2 0h-.1a.3.3 0 00-.1 0 .7.7 0 01-.3 0 .4.4 0 00-.1 0 1.2 1.2 0 01-.2 0 .5.5 0 01-.2 0 1.4 1.4 0 00-.3 0H32a.3.3 0 01-.1 0h-.5a.9.9 0 01-.2 0 .2.2 0 00-.1 0h-.1-.3-.2a.5.5 0 01-.1 0 .9.9 0 00-.1 0H30l-.2-.1h-.1-.1a.7.7 0 00-.2 0 .2.2 0 01-.1 0h.1c.1 0 0 0 0 0H29.2l.1-.1h-.1a.4.4 0 01-.1 0c.1 0 .1 0 0 0H29s-.2 0 0 0a.5.5 0 01-.2 0h-.1a.7.7 0 01-.1 0h.1-.1l.1-.1h-.2.2-.1a.3.3 0 01.1-.1c.1 0 .1 0 0 0 .1 0 .1 0 0 0-.2 0-.2 0 0 0h.1-.3.2c-.1 0-.2 0-.1-.1a1.6 1.6 0 01.2 0 1.6 1.6 0 00-.2 0c-.3 0-.2 0 0 0 .1 0 0 0 0 0-.1 0-.1-.1 0-.1h.3a.3.3 0 00-.1 0 1.8 1.8 0 01-.2 0c-.1 0 0-.1 0-.1h.4-.2a.5.5 0 01.2 0v-.1a1 1 0 01-.2 0h.2c.2 0 0 0 0 0h-.3.1c.2 0 .1-.1 0-.1H29.1c.1 0 .2 0 0 0l.6-.1a.7.7 0 01-.1 0c-.1 0 0 0 0 0a.1.1 0 01.2 0v-.1H30.4a1 1 0 01.1 0h.5a.5.5 0 00.2 0h.6v-.1a.3.3 0 01.2 0 .4.4 0 01.2 0 1.6 1.6 0 01.1 0H32.7a1.2 1.2 0 01.2 0 .5.5 0 01.2 0h.2a.3.3 0 01.1 0 .5.5 0 01.2 0 1.5 1.5 0 01.5 0 1.8 1.8 0 00.2 0H36a1.2 1.2 0 01.5 0c.2 0 .2 0 0 0h.3a2.6 2.6 0 00.7 0h.7a1.9 1.9 0 01.4 0 1.3 1.3 0 00.4 0 2 2 0 01.5 0h1.9a1 1 0 01.3 0 .7.7 0 00.3 0 3.3 3.3 0 01.7 0 2.8 2.8 0 00.4 0 2.1 2.1 0 01.3 0h.2a2 2 0 01.3 0h1.9a1 1 0 01.3 0h.1a1.3 1.3 0 01.4 0 6.6 6.6 0 00.7 0 1.7 1.7 0 01.5 0 1.3 1.3 0 01.5 0 1.7 1.7 0 00.3 0h.6a3.6 3.6 0 00.5 0 1.6 1.6 0 01.3 0 6.5 6.5 0 001 0 3.5 3.5 0 01.7 0H54h.4a3.8 3.8 0 00.7 0h.6a3.7 3.7 0 01.6 0 2 2 0 01.8.3.3.3 0 00.2 0 1.7 1.7 0 01.7.4 5.2 5.2 0 01.6.7l.2.1v.2l.2.3.1.1a1.3 1.3 0 01.2.4l.1 1v.2c-1.4 0-.2 0 0 0V30.8a4.1 4.1 0 010 .5l-.2.7a3.7 3.7 0 01-.6 1c0-.2 0 0 0 0a3.6 3.6 0 01-.3.3l-.4.3a3.3 3.3 0 01-.5.3 2 2 0 01-.3.1h-.1a1.3 1.3 0 01-.2.1h-.1a1.5 1.5 0 01-.3.1H56a2.4 2.4 0 01-.4 0h-1.1-.5a1.7 1.7 0 00-.3 0 1.7 1.7 0 01-.5.1h-.1-.4a1.6 1.6 0 01-.1 0 .3.3 0 01-.2 0h-.1a.3.3 0 01-.2 0 3.4 3.4 0 00-.4 0 1 1 0 01-.3 0 1.5 1.5 0 00-.4 0H51a1.4 1.4 0 00-.5 0H48a1.7 1.7 0 01-.4 0h-.3a.4.4 0 00-.1 0 .8.8 0 01-.3 0h-.1a1.8 1.8 0 01-.6 0h-.3a3 3 0 00-.3 0 3.7 3.7 0 01-.7 0h-.1-.3a4.2 4.2 0 00-.5 0 2.1 2.1 0 01-.6 0H43h-.4-.1a.8.8 0 01-.3 0H42a.3.3 0 01-.1 0h-.2-.4a1.2 1.2 0 00-.4 0h-.5-.5-.5c-.1 0-.1 0 0 0 .4 0 .3 0 0 0h-.1c.3 0 .3 0 0 0a1.5 1.5 0 00-.6 0h-.2c-.1 0 0-.1 0-.1H38h0-.3-.1a1.3 1.3 0 00-.5 0H37l-.5.1H35.6a1.3 1.3 0 01-.4 0 2.3 2.3 0 01-.3 0h-.2H34.4h-.2-.1s-.1 0 0 0h-.5a.4.4 0 00-.1 0h-.2 0c-.1 0 0 0 0 0h-.5-.1a.6.6 0 01-.2 0H32h-.1l-.1-.1a2 2 0 01-.4 0h-.1c-.1 0-.3 0-.2-.1h.1a.3.3 0 00.2 0h-.8l-.2-.1c-.2 0 0 0 0 0h.1a.5.5 0 00.2 0 1 1 0 01.1 0 .4.4 0 00.1 0 .5.5 0 00.1 0h-.1a.4.4 0 00-.1 0h-.1H30.4a.4.4 0 00-.1 0h-.1-.1l-.1-.1h-.1c-.1-.1 0-.1.1-.1h.2a2.8 2.8 0 00-.3 0 .2.2 0 01-.1 0 .9.9 0 00-.1 0v-.2c-.2 0-.2 0 0 0zM36.2 27.5z"></path><path class="cls-2" d="M59.7 30.5a6.3 6.3 0 11-6.3-6.3 6.3 6.3 0 016.3 6.3 4.7 4.7 0 01-1 3.4"></path><path class="cls-1" d="M58.8 33.6c-.1.1 0 0 0 0a1 1 0 000-.2 3.1 3.1 0 00.2-.3.8.8 0 010-.1l.1-.1a.6.6 0 000 .1l-.2.2a1.4 1.4 0 01.1-.3s0-.1 0 0a2.7 2.7 0 01-.1.2l.1-.3c.2-.3 0 0 0 .2l-.3.3a.6.6 0 01.2-.2c.1-.3 0-.2-.1 0l.1-.2.1-.2c.1-.2 0-.2 0-.1l.1-.8a.3.3 0 000-.1 1.7 1.7 0 010 .2v-.1-.2-.1-.3a1.7 1.7 0 000-.2v-.4V30.3a2 2 0 000-.5c0 .1 0 0 0 0l-.1-.4a.8.8 0 010-.2l-.1-.2v-.1a.2.2 0 010-.1c-.1-.1-.1-.1-.1 0v-.2l-.1-.1a1.5 1.5 0 01-.1-.3.6.6 0 01-.1-.3.8.8 0 00-.2-.2v-.1l-.1-.1v-.1l-.2-.2-.2-.3-.4-.4-.1-.2a.7.7 0 00-.2-.1 5.5 5.5 0 01-.5-.4 2.2 2.2 0 00-.3-.2 3.7 3.7 0 00-.4-.2l-.5-.2h-.1a1.3 1.3 0 00-.4-.2 1.8 1.8 0 01-.2 0h-.2l-.1-.1a.5.5 0 01-.2 0 2.4 2.4 0 00-.6-.1h-.4a2.5 2.5 0 00-.4 0h-.2a1.4 1.4 0 00-.5.2h-.2a4.3 4.3 0 00-.6.2 1.5 1.5 0 00-.3 0l-.1.2a3 3 0 00-.4.2 4 4 0 00-.6.4l-.6.5a2.6 2.6 0 01-.3.3l-.2.3v.1a2 2 0 01-.3.4 4.3 4.3 0 01-.4.7l-.1.4a1.3 1.3 0 00-.1.3l-.2.8V30.4a3.8 3.8 0 000 .6l.1.8v.3h.1v.1l.1.2.1.2v.1a1.2 1.2 0 01.2.4v.2a.5.5 0 01.2.2v.2h.1c0-.2.2.1.3.3a1.6 1.6 0 00.4.4l.2.3c.3.3.5.4.2.1-.3-.3-.2-.2.2.1l.3.3.4.3c.2.1.2.1 0 0-.3-.2-.3-.2 0 0l.2.1c-.4-.2-.4-.2 0 0a1.6 1.6 0 00.7.3l.1.1c.2 0 .2.1 0 0a.5.5 0 00.2.1l.3.1H52c-.2-.1 0 0 .2 0h.3l.2.1a1.7 1.7 0 00.6 0h.3l.6-.1h.2a4.4 4.4 0 01.5-.2 2.3 2.3 0 00.4 0 2 2 0 01.3-.2 1.7 1.7 0 01.2-.1h.1-.1a.6.6 0 01.2-.1.6.6 0 00.1 0 1.5 1.5 0 01.2-.2.7.7 0 00.2 0l.1-.2h.1V35h.1a.8.8 0 00.1 0l.3-.3.2-.2.2-.1a.5.5 0 00.1-.2l.4-.4a1 1 0 00.2-.2l.3-.6V33a.3.3 0 01.1 0v-.1c0-.1.2-.2.1 0a1.8 1.8 0 00-.1.3 1.3 1.3 0 00.1-.3 2 2 0 00.1-.3v-.2h.1v-.1l.1-.2c0-.1 0-.1 0 0l.2-.3c0-.2 0 0 0 0v.1l-.1.4a.5.5 0 010 .2.7.7 0 00-.1.1v-.1a.4.4 0 00.1 0 1.2 1.2 0 000-.3l.1-.3a.6.6 0 000-.2v-.2l.1-.2V31h.1V31 31.6a3.5 3.5 0 00.1-.5.5.5 0 010-.2 1 1 0 000-.2l.2.1v-.1c0-.2 0-.2 0 0 0 .1 0 .1 0 0V31.2l.1-.3V31.6a2.4 2.4 0 000-.5v.2h.1a1 1 0 010 .3v.2l-.1.2v-.1a.3.3 0 000-.1h.1a1 1 0 010 .2l-.1.3V32v.2q0 .1 0 0h.1a.7.7 0 000 .2 1 1 0 010 .2l-.1.1v.2l-.1.2v.1l-.1.1v.1c-.1.1-.1.2 0 .1l-.1.1-.1.3-.1.1v.1l-.1.2-.3.3a1.7 1.7 0 01-.3.5.5.5 0 00-.2.1v.2h-.2a1.5 1.5 0 010 .2.4.4 0 01-.1 0 .8.8 0 00-.2.2l-.2.1-.4.3a2.4 2.4 0 01-.4.3l-.5.3c-.2 0 .1 0 0 0h-.2a2.5 2.5 0 01-.3.1l-.6.2h-.1a1.4 1.4 0 00-.5.2h-.2a2.3 2.3 0 00-.5 0 3.3 3.3 0 01-.4.1h-.3a3 3 0 01-.5 0h-.2.2a7 7 0 00.9 0h.2a1.8 1.8 0 00.4 0H54a3.8 3.8 0 01-1.6 0 1.1 1.1 0 00-.3 0h.5a6.2 6.2 0 00-.6-.1 5 5 0 00-.5-.1 6.8 6.8 0 01-2.3-1V36l.2.2c.2.1.2.1 0 0l-.4-.3c-.1-.2 0-.1 0 0l.7.4c.2.2.3.2 0 0l-1-.7-.3-.3-.2-.2c.3.4.3.4 0 0L48 35c0 .2-.1 0-.1 0v-.1a5.8 5.8 0 01-.5-.6l-.2-.4-.1-.3-.2-.3a5.1 5.1 0 01-.2-.6l-.2-.7v-.3c0 .3 0 .3 0 0l-.2-1.1v-.2a4.8 4.8 0 000-.5 2.7 2.7 0 01.2-.5v-.1a1.7 1.7 0 010-.4l.1-.3.1-.2V28l.2-.2v-.1l.1-.2.2-.4a1.6 1.6 0 00.1-.3l.1-.1a5.8 5.8 0 01.5-.8l.5-.5.2-.1a5.7 5.7 0 01.8-.7h.1a4.7 4.7 0 011-.6l.7-.1H51.6l.7-.3a1.7 1.7 0 00.3 0 2.2 2.2 0 01.7-.1 4.6 4.6 0 01.6 0 1 1 0 01.5 0 .2.2 0 000 .1 4.9 4.9 0 01.8.2h.5a1.6 1.6 0 01-.2 0 1.6 1.6 0 01.4.1 2.2 2.2 0 00-.3-.1h-.2a2.2 2.2 0 01.7.1l.4.2.2.1.1.1a1.8 1.8 0 01.4.2l.1.1a1 1 0 01.1.1.8.8 0 00.1 0 2.6 2.6 0 00.3.3 3.5 3.5 0 01.5.4l.1.2a3.3 3.3 0 00-.3-.3 1.5 1.5 0 00.2.1v.1a2.6 2.6 0 01.3.3 1.1 1.1 0 00.2.2 3.3 3.3 0 01.2.3 1.9 1.9 0 01.2.2l.3.5.3.6a.6.6 0 010 .2 1.2 1.2 0 00.1.2l.1.1V28a1.1 1.1 0 010 .2 5.6 5.6 0 01.3.8 1.7 1.7 0 010 .4.5.5 0 000 .2V30.2c.1.2.1.2 0 .2v.2a1.7 1.7 0 010 .2v.3c0 .2 0 .2 0 0v.3a.2.2 0 000 .2v.1h-.1v.1a.4.4 0 000 .1.3.3 0 010 .2H60v.3H60v-.1c0-.2 0-.2 0 0 0 .1 0 .1 0 0a1 1 0 010 .2l-.1.2-.1.2v-.2.1a1.3 1.3 0 01-.1.3v-.2.2a.6.6 0 01-.1 0c0 .2-.2.4 0 .1a1.4 1.4 0 01-.2.3l-.1.1a1 1 0 01-.1.2v.1a2.1 2.1 0 00.1-.3v.1l-.1.1v-.2.1l-.1.2a.6.6 0 010-.2s.1 0 0 .1v.1H59v-.1a.8.8 0 00.2-.2l-.1.2a1 1 0 000-.2.8.8 0 010-.1c.1-.1.1-.1 0 0v.1l.1-.2-.1.2.1-.2a2.5 2.5 0 01-.3.4 2.2 2.2 0 00.2-.2v-.2l-.1.3c0-.2 0 0 0 0l.1-.3.1-.2a1.5 1.5 0 01-.1.2l-.2.3c-.2.3-.2.2 0-.2.2-.1 0 0 0 0-.1.2-.2.2 0 0l.2-.4c0 .2 0 .1 0 0v.2H59a1.8 1.8 0 01-.2.3zM44.3 46c-.1 0 0 0 0 0h.1l.1-.1h.4a1 1 0 01.2 0h.1a.6.6 0 00-.2 0h-.2a1.8 1.8 0 01.3 0s.1 0 0 0c0 0 .2 0 0 0l-.2-.1a6.4 6.4 0 01.1 0h-.4a.7.7 0 01.3 0h.4l.1-.1c.2 0 .2 0 0 0l1-.1H46.5c0-.1 0 0 .2 0a.5.5 0 00.1 0c.2 0 .2 0 0 0l.4-.1h.9a4.9 4.9 0 00.7 0c-.2 0 0 0 0 0h1.4s.2 0 .1-.1a1.4 1.4 0 01.4 0h.1a.8.8 0 01.2 0 1.8 1.8 0 00.3 0h.4c.1 0 0 0 0 0a.1.1 0 00.1 0H53a1.1 1.1 0 01.2 0 1 1 0 00.3 0 4.6 4.6 0 01.7 0 4.8 4.8 0 00.5 0h.4a4.5 4.5 0 01.6 0h.2a4 4 0 00.5 0H56.7a1.1 1.1 0 01.1 0l.3.1a1 1 0 01.3 0 6.9 6.9 0 01.7.3 1.9 1.9 0 01.5.2l.4.3.2.2.5.6.2.2a3.5 3.5 0 01.3.8v.4l.1.2a2.1 2.1 0 010 .3v.2h-.5.5a3.9 3.9 0 010 1 3.1 3.1 0 01-.5 1 2 2 0 01-.4.4 2.6 2.6 0 01-.4.4v.1a1.4 1.4 0 01-.5.3h-.2a2.2 2.2 0 01-.9.4h-1a8 8 0 01-.9.1h-.2-1.1a4.7 4.7 0 01-1 0h-.5-.4-.2a1.6 1.6 0 01-.4 0h-.3a.6.6 0 01-.2 0H51h-.5a3.1 3.1 0 00-.6 0H49h-.7-.6c-.2 0-.3 0 0 0 .4 0 .4 0 0 0h-.2c.4 0 .4 0 0 0a3 3 0 00-.9 0h-.2c-.3 0-.2 0 0-.1a1.1 1.1 0 00-.2 0h-.4-.5-.2a2.4 2.4 0 00-.7 0h-.2l-.7.1h-.3a2.8 2.8 0 01-.6 0h-.4a2.6 2.6 0 01-.5 0 1.5 1.5 0 01-.2 0 .4.4 0 00-.1 0 .8.8 0 01-.2 0h-.1a2 2 0 01-.2 0 1 1 0 00-.3 0h-.2-.1-.1a1 1 0 00-.2 0h-.5-.2a1.1 1.1 0 01-.3 0 .6.6 0 00-.2 0 4.3 4.3 0 01-.6 0 1.6 1.6 0 00-.4 0h-.7l-.2-.1h-.2.1a1.3 1.3 0 00.3 0 1.6 1.6 0 00-.4 0 5 5 0 00-.3 0 .2.2 0 01-.2 0h-.1v-.1h-.3c-.1 0-.1 0 0 0h-.3-.2l.2-.1h.5a1 1 0 01.2 0 .8.8 0 00.2 0h-.1a.4.4 0 00-.2 0H36h-.4-.4-.2-.2v-.1h-.2s.2 0 0 0h.3l.3-.1h-.4a.5.5 0 01-.2 0 1.2 1.2 0 00-.2 0h-.1l.1-.1h-.1c-.2 0-.2 0 0 0s.2-.1 0-.1H34.9h-.1l-.3-.1h.7a5 5 0 00-.6 0h.2V52a.9.9 0 01.3 0h.2a2 2 0 00.2 0h-.1-.1a1.2 1.2 0 01.2 0h.3c.1 0 0 0 0 0l-.2-.1h.2c.1 0 .1 0 0 0a.6.6 0 00.1 0 1.6 1.6 0 01.3-.1h.3H37v-.1h.6a1.1 1.1 0 00.2 0 2 2 0 00.4 0 2.3 2.3 0 01.6 0 .4.4 0 00.1 0 .4.4 0 01.2 0h.1a1.3 1.3 0 01.2 0 .7.7 0 00.3 0H40.4a3.5 3.5 0 01.5 0 3.7 3.7 0 00.5 0c.3 0 0 0 0 0a2 2 0 00.2 0H42.7a1.2 1.2 0 00.4 0h.2a2 2 0 00.4 0 3.4 3.4 0 01.5 0h.2a2.8 2.8 0 01.5 0h0-.8H43.5h.3a10.3 10.3 0 011 0 2 2 0 01.5 0 1 1 0 00.3 0H45a5.2 5.2 0 00.6 0 3.5 3.5 0 00.5 0H48.6h-.2c-.2 0-.2 0 0 0h.4c.2 0 .2 0 0 0h-.7c-.3 0-.3.1 0 .1a9.4 9.4 0 001.1 0h.8c-.5 0-.5-.1 0-.1h.2 1.9a5.7 5.7 0 01.7 0h.8c-.2 0-.2 0 0 0a8.7 8.7 0 001.2 0l.2-.1a3.4 3.4 0 00.4 0 2.6 2.6 0 01.4 0h.2a3.6 3.6 0 01.4 0h.2a1.2 1.2 0 00.2 0H57.1a.7.7 0 00.1 0h.2a1.8 1.8 0 00.5-.3s.1 0 0 0a.6.6 0 00.2-.1 2.3 2.3 0 00.4-.4c.3-.4.3-.6.4-.5a3 3 0 00.2-.8v-.3a4.2 4.2 0 000-.6c-.1-.5-.3-.7-.1-.5V48h-.1a1.8 1.8 0 00-.4-.4.6.6 0 00-.2-.2L58 47a3.7 3.7 0 00-.5-.2 1.4 1.4 0 01-.3 0l-.1-.1a4 4 0 00-.6 0h-.5a.8.8 0 01.2 0 1.6 1.6 0 01-.3 0 2 2 0 00.2 0h.2a2.9 2.9 0 01-.6 0H55 54.8a1.6 1.6 0 01-.4 0h-.2a1.3 1.3 0 01-.1 0 .7.7 0 00-.1 0 2.2 2.2 0 00-.3 0 5.2 5.2 0 01-.6 0h-.3.5a1.3 1.3 0 00-.2 0 .6.6 0 00-.1 0 2.4 2.4 0 01-.4 0 1 1 0 00-.2 0H52a1.9 1.9 0 01-.3 0h-1.1-.1a.7.7 0 01-.2 0 1 1 0 00-.1 0H50a1.3 1.3 0 01.2 0 1 1 0 01-.1 0H48.9a.5.5 0 00-.2 0h-.1-.1-.8a2 2 0 01-.2 0 2.3 2.3 0 00-.2 0h-.1l-.2-.1h-.5.1a.2.2 0 00-.1 0H46.1a1.8 1.8 0 00-.2 0h-.1.1c.2 0 .2-.1 0 0a1 1 0 01-.2 0h.1-.3a.5.5 0 01-.1 0v-.1h.2-.1a1.3 1.3 0 01-.3 0h.2-.4.2-.2a2 2 0 01-.3 0h-.4l.3-.1a2 2 0 00-.2 0h.2-.4a.6.6 0 01.2 0H44.2h.1l.1-.1h.1-.1a1.2 1.2 0 00.1 0h.1c.2 0 .2 0 0 0l.2-.1h-.3.3-.5.5-.4c.2 0 0 0 0 0h.6l-.3-.1H44.5c.2 0 0 0 0 0-.3 0-.3 0 0-.1h.5c-.2 0-.1 0 0 0H44.2z"></path><path class="cls-1" d="M51.7 52.3c-.2 0-.2 0 0 0h-.1-.4a.9.9 0 00.1.1h.1a1.4 1.4 0 01.1 0h-.2a.7.7 0 00-.2 0h.4v.1h-.1s-.1 0 0 0a.3.3 0 01-.2 0H51a.6.6 0 00-.2 0h.1v.1h-.1a1 1 0 00-.1 0s-.1.1 0 .1a.6.6 0 00-.3 0h-.2c0 .1 0 .1-.1 0v.1H50a.9.9 0 00-.3 0h-.2a.9.9 0 00-.2.1 1 1 0 01-.4 0h-.2a.7.7 0 01-.1 0 .2.2 0 00-.2 0 .7.7 0 01-.2 0 .3.3 0 00-.1 0 1.9 1.9 0 01-.4 0 1.3 1.3 0 00-.3 0 1.5 1.5 0 01-.2 0 3.3 3.3 0 01-.7 0h-.1-.5-.7-.2-.4a1 1 0 00-.3 0 1.6 1.6 0 01-.3 0h-.2a1.2 1.2 0 01-.3 0h-.2H44.2a1 1 0 01-.3 0H43 43h.3a2.4 2.4 0 00-.4 0 1.7 1.7 0 00-.4 0H40.8h.2c.1 0 .1 0 0 0a2.5 2.5 0 00-.3 0c-.2-.1 0-.1 0-.1h.5c.2 0 .3 0 0 0a4.8 4.8 0 00-.8 0H40c.3 0 .3.1 0 0a1.6 1.6 0 00-.2 0l.2.2h-.5a2.4 2.4 0 00-.3 0h-.5a2.8 2.8 0 01-.4 0h-.6c.1 0 .1 0 0 0a13 13 0 00-1.3 0 1.1 1.1 0 00-.3 0 1.3 1.3 0 01-.3 0h-.1a2 2 0 01-.3 0h-.2a1 1 0 00-.1 0H34.7h-.2a4.1 4.1 0 00-.5 0h-.7a2.3 2.3 0 01-.7 0H32a5.6 5.6 0 01-.8 0c-.5 0-.6-.1-.4-.1h-.1a.1.1 0 01-.1 0H30a.7.7 0 00-.2 0 1.6 1.6 0 01-.5 0H29a.7.7 0 01-.4 0H28a2.3 2.3 0 00-.3 0 .7.7 0 01.1 0 1 1 0 01-.2 0 1 1 0 00.1 0h-.3c-.3 0-.5 0-.3.1h-.2a.8.8 0 01-.3 0 1.1 1.1 0 00-.5 0 2.5 2.5 0 01-.5 0h-.2.2a2.6 2.6 0 01-.5-.1H25a1.6 1.6 0 01-.5-.2 1.5 1.5 0 01-.4-.1.7.7 0 01-.1 0l-.2-.1a1.7 1.7 0 01-.5-.3l-.3-.3s0-.1 0 0l-.1-.2a1.8 1.8 0 01-.3-.4.7.7 0 01-.1-.2s-.1-.1 0 0c-.1-.2-.1-.1 0 0l-.2-.2v-.2l-.1-.3a1.8 1.8 0 01-.2-.3 1.4 1.4 0 01.1.2.6.6 0 000-.2 4.7 4.7 0 01-.2-.5v-.2-.2h.7-.6v-.4c0-.6.1-.6 0-.2a1.5 1.5 0 00.1-.3 1.2 1.2 0 01.1-.4c.2-.6.3-.8.1-.5a1.4 1.4 0 01.2-.3l.2-.3c.3-.3.3-.3.2-.1l.1-.1.1-.1.8-.5.3-.2h.2a1.3 1.3 0 01.5-.2 2.9 2.9 0 00.5 0h2.1c.6 0 0-.2.5-.2h2.4c.1 0 .2.1.4 0h.2l.1.1h.3l-.2.1a3.6 3.6 0 00-.8 0 4.6 4.6 0 001 0h1.2-.1-.2l-.4-.1h-.3H32.2a.5.5 0 01.2 0 .6.6 0 01.5 0h.3a1 1 0 01.3 0h.2a3.6 3.6 0 01.5-.1H36a1.1 1.1 0 00.5 0h.1a1.8 1.8 0 00.4 0c.1 0 .3 0 0 0a.6.6 0 00.2 0l.3.1h0 .5l.2-.1H38.3a1.4 1.4 0 00-.2 0h.2c-.2 0-.2 0 0 0 .3.1.3.1 0 .1h.6a1.7 1.7 0 01.3 0c.3 0 .3 0 0 0h-.1.6a.9.9 0 01.3 0h.8.7a1.6 1.6 0 00.2 0h.1l-.3-.1H41.8a.8.8 0 00.3 0c.5 0 .9 0 .8.1h.2a3.6 3.6 0 01.5 0h.5c.3 0 .2 0 0 0a2 2 0 01-.3-.1 2.3 2.3 0 01.3 0 6.5 6.5 0 00.6 0h-.1c-.3 0-.3 0 0 0H45.3a1.8 1.8 0 00.4 0 .7.7 0 01.1 0l.3.1c.1 0 .1 0 0 0h1a.5.5 0 01.1 0 1.4 1.4 0 01.2 0l-.2-.1H47.5a.7.7 0 01.2 0 .2.2 0 01.2 0 .7.7 0 01.3 0 .4.4 0 00.1 0 1.2 1.2 0 01.2 0 .5.5 0 01.2 0 1.5 1.5 0 00.3 0h.4a.3.3 0 01.1 0h.5a.9.9 0 01.2 0 .2.2 0 00.1 0h.5c.1 0 .1 0 0 0a.5.5 0 01.2 0 .9.9 0 00.1.1h.1l.1.1H51.7a.7.7 0 00.2 0c-.1 0-.1 0 0 0H52.1c-.1 0-.1.1-.1 0v.1h.1a.4.4 0 01.1 0c-.1 0-.1 0 0 0h.1a.5.5 0 01.2 0h.1a.7.7 0 01.1 0h-.1.1-.1.1a.2.2 0 010 .1h0-.1.1a.3.3 0 01-.1.1c-.1 0-.1 0 0 0-.1 0-.1 0 0 0 .2 0 .2 0 0 0h-.1.3-.2c.1 0 .2 0 .1.1a1.6 1.6 0 01-.2 0 1.6 1.6 0 00.2 0c.3 0 .2 0 0 0-.1 0 0 0 0 0 .1 0 .1.1 0 .1h-.3.2a1.8 1.8 0 01.1 0c.1 0 0 .1 0 .1h-.4.2a.5.5 0 01-.2 0v.1a1 1 0 01.2 0h-.2c-.2 0 0 0 0 0H52.6c-.2 0-.2 0 0 0 .1.1 0 .1-.2.1h-.1c-.1 0-.2 0 0 0l-.6.1a.8.8 0 01.1 0c.1 0 0 0 0 0a.1.1 0 01-.2 0v.1h-.4-.2a1 1 0 01-.1 0h-.6a.5.5 0 00-.1 0H50h-.2-.1-.1-.1v.1a.3.3 0 01-.2 0 .4.4 0 01-.2 0 1.6 1.6 0 01-.1 0H48.6a1.2 1.2 0 01-.2 0 .5.5 0 01-.2 0H48a.3.3 0 01-.1 0 .5.5 0 01-.2 0 1.5 1.5 0 01-.5 0 1.8 1.8 0 00-.3 0h-1.7a1.2 1.2 0 01-.5 0c-.2 0-.2 0 0 0h-.3a2.6 2.6 0 00-.7 0h-.7a1.9 1.9 0 01-.4 0 1.3 1.3 0 00-.4 0 2 2 0 01-.5 0H40a1 1 0 01-.3 0 .7.7 0 00-.3 0 3.3 3.3 0 01-.7 0 2.8 2.8 0 00-.4 0 2.1 2.1 0 01-.3 0h-.2a2 2 0 01-.3 0h-1.9a1 1 0 01-.3 0h-.1a1.3 1.3 0 01-.4 0 6.6 6.6 0 00-.7 0 1.7 1.7 0 01-.5 0 1.3 1.3 0 01-.5 0 1.6 1.6 0 00-.3 0h-.5-.1a3.5 3.5 0 00-.5 0 1.6 1.6 0 01-.3 0 6.5 6.5 0 00-1 0 3.5 3.5 0 01-.7 0H27.7 27.4 27a3.8 3.8 0 00-.7 0h-.6a3.7 3.7 0 00-.4 0l-.5.2h-.2l-.4.3a1.8 1.8 0 00-.4.5.8.8 0 01-.2.1l-.1.2c-.1.3-.1.3 0 .2a2.4 2.4 0 01-.1.2c-.2.2-.2.7-.2.6v.2a4.2 4.2 0 00.1.5l.1.5a3.1 3.1 0 00.4.6c0-.1 0 0 0 0a2.2 2.2 0 00.2.2 1 1 0 00.3.2l.3.2h.2l.2.1.2.1h2a1.7 1.7 0 00.3 0 1.7 1.7 0 01.5 0h.1.3a1.6 1.6 0 01.2 0 .3.3 0 01.2 0h.1a.3.3 0 01.2 0 3.4 3.4 0 00.4 0 1 1 0 01.3 0 1.5 1.5 0 00.4 0h.1a1.4 1.4 0 00.5 0h2.5a1.7 1.7 0 01.4 0h.3a.4.4 0 00.1 0 .8.8 0 01.3 0h.1a1.8 1.8 0 01.6 0h.3a3 3 0 00.3 0 3.7 3.7 0 01.7 0h.4a4.2 4.2 0 00.5 0 2.1 2.1 0 01.6 0h.8.1a.8.8 0 01.3 0h.2a.3.3 0 01.1 0H40a1.2 1.2 0 00.4 0h.5.5.5c.1 0 .1 0 0 0-.4 0-.3 0 0 0h.1c-.3 0-.3 0 0 0a1.5 1.5 0 00.6 0h.2c.1 0 0 .1 0 .1h.2.5.1a1.3 1.3 0 00.5 0h.2l.5-.1H45.7a1.3 1.3 0 01.4 0 2.3 2.3 0 01.3 0H47.3s.1 0 0 0h.5a.4.4 0 00.1 0H48.6a.6.6 0 01.2 0h.5l.1.1h.1a2 2 0 01.4 0h.1c.1 0 .3 0 .2.1H50a.3.3 0 00-.2 0h.6a5.8 5.8 0 00.2 0l.2.1c.1 0 0 0 0 0h-.1a.5.5 0 00-.2 0 1 1 0 01-.1 0 .4.4 0 00-.1 0 .5.5 0 00-.1.1h.1a.4.4 0 00.1 0h.4a.4.4 0 00.1 0h.4c.1.1 0 .1-.1.1h-.2a2.9 2.9 0 00.3 0 .2.2 0 01.1 0 .9.9 0 00.1 0v.2c.2 0 .2 0 0 0zM45.1 46z"></path><path class="cls-2" d="M21.6 49.2a6.3 6.3 0 106.3-6.3 6.3 6.3 0 00-6.3 6.3 4.7 4.7 0 001 3.3"></path><path class="cls-1" d="M22.3 52.4c.1.2 0 .1 0 .1a1.1 1.1 0 01-.2-.2L22 52a1 1 0 010-.2h-.1a.5.5 0 000 .1l.1.2a1.8 1.8 0 01-.1-.2s0-.1 0 0v-.1 0c-.2-.4-.1 0 0 .1l.2.4-.1-.2h-.1c-.1-.3 0-.2 0 0l-.1-.2-.1-.2c-.1-.3-.1-.3 0-.1 0 .3-.4-.6-.5-.9a.6.6 0 000-.1V50.4a.8.8 0 000-.2c-.1-.2-.1-.1-.1 0V49.7v-.5c0-.2 0-.3 0 0V49v-.7c0 .2 0 0 0 0v-.7l.2-.3v-.1a.2.2 0 010-.1V47l.1-.2v-.1a1 1 0 01.2-.3v-.2a1 1 0 01.2-.2v-.2l.2-.2.1-.2c0-.1 0 0 0 0l.1-.1.1-.1.3-.5.4-.4a1.2 1.2 0 01.3-.2 1 1 0 00.1-.2 3.5 3.5 0 01.6-.5l.5-.2a3.1 3.1 0 01.4-.3 2.5 2.5 0 01.6-.2l.2-.1.5-.1h.2l.1-.1H26.7a.8.8 0 01.3-.1h.7a2 2 0 01.4 0 3.8 3.8 0 00.5 0h.2l.7.1.2.1a5 5 0 01.7.3 3.1 3.1 0 01.3.1h.2a4 4 0 01.5.4 6.3 6.3 0 01.7.4 5.7 5.7 0 01.7.6 4 4 0 01.7.8v.1a1.4 1.4 0 01.3.4v.2a2.6 2.6 0 01.5.7l.1.5.2.4a3.7 3.7 0 01.2 1v1.3a3 3 0 01-.2 1v.4h-.1v.4l-.1.2-.1.2a1.7 1.7 0 01-.2.4c0-.2 0 0-.2.2a.7.7 0 01-.1.2l-.2.3c.2-.1 0 .3-.2.4a9 9 0 00-.5.6 3 3 0 01-.3.3l-.2.2-.2.2-.3.2-.6.3c-.2.1-.3.2 0 0 .4-.2.4-.1 0 0l-.2.1c.4-.2.4-.2 0 0a7.1 7.1 0 00-.9.4H30c-.2.1-.2 0 0 0h-.2l-.4.1H29.3l-.4.1h-.2a3.4 3.4 0 00-.7.1h-1.3a2 2 0 01-.6-.1 3 3 0 01-.5-.2 2.8 2.8 0 01-.4-.1 1.2 1.2 0 01-.2-.1.4.4 0 00-.1 0 .9.9 0 01-.2-.1.8.8 0 00-.1 0l-.2-.2a1 1 0 00-.2-.1l-.3-.2h-.1v-.1a1.2 1.2 0 00-.2-.2c-.2 0-.4-.3-.4-.3l-.1-.1a.8.8 0 01-.2-.2.7.7 0 00-.2-.2 2.5 2.5 0 01-.4-.5 3 3 0 00-.2-.4l-.3-.6-.1-.2V52c-.1-.1-.1-.3 0-.2v.2a2.3 2.3 0 00.2.2 1.8 1.8 0 00-.2-.3l-.2-.4a.2.2 0 010-.1v-.1c0-.1 0-.1 0 0V51l-.1-.1v-.2a.3.3 0 000-.1c0-.2 0 0 0 0v.2l.2.3v.2a.8.8 0 00.1.2v.1a.3.3 0 000-.1v-.1a.5.5 0 000-.2 1.4 1.4 0 01-.1-.2l-.1-.3V50.4l-.1-.2V50a.3.3 0 010-.2v-.1s0 .1 0 0v.2l.2.4-.1-.5a.5.5 0 010-.2 1.1 1.1 0 000-.2h.1c0-.3 0-.3 0 0 0 .1 0 .1 0 0l.1.1V49.8v-.3.5l.1.2v-.6V49.9a.8.8 0 01.1.2v.1a1 1 0 000 .3.5.5 0 010-.1v-.1l.1-.1a1.4 1.4 0 010 .2l.1.3v-.2.2a.3.3 0 00.1 0l.1.3.1.2.1.2.1.2c.1.1.1.2.1 0v.1a.9.9 0 00.2.3l.1.1v.2a1 1 0 00.3.2 3.1 3.1 0 01.3.4l.1.1.1.1v.1a1 1 0 01.2.1.5.5 0 00.2.2 1.7 1.7 0 00.1 0l.3.3.4.3a1.6 1.6 0 00.4.2c.2 0-.1 0 0 0a1.6 1.6 0 00.1 0 1.5 1.5 0 00.2.2l.5.2h.2a1 1 0 00.3.1h.2a1.6 1.6 0 00.4.1 2.8 2.8 0 01.4 0h.2a2 2 0 01.4 0h0a3.6 3.6 0 01-.7 0h-.2a1.8 1.8 0 01-.3 0h1.2a3.6 3.6 0 01.4 0 .8.8 0 00.2 0h-.4a4.4 4.4 0 00.5 0 2.4 2.4 0 00.4-.2 5.7 5.7 0 001-.3 5.3 5.3 0 00.9-.6l-.1.1c-.2.1-.2.1 0 0l.3-.2c.1-.1 0 0 0 0a3.7 3.7 0 01-.5.4c-.2.1-.3.2 0 0a3.2 3.2 0 00.8-.6 2.1 2.1 0 00.3-.3c.2-.3.2-.3 0-.2-.2.3-.2.3 0 0l.2-.2c-.1.1 0 0 0 0v-.1a4.6 4.6 0 00.4-.5l.2-.3.1-.2.1-.3a4.8 4.8 0 01.2-.5l.2-.6v-.2c0 .2 0 .2 0 0a3.3 3.3 0 000-1V49a2.4 2.4 0 000-.4 1.8 1.8 0 010-.4v-.1l-.1-.3v-.2a.7.7 0 00-.1-.2v-.2l-.1-.2-.2-.2a2.3 2.3 0 00-.2-.5l-.1-.1a5.3 5.3 0 00-.5-.6l-.5-.6-.6-.5H31l-.9-.6c-.5-.2-.7-.2-.4-.2h-.2v-.1a2.7 2.7 0 00-.7-.1 1.2 1.2 0 00-.2 0h-1.2a1.8 1.8 0 01-.4 0 3.8 3.8 0 00-.6.1 1.5 1.5 0 00-.4.2.5.5 0 01.2 0 1.3 1.3 0 01-.3 0 1.5 1.5 0 00.2 0h.2a3.5 3.5 0 01-.6.2l-.3.1-.2.1a1.2 1.2 0 01-.4.2l-.2.1a.5.5 0 000 .1 1.7 1.7 0 00-.3.2l-.4.3-.1.2a2.4 2.4 0 01.3-.3 1 1 0 00-.2.1 1.8 1.8 0 01-.3.3.7.7 0 000 .2l-.3.2a1.5 1.5 0 01-.1.2 3.7 3.7 0 00-.3.4l-.2.5v.2a.8.8 0 00-.1.1v.1-.2a.7.7 0 010 .2 4.8 4.8 0 00-.2.7l-.1.3a.3.3 0 000 .1v.5l-.1.2v.4a1.2 1.2 0 000 .2c0 .2 0 .2-.1.1v.5a.3.3 0 000 .1.2.2 0 010 .1v.1a.8.8 0 000 .2c0-.2 0-.2 0 0a.8.8 0 010 .2v-.1l.1.2a.5.5 0 010 .2V51v.1a1.1 1.1 0 01.1.2v-.1c-.1 0-.1 0 0 0v.1a.5.5 0 000 .2v-.2c0 .2.2.4 0 .2l.2.2v.2l.1.1h.1l-.2-.2a1.7 1.7 0 000 .2h.1l-.1-.1v.1l.2.1a.4.4 0 01-.1-.1s-.1 0 0 0v.1l-.1-.1a1.4 1.4 0 000 .1v-.1h-.1c-.1-.2-.1-.2 0 0l-.1-.1.1.1v.1l-.1-.2a2.4 2.4 0 00.2.3 2 2 0 01-.1-.1l-.1-.2.1.3c0-.2 0 0 0 0l-.2-.3a1.4 1.4 0 010-.2v.3a2.3 2.3 0 00.2.2c.3.3.2.3 0 0-.2-.2 0 0 0 0 0 .2 0 .2-.1 0a4 4 0 01-.3-.4c0 .1 0 .1 0 0a1.2 1.2 0 000 .2h.1l.2.3z"></path></svg>