<svg version="1.0" xmlns="http://www.w3.org/2000/svg" viewBox="0 0 256 256"><path fill="#2e3338" d="M193 25l-10 4c-6 3-14 10-15 12l-1 3H93l-73 1-5 2C8 50 2 59 1 67c-2 9 4 19 13 23 4 2 7 2 79 3h74l5 5 6 5 1 1 6 4c24 11 54 1 61-22l3-7 1-12c0-8 0-11-3-16-2-7-8-15-14-20-10-8-24-10-40-6zm28 10a38 38 0 0122 33c0 9 0 10-3 16s-12 15-18 18-15 4-20 4c-6-1-15-5-17-7l-3-2-2-2-4-5-5-8c-2-5-2-6-2-15 1-8 1-10 3-14 5-10 14-18 24-21 6-2 18-1 25 3zm-60 18v7 15l1 9c-1 1-142 0-144-1-3-1-7-5-9-9-4-7 2-19 11-21h141zM32 147c-7 2-13 6-19 12-5 6-8 10-11 18-4 13 2 36 13 45 9 8 16 11 28 11 16 0 26-4 35-13l6-6h70c68-1 70-1 75-3 6-2 10-7 13-13 2-3 2-5 1-10l-1-8c-3-6-8-10-13-13l-5-2H84l-4-4c-5-6-12-11-20-14-6-2-21-3-28 0zm25 7c8 3 16 10 22 19 2 4 2 6 3 14 0 11-1 15-7 25-4 6-9 9-18 13-5 2-6 2-14 1-11-1-16-3-24-11-7-7-11-14-11-20s3-20 5-23c3-7 15-17 20-17l1-1c0-2 17-3 23 0zm168 20l7 5c3 3 3 4 4 8 0 7-2 11-7 15l-4 3H88v-2l2-12-1-13-2-5 138 1z"/></svg>