<svg id="Layer_1" data-name="Layer 1" xmlns="http://www.w3.org/2000/svg" viewBox="0 0 48 48"><defs/><path class="cls-1" d="M21.6 1.2h-.1v.1c-.1 0 0 0 0 0v.1c-.1 0-.1 0 0 0l-.2.2c-.1 0 0 0 0 0h-.1c0 .1-.1.1-.2 0v.1h-.1-.1-.1v.1h-.2-.1-.1-.1-.2V2h-.1V2a1.2 1.2 0 000 .2.5.5 0 010 .1.1.1 0 010 .1V3s0 .1 0 0V3.9a.1.1 0 000 .2V4.4c0 .1 0 .2 0 0v.2h-.1V5l.1.1V6.2h-.1v.1h-.1c0 .1 0 .1 0 0v.1h-.1v-.1.2h-.1c0 .1 0 0 0 0v.1h-.1-.1-.1v-.1a.2.2 0 010 .1H19v-.1.1H19v-.1a.1.1 0 000-.1h-.1-.1v-.1V6h-.1V6v-.1-.1-.1a.3.3 0 010-.2V5.1 5 5v-.1-.1a.7.7 0 010 .1V4.8s0 .1 0 0v-.1a.9.9 0 010-.2v-.2c0 .1.1.1.1 0v-.1a.2.2 0 000-.1s-.1 0 0 0a.1.1 0 00-.1 0v-.4a.2.2 0 010-.1 1 1 0 000-.1v-.2a.1.1 0 01-.1 0V3 3v-.1-.1-.1V2.4v-.1a.5.5 0 010-.2.3.3 0 01.1-.2v-.1c0-.1 0-.1 0 0v-.1h.1v-.2-.1-.2A.6.6 0 0119 1h.1a1.2 1.2 0 01.2-.2 1 1 0 00.1 0V.7h-.1.2l.1-.1h.2a.1.1 0 00.1-.1h.2a.2.2 0 01.1 0h.2a.5.5 0 01.1 0h.1V.3h.4v.1h.1v.1h.2c.1 0 .1 0 0 0v.1h.2V1c.1 0 .1 0 0 0 .1 0 .1.1 0 .1zM31 47v.1h-.1-.1v.1c-.2 0 0 0 0 0v.1h-.1l-.2.2c-.1 0-.1 0 0 0h-.2-.1c-.1 0 0 0 0 0H30v.1h-.1-.1-.1-.1-.4-.1-.1-.2a.7.7 0 01-.2 0h-.1a.2.2 0 00-.1 0h-.1-.1a.3.3 0 00-.1 0H28a.2.2 0 00-.1 0 .1.1 0 00-.2 0H27.4h-.1-.2a.8.8 0 01-.2 0 .3.3 0 01-.2 0H26.4h-.1a.2.2 0 00-.1 0H26h-.1a.4.4 0 00-.2 0h-.2-.1-.1H25a.1.1 0 00-.2 0H24.4h-.1c-.2 0-.2 0 0 0v-.1a.1.1 0 00-.2 0c-.1 0-.1 0 0 0H23v.1H23h-.1c-.1 0 0 0 0 0h-.1-.4v-.1H22v-.1a.3.3 0 00-.1 0h-.1v-.1h-.1.2v-.1c-.1 0-.1 0 0 0h-.2-.1V47s-.1 0 0 0h-.1v-.2h.1v-.1a.3.3 0 01-.1 0h.1v-.1h.1v-.1-.1h.1a.1.1 0 00.1 0v-.1H22.4v-.1a.1.1 0 01.2 0h.2a.4.4 0 01.1 0h.2c.1 0 0 0 0 0h.5a.2.2 0 01.1 0c0 .1 0 .1 0 0h.2a1.1 1.1 0 01-.2 0 .6.6 0 00-.1 0h.4s-.1 0 0 .1h.2a1.4 1.4 0 01.2 0h.3c-.1 0-.1 0 0 0a.7.7 0 01-.1 0c-.1 0-.1 0 0 0a.4.4 0 00.2 0h.1a.2.2 0 00.1 0v-.1h.2a.2.2 0 00.1 0h.1a.3.3 0 01.1 0h1.2a6.3 6.3 0 00.4 0 .9.9 0 01.2 0 .5.5 0 01.3 0s.1 0 0 0l.1.1a.5.5 0 00.2 0h.2a.7.7 0 01.1 0h.4v-.1h-.1.2a.1.1 0 01.1 0h.1a.1.1 0 00.1 0H29.2a.2.2 0 01.1 0h.2a.6.6 0 01.1 0h.6a.1.1 0 00.1 0v.1h.1v.1H30.8v.1s.1 0 0 0a.1.1 0 01.1 0h.1V47a.4.4 0 01-.1 0 .2.2 0 00.1 0v.1a1 1 0 01-.1 0 .3.3 0 01.1 0zM17.3 47v.1h-.1c0 .1.1.1 0 .1 0 0 .1 0 0 .1 0 0-.1 0 0 0l-.2.2h-.1a.1.1 0 00-.1 0h-.1-.1v.1h-.1-.1-.1-.1-.1c-.1 0 0 0 0 0H16h-.1-.1-.1-.1-.1a.5.5 0 01-.1 0 .2.2 0 01-.1 0 .1.1 0 00-.1 0H15 15h-.1a.1.1 0 00-.2 0 .1.1 0 00-.1 0h-.4a1.4 1.4 0 00-.1 0 .6.6 0 01-.2 0 .2.2 0 01-.2 0h-.1-.1-.1a.2.2 0 00-.1 0h-.4-.2-.4a.1.1 0 00-.2 0H11.7c-.1 0-.1 0 0 0h-.1v-.1H11.1h-.4a.1.1 0 00-.1.1h-.1-.5v-.1h-.2v-.1a.2.2 0 00-.1 0h-.1v-.1h-.1.1l.1-.1h-.1-.1-.1V47h-.1v-.2h.1v-.1-.1h.1v-.1-.1h.1l.1-.1h.2l.1-.1H10.3a.3.3 0 01.1 0h.6c0 .1 0 .1.1 0h.1a.8.8 0 01-.1 0 .5.5 0 00-.1 0h.3s-.1 0 0 .1h.1a1 1 0 01.2 0h.3a.5.5 0 01-.1 0c0 .1.2 0 .2 0h.1l.1-.1h.1a.4.4 0 00.1 0h.1a.2.2 0 01.1 0 1.1 1.1 0 00.2 0H13.6a4.6 4.6 0 00.4 0 .6.6 0 01.1 0 .4.4 0 01.3 0s.1 0 0 0l.1.1a.4.4 0 00.1 0h.2a.5.5 0 01.1 0H15.2v-.1h.1s.1 0 0 0h.5a.2.2 0 01.2 0h.1a.4.4 0 01.1 0h.5a.1.1 0 00.1 0v.1h.1v.1h.2v.1h.2V47c.1 0 0 0 0 0v.1zM19.4 28.8a.5.5 0 000 .1h.1v.1h.2v.1h.1v.2h.1a.1.1 0 000 .1v.5a.3.3 0 010 .3v.2a.9.9 0 000 .1v.4-.1.3s0-.1 0 0v.1a.7.7 0 010 .2v.3c0-.1 0-.1 0 0h-.1a.6.6 0 010-.1s0-.1 0 0V31.9h.1a.3.3 0 01.1 0v.1a.2.2 0 000 .1v.1a.2.2 0 010 .2v.1a1 1 0 000 .3V33.9a.7.7 0 010 .2.4.4 0 010 .2c0 .1 0 .2-.1.1a.7.7 0 000 .2v.2a.5.5 0 010 .1v.2a.2.2 0 000 .1l.1.1s0 .1 0 0V35.6a.2.2 0 010 .2v.1a.1.1 0 010 .1.2.2 0 010 .1V37c0 .2 0 .2 0 0h-.1v.2c0 .2 0 .2.1.1v.1a.1.1 0 000 .1v.1c-.1 0-.2.1-.1.2v1.7a.5.5 0 010 .1v.1h-.1v-.2.2a1.4 1.4 0 000 .2.2.2 0 010 .1.7.7 0 00.1-.1v-.1.2c.1 0 .1.1 0 .1v.2a1 1 0 01.1.4v.5l-.1.1v.1l.1.1v.1h-.1c0-.1 0-.1 0 0-.1 0-.1 0 0 .1v.1s0-.1 0 0V42.6l.1-.1v.1l-.1.3v.1a.4.4 0 010 .2l.1-.1a.5.5 0 000 .2v.1c-.1 0 0 0 0 0v.2l-.1.1V43.9c.1 0 .1 0 0 0 0 0 0 .1 0 0v.2a.1.1 0 010 .1v.6a.1.1 0 000 .1h-.1V45.3h-.1v.1h-.1-.1-.1c0 .1 0 .1 0 0h-.1-.1-.1c0-.1 0 0 0 0H19s0-.1 0 0v-.1l-.2-.1V45v-.1a.5.5 0 010-.2v-.1h-.1v-.1-.2-.1-.1-.2a.3.3 0 010-.1v-.2-.2-.2-.2-.2-.2a.1.1 0 010-.1V42.2a1.2 1.2 0 000-.2v-.1a.2.2 0 010-.3v-.2-.4a.8.8 0 000-.2v-.1a.5.5 0 000-.3.1.1 0 010-.1c-.1 0-.1-.1 0-.1V40c-.1 0-.1 0 0 0V40s-.1 0 0 0l-.1-.2a.5.5 0 000-.3v-.2-.2a.3.3 0 000-.2v-.1-.1a.4.4 0 010-.1v-.2-.5c.1 0 .1 0 0 0v-.2a.7.7 0 000-.2v-.2-.3-.2-.2a2.2 2.2 0 010-.2v-.1-.2a.2.2 0 010-.1.2.2 0 010-.1.1.1 0 010-.1v-.1-.2a.4.4 0 000-.1v-.1-.1-.2a.1.1 0 010-.1v-.1-.2a.1.1 0 000-.1.1.1 0 000-.2v-.1a.4.4 0 000-.1v-.2a1.4 1.4 0 000-.1.6.6 0 010-.2.3.3 0 010-.1v-.2-.1-.1a.2.2 0 000-.1v-.2-.2-.2-.1-.1-.2-.1a.1.1 0 000-.1.4.4 0 010-.1s0-.1 0 0v-.1-.2c0-.1 0-.2 0 0a.1.1 0 000-.2h.1V31c0 .1 0 0 0 0v-.2l-.1-.2v-.2-.1-.1-.1-.1-.1-.1-.2-.2h.1v-.1s0-.1.1 0v-.1c0-.1 0-.1 0 0V29h.1V29v.1h.1V29v-.1h.1c.1 0 0 0 0 0h.2c0-.1 0-.1 0 0zM19.4 43.3z"/><path class="cls-1" d="M23.7 46.7a.5.5 0 000-.1h-.1-.1v-.1h-.1v-.1h-.1v-.1l-.1-.1V46v-.2-.1-.1-.1-.1a.3.3 0 010-.2v-.1-.1a1 1 0 000-.2v-.1-.2-.2.2H23v-.3s.1.1.1 0V44a.8.8 0 010-.2v-.2c0 .1.1.1.1 0v-.1a.6.6 0 010-.1c0-.1 0-.1-.1 0v-.1a.3.3 0 01-.1 0v-.1a.2.2 0 000-.1V43a.2.2 0 010-.2v-.1a1 1 0 000-.3v-.1-.2-.1-.1-.1V41.6v-.2a.8.8 0 010-.2.4.4 0 010-.2v-.2h.1a.7.7 0 000-.1v-.1-.1a.6.6 0 010-.2V40L23 40v-.2-.1-.1a.2.2 0 010-.2v-.1a.2.2 0 010-.1.2.2 0 010-.1V39v-.1a.8.8 0 010-.1v-.2-.1-.1a.3.3 0 010-.1v-.1-.1-.1c0-.2 0-.2 0 0 .1-.1.1-.1 0-.2v-.1-.1a.1.1 0 000-.1c0-.1 0-.1 0 0v-.1l.1-.2V37v-.2a.1.1 0 000-.1v-.6c0-.2-.1 0-.1-.1v-.7-.1-.1h.1V35a1.6 1.6 0 00.1-.2v-.1h-.1a.8.8 0 000 .2s-.1 0 0 0V35H23v-.2-.2a1.2 1.2 0 010-.4V34v-.2a.1.1 0 000-.1v-.1s0-.1 0 0v-.1a.2.2 0 00.1-.1H23V33a.1.1 0 000 .1h.1V33c0-.2 0-.2 0 0-.1-.1-.1-.2 0-.2v-.3l-.1-.2v-.1-.1-.2h.1v-.2a.5.5 0 010-.1c0-.1-.1 0-.1 0a.5.5 0 000-.2c0 .1 0 .1 0 0v-.1-.2c0-.1 0-.1.1 0v-.3-.1H23s0-.1 0 0v-.1-.1-.1-.1-.1-.1-.2-.1-.1a.1.1 0 000-.1h.1v-.1s.1 0 0 0v-.1h.1v-.1h.1v-.1h.1c.1 0 .1 0 0 0h.2c0-.1 0-.1 0 0h.2s0 .1 0 0h.1c0 .1 0 0 0 0s.1 0 0 0v.1h.1l.1.2c.1 0 0 0 0 0a.2.2 0 010 .1s.1 0 0 0l.1.1a.5.5 0 010 .2s0 .1 0 0v.2a.1.1 0 010 .1v.5a.3.3 0 010 .1v1.3a.2.2 0 010 .1v.3a1.3 1.3 0 00.1.2v.2a.3.3 0 010 .2v.2a.2.2 0 010 .1v.4a.8.8 0 000 .2v.2a.5.5 0 000 .2.1.1 0 010 .1V35.1a.5.5 0 000 .3v.4a.4.4 0 000 .2v.2a.5.5 0 010 .2V37.3a.8.8 0 000 .2v.1c0 .1 0 .1 0 0V38.5a2.4 2.4 0 010 .3v.2a.8.8 0 010 .1.2.2 0 010 .1.2.2 0 010 .1v.1a.2.2 0 010 .1v.2a.5.5 0 000 .1v.6a.3.3 0 000 .2v.2a.1.1 0 000 .2v.1a.4.4 0 000 .1V41.4a.7.7 0 010 .2.3.3 0 010 .2V42.2a.2.2 0 000 .2v.1s0 .1 0 0v.6s.1 0 0 .1V43.5a.1.1 0 000 .2v.1h.1V44c0-.1 0-.1 0 0s0 .1 0 0h-.1a.1.1 0 000 .2V46.2h-.1s0 .1 0 0v.1l-.1.1v.1s-.1 0 0 0H24v-.1.2H24h-.1v.1h-.1zM23.6 31.3zM23.6 7.8v-.2c0 .1-.1.1-.1 0l-.1.1c0-.1 0-.1 0 0v-.1s0-.1 0 0v-.1l-.2-.2v-.1V7v-.2-.2H23v-.2-.1s0-.1 0 0v-.1-.1a.1.1 0 000-.1V6a.2.2 0 000-.1v-.1a.3.3 0 000-.2v-.1-.2a1 1 0 010-.2.3.3 0 010-.2.2.2 0 000-.1v-.1-.1a.5.5 0 000-.2v-.1a.2.2 0 000-.1.2.2 0 000-.2v-.7a1.2 1.2 0 010-.2.2.2 0 010-.2v-.1-.1-.3a.3.3 0 000-.2V2s0-.1 0 0v-.2-.1a1.4 1.4 0 00.1-.2.6.6 0 110-.1v-.1l.1.3c0 .1 0 .2-.1.1a.2.2 0 00-.2 0 .8.8 0 01-.1 0c-.1 0-.2 0 0 0h-.2-.2c.1 0 0 0 0 0-.2 0-.2 0 0 0a.2.2 0 00-.3 0c-.1 0 0 0 0 0H22c.1 0 0 0 0 0H21.7h-.1-.5-.1v.1h-.1-.2-.4-.2v-.1H19.7s-.1 0 0-.1a.4.4 0 00-.2 0h-.1v-.1h-.1a.1.1 0 00.1 0h.1v-.1h-.2-.2v-.1h.1-.1v-.1H19V1h.2a.3.3 0 01-.1 0h.1l-.1-.1h.1a.1.1 0 00.1 0V.7c.1 0 .1 0 0 0l.1-.1h.1l.1-.1h.1a.2.2 0 00.1 0h.1l.1-.1a.1.1 0 01.1 0H20.6a.6.6 0 01.1 0 .2.2 0 01.2 0c.1 0 0 0 0 0a.1.1 0 00.1 0h.8a1.5 1.5 0 01-.2 0h-.1.5-.1a.3.3 0 00.1 0h.8-.1.1c.1 0 0 0 0 0a1 1 0 01-.2 0v.1a.6.6 0 00.3 0 .5.5 0 00.1 0c.1 0 .1 0 0 0V.4a.2.2 0 00.1 0h.3a.8.8 0 01.3 0l.2.1a1.6 1.6 0 01.2.1.6.6 0 01.1.3 2.7 2.7 0 01.2.2v.1l.2.5V2h-.1V3.2a1.2 1.2 0 010 .3.7.7 0 010 .3v.1h-.1V4a.7.7 0 000 .2v.2a1 1 0 010 .2V5h.1v.2a.1.1 0 010 .2.2.2 0 000 .1.3.3 0 010 .2v.1a.3.3 0 010 .2v.2a.8.8 0 010 .1V7a.2.2 0 000 .1s0 .1 0 0c-.1 0-.2 0-.1.1v.2h-.1v.2H24c0 .1 0 .2 0 0v.2a.1.1 0 000 .1H24v-.1c-.1 0-.1 0 0 0h-.1a.5.5 0 01-.1 0c0 .2 0 .2 0 0 0 .1-.1.1-.1 0zM34.6 10v.1h.1l.1.2.2.3v-.2c-.2-.1-.2-.1-.2 0v-.1-.2l.1.2.1.2a1.2 1.2 0 00.1 0l-.3-.3h.1l.1.1a.5.5 0 01.2.1v.1a1 1 0 00.2.2v-.1h-.1v-.1a.4.4 0 01.1.1 1.6 1.6 0 00.2.2v-.1c0 .1.1.1 0 0a1.1 1.1 0 00.3.3.4.4 0 000-.1v.2h.2l.1.1.1.1.1.1h.1a1.6 1.6 0 00.2.3l.2.2a1.5 1.5 0 00.2.2 1.6 1.6 0 01.3.3.2.2 0 00.1.1l.1.1a1.3 1.3 0 01.2.2.3.3 0 00.1.2 1.2 1.2 0 01.2.2.5.5 0 00.1 0 3.3 3.3 0 01.4.5 2.3 2.3 0 00.2.2l.2.2a6 6 0 01.6.7l.1.1.1.2.3.3.2.3.5.5.1.1.3.3.1.2a1.6 1.6 0 00.2.3 2.4 2.4 0 01.3.3l.2.2a1.4 1.4 0 01.3.5 1.4 1.4 0 010 .3v-.3l-.2-.4-.1-.2-.3-.4a1.8 1.8 0 01.3.4 2.1 2.1 0 01.5 1v.3l-.1.2-.1-.6a1.8 1.8 0 010 .3 1.7 1.7 0 010 .5c0 .4-.2.6-.2.6a4 4 0 01-.7 1c-1 1-1 .9-1 .8l.2-.1c.2-.2.2-.2 0 0l-.3.2c-.2.2 0 0 0 0l.5-.5c.2-.2.2-.3 0 0a8.4 8.4 0 00-.8.7l-.2.4-.2.2c.3-.3.3-.2 0 0l-.1.2s.2-.1.2 0l-.4.4-.3.2v.1l-.2.2-.2.2a4.8 4.8 0 01-.5.5l-.4.4-.2.1c.2-.1.2-.1 0 0l-1 1.1-.1.2a2 2 0 00-.3.2 2.2 2.2 0 01-.3.3l-.1.1a1.6 1.6 0 01-.3.3l-.2.2-.3.1a1.4 1.4 0 01-.2.1 2.5 2.5 0 01-.2.1h-.2l-.3.1H33.2h-.8a4 4 0 01-.9 0h-.9a10 10 0 01-1.1 0h-.6-.1a.2.2 0 01-.1 0H28a1.1 1.1 0 00-.3 0 2.8 2.8 0 01-.7 0h-.6a1.1 1.1 0 01-.4 0h-.7a4 4 0 00-.5 0 .8.8 0 01.2 0 1.8 1.8 0 01-.3 0 1.6 1.6 0 00.2 0h.2a2.4 2.4 0 01-.6.1H24 23.8a1.4 1.4 0 01-.4 0 2 2 0 00-.6 0 5 5 0 01-.6 0H22h.2-.6-.1-.1a3.3 3.3 0 01-.5 0h-.4a.8.8 0 01-.2 0 1 1 0 01-.2 0 3.8 3.8 0 01-.6 0h-.7a.5.5 0 00-.1 0 3.1 3.1 0 01-.4 0h-.1a.8.8 0 01-.2 0H18c-.1 0 0 0 0 0h-.2a.8.8 0 01-.2 0 3.7 3.7 0 00-.4 0h-.4a1.5 1.5 0 01.3 0 .6.6 0 00-.2 0H15v-.1a1.2 1.2 0 00-.4 0 2.5 2.5 0 01-.4 0c-.7 0-.9 0-.5.1a2 2 0 01-.4 0 2.8 2.8 0 00-.4 0h-.2-.4a2.5 2.5 0 00-1-.1H10.7a2.3 2.3 0 01-.6 0 2 2 0 00-.7 0H7.1a2.3 2.3 0 01-.2 0 1.5 1.5 0 01-.3 0 1.6 1.6 0 01-.6-.4l-.3-.3a1.6 1.6 0 01-.2-.8v-.5-2.2V22.5v.1l.1-.2v-.3c.1 0 .1 0 0 .2a6.4 6.4 0 000 1 1 1 0 00.1-.3v-.9-1-.2-.3-.2.2l-.1.2v.7-.6a1 1 0 010-.2 1.1 1.1 0 01-.1-.7.7.7 0 000-.3 1.9 1.9 0 010-.5V19a1 1 0 010-.2v-.5V17v-.4-.4-.4a2 2 0 000-.6V15a3.1 3.1 0 000-.4v-.2.3a1.1 1.1 0 000-.4l.1-.4v-.2V13.6l-.1-.4V12.3v.7-.4.2c0 .2 0 .3 0 0s.1-.3.1 0v-.1-.6a3 3 0 010-.5c0-.4 0-.4 0 0v.2-.7-.1a1.4 1.4 0 010-.6 1.5 1.5 0 01.8-.8c.3-.2.6-.2.5-.3h.3a5.7 5.7 0 01.6 0 2.8 2.8 0 00.4 0h.1a1.3 1.3 0 01-.4 0 1.1 1.1 0 01.2-.1h.2a1.3 1.3 0 00.4 0 2.9 2.9 0 011.1.1h.2a6.3 6.3 0 01.7 0H11.3c.4 0 .3 0 0 0a3.6 3.6 0 01-.3 0 4 4 0 01.4 0 11.5 11.5 0 00.8 0 .8.8 0 01-.2 0c-.4 0-.4 0 0 0h1a3.1 3.1 0 00.4 0 1.3 1.3 0 01.2 0h.4c.2 0 .2 0 0 0h1.2a.5.5 0 00.1 0h.1a.8.8 0 01.1 0h0 .4a1.3 1.3 0 01.2 0H16.5a.2.2 0 00.1 0 1.2 1.2 0 01.3 0 .6.6 0 00.2 0 2.1 2.1 0 01.3 0 .9.9 0 01.2 0 2.5 2.5 0 00.4 0h.4a.5.5 0 00.1 0 .2.2 0 00.1 0 .5.5 0 01.1 0h.7a2.7 2.7 0 01.2 0 .3.3 0 00.2 0s.1 0 0 0H20.5a1 1 0 01.2 0 1.5 1.5 0 00.2 0s.1 0 0 0v.1a.3.3 0 00.2 0h.4a1.1 1.1 0 00.3 0c-.2.1-.2.1 0 0v.1h.4-.2.1a.6.6 0 01.2 0h-.1H22.4v.1a1 1 0 01.2 0h.1a1.2 1.2 0 01.1 0h.1-.3.2-.1.2c-.1 0-.2 0 0 0h.1l-.2.1h-.1.2a.7.7 0 00-.1 0 .5.5 0 01-.1 0c-.1 0-.1 0 0 0h-.1.2c.1 0 .1 0 0 0l-.2.1h.3H22.6h.2-.2a1.3 1.3 0 01-.1 0h.4c.3 0 .2.1-.1.1-.2 0 0 0 0 0 .2 0 .2 0 0 0h-.4c.1 0 .1 0 0 .1a.5.5 0 00.2 0h.3c.1 0 0 0 0 0h-.4a1.2 1.2 0 01-.2 0 .5.5 0 00.1.1h.1a.9.9 0 01-.2 0s-.1 0 0 0a1.6 1.6 0 01.2 0h-.2c-.3 0 0 .1.1.1h.3a.4.4 0 01-.2 0c-.2 0-.1 0 0 0h-.2-.2c-.1 0-.1 0 0 0 .2.1-.5.2-.7.2a1.3 1.3 0 01.1 0h-.1a.2.2 0 01-.1 0H21a5 5 0 01-.6 0H20.1l-.6.1a.8.8 0 00-.3 0h-.5-.2a.6.6 0 01-.3 0 .6.6 0 01-.2 0h-.3q-.1 0 0 0H17.4a2 2 0 01-.3 0 .9.9 0 01-.2 0h-.3a.5.5 0 01-.2 0 1 1 0 01-.1 0h-.2a2.6 2.6 0 01-.5 0 3.2 3.2 0 00-.4 0H12.9a2.1 2.1 0 01-.6 0c-.2 0-.2 0 0 0h-.4a4.5 4.5 0 00-.9 0h-1a3.3 3.3 0 01-.4 0 2.3 2.3 0 00-.7 0 3.4 3.4 0 01-.6 0 1.7 1.7 0 00-.4 0h-.8c-.3 0-.3.2-.3.3a1.2 1.2 0 010 .1v.2a1.2 1.2 0 000 .4 5.8 5.8 0 010 .9 5 5 0 000 .6 3.7 3.7 0 010 .4v.2a3.4 3.4 0 010 .4v2.5a2 2 0 010 .4v.2a2.2 2.2 0 010 .5v1a3 3 0 010 .6 2.3 2.3 0 010 .7V21.7a2.7 2.7 0 010 .5 11.5 11.5 0 000 1.2 6.2 6.2 0 010 1V26.3a.2.2 0 00.1 0v.1s.1 0 0 0h.6a6.7 6.7 0 00.8 0 18.8 18.8 0 012.5 0 .3.3 0 00.2 0 4.3 4.3 0 01.8 0h1.3a1.2 1.2 0 01.2 0H13.9a2.7 2.7 0 01.4 0 5.6 5.6 0 001 0h1.3a4 4 0 01.8 0h1.3c-.2 0 0 0 0 0h1.6a5.5 5.5 0 01.5 0h3.5a3 3 0 00.4 0 4.2 4.2 0 01.6 0h.2.7a.5.5 0 01.2 0h.2a.6.6 0 01.2 0h.6a1.9 1.9 0 01.4 0 2.6 2.6 0 00.4 0h.2a2.4 2.4 0 00.7 0h3.3a3 3 0 01.5 0h.5a.7.7 0 00.1 0 1.4 1.4 0 01.4 0c.3 0 .5-.2.5-.2l.2-.2c.2 0 .3-.3.3-.3a6.5 6.5 0 01.6-.6l.1-.1.3-.3.5-.4a3.8 3.8 0 01.5-.6l.3-.3.1-.1.1-.2.2-.2c-.2.1-.2.1.1-.2a1.4 1.4 0 01.3-.2c-.1.2 0 0 .2-.1a.4.4 0 01.1-.2l.2-.2.3-.4a2.2 2.2 0 00.4-.4l.3-.3.2-.2c-.3.3-.3.3.1-.2l.3-.2.4-.4c.2-.2.2-.2 0 0s-.2.2 0 0l.2-.2c-.3.3-.3.3 0 .1a1 1 0 00.4-.5V19c0-.2.1-.2 0 0l.1-.1a.6.6 0 000-.3v.1c0 .2 0 0 0 0v-.3c0 .1 0 .2 0 0a1.1 1.1 0 00-.4-.5l-.2-.2-.5-.4-.2-.2-.3-.5-.3-.3a2.3 2.3 0 01-.3-.3 4 4 0 01-.3-.3v-.1l-.2-.1v-.1h-.1v-.2h-.2v-.1s-.1 0 0 0L38 15 38 15s-.1-.1-.1 0l-.1-.2-.1-.1-.1-.2a.8.8 0 00-.2-.1v-.2.1l-.1-.1c0-.1 0 0 0 0L37 14l-.2-.3-.1-.1a1 1 0 01-.2-.2.5.5 0 000-.1l-.4-.4-.1-.2a3.6 3.6 0 01-.4-.5h-.1l-.1-.3v.1h.1l.1.2-.2-.3-.2-.2-.1-.1-.1-.2c-.1-.1-.1-.1 0 0l-.2-.2V11c0-.1 0 0 0 0h.1v.1a.8.8 0 00.2.2l.1.1a.6.6 0 00.1.1h.1c-.1 0-.2-.1 0 0a.8.8 0 00-.2-.1v-.2l-.3-.1V11a.6.6 0 00-.1-.1l-.1-.1-.1-.1v-.1l-.1-.1v-.1l.1.1a8.6 8.6 0 010-.1.3.3 0 01-.1-.1 1.5 1.5 0 00-.1-.2h.1c-.1-.2-.1-.2 0-.1zM12.7 9.8z"/><path class="cls-1" d="M13.8 9.9h.2v-.1a.4.4 0 01-.1 0h.1a1 1 0 00-.1 0v-.1h.2v-.1a.2.2 0 00.2 0h-.1v-.1h.4v-.1a.2.2 0 00.2 0 .2.2 0 00.2 0 .2.2 0 01.1 0h.1c0-.1 0-.1 0 0a.2.2 0 01.1-.1h.2a.4.4 0 01.3 0h.1a.8.8 0 01.4 0c.1 0 .1 0 0 0H17.3c.1 0 0 0 0 0a.2.2 0 00.2 0 .4.4 0 01.2 0c0 .1 0 .1 0 0H18h-.4.5c-.1 0-.2 0-.1.1a.6.6 0 00.2 0h.2a2.3 2.3 0 01.4 0h.4c-.1 0-.1 0 0 0s.1 0 0 0a2 2 0 01-.2 0s-.1 0 0 .1a1.1 1.1 0 00.4 0 1.6 1.6 0 01.2 0c.1-.1.1-.1 0-.1a.4.4 0 00.2 0l-.1-.2h.2a.6.6 0 00.2 0h.2a.7.7 0 01.2 0H20.7a3.1 3.1 0 00.6 0H21.6a.3.3 0 01.2 0h.1a.2.2 0 01.1.1h.2a1 1 0 00.3 0h.6a2.3 2.3 0 01.4 0 1.3 1.3 0 01.4 0h.2v.1a2 2 0 00.3 0H24.7a1.8 1.8 0 01.3 0 .2.2 0 01.1 0h.3a.6.6 0 00.1-.1h-.1.5a.2.2 0 01.2 0 .3.3 0 00.2 0 .7.7 0 01.3 0h-.1a1.5 1.5 0 01.3 0 .4.4 0 01.2 0 .6.6 0 01.2 0h.6a.4.4 0 01.2 0H28.4a.6.6 0 00.1 0 1 1 0 01.2 0h-.1H29.1c.2 0 .2 0 0 0H29.8a.3.3 0 01.1 0 .4.4 0 00.2 0c.1 0 .1 0 0 0h.1s.3.1.4 0h.5a.3.3 0 00.2 0H34l.2.1a.9.9 0 00-.5 0h.9a.3.3 0 00.1 0 1.2 1.2 0 01.2 0l.1.1-.2-.1h-.3-.2l.1-.1h.4c.2 0 .4 0 .5.2l.2.2h.1v.1a3.2 3.2 0 01.6.6c.1 0 .1 0 0 0l.1.2.1.1a.3.3 0 00.2.2h.1v.2c.1 0 .2.1.1 0V11.4a.6.6 0 00.1 0c0-.1 0 0 0 0l.2.1.2.2h-.1a.3.3 0 000-.1v.1c-.1-.1-.1-.1 0 0H37l.2.2a.4.4 0 010 .1c.2.1.2.1.1 0 0-.1-.1-.2 0 0l.2.1v.2l.3.3.3.2v.1c0 .1 0 .1 0 0 .1 0 .1 0 0 0v-.1c.1.1 0 .1 0 .1l.2.1.2.4a.9.9 0 01.1.3h.1a1.5 1.5 0 01.1.1c.1.2.1 0 0 0v-.1a.5.5 0 01.1 0 1.5 1.5 0 00.2.3c-.2-.1-.2-.1-.1 0v.1h.1v.1a.1.1 0 01.1 0l.2.2v.2l.3.4a.1.1 0 01.1 0c0-.1 0-.1.1 0v.1l.1.1.1.2a.3.3 0 01.2 0 .1.1 0 010 .1l.1.1a1 1 0 010 .2h.2l.1.2v.1h.1l.1.2a.1.1 0 010 .1.2.2 0 00.1 0v.2h.1v.2l.1.1c0 .1 0 .1 0 0v.1s0 .1 0 0a.1.1 0 010 .1h.1a.2.2 0 010 .1v.1h-.1s0 .1 0 0a.4.4 0 01-.1 0 .4.4 0 000 .1c.1.1 0 .1 0 0 0 0 0 .1 0 0H41a.4.4 0 010 .1h-.1v-.1c0 .1 0 .1 0 0h-.1v.1c0-.1 0 0 0 0v.1c0-.1 0 0 0 0l-.1-.1-.3-.1h-.1a.7.7 0 01-.1-.2H40a.3.3 0 010-.1 1.6 1.6 0 01-.2-.2h-.1v-.1h-.1v-.1h-.1v-.1l-.1-.1q-.1-.1 0-.1h-.1a.3.3 0 01-.1-.1v-.1a.6.6 0 01-.1 0V16H39a.1.1 0 000-.1l-.2-.2a.9.9 0 01-.1-.2h-.1l-.2-.2-.1-.2V15h-.1l-.2-.2c0-.1 0-.1 0 0v-.2l-.3-.2v-.1a1.3 1.3 0 00-.2-.2l-.1-.1-.2-.2a.5.5 0 01-.1-.2H37l-.2-.3a4 4 0 00-.3-.3.2.2 0 01-.1-.2h-.1a.8.8 0 01-.2-.3l-.2-.2v-.1h-.1a.5.5 0 01-.1-.2 1.2 1.2 0 00-.2-.1l-.2-.3a2.4 2.4 0 00-.2-.3H35v-.1l-.2-.2a1.4 1.4 0 00-.2-.2.4.4 0 01-.2-.2v-.1h-.3a.4.4 0 01-.1 0 1.6 1.6 0 00-.5 0H33a1.1 1.1 0 00-.3 0h-.4a1.5 1.5 0 01-.3 0 1 1 0 00-.3 0 2.6 2.6 0 01-.9 0h-.3a2.3 2.3 0 00-.4 0h-.1H29.5a.4.4 0 01-.2 0h-.3-.8-.5c.1 0 0 0 0 0h-.1a.7.7 0 00-.3 0h-.2a.8.8 0 01-.1 0 .6.6 0 01-.1 0 .5.5 0 01-.2 0c-.1 0-.1 0 0 0a.7.7 0 01-.2 0h-.3a1.5 1.5 0 00-.3 0 1.2 1.2 0 01-.2 0h-.2-.2-.2a.4.4 0 01-.1 0h-.2a.8.8 0 00-.3 0h-.1a.4.4 0 00-.2 0 .3.3 0 00-.3 0H23.1a2.2 2.2 0 01-.3 0 .4.4 0 01-.2 0 .9.9 0 01-.2 0 .2.2 0 01-.2 0h-.3-.1a.7.7 0 00-.2 0 .9.9 0 01-.3 0c-.1 0-.2 0 0 0H21a1 1 0 00-.3 0h-.3-.1-.2-.1a.2.2 0 01-.1 0H19.7h-.2a.3.3 0 00-.2 0 1.4 1.4 0 01-.2 0c-.1 0-.2 0 0 0H18.8h-.2c.2 0 .1 0 0 0-.2 0-.3 0 0 0 .1 0 .1 0 0 0a.4.4 0 00-.3 0h-.1c-.1 0 0 0 0 0v-.1H18c.1 0 0 0 0 0h-.2c.1 0 .1 0 0 0h-.3c-.2 0-.4.1-.3.2h-.5-.1a.5.5 0 01-.2 0v-.1H16 15.7a.1.1 0 00-.1 0h-.1-.1-.1-.1H15h-.1a.5.5 0 01-.2-.1h-.2.1v-.1h-.2-.1-.1v-.1h0-.2v-.1c-.1 0 0 0 0-.1h-.2V10v-.1zM38.8 14.5z"/></svg>