<svg version="1.0" xmlns="http://www.w3.org/2000/svg" viewBox="0 0 500 500"><path fill="#2e3338" d="M214.5 3.5c-.5.2-3.1.6-5.7 1-5.9.8-12.2 6.2-13.3 11.5-.9 4.2-1 14.3-.4 34.6.3 12.3.7 15.3 2.1 16.7 2.3 2.3 5.1 2.1 7.5-.6 2-2.1 2.1-3.4 2.2-23.1 0-11.4.3-21.6.6-22.6.5-1.4 2.3-1.9 10.6-2.5 8.7-.6 10.3-.4 11.9 1 1.3 1.2 3.1 1.6 5.5 1.3 2-.2 3.5 0 3.6.7l.2 23.9c.2 17.3.5 23 1.5 23.4.7.2 1.2 2 1.2 4.1 0 2.8.7 4.5 2.6 6.4 2.3 2.4 5.4 2.7 5.4.6 0-.5.6-.9 1.4-.9.8 0 1.9-1.5 2.5-3.3 1.2-3.8 1.7-20.1.7-23.7-.4-1.4-.2-9.9.3-19 .9-16.3.9-16.6-1.4-21.6-3.1-6.5-4.8-7.2-19.5-7.3-6.3 0-13.1-.3-15-.5-1.9-.3-3.9-.3-4.5-.1z"/><path fill="#2e3338" d="M77.5 97c-6.6.6-12.6 3.4-16.5 7.5-2.4 2.5-2.5 3.4-3.1 17.3-.6 15.8-.4 83.6.4 106.7.2 7.7.1 12.2-.3 10-.4-2.3-.8 4.4-.9 15.7-.1 21 .3 23.5 4.7 28.1 5.3 5.6 6 5.7 33.4 5.6 13.9-.1 28.7.1 32.8.5 4.1.4 12 .3 17.5-.2 6.7-.7 10.4-.7 11.2 0 1.3 1.1 190.2.2 197.7-.8 8.9-1.4 12.3-3.9 35.9-27.5 12.6-12.6 22.6-23.3 22.2-23.9-.3-.5.2-1.8 1.2-2.8 1-1 2.6-3.4 3.6-5.1 1.1-2.1 2.3-3.1 3.1-2.8.9.4 4.2-2.4 8.8-7.1 7.1-7.6 11.8-15 11.8-18.9 0-1 .5-2.4 1.2-3.1 2-2-.9-8.9-6.5-15.2-7.4-8.3-14-16.7-15.1-19-.5-1.1-1.5-2-2.3-2-.7 0-1.3-.4-1.3-1 0-.5-1.3-2.2-3-3.7-1.6-1.4-3-3.2-3-3.9 0-.8-1.1-2.1-2.5-3-1.4-.9-2.5-2.5-2.5-3.5 0-1.2-.7-1.9-1.9-1.9-1.3 0-2.3-1.1-3-3.3-.6-1.8-3.2-5.1-5.6-7.2-2.5-2.1-4.5-4.4-4.5-5.1 0-.8-.6-1.4-1.3-1.4-.7 0-1.8-.9-2.5-2-.9-1.4-.9-2-.1-2s.8-.5-.1-1.5c-.7-.8-1.9-1.5-2.6-1.5-.8 0-1.4-.6-1.4-1.3 0-1.9-7.6-11.5-13-16.5l-4.5-4.2H298c-37.1 0-100.6-.2-141-.3-40.4-.1-76.2 0-79.5.3zm86.5 12.9c19.5.1 70.9 0 114.2-.1 87-.2 79.9-.8 84.6 6.6 3.6 5.7 20.8 27.3 26.1 32.8 5.4 5.6 5.9 6 10.3 10.2 1.8 1.7 5.3 5.6 7.7 8.6 2.4 3 8.5 9.4 13.4 14.1l9 8.5-.8 6c-.6 5.5-1 6.2-5.8 10.4-6.8 5.9-17.9 17.4-22 22.7-1.7 2.3-4 4.5-5 4.9-1 .3-3.2 2.4-4.8 4.7-4.5 6.3-32.9 34.7-35.3 35.2-1.2.3-65.5.4-143.1.3l-141-.3-.3-82.2-.2-82.2 5.7-.3c3.2-.2 16.2-.2 28.8-.1 12.7 0 39 .2 58.5.2z"/><path fill="#2e3338" d="M198 302.2c0 .6-.3.8-.7.5-.3-.4-1.2.5-2 2-1.2 2.3-1.3 14.8-.9 79.8.3 42.3.8 79.1 1.2 81.7.8 5.7 2.2 7 6.5 6.6 2.7-.2 3.4-.9 4.1-3.3 1.2-4.1 1.8-52.4.7-53.1-.5-.3-.7-1.5-.5-2.7.7-2.9 1.9-40.5 1.5-43.7-.3-2.7-.3-5.3 0-24.9.1-6.8-.2-12.7-.6-13-.5-.3-.6-4.9-.3-10.1.7-11.7-.1-17.9-2.6-19.7-2.2-1.6-6.4-1.7-6.4-.1z"/><path fill="#2e3338" d="M241 307.2c-2.1 3.5-2.7 11.2-1 12.3 1.4.9 1.3 4.2-.2 4.7-.9.3-.9 1.2 0 3.8.9 2.4.9 3.6.1 4.6-.8 1-.8 2.2-.1 4.1 1.1 2.8 1.2 8.3.1 8.3-1.1 0-.9 18.2.2 19.6.8 1 .8 1.4 0 1.4-1.5 0-1.5 8.7 0 9.6.8.5.9 3.1.5 8.3-1.3 15-1.8 30.1-1 31.8 1.1 2.7 1.4 9.3.3 9.3-.6 0-.9 5.2-.7 13 .2 9.8.6 13.1 1.6 13.5.9.3 1.1 1.2.6 2.7-.4 1.3-.7 3-.7 3.8 0 .8-.5 2.1-1 2.9-.8 1-.7 1.6.5 2.5 1.3.9 1.7 3 1.7 9.5v8.2l-3.7-.2c-2-.1-4.4.1-5.2.4-.8.3-2.6.8-4 1.1-4.2.9-6.3 9.6-2.3 9.6.8 0 1.2.4.8 1-1.1 1.9 6.9 3 16 2.1 5-.4 9.2-.4 9.5 0 .6.9 53.5 1.1 60.1.3 6-.8 10.2-4.2 9.7-8-.2-1.5-1-3-1.8-3.4-.8-.4-2.4-1.1-3.5-1.7-2.4-1.2-54.6-1.6-57.7-.4-1.1.4-3.2.5-4.7.3l-2.6-.4.2-11.4c.1-6.2.4-11.8.8-12.4.3-.5.4-1.3.1-1.8-.2-.4-.6-33.4-.8-73.2-.5-80.2-.3-78.2-6.5-78.8-2.8-.3-3.6.2-5.3 3z"/><path fill="#2e3338" d="M101.9 482.1c-1.5.5-2.9 1.8-3.2 2.7l-1.1 3.3c-.7 1.7 1.8 5 4.9 6.6 1.2.6 16.1.9 37.8.9l35.9-.1 1.9-2.4c2.8-3.4 2.5-7.6-.9-9.9-2.6-1.9-4.2-2-27.2-1.7-13.5.2-25.2.4-26 .5-.8.1-5.5-.1-10.5-.4-5.3-.3-10.1-.1-11.6.5z"/></svg>