<svg version="1.0" xmlns="http://www.w3.org/2000/svg" viewBox="0 0 500 500"><path fill="#2e3338" d="M215 4l-6 1c-6 0-12 6-13 11a208 208 0 001 51c2 3 5 2 8 0 2-2 2-4 2-23V21c1-1 3-2 11-2 9-1 10-1 12 1l5 1 4 1v23c0 18 1 23 2 24l1 4c0 3 1 4 3 6 2 3 5 3 5 1l1-1 3-3c1-4 2-20 1-24V33c1-16 1-17-2-22-3-6-4-7-19-7a206 206 0 01-20-1z"/><path fill="#2e3338" d="M78 97c-7 1-13 3-17 8-2 2-2 3-3 17a2758 2758 0 004 160c5 6 6 6 33 6a525 525 0 0151 0h11c1 1 190 0 197-1 9-1 13-3 36-27a219 219 0 0027-32l3-3c1 1 5-2 9-7 7-7 12-15 12-19l1-3c2-2-1-9-6-15-8-8-14-17-15-19l-3-2-1-1-3-4-3-4-3-3-2-3-2-2-3-3-6-7-4-6-1-1-3-2v-2-1l-3-2-1-1c0-2-8-12-13-17l-5-4H78zm86 13h114c87 0 80-1 85 6 3 6 21 28 26 33l10 10 8 9 13 14 9 9-1 6c0 5-1 6-5 10a219 219 0 00-27 28l-5 4c-5 7-33 35-35 35l-144 1-141-1V110h93z"/><path fill="#2e3338" d="M198 302l-1 1-2 2-1 79 2 82c0 6 2 7 6 7 3 0 3-1 4-3a416 416 0 000-56 575 575 0 001-92c1-12 0-18-3-20h-6z"/><path fill="#2e3338" d="M241 307c-2 4-3 11-1 12v5 9 12 21 10l1 8a181 181 0 00-1 41l-1 13c0 10 1 13 2 14v6l-1 3v2c2 1 2 3 2 10v8h-9l-4 1c-4 1-6 10-2 10l1 1c-2 2 6 3 16 2h69c6 0 10-4 10-8l-2-3-3-2a462 462 0 00-63 0h-2v-12a69 69 0 011-14l-1-73c-1-80 0-78-7-79-2 0-3 0-5 3z"/><path fill="#2e3338" d="M102 482l-3 3-1 3c-1 2 1 5 5 7l37 1h36l2-3c3-3 3-7-1-10a1354 1354 0 00-75-1z"/></svg>