<svg id="Layer_1" data-name="Layer 1" xmlns="http://www.w3.org/2000/svg" viewBox="0 0 24 24"><defs><style>.cls-1{fill:#fff}</style></defs><path class="cls-1" d="M21.7 8h-.2c0 .1 0 0-.1 0v.1h0c-.1 0 0 0 0 0v.1h.1a.6.6 0 01-.1 0c-.2 0 0 .1 0 .1h.1c-.2 0 0 0 0 0 .1.1 0 .2-.1.1h-.1c-.1 0-.1 0 0 0l-.4.3h-.1a.3.3 0 01.1 0v.1h-.1-.1-.2-.3c-.2 0-.1 0 0 .1h-.4c.1 0 0 0 0 0h-.2-.2V9H19h-.1a.2.2 0 00-.1 0h-.1-.1a.3.3 0 00-.1 0h-.3a.5.5 0 00-.2 0h-.1a.1.1 0 00-.1 0h-.3-.2a1.5 1.5 0 01-.3 0 .5.5 0 01-.2 0h-.1a.4.4 0 00-.2 0h-.1v-.1h-.2a.7.7 0 00-.4 0h-.1a.3.3 0 00-.2 0h-.1a.3.3 0 00-.3 0h-.4a1 1 0 00-.2 0h-.6a1.8 1.8 0 01-.4-.1.3.3 0 01-.2 0 .7.7 0 01-.2 0h-.7-.2a.5.5 0 00-.2 0h-.4s-.2 0 0 0h-.3a.8.8 0 00-.2 0h-.4-.2-.2V9H10 10h-.2v-.1h-.2c.1.1-.1.2-.2 0a.3.3 0 00-.3 0 1.2 1.2 0 01-.2 0c-.2 0-.2 0 0 .1.1 0 .1.1-.2 0h-.1-.3c-.1 0-.1 0 0 0 .2 0 .1 0 0 0h-.1c.2 0 .2 0 0-.2a.3.3 0 00-.4 0v.1c-.2 0-.2-.1 0-.1h-.4.1c.1 0 0 0 0 0h-.3c.1-.1.1-.1 0 0h-.3-.2l-.3.2h-.7a.1.1 0 01-.1 0 .1.1 0 01-.1 0H5C5 9 5 9 5 9h-.2-.4v-.1h-.3-.5l-.1-.1c-.1 0-.2-.1-.1-.2h0a.5.5 0 00-.1 0h-.1c-.1 0-.1 0 0 0H3L3 8.2c-.1 0 0 0 0 0h.2v-.1h.2c-.1 0-.1 0 0 0h-.2H3h-.2-.1V8h-.1V8v-.1a.7.7 0 00.2 0 .6.6 0 00-.2 0v-.1h-.2v-.2-.1-.1H2.8c-.1 0-.1 0 0 0a.6.6 0 01-.2-.1H2.8l-.3-.1h.1V7h.2A.2.2 0 003 7V7a.1.1 0 010-.1.3.3 0 00.2 0H3v-.1h.1v-.1a.2.2 0 01.1 0 .2.2 0 00.2 0v-.1a.2.2 0 01.1 0c.1 0 .2 0 .1-.1h.2a.1.1 0 000-.1h.4a.2.2 0 01.2 0H5a.9.9 0 01.2 0c0-.1.2-.1.2 0h.2c.1 0 0 0 0 0a.2.2 0 00.1 0h.1v.1h.8a.3.3 0 01.2 0h.4a2.4 2.4 0 01-.4 0c0-.1 0-.1-.1 0a1.3 1.3 0 00-.2 0l.1-.1h.7l.1.1h-.2a.5.5 0 00.3 0h.2a3.1 3.1 0 01.5 0h.5c-.2 0-.2 0 0 0h.1c.1 0 0 .1 0 .1a1.6 1.6 0 01-.3 0c-.1 0-.1 0 0 .1a1 1 0 00.5 0 .7.7 0 00.2 0c.2-.1.2-.2.1-.2-.2 0-.2 0 0 0a.3.3 0 00.1 0v-.1h.4a1 1 0 00.2 0 .4.4 0 00.1 0h.2a.6.6 0 01.2 0h.4v.1l.5-.2h.5c-.1 0 0 .1 0 .1h1s.1 0 0 0a13.3 13.3 0 00.8 0 1.9 1.9 0 01.5 0 1.1 1.1 0 01.5 0c.3 0 .4 0 .3.1v.1a1.1 1.1 0 00.4 0l.1-.1h.3a1.5 1.5 0 01.3 0h.5a.6.6 0 00.2 0h-.1s0-.1.2 0v-.1h-.2.4s0-.1.1 0a.3.3 0 01.1 0 .2.2 0 01.2 0h.1a.3.3 0 00.2 0 .5.5 0 01.2 0h.1-.1.3a.4.4 0 01.2 0 .2.2 0 01.1 0h.3a1.3 1.3 0 01.2 0H19.3a.1.1 0 010-.1H19.8s.1 0 0 0h.4v.1a.2.2 0 01.2 0 .3.3 0 000 .1h.1v.1a.2.2 0 00.1 0h.2v.1h.2c-.1.1 0 .1 0 .1h.2V7h.2V7a.2.2 0 01.1 0h.1a.2.2 0 01.1 0 .7.7 0 00-.1 0h.1a.2.2 0 00-.1.1.4.4 0 01.1 0v.2a.1.1 0 01-.1 0v.1h.1a.3.3 0 00-.2.1h.2a.8.8 0 01-.1 0v.1a.9.9 0 01-.1 0 .5.5 0 00.2 0c.2 0 .2 0 0 0-.1 0 0 .1 0 .1v.1a2 2 0 01-.3 0c.1 0 .1 0 0 0h.1c0 .1 0 .1 0 0a.6.6 0 01.2.1z"/><path class="cls-1" d="M17.8 11.8v-.1-.2h-.1v-.1h-.2s.1 0 0 0c.1 0 0-.1 0 0v-.1h.1v-.4-.1h-.1v-.1a.1.1 0 00.1-.1v-.1c0-.1.2 0 0 0v-.1l.2-.1V10h.1V10c.1 0 0-.1 0-.1h.1c.1 0 .1-.1.1 0v-.2h.2l.1-.2.2-.1.1-.2h.1a.5.5 0 01.1-.2.2.2 0 010-.1h.1a.1.1 0 00.1-.1h.1v-.1l.2-.2h.1a.1.1 0 000-.1c0-.1 0-.1 0 0 .2 0 .2-.1.2-.2l.2-.1.1-.1.1-.1v-.1h.1c0-.1 0-.1 0 0v-.1-.1H20v-.1-.2h-.2a.1.1 0 00-.2-.2.4.4 0 010-.1c0-.1-.1-.1-.1 0s0 .2-.1 0l-.1-.3c0 .1 0 .2 0 0-.2 0-.2-.1 0 0l-.1-.2v-.1-.2c0 .1 0 0-.1 0s-.2 0 0 0V6h-.3V6h-.3c0-.2-.1-.2 0-.2l-.2-.1v-.1a.3.3 0 00-.1 0h-.1v-.1c-.1-.1-.1-.1 0-.1H18v-.1l-.1-.1V5l-.2-.1v-.1c-.2 0-.2-.2-.1-.2v-.2h.1a.2.2 0 00-.1 0v-.1-.1V4 4h.1l.1.1c.1 0 0 0 0 0V4h-.1c-.1-.1-.1-.1 0-.1h-.1v-.2s.1 0 0 0c.1-.1.1 0 .2 0v-.1-.1l.1-.1v-.1s0-.1 0 0h.1c0-.1 0-.1 0 0l.1-.1.1.1a.3.3 0 010-.2v.1c.1 0 0 0 0-.1h.4s.1 0 0 0h.2V3h.1v.1h.4l.1.1a.1.1 0 00.1 0l.1.1.1.1v.1h.1a.3.3 0 01.1.1l.1.1v.1c.1 0 0 0 0 0V4a1.2 1.2 0 00.1.2h.1c.1 0 .1 0 0 .1h.1l.1.2h.2v.1l-.1-.2a.6.6 0 00-.2 0c0-.1 0-.1.1 0 .3 0 .3.2.3.2v.1h-.2l.1.1h.2a1 1 0 01.2.2l.2.3h-.1v0c0-.1-.2 0-.2 0 0 .1.2.3.3.2.2.1.2.1.2 0h.2v.2a.4.4 0 00.1.1h.1a.3.3 0 01.1.1.7.7 0 01.2.3l.2.2v.1l.5.4v.7c.1 0 .1 0 0 0v.2a1 1 0 010 .1v.5h-.1a1.2 1.2 0 01-.2.4l-.3.3a2.4 2.4 0 01-.4.3.4.4 0 01-.2.2c-.1.1-.2.2-.2 0a.4.4 0 00-.1.2v.1l-.1.2a.5.5 0 01-.2.1v.1l-.2.1a.2.2 0 000 .1v.1c.1 0 0 0 0 0 0 .2-.1.2 0 .2h-.1l-.1.1h-.1a.1.1 0 000 .2h-.1v.1h-.2a.2.2 0 010 .2l-.2.1a.5.5 0 010 .1H20v.1l-.2.2h-.1v.2h-.2a.2.2 0 00-.2 0h-.1v.1H18.8c0 .1 0 0-.1 0 0 .1 0 0 0 0h-.1s-.1.1-.1 0v.1h-.1a.1.1 0 01-.1 0h-.1V12c0-.1 0-.1 0 0V12h-.1-.1v-.1H18c0 .1 0 0 0 0s-.2 0-.1-.1a.7.7 0 010-.1h-.1zM2.5 16h.2c0-.1 0 0 0 0h.1v-.1h-.1.1v-.1h-.1a.6.6 0 01.1 0c.2 0 0-.1 0-.1h-.2.1c.1 0 0 0 0 0-.1-.1 0-.2 0-.1H3c.1 0 .1 0 0 0l.4-.3h.1a.3.3 0 01-.1 0c-.1 0 0-.1 0-.1h.1c.2 0 .2 0 0 0h.2a.3.3 0 00.1 0s.1-.1.2 0 .2 0 0-.1H4.6a.1.1 0 01.1 0h.1l.1-.1c.1 0 .1 0 0 0h.5a.2.2 0 00.1 0h.1s.1 0 0 0h.1a.3.3 0 00.1 0H6a.5.5 0 00.3 0h.1a.1.1 0 00.1 0H7a1.5 1.5 0 01.2 0 .5.5 0 01.3 0h.1a.4.4 0 00.2 0h.1v.1H8a.7.7 0 00.3 0h.2a.3.3 0 00.2 0h.1a.3.3 0 00.3 0h.4a1 1 0 00.1 0h.7a1.8 1.8 0 01.4.1.3.3 0 01.2 0 .7.7 0 01.2 0H12a.5.5 0 00.2 0h.4s.1 0 0 0h.2a.8.8 0 00.3 0H13.8l.2-.1c-.1 0-.1 0 0 0H14.3l.1.1h.2c-.1-.1 0-.2.2 0a.3.3 0 00.3 0 1.2 1.2 0 01.1 0c.2 0 .3 0 .1-.1-.2 0-.1-.1.1 0h.5c.1 0 .1 0 0 0-.2 0-.2 0 0 0h.1c-.2 0-.2 0 0 .2a.3.3 0 00.4 0v-.1c.2 0 .2.1 0 .1H16.8c-.2 0 0 0 0 0h.2c0 .1 0 .1.1 0h.4l.3-.2h.8a.1.1 0 01.1 0 .1.1 0 01.1 0h1v.1h.8v.1h.1s.2.1 0 .2h-.1.2a.5.5 0 00.1 0 .2.2 0 00.1 0h.2l.1.2c.1 0 0 0 0 0H21l-.1.1h-.1s.1 0 0 0H21.6v.1h.1v.1l-.1.1a.7.7 0 00-.1 0 .6.6 0 00.2 0v.1h.1V16.5c.2 0 .2 0 0 0v.1h-.3.1a.6.6 0 01.2.1h-.2-.1l.2.1s-.1 0 0 0v.1h-.2a.2.2 0 00-.2 0h.1v.1a.1.1 0 010 .1.3.3 0 00-.2 0v.2a.2.2 0 01-.2 0l-.2.1h-.1s-.1 0 0 .1h-.1-.1a.1.1 0 000 .1H20a.2.2 0 01-.2 0H19.4h-.2a.9.9 0 01-.2 0c0 .1-.2.1-.2 0h-.2c-.1 0 0 0 0 0a.2.2 0 00-.1 0h-.1v-.1h-.3-.3-.2a.3.3 0 01-.2 0h-.1H17a2.4 2.4 0 01.4 0c0 .1 0 .1.1 0a1.3 1.3 0 00.2 0l-.2.1H17l-.1-.1h.2a.5.5 0 00-.3 0h-.2a3.1 3.1 0 01-.5 0h-.6.1c.1 0 .1 0 0 0h-.2c-.2 0 0-.1 0-.1a1.6 1.6 0 01.4 0s.1 0 0-.1a1 1 0 00-.5 0 .7.7 0 00-.2 0c-.2.1-.2.2-.1.2.2 0 .2 0 0 0a.3.3 0 00-.1 0l-.1.1h-.3a1 1 0 00-.2 0 .4.4 0 00-.1 0H14a.6.6 0 01-.3 0H13.4v-.1l-.5.2a.3.3 0 01-.1 0h-.4v-.1H12 12a.2.2 0 01-.1 0h-.1-.2H11.3h-.8a1.9 1.9 0 01-.4 0 1.1 1.1 0 01-.5 0c-.3 0-.4 0-.3-.1v-.1h-.1a1.1 1.1 0 00-.3 0l-.1.1h-.3a1.5 1.5 0 01-.3 0h-.5a.6.6 0 00-.2 0s0 .1 0 0c-.1.1-.1.1 0 .1h-.4c.1 0 0 .1 0 0a.3.3 0 01-.1 0 .2.2 0 01-.2 0 .1.1 0 01-.1 0 .3.3 0 00-.2 0 .5.5 0 01-.3 0h.1-.1H6a.4.4 0 01-.2 0 .2.2 0 01-.2 0h-.2a1.3 1.3 0 01-.2 0H5 5a.1.1 0 010 .1H4.3h-.1-.1H4l-.1-.1c-.1 0-.1 0 0 0a.2.2 0 01-.2 0 .3.3 0 000-.1h-.1s0-.2-.1-.1h-.2v-.1h-.1-.1v-.1H3s-.1 0 0 0h-.2a.5.5 0 01.1 0V17h-.1-.1s-.1 0 0 0V17a.2.2 0 01-.2 0 .2.2 0 01-.1 0 .7.7 0 00.1 0h-.1a.2.2 0 000-.1h-.1v-.1a.3.3 0 00.1 0v-.1a.1.1 0 01.1 0v-.1h-.1.1-.2.1a.3.3 0 00.1-.1h-.1a.8.8 0 01.1 0v-.1a.9.9 0 01.1 0 .5.5 0 00-.2 0c-.2 0-.2 0 0 0 .1 0 0-.1 0-.1s-.1-.1 0-.1a2 2 0 01.2 0c-.1-.1-.1-.1-.1 0a.6.6 0 01-.1-.1z"/><path class="cls-1" d="M6 20.8h-.1-.1s0 .1 0 0h-.1v.1c-.1-.1-.1 0-.1 0v.1s-.1 0 0 0c0 0-.1-.1-.1 0 0-.1-.1 0-.1 0h-.3H5c0-.1 0 0 0 0l-.1-.1a.1.1 0 00-.1 0v-.1c0-.1-.1-.1-.1 0l-.2-.2c0 .1 0 0 0 0h-.1v-.1h-.1-.1c0-.1 0 0 0 0v-.1l-.1-.1c-.1-.1-.1-.1 0-.1H4V20l-.1-.1-.2-.1v-.1l-.2-.2a.5.5 0 01-.1-.2.2.2 0 01-.1 0v-.1a.1.1 0 00-.1-.1V19H3l-.1-.2s-.1-.1 0-.1a.1.1 0 00-.2-.1l-.2-.2v-.2a.4.4 0 00-.1 0l-.1-.2-.2-.2a2 2 0 01-.3-.3.4.4 0 01-.2-.2.5.5 0 010-.2h-.1c-.2 0-.2 0-.2-.2s-.1-.4 0-.4v-.1a.7.7 0 000-.2c-.1 0-.1-.2 0-.4v-.1l.1-.1.1-.3a.7.7 0 01.2-.2l.1-.1.1-.2.1-.1v-.1-.1h.2c.1-.1.1-.1.2 0v-.1c-.1-.1 0-.2 0-.2a.1.1 0 00.2-.1c.1-.2.1-.2 0-.2 0 0-.1 0 0 0l.1-.1.2-.1c-.1 0-.1 0 0 0 0-.2.1-.2 0 0h.1c.2 0 .2 0 .1-.1v-.1l.2.1h.1c0-.1 0-.1 0 0-.1 0 0-.1 0-.2 0 0 0-.1 0 0h.1c0-.1.1-.2 0-.2V13h.1c0-.2.2-.2.2-.2l.1-.1a.3.3 0 000-.1c0-.1 0 0 0 0v-.1h.1l.1-.1h.1l.1-.2h.1l.2-.1h.1c0-.2 0-.3.1-.2h.2v.1a.2.2 0 00.1-.1H5.6v.1h.1v-.1H6v.1h.2l.1.1h.1c0 .1 0 .1 0 0 0 0 .1.1 0 .1v.1c0 .1 0 0 0 0a.3.3 0 01.2 0v.1h-.1.1v.2l.1.1v.1a.1.1 0 00-.1 0l.1.1v.6a.1.1 0 00-.1.2v.1h-.1v.1h-.1v.1a.3.3 0 01-.1.1l-.1.1H6c0 .1 0 0 0 0h-.2a1.2 1.2 0 00-.2.2v.1l-.2.1-.1.1v.1c0 .1 0 .1 0 0h.1v-.1a.6.6 0 000-.1l.1.1c0 .2-.2.3-.3.3v-.2L5 15v.1a1 1 0 01-.2.2l-.3.3v-.1h-.1l.1-.1c.1-.1 0-.1 0 0l-.2.1a.3.3 0 000 .2c-.1 0-.1.1 0 0v.2l-.2.2v.1s-.1 0 0 0H4a.2.2 0 01-.1 0l.2.1H4v.1a.4.4 0 01.2.3v.2a.4.4 0 00.2.2h.2a.5.5 0 010 .2l.2.1v.2a.2.2 0 00.2 0v-.1l.2.1c0 .1 0 .1 0 0v.1l.1.1v.1a.1.1 0 00.2 0v.2h.1v.1a.2.2 0 01.2 0v.1l.1.1a.5.5 0 01.1.2h.1l.2.2v.2h.1v.2a.2.2 0 000 .1v.2h0v.1h.1v.1c-.1 0-.1 0 0 0v.4h.1a.3.3 0 00-.1 0v.2h-.2v.1h-.1v.1a.4.4 0 01-.1 0v.1c0 .1 0 .2-.2.1v.1z"/></svg>