<svg xmlns="http://www.w3.org/2000/svg" viewBox="0 0 100 125"><path fill="#2E3338" d="M88 50a38 38 0 10-17.6 32l2.2 3.2a6.1 6.1 0 008.3 1.8 6.5 6.5 0 002.8-3.9 6 6 0 00-.9-4.7l-3-4.5a5.5 5.5 0 004.3-4c.3-1.1.3-2.3 0-3.3C86.6 61.6 88 56 88 50zm-9.2-18H67.5a60 60 0 00-5.9-14 34 34 0 0117.2 14zM53.4 55.4l2.2 8.6H35.7c-.9-3.9-1.3-7.9-1.5-12h19.3a5.6 5.6 0 00-.1 3.4zM34.2 48c.1-4.1.7-8.1 1.6-12h28.5c.9 3.9 1.3 7.9 1.5 12H34.2zM50 16c2 0 3.9.2 5.8.5 3.3 4.5 5.8 9.8 7.5 15.5H36.9c1.8-5.8 4.4-11 7.9-15.6 1.7-.3 3.4-.4 5.2-.4zm-11.1 1.9A61.6 61.6 0 0032.7 32H21.2a33.9 33.9 0 0117.7-14.1zM19 36h12.7c-.8 3.9-1.4 7.9-1.5 12H16.1c.2-4.3 1.3-8.3 2.9-12zm-2.9 16h14.2c.1 4.1.6 8.1 1.4 12H19a34.1 34.1 0 01-2.9-12zm5.1 16h11.4a60 60 0 005.9 14 33.8 33.8 0 01-17.3-14zm34 15.6a29.6 29.6 0 01-11-.1A50.7 50.7 0 0136.7 68h19.8l2.5 9.8c-1.1 2-2.4 4-3.8 5.8zm5.9-1.5zm17.6-12l-6 .3 1.9 3 4.8 7.3a2 2 0 01-.7 3l-.5.2h-.1l-.4.1h-.1l-.5-.1H77l-.3-.1-.1-.1-.3-.2-.1-.1-.3-.4-2.2-3.3-4.7-7-2.3 5.8-.3.5-.1.1-.3.2-.2.1-.3.1h-.4H64.5l-.3-.2-.1-.1-.4-.4-.3-.6-1.7-6.2-.4-1.4-4.1-16.2v-.5-.1l.1-.3v-.1l.2-.4.3-.3.1-.1.3-.1h.1l.4-.1H59.3l.5.2 5.6 4 3.7 2.7 6.6 4.7 3.9 2.8c1.4 1 .8 3.2-.9 3.3zm2.7-7l-11.7-8.4.1-2.7H84c-.3 3.9-1.2 7.7-2.6 11.1zM69.8 48c-.1-4.1-.6-8.1-1.4-12H81c1.7 3.7 2.7 7.7 3 12H69.8z"/></svg>